<svg width="354" height="28" viewBox="0 0 354 28" fill="none" xmlns="http://www.w3.org/2000/svg">
<path d="M0.723644 28V0.639999H22.0036C23.3716 0.639999 24.537 1.12133 25.4996 2.084C26.4623 3.04666 26.9436 4.212 26.9436 5.58V11.166C26.9436 11.4953 26.9056 11.8247 26.8296 12.154C26.779 12.4833 26.6776 12.7873 26.5256 13.066C27.0323 13.7753 27.4123 14.434 27.6656 15.042C27.9443 15.65 28.0836 16.2833 28.0836 16.942V23.06C28.0836 24.428 27.5896 25.5933 26.6016 26.556C25.639 27.5187 24.4736 28 23.1056 28H0.723644ZM6.23364 23.896H22.5356C23.093 23.896 23.4603 23.8073 23.6376 23.63C23.8403 23.4273 23.9416 23.0473 23.9416 22.49V17.512C23.9416 16.9547 23.8403 16.5873 23.6376 16.41C23.4603 16.2073 23.093 16.106 22.5356 16.106H6.23364C5.67631 16.106 5.29631 16.2073 5.09364 16.41C4.91631 16.5873 4.82764 16.9547 4.82764 17.512V22.49C4.82764 23.0473 4.91631 23.4273 5.09364 23.63C5.29631 23.8073 5.67631 23.896 6.23364 23.896ZM6.23364 12.002H21.4336C21.991 12.002 22.3583 11.9133 22.5356 11.736C22.713 11.5333 22.8016 11.1533 22.8016 10.596V6.15C22.8016 5.59267 22.713 5.22533 22.5356 5.048C22.3583 4.84533 21.991 4.744 21.4336 4.744H6.23364C5.67631 4.744 5.29631 4.84533 5.09364 5.048C4.91631 5.22533 4.82764 5.59267 4.82764 6.15V10.596C4.82764 11.1533 4.91631 11.5333 5.09364 11.736C5.29631 11.9133 5.67631 12.002 6.23364 12.002ZM47.4648 28V0.601999H51.5688V23.896H74.8248V28H47.4648ZM97.1041 28C95.7361 28 94.5708 27.5187 93.6081 26.556C92.6454 25.5933 92.1641 24.428 92.1641 23.06V0.639999H96.2681V22.49C96.2681 23.0473 96.3568 23.4273 96.5341 23.63C96.7368 23.8073 97.1168 23.896 97.6741 23.896H113.976C114.559 23.896 114.939 23.8073 115.116 23.63C115.293 23.4273 115.382 23.0473 115.382 22.49V0.639999H119.524V23.06C119.524 24.428 119.03 25.5933 118.042 26.556C117.079 27.5187 115.927 28 114.584 28H97.1041ZM138.985 28V0.639999H164.065V4.744H143.127V12.23H159.961V16.372H143.127V23.896H164.065V28H138.985ZM182.238 28V0.639999H187.14L197.742 13.256L208.306 0.639999H213.246V28H209.104V6.15L197.742 19.678L186.342 6.15V28H182.238ZM237.556 28C236.188 28 235.022 27.5187 234.06 26.556C233.097 25.5933 232.616 24.428 232.616 23.06V5.58C232.616 4.212 233.097 3.04666 234.06 2.084C235.022 1.12133 236.188 0.639999 237.556 0.639999H255.036C256.378 0.639999 257.531 1.12133 258.494 2.084C259.482 3.04666 259.976 4.212 259.976 5.58V23.06C259.976 24.428 259.482 25.5933 258.494 26.556C257.531 27.5187 256.378 28 255.036 28H237.556ZM238.126 23.896H254.428C254.985 23.896 255.352 23.8073 255.53 23.63C255.732 23.4273 255.834 23.0473 255.834 22.49V6.15C255.834 5.59267 255.732 5.22533 255.53 5.048C255.352 4.84533 254.985 4.744 254.428 4.744H238.126C237.568 4.744 237.188 4.84533 236.986 5.048C236.808 5.22533 236.72 5.59267 236.72 6.15V22.49C236.72 23.0473 236.808 23.4273 236.986 23.63C237.188 23.8073 237.568 23.896 238.126 23.896ZM284.224 28C282.856 28 281.691 27.5187 280.728 26.556C279.766 25.5933 279.284 24.428 279.284 23.06V5.58C279.284 4.212 279.766 3.04666 280.728 2.084C281.691 1.12133 282.856 0.639999 284.224 0.639999H301.704C303.047 0.639999 304.2 1.12133 305.162 2.084C306.15 3.04666 306.644 4.212 306.644 5.58V23.06C306.644 24.428 306.15 25.5933 305.162 26.556C304.2 27.5187 303.047 28 301.704 28H284.224ZM284.794 23.896H301.096C301.654 23.896 302.021 23.8073 302.198 23.63C302.401 23.4273 302.502 23.0473 302.502 22.49V6.15C302.502 5.59267 302.401 5.22533 302.198 5.048C302.021 4.84533 301.654 4.744 301.096 4.744H284.794C284.237 4.744 283.857 4.84533 283.654 5.048C283.477 5.22533 283.388 5.59267 283.388 6.15V22.49C283.388 23.0473 283.477 23.4273 283.654 23.63C283.857 23.8073 284.237 23.896 284.794 23.896ZM326.029 28V0.639999H330.931L349.247 22.452V0.639999H353.389V28H348.487L330.133 6.15V28H326.029Z" fill="#2D89EF"/>
</svg>
