<svg width="78" height="78" viewBox="0 0 78 78" fill="none" xmlns="http://www.w3.org/2000/svg">
<path d="M78 39C78 60.5391 60.5391 78 39 78C17.4609 78 0 60.5391 0 39C0 17.4609 17.4609 0 39 0C60.5391 0 78 17.4609 78 39ZM2.34 39C2.34 59.2468 18.7532 75.66 39 75.66C59.2468 75.66 75.66 59.2468 75.66 39C75.66 18.7532 59.2468 2.34 39 2.34C18.7532 2.34 2.34 18.7532 2.34 39Z" fill="#2B5797"/>
<path d="M63 39C63 52.2548 52.2548 63 39 63C25.7452 63 15 52.2548 15 39C15 25.7452 25.7452 15 39 15C52.2548 15 63 25.7452 63 39Z" fill="#2B5797"/>
<circle cx="12" cy="12" r="10.5" fill="#2D89EF" stroke="#E4EAF5"/>
</svg>
