<svg width="1000" height="450" viewBox="0 0 1000 450" fill="none" xmlns="http://www.w3.org/2000/svg">
<path opacity="0.17" d="M7.434 94.5H4.434V97.5H7.434V94.5ZM7.434 3.77999V0.779995H4.434V3.77999H7.434ZM94.248 42.21L91.2888 41.7168L91.2888 41.7168L94.248 42.21ZM93.366 45.108L90.6349 43.8666L89.9049 45.4725L90.9535 46.8912L93.366 45.108ZM96.768 51.156L93.9826 52.2702L94.0015 52.3175L94.0221 52.3642L96.768 51.156ZM80.892 77.364L82.692 79.764L82.8626 79.6361L83.0133 79.4853L80.892 77.364ZM80.892 57.204L78.7707 59.3253L78.9214 59.4761L79.092 59.604L80.892 57.204ZM24.444 77.364L22.044 79.164L22.3011 79.5069L22.644 79.764L24.444 77.364ZM77.112 39.564L79.2333 41.6853L79.2333 41.6853L77.112 39.564ZM77.112 21.042L74.712 22.842L74.9692 23.1849L75.312 23.442L77.112 21.042ZM24.444 21.042L26.5653 23.1633L26.5653 23.1633L24.444 21.042ZM24.444 39.564L22.044 41.364L22.3011 41.7069L22.644 41.964L24.444 39.564ZM10.434 94.5V3.77999H4.434V94.5H10.434ZM7.434 6.77999H76.986V0.779995H7.434V6.77999ZM76.986 6.77999C80.9631 6.77999 84.3204 8.17504 87.2127 11.0673L91.4553 6.82468C87.4596 2.82895 82.5849 0.779995 76.986 0.779995V6.77999ZM87.2127 11.0673C90.105 13.9596 91.5 17.3169 91.5 21.294H97.5C97.5 15.6951 95.451 10.8204 91.4553 6.82468L87.2127 11.0673ZM91.5 21.294V39.06H97.5V21.294H91.5ZM91.5 39.06C91.5 39.998 91.4279 40.8825 91.2888 41.7168L97.2072 42.7032C97.4041 41.5215 97.5 40.306 97.5 39.06H91.5ZM91.2888 41.7168C91.1636 42.4683 90.9458 43.1826 90.6349 43.8666L96.0971 46.3494C96.6262 45.1854 96.9964 43.9677 97.2072 42.7032L91.2888 41.7168ZM90.9535 46.8912C92.2385 48.6298 93.2435 50.4225 93.9826 52.2702L99.5534 50.0418C98.6125 47.6895 97.3495 45.4502 95.7785 43.3248L90.9535 46.8912ZM94.0221 52.3642C94.7942 54.119 95.154 55.8092 95.154 57.456H101.154C101.154 54.9028 100.59 52.393 99.5139 49.9478L94.0221 52.3642ZM95.154 57.456V76.986H101.154V57.456H95.154ZM95.154 76.986C95.154 80.9631 93.759 84.3204 90.8667 87.2127L95.1093 91.4553C99.105 87.4596 101.154 82.5849 101.154 76.986H95.154ZM90.8667 87.2127C87.9855 90.0939 84.5906 91.5 80.514 91.5V97.5C86.1814 97.5 91.1025 95.4621 95.1093 91.4553L90.8667 87.2127ZM80.514 91.5H7.434V97.5H80.514V91.5ZM28.476 80.742H76.986V74.742H28.476V80.742ZM76.986 80.742C78.1576 80.742 79.1607 80.7102 79.9525 80.6335C80.3449 80.5956 80.7523 80.5405 81.1335 80.4525C81.4187 80.3867 82.0816 80.2218 82.692 79.764L79.092 74.964C79.3516 74.7693 79.5726 74.6797 79.6506 74.6499C79.7438 74.6144 79.7965 74.6034 79.7843 74.6062C79.756 74.6127 79.6331 74.6364 79.3745 74.6614C78.8643 74.7108 78.0824 74.742 76.986 74.742V80.742ZM83.0133 79.4853C83.634 78.8647 83.882 78.1316 83.986 77.785C84.1155 77.3534 84.194 76.899 84.2468 76.4761C84.3535 75.623 84.396 74.5562 84.396 73.332H78.396C78.396 74.4598 78.3545 75.241 78.2932 75.7319C78.262 75.981 78.2355 76.0726 78.239 76.061C78.2418 76.0518 78.266 75.9709 78.3269 75.8491C78.3832 75.7364 78.5159 75.4975 78.7707 75.2427L83.0133 79.4853ZM84.396 73.332V61.11H78.396V73.332H84.396ZM84.396 61.11C84.396 59.889 84.3538 58.826 84.2453 57.9856C84.192 57.5724 84.1101 57.108 83.9662 56.6644C83.8642 56.35 83.556 55.452 82.692 54.804L79.092 59.604C78.701 59.3107 78.4943 58.9918 78.4054 58.8361C78.31 58.6691 78.2688 58.5462 78.2588 58.5154C78.2409 58.4602 78.264 58.5156 78.2947 58.7534C78.3542 59.215 78.396 59.979 78.396 61.11H84.396ZM83.0133 55.0827C82.406 54.4754 81.6939 54.2247 81.3411 54.1162C80.9121 53.9842 80.463 53.9043 80.0474 53.8507C79.2101 53.7426 78.1705 53.7 76.986 53.7V59.7C78.0695 59.7 78.8149 59.7414 79.2796 59.8013C79.5151 59.8317 79.5962 59.8568 79.5766 59.8508C79.5633 59.8467 79.4811 59.8212 79.3597 59.7594C79.2458 59.7014 79.016 59.5707 78.7707 59.3253L83.0133 55.0827ZM76.986 53.7H28.476V59.7H76.986V53.7ZM28.476 53.7C27.2518 53.7 26.185 53.7425 25.3319 53.8492C24.909 53.902 24.4546 53.9805 24.023 54.11C23.6764 54.214 22.9433 54.462 22.3227 55.0827L26.5653 59.3253C26.3105 59.5801 26.0716 59.7128 25.9589 59.7692C25.8371 59.83 25.7562 59.8542 25.747 59.857C25.7354 59.8605 25.827 59.834 26.0761 59.8028C26.567 59.7415 27.3482 59.7 28.476 59.7V53.7ZM22.3227 55.0827C21.6166 55.7888 21.4159 56.666 21.3636 56.8808C21.2685 57.2721 21.2122 57.6903 21.1745 58.0805C21.0976 58.8746 21.066 59.9005 21.066 61.11H27.066C27.066 59.9675 27.0974 59.1664 27.1466 58.6585C27.1718 58.3977 27.1943 58.2962 27.1936 58.2989C27.1931 58.3011 27.172 58.3914 27.1128 58.5295C27.0662 58.6383 26.9131 58.9776 26.5653 59.3253L22.3227 55.0827ZM21.066 61.11V73.332H27.066V61.11H21.066ZM21.066 73.332C21.066 74.5439 21.0978 75.5753 21.1736 76.384C21.2112 76.7846 21.2654 77.1975 21.3518 77.5815C21.4146 77.8609 21.5772 78.5416 22.044 79.164L26.844 75.564C27.0457 75.833 27.1362 76.0621 27.1644 76.1374C27.1991 76.2299 27.2091 76.2807 27.2055 76.2645C27.1974 76.2284 27.1728 76.0954 27.1474 75.824C27.0972 75.2887 27.066 74.4721 27.066 73.332H21.066ZM22.644 79.764C23.2664 80.2308 23.9471 80.3934 24.2265 80.4562C24.6104 80.5426 25.0234 80.5968 25.424 80.6344C26.2327 80.7102 27.2641 80.742 28.476 80.742V74.742C27.3359 74.742 26.5193 74.7108 25.984 74.6606C25.7126 74.6352 25.5796 74.6106 25.5435 74.6025C25.5273 74.5989 25.5781 74.6089 25.6706 74.6436C25.7459 74.6718 25.975 74.7623 26.244 74.964L22.644 79.764ZM28.476 42.942H73.332V36.942H28.476V42.942ZM73.332 42.942C74.5011 42.942 75.499 42.9104 76.2765 42.8326C76.6588 42.7944 77.0722 42.7372 77.4616 42.6398C77.6883 42.5831 78.5406 42.378 79.2333 41.6853L74.9907 37.4427C75.3273 37.1061 75.6544 36.9537 75.7678 36.9041C75.9069 36.8433 75.9995 36.8207 76.0064 36.8189C76.0178 36.8161 75.9272 36.8376 75.6795 36.8624C75.197 36.9106 74.4309 36.942 73.332 36.942V42.942ZM79.2333 41.6853C79.854 41.0647 80.102 40.3316 80.206 39.985C80.3355 39.5534 80.414 39.099 80.4668 38.6761C80.5735 37.823 80.616 36.7562 80.616 35.532H74.616C74.616 36.6598 74.5745 37.441 74.5132 37.9319C74.482 38.181 74.4555 38.2726 74.459 38.261C74.4618 38.2518 74.486 38.1709 74.5469 38.0491C74.6032 37.9364 74.7359 37.6975 74.9907 37.4427L79.2333 41.6853ZM80.616 35.532V24.948H74.616V35.532H80.616ZM80.616 24.948C80.616 23.727 80.5738 22.664 80.4653 21.8236C80.412 21.4104 80.3301 20.946 80.1862 20.5024C80.0842 20.188 79.776 19.29 78.912 18.642L75.312 23.442C74.921 23.1487 74.7143 22.8298 74.6254 22.6741C74.53 22.5071 74.4888 22.3842 74.4788 22.3534C74.4609 22.2982 74.484 22.3536 74.5147 22.5914C74.5742 23.0529 74.616 23.817 74.616 24.948H80.616ZM79.512 19.242C78.8782 18.3969 78.0086 18.0841 77.6827 17.9754C77.2406 17.8281 76.7806 17.7445 76.3745 17.6903C75.5492 17.5803 74.5131 17.538 73.332 17.538V23.538C74.4189 23.538 75.1468 23.5797 75.5815 23.6377C75.8054 23.6675 75.8494 23.6889 75.7853 23.6675C75.7497 23.6557 75.6253 23.6124 75.4586 23.5152C75.3012 23.4234 74.9949 23.2192 74.712 22.842L79.512 19.242ZM73.332 17.538H28.476V23.538H73.332V17.538ZM28.476 17.538C27.2518 17.538 26.185 17.5805 25.3319 17.6872C24.909 17.74 24.4546 17.8185 24.023 17.948C23.6764 18.052 22.9433 18.3 22.3227 18.9207L26.5653 23.1633C26.3105 23.4181 26.0716 23.5508 25.9589 23.6072C25.8371 23.668 25.7562 23.6922 25.747 23.695C25.7354 23.6985 25.827 23.672 26.0761 23.6408C26.567 23.5795 27.3482 23.538 28.476 23.538V17.538ZM22.3227 18.9207C21.6166 19.6267 21.4159 20.504 21.3636 20.7188C21.2685 21.1101 21.2122 21.5283 21.1745 21.9185C21.0976 22.7126 21.066 23.7385 21.066 24.948H27.066C27.066 23.8055 27.0974 23.0044 27.1466 22.4965C27.1718 22.2357 27.1943 22.1342 27.1936 22.1369C27.1931 22.1391 27.172 22.2294 27.1128 22.3675C27.0662 22.4763 26.9131 22.8156 26.5653 23.1633L22.3227 18.9207ZM21.066 24.948V35.532H27.066V24.948H21.066ZM21.066 35.532C21.066 36.7439 21.0978 37.7753 21.1736 38.584C21.2112 38.9846 21.2654 39.3975 21.3518 39.7815C21.4146 40.0609 21.5772 40.7416 22.044 41.364L26.844 37.764C27.0457 38.033 27.1362 38.2621 27.1644 38.3374C27.1991 38.4299 27.2091 38.4807 27.2055 38.4645C27.1974 38.4284 27.1728 38.2954 27.1474 38.024C27.0972 37.4887 27.066 36.6721 27.066 35.532H21.066ZM22.644 41.964C23.2664 42.4308 23.9471 42.5934 24.2265 42.6562C24.6105 42.7426 25.0234 42.7968 25.424 42.8344C26.2327 42.9102 27.2641 42.942 28.476 42.942V36.942C27.3359 36.942 26.5193 36.9108 25.984 36.8606C25.7126 36.8352 25.5796 36.8106 25.5435 36.8025C25.5273 36.7989 25.5781 36.8089 25.6706 36.8436C25.7459 36.8718 25.975 36.9623 26.244 37.164L22.644 41.964ZM125.878 94.5H122.878V97.5H125.878V94.5ZM125.878 3.654V0.653999H122.878V3.654H125.878ZM142.51 3.654H145.51V0.653999H142.51V3.654ZM142.51 77.742H139.51V80.742H142.51V77.742ZM216.598 77.742H219.598V74.742H216.598V77.742ZM216.598 94.5V97.5H219.598V94.5H216.598ZM128.878 94.5V3.654H122.878V94.5H128.878ZM125.878 6.654H142.51V0.653999H125.878V6.654ZM139.51 3.654V77.742H145.51V3.654H139.51ZM142.51 80.742H216.598V74.742H142.51V80.742ZM213.598 77.742V94.5H219.598V77.742H213.598ZM216.598 91.5H125.878V97.5H216.598V91.5ZM242.717 89.334L244.839 87.2127L242.717 89.334ZM237.551 3.77999V0.779995H234.551V3.77999H237.551ZM254.183 3.77999H257.183V0.779995H254.183V3.77999ZM254.561 77.364L252.161 79.164L252.418 79.5069L252.761 79.764L254.561 77.364ZM311.009 77.364L312.809 79.764L312.98 79.6361L313.131 79.4853L311.009 77.364ZM311.513 3.77999V0.779995H308.513V3.77999H311.513ZM328.271 3.77999H331.271V0.779995H328.271V3.77999ZM255.065 91.5C251.088 91.5 247.731 90.105 244.839 87.2127L240.596 91.4553C244.592 95.451 249.466 97.5 255.065 97.5V91.5ZM244.839 87.2127C241.946 84.3204 240.551 80.9631 240.551 76.986H234.551C234.551 82.5849 236.6 87.4596 240.596 91.4553L244.839 87.2127ZM240.551 76.986V3.77999H234.551V76.986H240.551ZM237.551 6.77999H254.183V0.779995H237.551V6.77999ZM251.183 3.77999V73.332H257.183V3.77999H251.183ZM251.183 73.332C251.183 74.5439 251.215 75.5753 251.291 76.384C251.329 76.7846 251.383 77.1976 251.469 77.5815C251.532 77.8609 251.695 78.5416 252.161 79.164L256.961 75.564C257.163 75.833 257.254 76.0621 257.282 76.1374C257.316 76.2299 257.326 76.2807 257.323 76.2645C257.315 76.2284 257.29 76.0954 257.265 75.824C257.215 75.2887 257.183 74.4721 257.183 73.332H251.183ZM252.761 79.764C253.384 80.2308 254.064 80.3934 254.344 80.4562C254.728 80.5426 255.141 80.5968 255.541 80.6344C256.35 80.7102 257.381 80.742 258.593 80.742V74.742C257.453 74.742 256.637 74.7108 256.101 74.6606C255.83 74.6352 255.697 74.6106 255.661 74.6025C255.645 74.5989 255.695 74.6089 255.788 74.6436C255.863 74.6718 256.092 74.7623 256.361 74.964L252.761 79.764ZM258.593 80.742H307.103V74.742H258.593V80.742ZM307.103 80.742C308.275 80.742 309.278 80.7102 310.07 80.6335C310.462 80.5956 310.87 80.5405 311.251 80.4525C311.536 80.3867 312.199 80.2218 312.809 79.764L309.209 74.964C309.469 74.7693 309.69 74.6797 309.768 74.6499C309.861 74.6144 309.914 74.6034 309.902 74.6062C309.873 74.6127 309.75 74.6364 309.492 74.6614C308.982 74.7108 308.2 74.742 307.103 74.742V80.742ZM313.131 79.4853C313.751 78.8647 313.999 78.1316 314.103 77.785C314.233 77.3534 314.311 76.899 314.364 76.4761C314.471 75.623 314.513 74.5562 314.513 73.332H308.513C308.513 74.4598 308.472 75.241 308.411 75.7319C308.379 75.981 308.353 76.0726 308.356 76.061C308.359 76.0518 308.383 75.9709 308.444 75.8491C308.501 75.7364 308.633 75.4975 308.888 75.2427L313.131 79.4853ZM314.513 73.332V3.77999H308.513V73.332H314.513ZM311.513 6.77999H328.271V0.779995H311.513V6.77999ZM325.271 3.77999V76.986H331.271V3.77999H325.271ZM325.271 76.986C325.271 80.9631 323.876 84.3204 320.984 87.2127L325.227 91.4553C329.222 87.4596 331.271 82.5849 331.271 76.986H325.271ZM320.984 87.2127C318.092 90.105 314.734 91.5 310.757 91.5V97.5C316.356 97.5 321.231 95.451 325.227 91.4553L320.984 87.2127ZM310.757 91.5H255.065V97.5H310.757V91.5ZM356.259 94.5H353.259V97.5H356.259V94.5ZM356.259 3.77999V0.779995H353.259V3.77999H356.259ZM439.797 3.77999H442.797V0.779995H439.797V3.77999ZM439.797 20.538V23.538H442.797V20.538H439.797ZM373.017 20.538V17.538H370.017V20.538H373.017ZM373.017 40.698H370.017V43.698H373.017V40.698ZM426.693 40.698H429.693V37.698H426.693V40.698ZM426.693 57.456V60.456H429.693V57.456H426.693ZM373.017 57.456V54.456H370.017V57.456H373.017ZM373.017 77.742H370.017V80.742H373.017V77.742ZM439.797 77.742H442.797V74.742H439.797V77.742ZM439.797 94.5V97.5H442.797V94.5H439.797ZM359.259 94.5V3.77999H353.259V94.5H359.259ZM356.259 6.77999H439.797V0.779995H356.259V6.77999ZM436.797 3.77999V20.538H442.797V3.77999H436.797ZM439.797 17.538H373.017V23.538H439.797V17.538ZM370.017 20.538V40.698H376.017V20.538H370.017ZM373.017 43.698H426.693V37.698H373.017V43.698ZM423.693 40.698V57.456H429.693V40.698H423.693ZM426.693 54.456H373.017V60.456H426.693V54.456ZM370.017 57.456V77.742H376.017V57.456H370.017ZM373.017 80.742H439.797V74.742H373.017V80.742ZM436.797 77.742V94.5H442.797V77.742H436.797ZM439.797 91.5H356.259V97.5H439.797V91.5ZM463.506 94.5H460.506V97.5H463.506V94.5ZM463.506 3.77999V0.779995H460.506V3.77999H463.506ZM481.776 3.77999L484.074 1.85146L483.175 0.779995H481.776V3.77999ZM514.662 42.966L512.364 44.8945L514.666 47.638L516.963 44.8902L514.662 42.966ZM547.422 3.77999V0.779995H546.02L545.12 1.8558L547.422 3.77999ZM565.818 3.77999H568.818V0.779995H565.818V3.77999ZM565.818 94.5V97.5H568.818V94.5H565.818ZM549.06 94.5H546.06V97.5H549.06V94.5ZM549.06 27.972H552.06V19.7363L546.763 26.0424L549.06 27.972ZM514.662 68.922L512.371 70.8592L514.669 73.577L516.959 70.8516L514.662 68.922ZM480.138 28.098L482.428 26.1608L477.138 19.9047V28.098H480.138ZM480.138 94.5V97.5H483.138V94.5H480.138ZM466.506 94.5V3.77999H460.506V94.5H466.506ZM463.506 6.77999H481.776V0.779995H463.506V6.77999ZM479.478 5.70853L512.364 44.8945L516.96 41.0375L484.074 1.85146L479.478 5.70853ZM516.963 44.8902L549.723 5.70419L545.12 1.8558L512.36 41.0418L516.963 44.8902ZM547.422 6.77999H565.818V0.779995H547.422V6.77999ZM562.818 3.77999V94.5H568.818V3.77999H562.818ZM565.818 91.5H549.06V97.5H565.818V91.5ZM552.06 94.5V27.972H546.06V94.5H552.06ZM546.763 26.0424L512.365 66.9924L516.959 70.8516L551.357 29.9016L546.763 26.0424ZM516.952 66.9848L482.428 26.1608L477.847 30.0352L512.371 70.8592L516.952 66.9848ZM477.138 28.098V94.5H483.138V28.098H477.138ZM480.138 91.5H463.506V97.5H480.138V91.5ZM599.174 89.334L601.296 87.2127L599.174 89.334ZM599.174 8.946L601.296 11.0673L599.174 8.946ZM667.466 77.364L669.266 79.764L669.437 79.6361L669.588 79.4853L667.466 77.364ZM667.466 21.042L665.345 23.1633L665.496 23.3141L665.666 23.442L667.466 21.042ZM611.018 21.042L613.14 23.1633V23.1633L611.018 21.042ZM611.018 77.364L608.618 79.164L608.875 79.5069L609.218 79.764L611.018 77.364ZM611.522 91.5C607.545 91.5 604.188 90.105 601.296 87.2127L597.053 91.4553C601.049 95.451 605.923 97.5 611.522 97.5V91.5ZM601.296 87.2127C598.403 84.3204 597.008 80.9631 597.008 76.986H591.008C591.008 82.5849 593.057 87.4596 597.053 91.4553L601.296 87.2127ZM597.008 76.986V21.294H591.008V76.986H597.008ZM597.008 21.294C597.008 17.3169 598.403 13.9596 601.296 11.0673L597.053 6.82468C593.057 10.8204 591.008 15.6951 591.008 21.294H597.008ZM601.296 11.0673C604.188 8.17504 607.545 6.77999 611.522 6.77999V0.779995C605.923 0.779995 601.049 2.82895 597.053 6.82468L601.296 11.0673ZM611.522 6.77999H667.214V0.779995H611.522V6.77999ZM667.214 6.77999C671.191 6.77999 674.549 8.17504 677.441 11.0673L681.684 6.82468C677.688 2.82895 672.813 0.779995 667.214 0.779995V6.77999ZM677.441 11.0673C680.333 13.9596 681.728 17.3169 681.728 21.294H687.728C687.728 15.6951 685.679 10.8204 681.684 6.82468L677.441 11.0673ZM681.728 21.294V76.986H687.728V21.294H681.728ZM681.728 76.986C681.728 80.9631 680.333 84.3204 677.441 87.2127L681.684 91.4553C685.679 87.4596 687.728 82.5849 687.728 76.986H681.728ZM677.441 87.2127C674.549 90.105 671.191 91.5 667.214 91.5V97.5C672.813 97.5 677.688 95.451 681.684 91.4553L677.441 87.2127ZM667.214 91.5H611.522V97.5H667.214V91.5ZM615.05 80.742H663.56V74.742H615.05V80.742ZM663.56 80.742C664.732 80.742 665.735 80.7102 666.527 80.6335C666.919 80.5956 667.327 80.5405 667.708 80.4525C667.993 80.3867 668.656 80.2218 669.266 79.764L665.666 74.964C665.926 74.7693 666.147 74.6797 666.225 74.6499C666.318 74.6144 666.371 74.6034 666.359 74.6062C666.33 74.6127 666.207 74.6364 665.949 74.6614C665.439 74.7108 664.657 74.742 663.56 74.742V80.742ZM669.588 79.4853C670.208 78.8647 670.456 78.1316 670.56 77.785C670.69 77.3534 670.768 76.899 670.821 76.4761C670.928 75.623 670.97 74.5562 670.97 73.332H664.97C664.97 74.4598 664.929 75.241 664.867 75.7319C664.836 75.981 664.81 76.0726 664.813 76.061C664.816 76.0518 664.84 75.9709 664.901 75.8491C664.957 75.7364 665.09 75.4975 665.345 75.2427L669.588 79.4853ZM670.97 73.332V24.948H664.97V73.332H670.97ZM670.97 24.948C670.97 23.727 670.928 22.664 670.82 21.8236C670.766 21.4104 670.684 20.946 670.54 20.5024C670.438 20.188 670.13 19.29 669.266 18.642L665.666 23.442C665.275 23.1487 665.069 22.8298 664.98 22.6741C664.884 22.5071 664.843 22.3842 664.833 22.3534C664.815 22.2982 664.838 22.3536 664.869 22.5914C664.929 23.0529 664.97 23.817 664.97 24.948H670.97ZM669.588 18.9207C668.98 18.3134 668.268 18.0627 667.915 17.9542C667.486 17.8222 667.037 17.7423 666.622 17.6887C665.784 17.5806 664.745 17.538 663.56 17.538V23.538C664.644 23.538 665.389 23.5794 665.854 23.6393C666.089 23.6697 666.17 23.6948 666.151 23.6888C666.138 23.6847 666.055 23.6592 665.934 23.5974C665.82 23.5394 665.59 23.4087 665.345 23.1633L669.588 18.9207ZM663.56 17.538H615.05V23.538H663.56V17.538ZM615.05 17.538C613.826 17.538 612.759 17.5805 611.906 17.6872C611.483 17.74 611.029 17.8185 610.597 17.948C610.251 18.052 609.518 18.3 608.897 18.9207L613.14 23.1633C612.885 23.4181 612.646 23.5508 612.533 23.6072C612.411 23.668 612.33 23.6922 612.321 23.695C612.31 23.6985 612.401 23.672 612.65 23.6408C613.141 23.5795 613.922 23.538 615.05 23.538V17.538ZM608.897 18.9207C608.191 19.6267 607.99 20.504 607.938 20.7188C607.843 21.1101 607.786 21.5283 607.749 21.9185C607.672 22.7126 607.64 23.7385 607.64 24.948H613.64C613.64 23.8055 613.672 23.0044 613.721 22.4965C613.746 22.2357 613.769 22.1342 613.768 22.1369C613.767 22.1391 613.746 22.2294 613.687 22.3675C613.641 22.4763 613.487 22.8156 613.14 23.1633L608.897 18.9207ZM607.64 24.948V73.332H613.64V24.948H607.64ZM607.64 73.332C607.64 74.5439 607.672 75.5753 607.748 76.384C607.785 76.7846 607.84 77.1976 607.926 77.5815C607.989 77.8609 608.151 78.5416 608.618 79.164L613.418 75.564C613.62 75.833 613.71 76.0621 613.739 76.1374C613.773 76.2299 613.783 76.2807 613.78 76.2645C613.772 76.2284 613.747 76.0954 613.722 75.824C613.672 75.2887 613.64 74.4721 613.64 73.332H607.64ZM609.218 79.764C609.841 80.2308 610.521 80.3934 610.801 80.4562C611.185 80.5426 611.598 80.5968 611.998 80.6344C612.807 80.7102 613.838 80.742 615.05 80.742V74.742C613.91 74.742 613.094 74.7108 612.558 74.6606C612.287 74.6352 612.154 74.6106 612.118 74.6025C612.102 74.5989 612.152 74.6089 612.245 74.6436C612.32 74.6718 612.549 74.7623 612.818 74.964L609.218 79.764ZM717.378 89.334L719.499 87.2127L717.378 89.334ZM717.378 8.946L719.499 11.0673L717.378 8.946ZM785.67 77.364L787.47 79.764L787.641 79.6361L787.791 79.4853L785.67 77.364ZM785.67 21.042L783.549 23.1633L783.699 23.3141L783.87 23.442L785.67 21.042ZM729.222 21.042L731.343 23.1633V23.1633L729.222 21.042ZM729.222 77.364L726.822 79.164L727.079 79.5069L727.422 79.764L729.222 77.364ZM729.726 91.5C725.749 91.5 722.392 90.105 719.499 87.2127L715.257 91.4553C719.252 95.451 724.127 97.5 729.726 97.5V91.5ZM719.499 87.2127C716.607 84.3204 715.212 80.9631 715.212 76.986H709.212C709.212 82.5849 711.261 87.4596 715.257 91.4553L719.499 87.2127ZM715.212 76.986V21.294H709.212V76.986H715.212ZM715.212 21.294C715.212 17.3169 716.607 13.9596 719.499 11.0673L715.257 6.82468C711.261 10.8204 709.212 15.6951 709.212 21.294H715.212ZM719.499 11.0673C722.392 8.17504 725.749 6.77999 729.726 6.77999V0.779995C724.127 0.779995 719.252 2.82895 715.257 6.82468L719.499 11.0673ZM729.726 6.77999H785.418V0.779995H729.726V6.77999ZM785.418 6.77999C789.395 6.77999 792.752 8.17504 795.645 11.0673L799.887 6.82468C795.892 2.82895 791.017 0.779995 785.418 0.779995V6.77999ZM795.645 11.0673C798.537 13.9596 799.932 17.3169 799.932 21.294H805.932C805.932 15.6951 803.883 10.8204 799.887 6.82468L795.645 11.0673ZM799.932 21.294V76.986H805.932V21.294H799.932ZM799.932 76.986C799.932 80.9631 798.537 84.3204 795.645 87.2127L799.887 91.4553C803.883 87.4596 805.932 82.5849 805.932 76.986H799.932ZM795.645 87.2127C792.752 90.105 789.395 91.5 785.418 91.5V97.5C791.017 97.5 795.892 95.451 799.887 91.4553L795.645 87.2127ZM785.418 91.5H729.726V97.5H785.418V91.5ZM733.254 80.742H781.764V74.742H733.254V80.742ZM781.764 80.742C782.936 80.742 783.939 80.7102 784.73 80.6335C785.123 80.5956 785.53 80.5405 785.911 80.4525C786.197 80.3867 786.86 80.2218 787.47 79.764L783.87 74.964C784.13 74.7693 784.351 74.6797 784.429 74.6499C784.522 74.6144 784.575 74.6034 784.562 74.6062C784.534 74.6127 784.411 74.6364 784.153 74.6614C783.642 74.7108 782.86 74.742 781.764 74.742V80.742ZM787.791 79.4853C788.412 78.8647 788.66 78.1316 788.764 77.785C788.893 77.3534 788.972 76.899 789.025 76.4761C789.131 75.623 789.174 74.5562 789.174 73.332H783.174C783.174 74.4598 783.133 75.241 783.071 75.7319C783.04 75.981 783.014 76.0726 783.017 76.061C783.02 76.0518 783.044 75.9709 783.105 75.8491C783.161 75.7364 783.294 75.4975 783.549 75.2427L787.791 79.4853ZM789.174 73.332V24.948H783.174V73.332H789.174ZM789.174 24.948C789.174 23.727 789.132 22.664 789.023 21.8236C788.97 21.4104 788.888 20.946 788.744 20.5024C788.642 20.188 788.334 19.29 787.47 18.642L783.87 23.442C783.479 23.1487 783.272 22.8298 783.183 22.6741C783.088 22.5071 783.047 22.3842 783.037 22.3534C783.019 22.2982 783.042 22.3536 783.073 22.5914C783.132 23.0529 783.174 23.817 783.174 24.948H789.174ZM787.791 18.9207C787.184 18.3134 786.472 18.0627 786.119 17.9542C785.69 17.8222 785.241 17.7423 784.825 17.6887C783.988 17.5806 782.949 17.538 781.764 17.538V23.538C782.847 23.538 783.593 23.5794 784.058 23.6393C784.293 23.6697 784.374 23.6948 784.355 23.6888C784.341 23.6847 784.259 23.6592 784.138 23.5974C784.024 23.5394 783.794 23.4087 783.549 23.1633L787.791 18.9207ZM781.764 17.538H733.254V23.538H781.764V17.538ZM733.254 17.538C732.03 17.538 730.963 17.5805 730.11 17.6872C729.687 17.74 729.233 17.8185 728.801 17.948C728.454 18.052 727.721 18.3 727.101 18.9207L731.343 23.1633C731.089 23.4181 730.85 23.5508 730.737 23.6072C730.615 23.668 730.534 23.6922 730.525 23.695C730.513 23.6985 730.605 23.672 730.854 23.6408C731.345 23.5795 732.126 23.538 733.254 23.538V17.538ZM727.101 18.9207C726.395 19.6267 726.194 20.504 726.142 20.7188C726.046 21.1101 725.99 21.5283 725.952 21.9185C725.876 22.7126 725.844 23.7385 725.844 24.948H731.844C731.844 23.8055 731.875 23.0044 731.925 22.4965C731.95 22.2357 731.972 22.1342 731.972 22.1369C731.971 22.1391 731.95 22.2294 731.891 22.3675C731.844 22.4763 731.691 22.8156 731.343 23.1633L727.101 18.9207ZM725.844 24.948V73.332H731.844V24.948H725.844ZM725.844 73.332C725.844 74.5439 725.876 75.5753 725.952 76.384C725.989 76.7846 726.043 77.1976 726.13 77.5815C726.193 77.8609 726.355 78.5416 726.822 79.164L731.622 75.564C731.824 75.833 731.914 76.0621 731.942 76.1374C731.977 76.2299 731.987 76.2807 731.983 76.2645C731.975 76.2284 731.951 76.0954 731.925 75.824C731.875 75.2887 731.844 74.4721 731.844 73.332H725.844ZM727.422 79.764C728.044 80.2308 728.725 80.3934 729.004 80.4562C729.388 80.5426 729.801 80.5968 730.202 80.6344C731.011 80.7102 732.042 80.742 733.254 80.742V74.742C732.114 74.742 731.297 74.7108 730.762 74.6606C730.491 74.6352 730.358 74.6106 730.322 74.6025C730.305 74.5989 730.356 74.6089 730.449 74.6436C730.524 74.6718 730.753 74.7623 731.022 74.964L727.422 79.764ZM830.668 94.5H827.668V97.5H830.668V94.5ZM830.668 3.77999V0.779995H827.668V3.77999H830.668ZM848.938 3.77999L851.235 1.85001L850.335 0.779995H848.938V3.77999ZM904.63 70.056L902.333 71.986L907.63 78.2894V70.056H904.63ZM904.63 3.77999V0.779995H901.63V3.77999H904.63ZM921.388 3.77999H924.388V0.779995H921.388V3.77999ZM921.388 94.5V97.5H924.388V94.5H921.388ZM903.118 94.5L900.821 96.4304L901.721 97.5H903.118V94.5ZM847.3 28.098L849.596 26.1676L844.3 19.8669V28.098H847.3ZM847.3 94.5V97.5H850.3V94.5H847.3ZM833.668 94.5V3.77999H827.668V94.5H833.668ZM830.668 6.77999H848.938V0.779995H830.668V6.77999ZM846.641 5.70998L902.333 71.986L906.927 68.126L851.235 1.85001L846.641 5.70998ZM907.63 70.056V3.77999H901.63V70.056H907.63ZM904.63 6.77999H921.388V0.779995H904.63V6.77999ZM918.388 3.77999V94.5H924.388V3.77999H918.388ZM921.388 91.5H903.118V97.5H921.388V91.5ZM905.414 92.5696L849.596 26.1676L845.003 30.0284L900.821 96.4304L905.414 92.5696ZM844.3 28.098V94.5H850.3V28.098H844.3ZM847.3 91.5H830.668V97.5H847.3V91.5Z" fill="white" fill-opacity="0.9"/>
<path opacity="0.09" d="M7.43296 218H4.93296V220.5H7.43296V218ZM7.43296 127.28V124.78H4.93296V127.28H7.43296ZM94.247 165.71L91.781 165.299V165.299L94.247 165.71ZM93.365 168.608L91.0891 167.573L90.4807 168.912L91.3545 170.094L93.365 168.608ZM96.767 174.656L94.4458 175.584L94.4616 175.624L94.4787 175.663L96.767 174.656ZM80.891 200.864L82.391 202.864L82.5331 202.757L82.6587 202.632L80.891 200.864ZM80.891 180.704L79.1232 182.472L79.2488 182.597L79.391 182.704L80.891 180.704ZM24.443 200.864L22.443 202.364L22.6572 202.65L22.943 202.864L24.443 200.864ZM77.111 163.064L78.8787 164.832L78.8787 164.832L77.111 163.064ZM77.111 144.542L75.111 146.042L75.3253 146.328L75.611 146.542L77.111 144.542ZM24.443 144.542L26.2107 146.31L26.2107 146.31L24.443 144.542ZM24.443 163.064L22.443 164.564L22.6572 164.85L22.943 165.064L24.443 163.064ZM9.93296 218V127.28H4.93296V218H9.93296ZM7.43296 129.78H76.985V124.78H7.43296V129.78ZM76.985 129.78C81.0972 129.78 84.581 131.23 87.5652 134.214L91.1007 130.678C87.197 126.774 82.4487 124.78 76.985 124.78V129.78ZM87.5652 134.214C90.5494 137.198 91.999 140.682 91.999 144.794H96.999C96.999 139.33 95.0045 134.582 91.1007 130.678L87.5652 134.214ZM91.999 144.794V162.56H96.999V144.794H91.999ZM91.999 162.56C91.999 163.524 91.9249 164.436 91.781 165.299L96.713 166.121C96.9051 164.968 96.999 163.78 96.999 162.56H91.999ZM91.781 165.299C91.6486 166.093 91.4181 166.85 91.0891 167.573L95.6409 169.643C96.1518 168.518 96.5093 167.343 96.713 166.121L91.781 165.299ZM91.3545 170.094C92.6634 171.865 93.6899 173.695 94.4458 175.584L99.0882 173.728C98.164 171.417 96.9225 169.215 95.3754 167.122L91.3545 170.094ZM94.4787 175.663C95.2761 177.475 95.653 179.234 95.653 180.956H100.653C100.653 178.478 100.106 176.037 99.0553 173.649L94.4787 175.663ZM95.653 180.956V200.486H100.653V180.956H95.653ZM95.653 200.486C95.653 204.598 94.2034 208.082 91.2192 211.066L94.7547 214.602C98.6585 210.698 100.653 205.95 100.653 200.486H95.653ZM91.2192 211.066C88.2442 214.041 84.7221 215.5 80.513 215.5V220.5C86.0478 220.5 90.8417 218.515 94.7547 214.602L91.2192 211.066ZM80.513 215.5H7.43296V220.5H80.513V215.5ZM28.475 203.742H76.985V198.742H28.475V203.742ZM76.985 203.742C78.1503 203.742 79.135 203.71 79.9033 203.636C80.2846 203.599 80.6682 203.547 81.02 203.465C81.2918 203.403 81.8683 203.256 82.391 202.864L79.391 198.864C79.6003 198.707 79.7749 198.637 79.8279 198.617C79.8935 198.592 79.9229 198.587 79.8957 198.593C79.838 198.607 79.6914 198.633 79.4217 198.659C78.888 198.711 78.0876 198.742 76.985 198.742V203.742ZM82.6587 202.632C83.1899 202.101 83.4089 201.465 83.506 201.141C83.6244 200.747 83.6986 200.323 83.7497 199.914C83.8525 199.091 83.895 198.048 83.895 196.832H78.895C78.895 197.968 78.8534 198.773 78.7883 199.294C78.7553 199.557 78.7245 199.679 78.7169 199.705C78.7139 199.715 78.7284 199.662 78.773 199.573C78.8139 199.491 78.9179 199.302 79.1232 199.096L82.6587 202.632ZM83.895 196.832V184.61H78.895V196.832H83.895ZM83.895 184.61C83.895 183.396 83.8528 182.358 83.7484 181.55C83.697 181.151 83.6199 180.721 83.4895 180.319C83.3941 180.024 83.125 179.254 82.391 178.704L79.391 182.704C79.0721 182.465 78.9065 182.207 78.8385 182.088C78.7651 181.96 78.7365 181.871 78.7334 181.861C78.729 181.848 78.757 181.937 78.7895 182.189C78.8531 182.683 78.895 183.471 78.895 184.61H83.895ZM82.6587 178.936C82.1386 178.416 81.5211 178.195 81.1931 178.094C80.8014 177.974 80.3829 177.898 79.9824 177.847C79.1761 177.743 78.1611 177.7 76.985 177.7V182.7C78.0769 182.7 78.8468 182.741 79.3425 182.805C79.461 182.821 79.5523 182.836 79.6198 182.849C79.6531 182.856 79.6783 182.862 79.6962 182.866C79.705 182.868 79.7116 182.87 79.7162 182.871C79.7207 182.872 79.7228 182.873 79.7226 182.873C79.7225 182.873 79.7196 182.872 79.7143 182.87C79.709 182.868 79.7007 182.865 79.6897 182.861C79.6687 182.853 79.6326 182.838 79.5855 182.814C79.5026 182.772 79.3206 182.669 79.1232 182.472L82.6587 178.936ZM76.985 177.7H28.475V182.7H76.985V177.7ZM28.475 177.7C27.2588 177.7 26.2158 177.742 25.3929 177.845C24.9844 177.896 24.5603 177.971 24.1656 178.089C23.8418 178.186 23.2064 178.405 22.6752 178.936L26.2107 182.472C26.0054 182.677 25.8159 182.781 25.7342 182.822C25.645 182.867 25.5924 182.881 25.6023 182.878C25.6276 182.87 25.7495 182.84 26.0131 182.807C26.5341 182.742 27.3391 182.7 28.475 182.7V177.7ZM22.6752 178.936C22.0763 179.535 21.8998 180.288 21.8484 180.499C21.7612 180.857 21.7078 181.249 21.6711 181.629C21.5965 182.399 21.565 183.406 21.565 184.61H26.565C26.565 183.462 26.5964 182.642 26.6478 182.11C26.6741 181.839 26.6994 181.711 26.7068 181.681C26.7103 181.666 26.697 181.728 26.6522 181.833C26.618 181.912 26.4953 182.187 26.2107 182.472L22.6752 178.936ZM21.565 184.61V196.832H26.565V184.61H21.565ZM21.565 196.832C21.565 198.038 21.5967 199.051 21.6704 199.837C21.7069 200.227 21.7587 200.617 21.8386 200.972C21.8988 201.24 22.0435 201.831 22.443 202.364L26.443 199.364C26.6058 199.581 26.6763 199.762 26.6952 199.813C26.7195 199.878 26.7236 199.905 26.7166 199.874C26.702 199.809 26.675 199.653 26.6486 199.371C26.5962 198.813 26.565 197.978 26.565 196.832H21.565ZM22.943 202.864C23.4756 203.263 24.0674 203.408 24.3352 203.468C24.6902 203.548 25.0798 203.6 25.4696 203.637C26.2556 203.71 27.269 203.742 28.475 203.742V198.742C27.3289 198.742 26.4944 198.711 25.9363 198.658C25.6542 198.632 25.4978 198.605 25.4327 198.59C25.4017 198.583 25.4292 198.587 25.494 198.612C25.5445 198.631 25.7258 198.701 25.943 198.864L22.943 202.864ZM28.475 165.942H73.331V160.942H28.475V165.942ZM73.331 165.942C74.4942 165.942 75.4728 165.91 76.2257 165.835C76.5968 165.798 76.9833 165.744 77.3393 165.655C77.5597 165.6 78.291 165.419 78.8787 164.832L75.3432 161.296C75.6185 161.021 75.8832 160.899 75.9672 160.862C76.0239 160.837 76.0669 160.822 76.0902 160.815C76.1026 160.811 76.1119 160.808 76.1177 160.806C76.1235 160.805 76.1266 160.804 76.1266 160.804C76.1267 160.804 76.1243 160.805 76.1193 160.806C76.1143 160.807 76.1071 160.808 76.0975 160.81C76.0782 160.814 76.0514 160.819 76.0163 160.824C75.9451 160.835 75.8502 160.848 75.7282 160.86C75.2212 160.911 74.4358 160.942 73.331 160.942V165.942ZM78.8787 164.832C79.4099 164.301 79.6289 163.665 79.726 163.341C79.8445 162.947 79.9186 162.523 79.9697 162.114C80.0725 161.291 80.115 160.248 80.115 159.032H75.115C75.115 160.168 75.0734 160.973 75.0083 161.494C74.9753 161.757 74.9445 161.879 74.9369 161.905C74.9339 161.915 74.9484 161.862 74.993 161.773C75.0339 161.691 75.1379 161.502 75.3432 161.296L78.8787 164.832ZM80.115 159.032V148.448H75.115V159.032H80.115ZM80.115 148.448C80.115 147.234 80.0728 146.196 79.9684 145.388C79.917 144.989 79.8399 144.559 79.7095 144.157C79.6141 143.862 79.345 143.092 78.611 142.542L75.611 146.542C75.2921 146.303 75.1265 146.045 75.0585 145.926C74.9851 145.798 74.9565 145.709 74.9534 145.699C74.949 145.686 74.977 145.775 75.0095 146.027C75.0732 146.521 75.115 147.309 75.115 148.448H80.115ZM79.111 143.042C78.5723 142.324 77.8266 142.051 77.5235 141.95C77.1237 141.817 76.6983 141.738 76.3074 141.686C75.5147 141.58 74.5042 141.538 73.331 141.538V146.538C74.4257 146.538 75.1793 146.58 75.6466 146.642C75.8856 146.674 75.9643 146.7 75.9424 146.693C75.9285 146.689 75.8379 146.658 75.7095 146.583C75.5889 146.513 75.3415 146.349 75.111 146.042L79.111 143.042ZM73.331 141.538H28.475V146.538H73.331V141.538ZM28.475 141.538C27.2588 141.538 26.2158 141.58 25.3929 141.683C24.9844 141.734 24.5603 141.809 24.1656 141.927C23.8418 142.024 23.2064 142.243 22.6752 142.774L26.2107 146.31C26.0054 146.515 25.8159 146.619 25.7342 146.66C25.645 146.705 25.5924 146.719 25.6023 146.716C25.6276 146.708 25.7495 146.678 26.0131 146.645C26.5341 146.58 27.3391 146.538 28.475 146.538V141.538ZM22.6752 142.774C22.0763 143.373 21.8998 144.126 21.8484 144.337C21.7612 144.695 21.7078 145.087 21.6711 145.467C21.5965 146.237 21.565 147.244 21.565 148.448H26.565C26.565 147.3 26.5964 146.48 26.6478 145.948C26.6741 145.677 26.6994 145.549 26.7068 145.519C26.7103 145.504 26.697 145.566 26.6522 145.671C26.618 145.75 26.4953 146.025 26.2107 146.31L22.6752 142.774ZM21.565 148.448V159.032H26.565V148.448H21.565ZM21.565 159.032C21.565 160.238 21.5967 161.251 21.6704 162.037C21.7069 162.427 21.7587 162.817 21.8386 163.172C21.8988 163.44 22.0435 164.031 22.443 164.564L26.443 161.564C26.6058 161.781 26.6763 161.962 26.6952 162.013C26.7195 162.078 26.7236 162.105 26.7166 162.074C26.702 162.009 26.675 161.853 26.6486 161.571C26.5962 161.013 26.565 160.178 26.565 159.032H21.565ZM22.943 165.064C23.4756 165.463 24.0674 165.608 24.3352 165.668C24.6902 165.748 25.0798 165.8 25.4696 165.837C26.2556 165.91 27.269 165.942 28.475 165.942V160.942C27.3289 160.942 26.4944 160.911 25.9363 160.858C25.6542 160.832 25.4978 160.805 25.4327 160.79C25.4017 160.783 25.4292 160.787 25.494 160.812C25.5445 160.831 25.7258 160.901 25.943 161.064L22.943 165.064ZM125.877 218H123.377V220.5H125.877V218ZM125.877 127.154V124.654H123.377V127.154H125.877ZM142.509 127.154H145.009V124.654H142.509V127.154ZM142.509 201.242H140.009V203.742H142.509V201.242ZM216.597 201.242H219.097V198.742H216.597V201.242ZM216.597 218V220.5H219.097V218H216.597ZM128.377 218V127.154H123.377V218H128.377ZM125.877 129.654H142.509V124.654H125.877V129.654ZM140.009 127.154V201.242H145.009V127.154H140.009ZM142.509 203.742H216.597V198.742H142.509V203.742ZM214.097 201.242V218H219.097V201.242H214.097ZM216.597 215.5H125.877V220.5H216.597V215.5ZM242.716 212.834L244.484 211.066L242.716 212.834ZM237.55 127.28V124.78H235.05V127.28H237.55ZM254.182 127.28H256.682V124.78H254.182V127.28ZM254.56 200.864L252.56 202.364L252.775 202.65L253.06 202.864L254.56 200.864ZM311.008 200.864L312.508 202.864L312.65 202.757L312.776 202.632L311.008 200.864ZM311.512 127.28V124.78H309.012V127.28H311.512ZM328.27 127.28H330.77V124.78H328.27V127.28ZM255.064 215.5C250.952 215.5 247.468 214.05 244.484 211.066L240.949 214.602C244.852 218.506 249.601 220.5 255.064 220.5V215.5ZM244.484 211.066C241.5 208.082 240.05 204.598 240.05 200.486H235.05C235.05 205.95 237.045 210.698 240.949 214.602L244.484 211.066ZM240.05 200.486V127.28H235.05V200.486H240.05ZM237.55 129.78H254.182V124.78H237.55V129.78ZM251.682 127.28V196.832H256.682V127.28H251.682ZM251.682 196.832C251.682 198.038 251.714 199.051 251.788 199.837C251.824 200.227 251.876 200.617 251.956 200.972C252.016 201.24 252.161 201.831 252.56 202.364L256.56 199.364C256.723 199.581 256.794 199.762 256.813 199.813C256.837 199.878 256.841 199.905 256.834 199.874C256.819 199.809 256.792 199.653 256.766 199.371C256.714 198.813 256.682 197.978 256.682 196.832H251.682ZM253.06 202.864C253.593 203.263 254.185 203.408 254.453 203.468C254.808 203.548 255.197 203.6 255.587 203.637C256.373 203.71 257.386 203.742 258.592 203.742V198.742C257.446 198.742 256.612 198.711 256.054 198.658C255.771 198.632 255.615 198.605 255.55 198.59C255.519 198.583 255.547 198.587 255.611 198.612C255.662 198.631 255.843 198.701 256.06 198.864L253.06 202.864ZM258.592 203.742H307.102V198.742H258.592V203.742ZM307.102 203.742C308.268 203.742 309.252 203.71 310.021 203.636C310.402 203.599 310.786 203.547 311.137 203.465C311.409 203.403 311.986 203.256 312.508 202.864L309.508 198.864C309.718 198.707 309.892 198.637 309.945 198.617C310.011 198.592 310.04 198.587 310.013 198.593C309.955 198.607 309.809 198.633 309.539 198.659C309.005 198.711 308.205 198.742 307.102 198.742V203.742ZM312.776 202.632C313.307 202.101 313.526 201.465 313.623 201.141C313.742 200.747 313.816 200.323 313.867 199.914C313.97 199.091 314.012 198.048 314.012 196.832H309.012C309.012 197.968 308.971 198.773 308.906 199.294C308.873 199.557 308.842 199.679 308.834 199.705C308.831 199.715 308.846 199.662 308.89 199.573C308.931 199.491 309.035 199.302 309.241 199.096L312.776 202.632ZM314.012 196.832V127.28H309.012V196.832H314.012ZM311.512 129.78H328.27V124.78H311.512V129.78ZM325.77 127.28V200.486H330.77V127.28H325.77ZM325.77 200.486C325.77 204.598 324.321 208.082 321.337 211.066L324.872 214.602C328.776 210.698 330.77 205.95 330.77 200.486H325.77ZM321.337 211.066C318.352 214.05 314.869 215.5 310.756 215.5V220.5C316.22 220.5 320.968 218.506 324.872 214.602L321.337 211.066ZM310.756 215.5H255.064V220.5H310.756V215.5ZM356.258 218H353.758V220.5H356.258V218ZM356.258 127.28V124.78H353.758V127.28H356.258ZM439.796 127.28H442.296V124.78H439.796V127.28ZM439.796 144.038V146.538H442.296V144.038H439.796ZM373.016 144.038V141.538H370.516V144.038H373.016ZM373.016 164.198H370.516V166.698H373.016V164.198ZM426.692 164.198H429.192V161.698H426.692V164.198ZM426.692 180.956V183.456H429.192V180.956H426.692ZM373.016 180.956V178.456H370.516V180.956H373.016ZM373.016 201.242H370.516V203.742H373.016V201.242ZM439.796 201.242H442.296V198.742H439.796V201.242ZM439.796 218V220.5H442.296V218H439.796ZM358.758 218V127.28H353.758V218H358.758ZM356.258 129.78H439.796V124.78H356.258V129.78ZM437.296 127.28V144.038H442.296V127.28H437.296ZM439.796 141.538H373.016V146.538H439.796V141.538ZM370.516 144.038V164.198H375.516V144.038H370.516ZM373.016 166.698H426.692V161.698H373.016V166.698ZM424.192 164.198V180.956H429.192V164.198H424.192ZM426.692 178.456H373.016V183.456H426.692V178.456ZM370.516 180.956V201.242H375.516V180.956H370.516ZM373.016 203.742H439.796V198.742H373.016V203.742ZM437.296 201.242V218H442.296V201.242H437.296ZM439.796 215.5H356.258V220.5H439.796V215.5ZM463.505 218H461.005V220.5H463.505V218ZM463.505 127.28V124.78H461.005V127.28H463.505ZM481.775 127.28L483.69 125.673L482.94 124.78H481.775V127.28ZM514.661 166.466L512.746 168.073L514.664 170.359L516.579 168.069L514.661 166.466ZM547.421 127.28V124.78H546.252L545.503 125.677L547.421 127.28ZM565.817 127.28H568.317V124.78H565.817V127.28ZM565.817 218V220.5H568.317V218H565.817ZM549.059 218H546.559V220.5H549.059V218ZM549.059 151.472H551.559V144.609L547.144 149.864L549.059 151.472ZM514.661 192.422L512.752 194.036L514.667 196.301L516.575 194.03L514.661 192.422ZM480.137 151.598L482.046 149.984L477.637 144.77V151.598H480.137ZM480.137 218V220.5H482.637V218H480.137ZM466.005 218V127.28H461.005V218H466.005ZM463.505 129.78H481.775V124.78H463.505V129.78ZM479.86 128.887L512.746 168.073L516.576 164.859L483.69 125.673L479.86 128.887ZM516.579 168.069L549.339 128.883L545.503 125.677L512.743 164.863L516.579 168.069ZM547.421 129.78H565.817V124.78H547.421V129.78ZM563.317 127.28V218H568.317V127.28H563.317ZM565.817 215.5H549.059V220.5H565.817V215.5ZM551.559 218V151.472H546.559V218H551.559ZM547.144 149.864L512.746 190.814L516.575 194.03L550.973 153.08L547.144 149.864ZM516.57 190.808L482.046 149.984L478.228 153.212L512.752 194.036L516.57 190.808ZM477.637 151.598V218H482.637V151.598H477.637ZM480.137 215.5H463.505V220.5H480.137V215.5ZM599.173 212.834L600.941 211.066L599.173 212.834ZM599.173 132.446L600.941 134.214L599.173 132.446ZM667.465 200.864L668.965 202.864L669.107 202.757L669.233 202.632L667.465 200.864ZM667.465 144.542L665.698 146.31L665.823 146.435L665.965 146.542L667.465 144.542ZM611.017 144.542L612.785 146.31L612.785 146.31L611.017 144.542ZM611.017 200.864L609.017 202.364L609.232 202.65L609.517 202.864L611.017 200.864ZM611.521 215.5C607.409 215.5 603.925 214.05 600.941 211.066L597.405 214.602C601.309 218.506 606.057 220.5 611.521 220.5V215.5ZM600.941 211.066C597.957 208.082 596.507 204.598 596.507 200.486H591.507C591.507 205.95 593.502 210.698 597.405 214.602L600.941 211.066ZM596.507 200.486V144.794H591.507V200.486H596.507ZM596.507 144.794C596.507 140.682 597.957 137.198 600.941 134.214L597.405 130.678C593.502 134.582 591.507 139.33 591.507 144.794H596.507ZM600.941 134.214C603.925 131.23 607.409 129.78 611.521 129.78V124.78C606.057 124.78 601.309 126.774 597.405 130.678L600.941 134.214ZM611.521 129.78H667.213V124.78H611.521V129.78ZM667.213 129.78C671.326 129.78 674.809 131.23 677.793 134.214L681.329 130.678C677.425 126.774 672.677 124.78 667.213 124.78V129.78ZM677.793 134.214C680.778 137.198 682.227 140.682 682.227 144.794H687.227C687.227 139.33 685.233 134.582 681.329 130.678L677.793 134.214ZM682.227 144.794V200.486H687.227V144.794H682.227ZM682.227 200.486C682.227 204.598 680.778 208.082 677.793 211.066L681.329 214.602C685.233 210.698 687.227 205.95 687.227 200.486H682.227ZM677.793 211.066C674.809 214.05 671.326 215.5 667.213 215.5V220.5C672.677 220.5 677.425 218.506 681.329 214.602L677.793 211.066ZM667.213 215.5H611.521V220.5H667.213V215.5ZM615.049 203.742H663.559V198.742H615.049V203.742ZM663.559 203.742C664.725 203.742 665.709 203.71 666.478 203.636C666.859 203.599 667.242 203.547 667.594 203.465C667.866 203.403 668.443 203.256 668.965 202.864L665.965 198.864C666.175 198.707 666.349 198.637 666.402 198.617C666.468 198.592 666.497 198.587 666.47 198.593C666.412 198.607 666.266 198.633 665.996 198.659C665.462 198.711 664.662 198.742 663.559 198.742V203.742ZM669.233 202.632C669.764 202.101 669.983 201.465 670.08 201.141C670.199 200.747 670.273 200.323 670.324 199.914C670.427 199.091 670.469 198.048 670.469 196.832H665.469C665.469 197.968 665.428 198.773 665.363 199.294C665.33 199.557 665.299 199.679 665.291 199.705C665.288 199.715 665.303 199.662 665.347 199.573C665.388 199.491 665.492 199.302 665.698 199.096L669.233 202.632ZM670.469 196.832V148.448H665.469V196.832H670.469ZM670.469 148.448C670.469 147.234 670.427 146.196 670.323 145.388C670.271 144.989 670.194 144.559 670.064 144.157C669.968 143.862 669.699 143.092 668.965 142.542L665.965 146.542C665.646 146.303 665.481 146.045 665.413 145.926C665.339 145.798 665.311 145.709 665.308 145.699C665.303 145.686 665.331 145.775 665.364 146.027C665.427 146.521 665.469 147.309 665.469 148.448H670.469ZM669.233 142.774C668.713 142.254 668.095 142.033 667.767 141.932C667.376 141.812 666.957 141.736 666.557 141.685C665.75 141.581 664.735 141.538 663.559 141.538V146.538C664.651 146.538 665.421 146.579 665.917 146.643C666.035 146.659 666.127 146.674 666.194 146.687C666.227 146.694 666.253 146.7 666.271 146.704C666.279 146.706 666.286 146.708 666.29 146.709C666.295 146.71 666.297 146.711 666.297 146.711C666.297 146.711 666.294 146.71 666.289 146.708C666.283 146.706 666.275 146.703 666.264 146.699C666.243 146.691 666.207 146.676 666.16 146.652C666.077 146.61 665.895 146.507 665.698 146.31L669.233 142.774ZM663.559 141.538H615.049V146.538H663.559V141.538ZM615.049 141.538C613.833 141.538 612.79 141.58 611.967 141.683C611.559 141.734 611.135 141.809 610.74 141.927C610.416 142.024 609.781 142.243 609.249 142.774L612.785 146.31C612.58 146.515 612.39 146.619 612.309 146.66C612.219 146.705 612.167 146.719 612.177 146.716C612.202 146.708 612.324 146.678 612.587 146.645C613.108 146.58 613.913 146.538 615.049 146.538V141.538ZM609.25 142.774C608.651 143.373 608.474 144.126 608.423 144.337C608.336 144.695 608.282 145.087 608.245 145.467C608.171 146.237 608.139 147.244 608.139 148.448H613.139C613.139 147.3 613.171 146.48 613.222 145.948C613.248 145.677 613.274 145.549 613.281 145.519C613.285 145.504 613.271 145.566 613.227 145.671C613.192 145.75 613.07 146.025 612.785 146.31L609.25 142.774ZM608.139 148.448V196.832H613.139V148.448H608.139ZM608.139 196.832C608.139 198.038 608.171 199.051 608.245 199.837C608.281 200.227 608.333 200.617 608.413 200.972C608.473 201.24 608.618 201.831 609.017 202.364L613.017 199.364C613.18 199.581 613.251 199.762 613.269 199.813C613.294 199.878 613.298 199.905 613.291 199.874C613.276 199.809 613.249 199.653 613.223 199.371C613.171 198.813 613.139 197.978 613.139 196.832H608.139ZM609.517 202.864C610.05 203.263 610.642 203.408 610.909 203.468C611.264 203.548 611.654 203.6 612.044 203.637C612.83 203.71 613.843 203.742 615.049 203.742V198.742C613.903 198.742 613.069 198.711 612.511 198.658C612.228 198.632 612.072 198.605 612.007 198.59C611.976 198.583 612.003 198.587 612.068 198.612C612.119 198.631 612.3 198.701 612.517 198.864L609.517 202.864ZM717.377 212.834L719.145 211.066L717.377 212.834ZM717.377 132.446L719.145 134.214L717.377 132.446ZM785.669 200.864L787.169 202.864L787.311 202.757L787.437 202.632L785.669 200.864ZM785.669 144.542L783.901 146.31L784.027 146.435L784.169 146.542L785.669 144.542ZM729.221 144.542L730.989 146.31L730.989 146.31L729.221 144.542ZM729.221 200.864L727.221 202.364L727.435 202.65L727.721 202.864L729.221 200.864ZM729.725 215.5C725.613 215.5 722.129 214.05 719.145 211.066L715.609 214.602C719.513 218.506 724.261 220.5 729.725 220.5V215.5ZM719.145 211.066C716.161 208.082 714.711 204.598 714.711 200.486H709.711C709.711 205.95 711.705 210.698 715.609 214.602L719.145 211.066ZM714.711 200.486V144.794H709.711V200.486H714.711ZM714.711 144.794C714.711 140.682 716.161 137.198 719.145 134.214L715.609 130.678C711.705 134.582 709.711 139.33 709.711 144.794H714.711ZM719.145 134.214C722.129 131.23 725.613 129.78 729.725 129.78V124.78C724.261 124.78 719.513 126.774 715.609 130.678L719.145 134.214ZM729.725 129.78H785.417V124.78H729.725V129.78ZM785.417 129.78C789.529 129.78 793.013 131.23 795.997 134.214L799.533 130.678C795.629 126.774 790.881 124.78 785.417 124.78V129.78ZM795.997 134.214C798.981 137.198 800.431 140.682 800.431 144.794H805.431C805.431 139.33 803.437 134.582 799.533 130.678L795.997 134.214ZM800.431 144.794V200.486H805.431V144.794H800.431ZM800.431 200.486C800.431 204.598 798.981 208.082 795.997 211.066L799.533 214.602C803.437 210.698 805.431 205.95 805.431 200.486H800.431ZM795.997 211.066C793.013 214.05 789.529 215.5 785.417 215.5V220.5C790.881 220.5 795.629 218.506 799.533 214.602L795.997 211.066ZM785.417 215.5H729.725V220.5H785.417V215.5ZM733.253 203.742H781.763V198.742H733.253V203.742ZM781.763 203.742C782.928 203.742 783.913 203.71 784.681 203.636C785.063 203.599 785.446 203.547 785.798 203.465C786.07 203.403 786.646 203.256 787.169 202.864L784.169 198.864C784.378 198.707 784.553 198.637 784.606 198.617C784.672 198.592 784.701 198.587 784.674 198.593C784.616 198.607 784.469 198.633 784.2 198.659C783.666 198.711 782.866 198.742 781.763 198.742V203.742ZM787.437 202.632C787.968 202.101 788.187 201.465 788.284 201.141C788.402 200.747 788.477 200.323 788.528 199.914C788.631 199.091 788.673 198.048 788.673 196.832H783.673C783.673 197.968 783.631 198.773 783.566 199.294C783.533 199.557 783.503 199.679 783.495 199.705C783.492 199.715 783.506 199.662 783.551 199.573C783.592 199.491 783.696 199.302 783.901 199.096L787.437 202.632ZM788.673 196.832V148.448H783.673V196.832H788.673ZM788.673 148.448C788.673 147.234 788.631 146.196 788.526 145.388C788.475 144.989 788.398 144.559 788.268 144.157C788.172 143.862 787.903 143.092 787.169 142.542L784.169 146.542C783.85 146.303 783.685 146.045 783.617 145.926C783.543 145.798 783.515 145.709 783.511 145.699C783.507 145.686 783.535 145.775 783.568 146.027C783.631 146.521 783.673 147.309 783.673 148.448H788.673ZM787.437 142.774C786.917 142.254 786.299 142.033 785.971 141.932C785.579 141.812 785.161 141.736 784.76 141.685C783.954 141.581 782.939 141.538 781.763 141.538V146.538C782.855 146.538 783.625 146.579 784.121 146.643C784.239 146.659 784.33 146.674 784.398 146.687C784.431 146.694 784.456 146.7 784.474 146.704C784.483 146.706 784.49 146.708 784.494 146.709C784.499 146.71 784.501 146.711 784.501 146.711C784.5 146.711 784.498 146.71 784.492 146.708C784.487 146.706 784.479 146.703 784.468 146.699C784.447 146.691 784.411 146.676 784.364 146.652C784.281 146.61 784.099 146.507 783.901 146.31L787.437 142.774ZM781.763 141.538H733.253V146.538H781.763V141.538ZM733.253 141.538C732.037 141.538 730.994 141.58 730.171 141.683C729.762 141.734 729.338 141.809 728.944 141.927C728.62 142.024 727.984 142.243 727.453 142.774L730.989 146.31C730.783 146.515 730.594 146.619 730.512 146.66C730.423 146.705 730.37 146.719 730.38 146.716C730.406 146.708 730.528 146.678 730.791 146.645C731.312 146.58 732.117 146.538 733.253 146.538V141.538ZM727.453 142.774C726.854 143.373 726.678 144.126 726.626 144.337C726.539 144.695 726.486 145.087 726.449 145.467C726.375 146.237 726.343 147.244 726.343 148.448H731.343C731.343 147.3 731.374 146.48 731.426 145.948C731.452 145.677 731.477 145.549 731.485 145.519C731.488 145.504 731.475 145.566 731.43 145.671C731.396 145.75 731.273 146.025 730.989 146.31L727.453 142.774ZM726.343 148.448V196.832H731.343V148.448H726.343ZM726.343 196.832C726.343 198.038 726.375 199.051 726.448 199.837C726.485 200.227 726.537 200.617 726.617 200.972C726.677 201.24 726.821 201.831 727.221 202.364L731.221 199.364C731.384 199.581 731.454 199.762 731.473 199.813C731.498 199.878 731.502 199.905 731.495 199.874C731.48 199.809 731.453 199.653 731.427 199.371C731.374 198.813 731.343 197.978 731.343 196.832H726.343ZM727.721 202.864C728.254 203.263 728.845 203.408 729.113 203.468C729.468 203.548 729.858 203.6 730.248 203.637C731.034 203.71 732.047 203.742 733.253 203.742V198.742C732.107 198.742 731.272 198.711 730.714 198.658C730.432 198.632 730.276 198.605 730.211 198.59C730.18 198.583 730.207 198.587 730.272 198.612C730.323 198.631 730.504 198.701 730.721 198.864L727.721 202.864ZM830.667 218H828.167V220.5H830.667V218ZM830.667 127.28V124.78H828.167V127.28H830.667ZM848.937 127.28L850.851 125.672L850.102 124.78H848.937V127.28ZM904.629 193.556L902.715 195.164L907.129 200.417V193.556H904.629ZM904.629 127.28V124.78H902.129V127.28H904.629ZM921.387 127.28H923.887V124.78H921.387V127.28ZM921.387 218V220.5H923.887V218H921.387ZM903.117 218L901.203 219.609L901.952 220.5H903.117V218ZM847.299 151.598L849.212 149.989L844.799 144.739V151.598H847.299ZM847.299 218V220.5H849.799V218H847.299ZM833.167 218V127.28H828.167V218H833.167ZM830.667 129.78H848.937V124.78H830.667V129.78ZM847.023 128.888L902.715 195.164L906.543 191.948L850.851 125.672L847.023 128.888ZM907.129 193.556V127.28H902.129V193.556H907.129ZM904.629 129.78H921.387V124.78H904.629V129.78ZM918.887 127.28V218H923.887V127.28H918.887ZM921.387 215.5H903.117V220.5H921.387V215.5ZM905.03 216.391L849.212 149.989L845.385 153.207L901.203 219.609L905.03 216.391ZM844.799 151.598V218H849.799V151.598H844.799ZM847.299 215.5H830.667V220.5H847.299V215.5Z" fill="white"/>
<path opacity="0.06" d="M7.434 334H5.434V336H7.434V334ZM7.434 243.28V241.28H5.434V243.28H7.434ZM94.248 281.71L92.2752 281.381V281.381L94.248 281.71ZM93.366 284.608L91.5453 283.78L91.0586 284.851L91.7577 285.797L93.366 284.608ZM96.768 290.656L94.911 291.399L94.9237 291.43L94.9374 291.461L96.768 290.656ZM80.892 316.864L82.092 318.464L82.2057 318.379L82.3062 318.278L80.892 316.864ZM80.892 296.704L79.4778 298.118L79.5783 298.219L79.692 298.304L80.892 296.704ZM24.444 316.864L22.844 318.064L23.0154 318.293L23.244 318.464L24.444 316.864ZM77.112 279.064L78.5262 280.478L78.5262 280.478L77.112 279.064ZM77.112 260.542L75.512 261.742L75.6834 261.971L75.912 262.142L77.112 260.542ZM24.444 260.542L25.8582 261.956L25.8582 261.956L24.444 260.542ZM24.444 279.064L22.844 280.264L23.0154 280.493L23.244 280.664L24.444 279.064ZM9.434 334V243.28H5.434V334H9.434ZM7.434 245.28H76.986V241.28H7.434V245.28ZM76.986 245.28C81.2334 245.28 84.8436 246.784 87.9198 249.86L90.7482 247.032C86.9364 243.22 82.3146 241.28 76.986 241.28V245.28ZM87.9198 249.86C90.996 252.936 92.5 256.547 92.5 260.794H96.5C96.5 255.465 94.56 250.844 90.7482 247.032L87.9198 249.86ZM92.5 260.794V278.56H96.5V260.794H92.5ZM92.5 278.56C92.5 279.549 92.4239 280.489 92.2752 281.381L96.2208 282.039C96.4081 280.915 96.5 279.755 96.5 278.56H92.5ZM92.2752 281.381C92.1357 282.218 91.8925 283.016 91.5453 283.78L95.1867 285.436C95.6795 284.352 96.0243 283.218 96.2208 282.039L92.2752 281.381ZM91.7577 285.797C93.0904 287.6 94.1383 289.467 94.911 291.399L98.625 289.913C97.7177 287.645 96.4976 285.48 94.9744 283.419L91.7577 285.797ZM94.9374 291.461C95.7601 293.331 96.154 295.158 96.154 296.956H100.154C100.154 294.554 99.6239 292.181 98.5986 289.851L94.9374 291.461ZM96.154 296.956V316.486H100.154V296.956H96.154ZM96.154 316.486C96.154 320.733 94.65 324.344 91.5738 327.42L94.4022 330.248C98.214 326.436 100.154 321.815 100.154 316.486H96.154ZM91.5738 327.42C88.505 330.489 84.8558 332 80.514 332V336C85.9163 336 90.583 334.067 94.4022 330.248L91.5738 327.42ZM80.514 332H7.434V336H80.514V332ZM28.476 319.242H76.986V315.242H28.476V319.242ZM76.986 319.242C78.1451 319.242 79.1113 319.21 79.8561 319.138C80.2263 319.102 80.5862 319.053 80.9086 318.978C81.167 318.919 81.6571 318.79 82.092 318.464L79.692 315.264C79.9589 315.064 80.1602 315.046 80.0092 315.081C79.922 315.101 79.7517 315.13 79.4709 315.157C78.9137 315.211 78.0949 315.242 76.986 315.242V319.242ZM82.3062 318.278C82.748 317.836 82.9379 317.299 83.0282 316.998C83.1355 316.64 83.2053 316.246 83.2546 315.852C83.3537 315.059 83.396 314.04 83.396 312.832H79.396C79.396 313.976 79.3544 314.805 79.2854 315.356C79.2507 315.634 79.2155 315.786 79.1969 315.848C79.1612 315.967 79.204 315.724 79.4778 315.45L82.3062 318.278ZM83.396 312.832V300.61H79.396V312.832H83.396ZM83.396 300.61C83.396 299.404 83.3539 298.391 83.2536 297.614C83.204 297.23 83.1319 296.833 83.0149 296.473C82.926 296.199 82.696 295.557 82.092 295.104L79.692 298.304C79.4453 298.119 79.3207 297.922 79.2736 297.84C79.2223 297.75 79.2062 297.695 79.2101 297.707C79.2191 297.735 79.252 297.858 79.2864 298.125C79.3541 298.65 79.396 299.464 79.396 300.61H83.396ZM82.3062 295.29C81.8734 294.857 81.3505 294.665 81.0471 294.572C80.6928 294.463 80.305 294.392 79.9194 294.342C79.1442 294.242 78.1537 294.2 76.986 294.2V298.2C78.0863 298.2 78.8808 298.242 79.4076 298.31C79.673 298.344 79.8155 298.378 79.8707 298.395C79.9768 298.428 79.7427 298.383 79.4778 298.118L82.3062 295.29ZM76.986 294.2H28.476V298.2H76.986V294.2ZM28.476 294.2C27.2679 294.2 26.2487 294.242 25.4559 294.341C25.062 294.391 24.6681 294.461 24.3103 294.568C24.0093 294.658 23.4715 294.848 23.0298 295.29L25.8582 298.118C25.5845 298.392 25.3407 298.435 25.4597 298.399C25.5219 298.38 25.674 298.345 25.9521 298.311C26.5033 298.242 27.3321 298.2 28.476 298.2V294.2ZM23.0298 295.29C22.5381 295.782 22.3859 296.409 22.3353 296.617C22.2561 296.943 22.2055 297.308 22.1698 297.677C22.0976 298.423 22.066 299.412 22.066 300.61H26.066C26.066 299.456 26.0974 298.618 26.1512 298.062C26.1785 297.78 26.2067 297.625 26.222 297.563C26.2295 297.532 26.224 297.565 26.1937 297.636C26.1718 297.687 26.0796 297.897 25.8582 298.118L23.0298 295.29ZM22.066 300.61V312.832H26.066V300.61H22.066ZM22.066 312.832C22.066 314.032 22.0977 315.028 22.1692 315.791C22.2048 316.17 22.2541 316.536 22.3274 316.862C22.3851 317.118 22.5118 317.621 22.844 318.064L26.044 315.664C26.2502 315.939 26.2667 316.148 26.2298 315.984C26.2087 315.89 26.1792 315.71 26.1518 315.417C26.0973 314.836 26.066 313.984 26.066 312.832H22.066ZM23.244 318.464C23.6869 318.796 24.1898 318.923 24.446 318.981C24.772 319.054 25.1383 319.103 25.5173 319.139C26.2805 319.21 27.276 319.242 28.476 319.242V315.242C27.324 315.242 26.4715 315.211 25.8907 315.156C25.5978 315.129 25.418 315.099 25.324 315.078C25.1602 315.041 25.3691 315.058 25.644 315.264L23.244 318.464ZM28.476 281.442H73.332V277.442H28.476V281.442ZM73.332 281.442C74.4894 281.442 75.4486 281.41 76.177 281.338C76.5369 281.302 76.8965 281.25 77.2191 281.17C77.4332 281.116 78.0434 280.961 78.5262 280.478L75.6978 277.65C75.9117 277.436 76.114 277.344 76.1686 277.32C76.2403 277.289 76.2759 277.282 76.2489 277.289C76.1936 277.303 76.0491 277.33 75.779 277.357C75.2474 277.411 74.4426 277.442 73.332 277.442V281.442ZM78.5262 280.478C78.968 280.036 79.1579 279.499 79.2482 279.198C79.3555 278.84 79.4253 278.446 79.4746 278.052C79.5737 277.259 79.616 276.24 79.616 275.032H75.616C75.616 276.176 75.5744 277.005 75.5054 277.556C75.4707 277.834 75.4355 277.986 75.4169 278.048C75.3812 278.167 75.424 277.924 75.6978 277.65L78.5262 280.478ZM79.616 275.032V264.448H75.616V275.032H79.616ZM79.616 264.448C79.616 263.242 79.5739 262.229 79.4736 261.452C79.424 261.068 79.3519 260.671 79.235 260.311C79.146 260.037 78.916 259.395 78.312 258.942L75.912 262.142C75.6653 261.957 75.5407 261.76 75.4936 261.678C75.4423 261.588 75.4262 261.533 75.4301 261.545C75.4391 261.573 75.472 261.696 75.5065 261.963C75.5742 262.488 75.616 263.302 75.616 264.448H79.616ZM78.712 259.342C78.2684 258.751 77.6467 258.518 77.3665 258.424C77.0088 258.305 76.6181 258.232 76.2423 258.182C75.4822 258.08 74.4974 258.038 73.332 258.038V262.038C74.4346 262.038 75.2138 262.08 75.7137 262.146C75.8337 262.162 75.9264 262.178 75.9953 262.193C76.0294 262.2 76.0552 262.206 76.0737 262.211C76.0829 262.213 76.0897 262.215 76.0945 262.217C76.0993 262.218 76.1016 262.219 76.1015 262.219C76.1015 262.219 76.0988 262.218 76.0935 262.216C76.0882 262.214 76.0798 262.211 76.0687 262.206C76.0475 262.197 76.0104 262.179 75.9625 262.151C75.8786 262.102 75.6901 261.979 75.512 261.742L78.712 259.342ZM73.332 258.038H28.476V262.038H73.332V258.038ZM28.476 258.038C27.2679 258.038 26.2487 258.08 25.4559 258.179C25.062 258.229 24.6681 258.299 24.3103 258.406C24.0093 258.496 23.4715 258.686 23.0298 259.128L25.8582 261.956C25.5845 262.23 25.3407 262.273 25.4597 262.237C25.5219 262.218 25.674 262.183 25.9521 262.149C26.5033 262.08 27.3321 262.038 28.476 262.038V258.038ZM23.0298 259.128C22.5381 259.619 22.3859 260.247 22.3353 260.455C22.2561 260.781 22.2055 261.146 22.1698 261.515C22.0976 262.261 22.066 263.25 22.066 264.448H26.066C26.066 263.294 26.0974 262.456 26.1512 261.9C26.1785 261.618 26.2067 261.463 26.222 261.401C26.2295 261.37 26.224 261.403 26.1937 261.474C26.1718 261.525 26.0795 261.735 25.8582 261.956L23.0298 259.128ZM22.066 264.448V275.032H26.066V264.448H22.066ZM22.066 275.032C22.066 276.232 22.0977 277.228 22.1692 277.991C22.2048 278.37 22.2541 278.736 22.3274 279.062C22.3851 279.318 22.5118 279.821 22.844 280.264L26.044 277.864C26.2502 278.139 26.2667 278.348 26.2298 278.184C26.2087 278.09 26.1792 277.91 26.1518 277.617C26.0973 277.036 26.066 276.184 26.066 275.032H22.066ZM23.244 280.664C23.6869 280.996 24.1898 281.123 24.446 281.181C24.772 281.254 25.1383 281.303 25.5173 281.339C26.2805 281.41 27.276 281.442 28.476 281.442V277.442C27.324 277.442 26.4715 277.411 25.8907 277.356C25.5977 277.329 25.418 277.299 25.324 277.278C25.1602 277.241 25.3691 277.258 25.644 277.464L23.244 280.664ZM125.878 334H123.878V336H125.878V334ZM125.878 243.154V241.154H123.878V243.154H125.878ZM142.51 243.154H144.51V241.154H142.51V243.154ZM142.51 317.242H140.51V319.242H142.51V317.242ZM216.598 317.242H218.598V315.242H216.598V317.242ZM216.598 334V336H218.598V334H216.598ZM127.878 334V243.154H123.878V334H127.878ZM125.878 245.154H142.51V241.154H125.878V245.154ZM140.51 243.154V317.242H144.51V243.154H140.51ZM142.51 319.242H216.598V315.242H142.51V319.242ZM214.598 317.242V334H218.598V317.242H214.598ZM216.598 332H125.878V336H216.598V332ZM242.717 328.834L244.132 327.42L242.717 328.834ZM237.551 243.28V241.28H235.551V243.28H237.551ZM254.183 243.28H256.183V241.28H254.183V243.28ZM254.561 316.864L252.961 318.064L253.133 318.293L253.361 318.464L254.561 316.864ZM311.009 316.864L312.209 318.464L312.323 318.379L312.424 318.278L311.009 316.864ZM311.513 243.28V241.28H309.513V243.28H311.513ZM328.271 243.28H330.271V241.28H328.271V243.28ZM255.065 332C250.818 332 247.208 330.496 244.132 327.42L241.303 330.248C245.115 334.06 249.737 336 255.065 336V332ZM244.132 327.42C241.055 324.344 239.551 320.733 239.551 316.486H235.551C235.551 321.815 237.491 326.436 241.303 330.248L244.132 327.42ZM239.551 316.486V243.28H235.551V316.486H239.551ZM237.551 245.28H254.183V241.28H237.551V245.28ZM252.183 243.28V312.832H256.183V243.28H252.183ZM252.183 312.832C252.183 314.032 252.215 315.028 252.287 315.791C252.322 316.17 252.371 316.536 252.445 316.862C252.502 317.118 252.629 317.621 252.961 318.064L256.161 315.664C256.368 315.939 256.384 316.148 256.347 315.984C256.326 315.89 256.297 315.71 256.269 315.417C256.215 314.836 256.183 313.984 256.183 312.832H252.183ZM253.361 318.464C253.804 318.796 254.307 318.923 254.563 318.981C254.889 319.054 255.256 319.103 255.635 319.139C256.398 319.21 257.393 319.242 258.593 319.242V315.242C257.441 315.242 256.589 315.211 256.008 315.156C255.715 315.129 255.535 315.099 255.441 315.078C255.278 315.041 255.486 315.058 255.761 315.264L253.361 318.464ZM258.593 319.242H307.103V315.242H258.593V319.242ZM307.103 319.242C308.262 319.242 309.229 319.21 309.974 319.138C310.344 319.102 310.704 319.053 311.026 318.978C311.284 318.919 311.774 318.79 312.209 318.464L309.809 315.264C310.076 315.064 310.278 315.046 310.126 315.081C310.039 315.101 309.869 315.13 309.588 315.157C309.031 315.211 308.212 315.242 307.103 315.242V319.242ZM312.424 318.278C312.865 317.836 313.055 317.299 313.146 316.998C313.253 316.64 313.323 316.246 313.372 315.852C313.471 315.059 313.513 314.04 313.513 312.832H309.513C309.513 313.976 309.472 314.805 309.403 315.356C309.368 315.634 309.333 315.786 309.314 315.848C309.279 315.967 309.321 315.724 309.595 315.45L312.424 318.278ZM313.513 312.832V243.28H309.513V312.832H313.513ZM311.513 245.28H328.271V241.28H311.513V245.28ZM326.271 243.28V316.486H330.271V243.28H326.271ZM326.271 316.486C326.271 320.733 324.767 324.344 321.691 327.42L324.52 330.248C328.331 326.436 330.271 321.815 330.271 316.486H326.271ZM321.691 327.42C318.615 330.496 315.005 332 310.757 332V336C316.086 336 320.708 334.06 324.52 330.248L321.691 327.42ZM310.757 332H255.065V336H310.757V332ZM356.259 334H354.259V336H356.259V334ZM356.259 243.28V241.28H354.259V243.28H356.259ZM439.797 243.28H441.797V241.28H439.797V243.28ZM439.797 260.038V262.038H441.797V260.038H439.797ZM373.017 260.038V258.038H371.017V260.038H373.017ZM373.017 280.198H371.017V282.198H373.017V280.198ZM426.693 280.198H428.693V278.198H426.693V280.198ZM426.693 296.956V298.956H428.693V296.956H426.693ZM373.017 296.956V294.956H371.017V296.956H373.017ZM373.017 317.242H371.017V319.242H373.017V317.242ZM439.797 317.242H441.797V315.242H439.797V317.242ZM439.797 334V336H441.797V334H439.797ZM358.259 334V243.28H354.259V334H358.259ZM356.259 245.28H439.797V241.28H356.259V245.28ZM437.797 243.28V260.038H441.797V243.28H437.797ZM439.797 258.038H373.017V262.038H439.797V258.038ZM371.017 260.038V280.198H375.017V260.038H371.017ZM373.017 282.198H426.693V278.198H373.017V282.198ZM424.693 280.198V296.956H428.693V280.198H424.693ZM426.693 294.956H373.017V298.956H426.693V294.956ZM371.017 296.956V317.242H375.017V296.956H371.017ZM373.017 319.242H439.797V315.242H373.017V319.242ZM437.797 317.242V334H441.797V317.242H437.797ZM439.797 332H356.259V336H439.797V332ZM463.506 334H461.506V336H463.506V334ZM463.506 243.28V241.28H461.506V243.28H463.506ZM481.776 243.28L483.308 241.994L482.708 241.28H481.776V243.28ZM514.662 282.466L513.13 283.752L514.665 285.581L516.196 283.749L514.662 282.466ZM547.422 243.28V241.28H546.487L545.887 241.997L547.422 243.28ZM565.818 243.28H567.818V241.28H565.818V243.28ZM565.818 334V336H567.818V334H565.818ZM549.06 334H547.06V336H549.06V334ZM549.06 267.472H551.06V261.982L547.528 266.186L549.06 267.472ZM514.662 308.422L513.135 309.713L514.667 311.525L516.193 309.708L514.662 308.422ZM480.138 267.598L481.665 266.307L478.138 262.136V267.598H480.138ZM480.138 334V336H482.138V334H480.138ZM465.506 334V243.28H461.506V334H465.506ZM463.506 245.28H481.776V241.28H463.506V245.28ZM480.244 244.566L513.13 283.752L516.194 281.18L483.308 241.994L480.244 244.566ZM516.196 283.749L548.956 244.563L545.887 241.997L513.127 281.183L516.196 283.749ZM547.422 245.28H565.818V241.28H547.422V245.28ZM563.818 243.28V334H567.818V243.28H563.818ZM565.818 332H549.06V336H565.818V332ZM551.06 334V267.472H547.06V334H551.06ZM547.528 266.186L513.13 307.136L516.193 309.708L550.591 268.758L547.528 266.186ZM516.189 307.131L481.665 266.307L478.611 268.889L513.135 309.713L516.189 307.131ZM478.138 267.598V334H482.138V267.598H478.138ZM480.138 332H463.506V336H480.138V332ZM599.174 328.834L600.589 327.42L599.174 328.834ZM599.174 248.446L600.589 249.86L599.174 248.446ZM667.466 316.864L668.666 318.464L668.78 318.379L668.88 318.278L667.466 316.864ZM667.466 260.542L666.052 261.956L666.153 262.057L666.266 262.142L667.466 260.542ZM611.018 260.542L612.432 261.956V261.956L611.018 260.542ZM611.018 316.864L609.418 318.064L609.59 318.293L609.818 318.464L611.018 316.864ZM611.522 332C607.275 332 603.665 330.496 600.589 327.42L597.76 330.248C601.572 334.06 606.194 336 611.522 336V332ZM600.589 327.42C597.512 324.344 596.008 320.733 596.008 316.486H592.008C592.008 321.815 593.948 326.436 597.76 330.248L600.589 327.42ZM596.008 316.486V260.794H592.008V316.486H596.008ZM596.008 260.794C596.008 256.547 597.512 252.936 600.589 249.86L597.76 247.032C593.948 250.844 592.008 255.465 592.008 260.794H596.008ZM600.589 249.86C603.665 246.784 607.275 245.28 611.522 245.28V241.28C606.194 241.28 601.572 243.22 597.76 247.032L600.589 249.86ZM611.522 245.28H667.214V241.28H611.522V245.28ZM667.214 245.28C671.462 245.28 675.072 246.784 678.148 249.86L680.977 247.032C677.165 243.22 672.543 241.28 667.214 241.28V245.28ZM678.148 249.86C681.224 252.936 682.728 256.547 682.728 260.794H686.728C686.728 255.465 684.788 250.844 680.977 247.032L678.148 249.86ZM682.728 260.794V316.486H686.728V260.794H682.728ZM682.728 316.486C682.728 320.733 681.224 324.344 678.148 327.42L680.977 330.248C684.788 326.436 686.728 321.815 686.728 316.486H682.728ZM678.148 327.42C675.072 330.496 671.462 332 667.214 332V336C672.543 336 677.165 334.06 680.977 330.248L678.148 327.42ZM667.214 332H611.522V336H667.214V332ZM615.05 319.242H663.56V315.242H615.05V319.242ZM663.56 319.242C664.719 319.242 665.686 319.21 666.43 319.138C666.801 319.102 667.161 319.053 667.483 318.978C667.741 318.919 668.231 318.79 668.666 318.464L666.266 315.264C666.533 315.064 666.734 315.046 666.583 315.081C666.496 315.101 666.326 315.13 666.045 315.157C665.488 315.211 664.669 315.242 663.56 315.242V319.242ZM668.88 318.278C669.322 317.836 669.512 317.299 669.602 316.998C669.71 316.64 669.78 316.246 669.829 315.852C669.928 315.059 669.97 314.04 669.97 312.832H665.97C665.97 313.976 665.929 314.805 665.86 315.356C665.825 315.634 665.79 315.786 665.771 315.848C665.735 315.967 665.778 315.724 666.052 315.45L668.88 318.278ZM669.97 312.832V264.448H665.97V312.832H669.97ZM669.97 264.448C669.97 263.242 669.928 262.229 669.828 261.452C669.778 261.068 669.706 260.671 669.589 260.311C669.5 260.037 669.27 259.395 668.666 258.942L666.266 262.142C666.02 261.957 665.895 261.76 665.848 261.678C665.797 261.588 665.781 261.533 665.784 261.545C665.793 261.573 665.826 261.696 665.861 261.963C665.928 262.488 665.97 263.302 665.97 264.448H669.97ZM668.88 259.128C668.448 258.695 667.925 258.503 667.621 258.41C667.267 258.301 666.879 258.23 666.494 258.18C665.719 258.08 664.728 258.038 663.56 258.038V262.038C664.661 262.038 665.455 262.08 665.982 262.148C666.247 262.182 666.39 262.216 666.445 262.233C666.551 262.266 666.317 262.221 666.052 261.956L668.88 259.128ZM663.56 258.038H615.05V262.038H663.56V258.038ZM615.05 258.038C613.842 258.038 612.823 258.08 612.03 258.179C611.636 258.229 611.242 258.299 610.885 258.406C610.584 258.496 610.046 258.686 609.604 259.128L612.432 261.956C612.159 262.23 611.915 262.273 612.034 262.237C612.096 262.218 612.248 262.183 612.526 262.149C613.078 262.08 613.906 262.038 615.05 262.038V258.038ZM609.604 259.128C609.112 259.619 608.96 260.247 608.91 260.455C608.83 260.781 608.78 261.146 608.744 261.515C608.672 262.261 608.64 263.25 608.64 264.448H612.64C612.64 263.294 612.672 262.456 612.725 261.9C612.753 261.618 612.781 261.463 612.796 261.401C612.804 261.37 612.798 261.403 612.768 261.474C612.746 261.525 612.654 261.735 612.432 261.956L609.604 259.128ZM608.64 264.448V312.832H612.64V264.448H608.64ZM608.64 312.832C608.64 314.032 608.672 315.028 608.744 315.791C608.779 316.17 608.828 316.536 608.902 316.862C608.959 317.118 609.086 317.621 609.418 318.064L612.618 315.664C612.824 315.939 612.841 316.148 612.804 315.984C612.783 315.89 612.754 315.71 612.726 315.417C612.672 314.836 612.64 313.984 612.64 312.832H608.64ZM609.818 318.464C610.261 318.796 610.764 318.923 611.02 318.981C611.346 319.054 611.713 319.103 612.092 319.139C612.855 319.21 613.85 319.242 615.05 319.242V315.242C613.898 315.242 613.046 315.211 612.465 315.156C612.172 315.129 611.992 315.099 611.898 315.078C611.735 315.041 611.943 315.058 612.218 315.264L609.818 318.464ZM717.378 328.834L718.792 327.42L717.378 328.834ZM717.378 248.446L718.792 249.86L717.378 248.446ZM785.67 316.864L786.87 318.464L786.984 318.379L787.084 318.278L785.67 316.864ZM785.67 260.542L784.256 261.956L784.356 262.057L784.47 262.142L785.67 260.542ZM729.222 260.542L730.636 261.956V261.956L729.222 260.542ZM729.222 316.864L727.622 318.064L727.793 318.293L728.022 318.464L729.222 316.864ZM729.726 332C725.479 332 721.868 330.496 718.792 327.42L715.964 330.248C719.776 334.06 724.397 336 729.726 336V332ZM718.792 327.42C715.716 324.344 714.212 320.733 714.212 316.486H710.212C710.212 321.815 712.152 326.436 715.964 330.248L718.792 327.42ZM714.212 316.486V260.794H710.212V316.486H714.212ZM714.212 260.794C714.212 256.547 715.716 252.936 718.792 249.86L715.964 247.032C712.152 250.844 710.212 255.465 710.212 260.794H714.212ZM718.792 249.86C721.868 246.784 725.479 245.28 729.726 245.28V241.28C724.397 241.28 719.776 243.22 715.964 247.032L718.792 249.86ZM729.726 245.28H785.418V241.28H729.726V245.28ZM785.418 245.28C789.665 245.28 793.276 246.784 796.352 249.86L799.18 247.032C795.368 243.22 790.747 241.28 785.418 241.28V245.28ZM796.352 249.86C799.428 252.936 800.932 256.547 800.932 260.794H804.932C804.932 255.465 802.992 250.844 799.18 247.032L796.352 249.86ZM800.932 260.794V316.486H804.932V260.794H800.932ZM800.932 316.486C800.932 320.733 799.428 324.344 796.352 327.42L799.18 330.248C802.992 326.436 804.932 321.815 804.932 316.486H800.932ZM796.352 327.42C793.276 330.496 789.665 332 785.418 332V336C790.747 336 795.368 334.06 799.18 330.248L796.352 327.42ZM785.418 332H729.726V336H785.418V332ZM733.254 319.242H781.764V315.242H733.254V319.242ZM781.764 319.242C782.923 319.242 783.889 319.21 784.634 319.138C785.004 319.102 785.364 319.053 785.687 318.978C785.945 318.919 786.435 318.79 786.87 318.464L784.47 315.264C784.737 315.064 784.938 315.046 784.787 315.081C784.7 315.101 784.53 315.13 784.249 315.157C783.692 315.211 782.873 315.242 781.764 315.242V319.242ZM787.084 318.278C787.526 317.836 787.716 317.299 787.806 316.998C787.914 316.64 787.983 316.246 788.033 315.852C788.132 315.059 788.174 314.04 788.174 312.832H784.174C784.174 313.976 784.132 314.805 784.063 315.356C784.029 315.634 783.994 315.786 783.975 315.848C783.939 315.967 783.982 315.724 784.256 315.45L787.084 318.278ZM788.174 312.832V264.448H784.174V312.832H788.174ZM788.174 264.448C788.174 263.242 788.132 262.229 788.032 261.452C787.982 261.068 787.91 260.671 787.793 260.311C787.704 260.037 787.474 259.395 786.87 258.942L784.47 262.142C784.223 261.957 784.099 261.76 784.052 261.678C784 261.588 783.984 261.533 783.988 261.545C783.997 261.573 784.03 261.696 784.064 261.963C784.132 262.488 784.174 263.302 784.174 264.448H788.174ZM787.084 259.128C786.651 258.695 786.128 258.503 785.825 258.41C785.471 258.301 785.083 258.23 784.697 258.18C783.922 258.08 782.932 258.038 781.764 258.038V262.038C782.864 262.038 783.659 262.08 784.186 262.148C784.451 262.182 784.594 262.216 784.649 262.233C784.755 262.266 784.521 262.221 784.256 261.956L787.084 259.128ZM781.764 258.038H733.254V262.038H781.764V258.038ZM733.254 258.038C732.046 258.038 731.027 258.08 730.234 258.179C729.84 258.229 729.446 258.299 729.088 258.406C728.787 258.496 728.25 258.686 727.808 259.128L730.636 261.956C730.362 262.23 730.119 262.273 730.238 262.237C730.3 262.218 730.452 262.183 730.73 262.149C731.281 262.08 732.11 262.038 733.254 262.038V258.038ZM727.808 259.128C727.316 259.619 727.164 260.247 727.113 260.455C727.034 260.781 726.984 261.146 726.948 261.515C726.876 262.261 726.844 263.25 726.844 264.448H730.844C730.844 263.294 730.875 262.456 730.929 261.9C730.957 261.618 730.985 261.463 731 261.401C731.008 261.37 731.002 261.403 730.972 261.474C730.95 261.525 730.858 261.735 730.636 261.956L727.808 259.128ZM726.844 264.448V312.832H730.844V264.448H726.844ZM726.844 312.832C726.844 314.032 726.876 315.028 726.947 315.791C726.983 316.17 727.032 316.536 727.105 316.862C727.163 317.118 727.29 317.621 727.622 318.064L730.822 315.664C731.028 315.939 731.045 316.148 731.008 315.984C730.987 315.89 730.957 315.71 730.93 315.417C730.875 314.836 730.844 313.984 730.844 312.832H726.844ZM728.022 318.464C728.465 318.796 728.968 318.923 729.224 318.981C729.55 319.054 729.916 319.103 730.295 319.139C731.058 319.21 732.054 319.242 733.254 319.242V315.242C732.102 315.242 731.25 315.211 730.669 315.156C730.376 315.129 730.196 315.099 730.102 315.078C729.938 315.041 730.147 315.058 730.422 315.264L728.022 318.464ZM830.668 334H828.668V336H830.668V334ZM830.668 243.28V241.28H828.668V243.28H830.668ZM848.938 243.28L850.469 241.993L849.87 241.28H848.938V243.28ZM904.63 309.556L903.099 310.843L906.63 315.045V309.556H904.63ZM904.63 243.28V241.28H902.63V243.28H904.63ZM921.388 243.28H923.388V241.28H921.388V243.28ZM921.388 334V336H923.388V334H921.388ZM903.118 334L901.587 335.287L902.186 336H903.118V334ZM847.3 267.598L848.831 266.311L845.3 262.111V267.598H847.3ZM847.3 334V336H849.3V334H847.3ZM832.668 334V243.28H828.668V334H832.668ZM830.668 245.28H848.938V241.28H830.668V245.28ZM847.407 244.567L903.099 310.843L906.161 308.269L850.469 241.993L847.407 244.567ZM906.63 309.556V243.28H902.63V309.556H906.63ZM904.63 245.28H921.388V241.28H904.63V245.28ZM919.388 243.28V334H923.388V243.28H919.388ZM921.388 332H903.118V336H921.388V332ZM904.649 332.713L848.831 266.311L845.769 268.885L901.587 335.287L904.649 332.713ZM845.3 267.598V334H849.3V267.598H845.3ZM847.3 332H830.668V336H847.3V332Z" fill="white"/>
<path opacity="0.04" d="M7.434 450H4.434V453H7.434V450ZM7.434 359.28V356.28H4.434V359.28H7.434ZM94.248 397.71L91.2888 397.217L91.2888 397.217L94.248 397.71ZM93.366 400.608L90.6349 399.367L89.9049 400.973L90.9535 402.391L93.366 400.608ZM96.768 406.656L93.9826 407.77L94.0015 407.818L94.0221 407.864L96.768 406.656ZM80.892 432.864L82.692 435.264L82.8626 435.136L83.0133 434.985L80.892 432.864ZM80.892 412.704L78.7707 414.825L78.9214 414.976L79.092 415.104L80.892 412.704ZM24.444 432.864L22.044 434.664L22.3011 435.007L22.644 435.264L24.444 432.864ZM77.112 395.064L79.2333 397.185L79.2333 397.185L77.112 395.064ZM77.112 376.542L74.712 378.342L74.9692 378.685L75.312 378.942L77.112 376.542ZM24.444 376.542L26.5653 378.663L26.5653 378.663L24.444 376.542ZM24.444 395.064L22.044 396.864L22.3011 397.207L22.644 397.464L24.444 395.064ZM10.434 450V359.28H4.434V450H10.434ZM7.434 362.28H76.986V356.28H7.434V362.28ZM76.986 362.28C80.9631 362.28 84.3204 363.675 87.2127 366.567L91.4553 362.325C87.4596 358.329 82.5849 356.28 76.986 356.28V362.28ZM87.2127 366.567C90.105 369.46 91.5 372.817 91.5 376.794H97.5C97.5 371.195 95.451 366.32 91.4553 362.325L87.2127 366.567ZM91.5 376.794V394.56H97.5V376.794H91.5ZM91.5 394.56C91.5 395.498 91.4279 396.382 91.2888 397.217L97.2072 398.203C97.4041 397.022 97.5 395.806 97.5 394.56H91.5ZM91.2888 397.217C91.1636 397.968 90.9458 398.683 90.6349 399.367L96.0971 401.849C96.6262 400.685 96.9964 399.468 97.2072 398.203L91.2888 397.217ZM90.9535 402.391C92.2385 404.13 93.2435 405.923 93.9826 407.77L99.5534 405.542C98.6125 403.189 97.3495 400.95 95.7785 398.825L90.9535 402.391ZM94.0221 407.864C94.7942 409.619 95.154 411.309 95.154 412.956H101.154C101.154 410.403 100.59 407.893 99.5139 405.448L94.0221 407.864ZM95.154 412.956V432.486H101.154V412.956H95.154ZM95.154 432.486C95.154 436.463 93.759 439.82 90.8667 442.713L95.1093 446.955C99.105 442.96 101.154 438.085 101.154 432.486H95.154ZM90.8667 442.713C87.9855 445.594 84.5906 447 80.514 447V453C86.1814 453 91.1025 450.962 95.1093 446.955L90.8667 442.713ZM80.514 447H7.434V453H80.514V447ZM28.476 436.242H76.986V430.242H28.476V436.242ZM76.986 436.242C78.1576 436.242 79.1607 436.21 79.9525 436.134C80.3449 436.096 80.7523 436.041 81.1335 435.953C81.4187 435.887 82.0816 435.722 82.692 435.264L79.092 430.464C79.3516 430.269 79.5726 430.18 79.6506 430.15C79.7438 430.114 79.7965 430.103 79.7843 430.106C79.756 430.113 79.6331 430.136 79.3745 430.161C78.8643 430.211 78.0824 430.242 76.986 430.242V436.242ZM83.0133 434.985C83.634 434.365 83.882 433.632 83.986 433.285C84.1155 432.853 84.194 432.399 84.2468 431.976C84.3535 431.123 84.396 430.056 84.396 428.832H78.396C78.396 429.96 78.3545 430.741 78.2932 431.232C78.262 431.481 78.2355 431.573 78.239 431.561C78.2418 431.552 78.266 431.471 78.3269 431.349C78.3832 431.236 78.5159 430.997 78.7707 430.743L83.0133 434.985ZM84.396 428.832V416.61H78.396V428.832H84.396ZM84.396 416.61C84.396 415.389 84.3538 414.326 84.2453 413.486C84.192 413.072 84.1101 412.608 83.9662 412.164C83.8642 411.85 83.556 410.952 82.692 410.304L79.092 415.104C78.701 414.811 78.4943 414.492 78.4054 414.336C78.31 414.169 78.2688 414.046 78.2588 414.015C78.2409 413.96 78.264 414.016 78.2947 414.253C78.3542 414.715 78.396 415.479 78.396 416.61H84.396ZM83.0133 410.583C82.406 409.975 81.6939 409.725 81.3411 409.616C80.9121 409.484 80.463 409.404 80.0474 409.351C79.2101 409.243 78.1705 409.2 76.986 409.2V415.2C78.0695 415.2 78.8149 415.241 79.2796 415.301C79.5151 415.332 79.5962 415.357 79.5766 415.351C79.5633 415.347 79.4811 415.321 79.3597 415.259C79.2458 415.201 79.016 415.071 78.7707 414.825L83.0133 410.583ZM76.986 409.2H28.476V415.2H76.986V409.2ZM28.476 409.2C27.2518 409.2 26.185 409.243 25.3319 409.349C24.909 409.402 24.4546 409.481 24.023 409.61C23.6764 409.714 22.9433 409.962 22.3227 410.583L26.5653 414.825C26.3105 415.08 26.0716 415.213 25.9589 415.269C25.8371 415.33 25.7562 415.354 25.747 415.357C25.7354 415.36 25.827 415.334 26.0761 415.303C26.567 415.241 27.3482 415.2 28.476 415.2V409.2ZM22.3227 410.583C21.6166 411.289 21.4159 412.166 21.3636 412.381C21.2685 412.772 21.2122 413.19 21.1745 413.581C21.0976 414.375 21.066 415.401 21.066 416.61H27.066C27.066 415.467 27.0974 414.666 27.1466 414.158C27.1718 413.898 27.1943 413.796 27.1936 413.799C27.1931 413.801 27.172 413.891 27.1128 414.029C27.0662 414.138 26.9131 414.478 26.5653 414.825L22.3227 410.583ZM21.066 416.61V428.832H27.066V416.61H21.066ZM21.066 428.832C21.066 430.044 21.0978 431.075 21.1736 431.884C21.2112 432.285 21.2654 432.698 21.3518 433.082C21.4146 433.361 21.5772 434.042 22.044 434.664L26.844 431.064C27.0457 431.333 27.1362 431.562 27.1644 431.637C27.1991 431.73 27.2091 431.781 27.2055 431.764C27.1974 431.728 27.1728 431.595 27.1474 431.324C27.0972 430.789 27.066 429.972 27.066 428.832H21.066ZM22.644 435.264C23.2664 435.731 23.9471 435.893 24.2265 435.956C24.6104 436.043 25.0234 436.097 25.424 436.134C26.2327 436.21 27.2641 436.242 28.476 436.242V430.242C27.3359 430.242 26.5193 430.211 25.984 430.161C25.7126 430.135 25.5796 430.111 25.5435 430.103C25.5273 430.099 25.5781 430.109 25.6706 430.144C25.7459 430.172 25.975 430.262 26.244 430.464L22.644 435.264ZM28.476 398.442H73.332V392.442H28.476V398.442ZM73.332 398.442C74.5011 398.442 75.499 398.41 76.2765 398.333C76.6588 398.294 77.0722 398.237 77.4616 398.14C77.6883 398.083 78.5406 397.878 79.2333 397.185L74.9907 392.943C75.3273 392.606 75.6544 392.454 75.7678 392.404C75.9069 392.343 75.9995 392.321 76.0064 392.319C76.0178 392.316 75.9272 392.338 75.6795 392.362C75.197 392.411 74.4309 392.442 73.332 392.442V398.442ZM79.2333 397.185C79.854 396.565 80.102 395.832 80.206 395.485C80.3355 395.053 80.414 394.599 80.4668 394.176C80.5735 393.323 80.616 392.256 80.616 391.032H74.616C74.616 392.16 74.5745 392.941 74.5132 393.432C74.482 393.681 74.4555 393.773 74.459 393.761C74.4618 393.752 74.486 393.671 74.5469 393.549C74.6032 393.436 74.7359 393.197 74.9907 392.943L79.2333 397.185ZM80.616 391.032V380.448H74.616V391.032H80.616ZM80.616 380.448C80.616 379.227 80.5738 378.164 80.4653 377.324C80.412 376.91 80.3301 376.446 80.1862 376.002C80.0842 375.688 79.776 374.79 78.912 374.142L75.312 378.942C74.921 378.649 74.7143 378.33 74.6254 378.174C74.53 378.007 74.4888 377.884 74.4788 377.853C74.4609 377.798 74.484 377.854 74.5147 378.091C74.5742 378.553 74.616 379.317 74.616 380.448H80.616ZM79.512 374.742C78.8782 373.897 78.0086 373.584 77.6827 373.475C77.2406 373.328 76.7806 373.244 76.3745 373.19C75.5492 373.08 74.5131 373.038 73.332 373.038V379.038C74.4189 379.038 75.1468 379.08 75.5815 379.138C75.8054 379.168 75.8494 379.189 75.7853 379.168C75.7497 379.156 75.6253 379.112 75.4586 379.015C75.3012 378.923 74.9949 378.719 74.712 378.342L79.512 374.742ZM73.332 373.038H28.476V379.038H73.332V373.038ZM28.476 373.038C27.2518 373.038 26.185 373.081 25.3319 373.187C24.909 373.24 24.4546 373.319 24.023 373.448C23.6764 373.552 22.9433 373.8 22.3227 374.421L26.5653 378.663C26.3105 378.918 26.0716 379.051 25.9589 379.107C25.8371 379.168 25.7562 379.192 25.747 379.195C25.7354 379.198 25.827 379.172 26.0761 379.141C26.567 379.079 27.3482 379.038 28.476 379.038V373.038ZM22.3227 374.421C21.6166 375.127 21.4159 376.004 21.3636 376.219C21.2685 376.61 21.2122 377.028 21.1745 377.419C21.0976 378.213 21.066 379.238 21.066 380.448H27.066C27.066 379.305 27.0974 378.504 27.1466 377.996C27.1718 377.736 27.1943 377.634 27.1936 377.637C27.1931 377.639 27.172 377.729 27.1128 377.867C27.0662 377.976 26.9131 378.316 26.5653 378.663L22.3227 374.421ZM21.066 380.448V391.032H27.066V380.448H21.066ZM21.066 391.032C21.066 392.244 21.0978 393.275 21.1736 394.084C21.2112 394.485 21.2654 394.898 21.3518 395.282C21.4146 395.561 21.5772 396.242 22.044 396.864L26.844 393.264C27.0457 393.533 27.1362 393.762 27.1644 393.837C27.1991 393.93 27.2091 393.981 27.2055 393.964C27.1974 393.928 27.1728 393.795 27.1474 393.524C27.0972 392.989 27.066 392.172 27.066 391.032H21.066ZM22.644 397.464C23.2664 397.931 23.9471 398.093 24.2265 398.156C24.6105 398.243 25.0234 398.297 25.424 398.334C26.2327 398.41 27.2641 398.442 28.476 398.442V392.442C27.3359 392.442 26.5193 392.411 25.984 392.361C25.7126 392.335 25.5796 392.311 25.5435 392.303C25.5273 392.299 25.5781 392.309 25.6706 392.344C25.7459 392.372 25.975 392.462 26.244 392.664L22.644 397.464ZM125.878 450H122.878V453H125.878V450ZM125.878 359.154V356.154H122.878V359.154H125.878ZM142.51 359.154H145.51V356.154H142.51V359.154ZM142.51 433.242H139.51V436.242H142.51V433.242ZM216.598 433.242H219.598V430.242H216.598V433.242ZM216.598 450V453H219.598V450H216.598ZM128.878 450V359.154H122.878V450H128.878ZM125.878 362.154H142.51V356.154H125.878V362.154ZM139.51 359.154V433.242H145.51V359.154H139.51ZM142.51 436.242H216.598V430.242H142.51V436.242ZM213.598 433.242V450H219.598V433.242H213.598ZM216.598 447H125.878V453H216.598V447ZM242.717 444.834L244.839 442.713L242.717 444.834ZM237.551 359.28V356.28H234.551V359.28H237.551ZM254.183 359.28H257.183V356.28H254.183V359.28ZM254.561 432.864L252.161 434.664L252.418 435.007L252.761 435.264L254.561 432.864ZM311.009 432.864L312.809 435.264L312.98 435.136L313.131 434.985L311.009 432.864ZM311.513 359.28V356.28H308.513V359.28H311.513ZM328.271 359.28H331.271V356.28H328.271V359.28ZM255.065 447C251.088 447 247.731 445.605 244.839 442.713L240.596 446.955C244.592 450.951 249.466 453 255.065 453V447ZM244.839 442.713C241.946 439.82 240.551 436.463 240.551 432.486H234.551C234.551 438.085 236.6 442.96 240.596 446.955L244.839 442.713ZM240.551 432.486V359.28H234.551V432.486H240.551ZM237.551 362.28H254.183V356.28H237.551V362.28ZM251.183 359.28V428.832H257.183V359.28H251.183ZM251.183 428.832C251.183 430.044 251.215 431.075 251.291 431.884C251.329 432.285 251.383 432.698 251.469 433.082C251.532 433.361 251.695 434.042 252.161 434.664L256.961 431.064C257.163 431.333 257.254 431.562 257.282 431.637C257.316 431.73 257.326 431.781 257.323 431.764C257.315 431.728 257.29 431.595 257.265 431.324C257.215 430.789 257.183 429.972 257.183 428.832H251.183ZM252.761 435.264C253.384 435.731 254.064 435.893 254.344 435.956C254.728 436.043 255.141 436.097 255.541 436.134C256.35 436.21 257.381 436.242 258.593 436.242V430.242C257.453 430.242 256.637 430.211 256.101 430.161C255.83 430.135 255.697 430.111 255.661 430.103C255.645 430.099 255.695 430.109 255.788 430.144C255.863 430.172 256.092 430.262 256.361 430.464L252.761 435.264ZM258.593 436.242H307.103V430.242H258.593V436.242ZM307.103 436.242C308.275 436.242 309.278 436.21 310.07 436.134C310.462 436.096 310.87 436.041 311.251 435.953C311.536 435.887 312.199 435.722 312.809 435.264L309.209 430.464C309.469 430.269 309.69 430.18 309.768 430.15C309.861 430.114 309.914 430.103 309.902 430.106C309.873 430.113 309.75 430.136 309.492 430.161C308.982 430.211 308.2 430.242 307.103 430.242V436.242ZM313.131 434.985C313.751 434.365 313.999 433.632 314.103 433.285C314.233 432.853 314.311 432.399 314.364 431.976C314.471 431.123 314.513 430.056 314.513 428.832H308.513C308.513 429.96 308.472 430.741 308.411 431.232C308.379 431.481 308.353 431.573 308.356 431.561C308.359 431.552 308.383 431.471 308.444 431.349C308.501 431.236 308.633 430.997 308.888 430.743L313.131 434.985ZM314.513 428.832V359.28H308.513V428.832H314.513ZM311.513 362.28H328.271V356.28H311.513V362.28ZM325.271 359.28V432.486H331.271V359.28H325.271ZM325.271 432.486C325.271 436.463 323.876 439.82 320.984 442.713L325.227 446.955C329.222 442.96 331.271 438.085 331.271 432.486H325.271ZM320.984 442.713C318.092 445.605 314.734 447 310.757 447V453C316.356 453 321.231 450.951 325.227 446.955L320.984 442.713ZM310.757 447H255.065V453H310.757V447ZM356.259 450H353.259V453H356.259V450ZM356.259 359.28V356.28H353.259V359.28H356.259ZM439.797 359.28H442.797V356.28H439.797V359.28ZM439.797 376.038V379.038H442.797V376.038H439.797ZM373.017 376.038V373.038H370.017V376.038H373.017ZM373.017 396.198H370.017V399.198H373.017V396.198ZM426.693 396.198H429.693V393.198H426.693V396.198ZM426.693 412.956V415.956H429.693V412.956H426.693ZM373.017 412.956V409.956H370.017V412.956H373.017ZM373.017 433.242H370.017V436.242H373.017V433.242ZM439.797 433.242H442.797V430.242H439.797V433.242ZM439.797 450V453H442.797V450H439.797ZM359.259 450V359.28H353.259V450H359.259ZM356.259 362.28H439.797V356.28H356.259V362.28ZM436.797 359.28V376.038H442.797V359.28H436.797ZM439.797 373.038H373.017V379.038H439.797V373.038ZM370.017 376.038V396.198H376.017V376.038H370.017ZM373.017 399.198H426.693V393.198H373.017V399.198ZM423.693 396.198V412.956H429.693V396.198H423.693ZM426.693 409.956H373.017V415.956H426.693V409.956ZM370.017 412.956V433.242H376.017V412.956H370.017ZM373.017 436.242H439.797V430.242H373.017V436.242ZM436.797 433.242V450H442.797V433.242H436.797ZM439.797 447H356.259V453H439.797V447ZM463.506 450H460.506V453H463.506V450ZM463.506 359.28V356.28H460.506V359.28H463.506ZM481.776 359.28L484.074 357.351L483.175 356.28H481.776V359.28ZM514.662 398.466L512.364 400.395L514.666 403.138L516.963 400.39L514.662 398.466ZM547.422 359.28V356.28H546.02L545.12 357.356L547.422 359.28ZM565.818 359.28H568.818V356.28H565.818V359.28ZM565.818 450V453H568.818V450H565.818ZM549.06 450H546.06V453H549.06V450ZM549.06 383.472H552.06V375.236L546.763 381.542L549.06 383.472ZM514.662 424.422L512.371 426.359L514.669 429.077L516.959 426.352L514.662 424.422ZM480.138 383.598L482.428 381.661L477.138 375.405V383.598H480.138ZM480.138 450V453H483.138V450H480.138ZM466.506 450V359.28H460.506V450H466.506ZM463.506 362.28H481.776V356.28H463.506V362.28ZM479.478 361.209L512.364 400.395L516.96 396.537L484.074 357.351L479.478 361.209ZM516.963 400.39L549.723 361.204L545.12 357.356L512.36 396.542L516.963 400.39ZM547.422 362.28H565.818V356.28H547.422V362.28ZM562.818 359.28V450H568.818V359.28H562.818ZM565.818 447H549.06V453H565.818V447ZM552.06 450V383.472H546.06V450H552.06ZM546.763 381.542L512.365 422.492L516.959 426.352L551.357 385.402L546.763 381.542ZM516.952 422.485L482.428 381.661L477.847 385.535L512.371 426.359L516.952 422.485ZM477.138 383.598V450H483.138V383.598H477.138ZM480.138 447H463.506V453H480.138V447ZM599.174 444.834L601.296 442.713L599.174 444.834ZM599.174 364.446L601.296 366.567L599.174 364.446ZM667.466 432.864L669.266 435.264L669.437 435.136L669.588 434.985L667.466 432.864ZM667.466 376.542L665.345 378.663L665.496 378.814L665.666 378.942L667.466 376.542ZM611.018 376.542L613.14 378.663V378.663L611.018 376.542ZM611.018 432.864L608.618 434.664L608.875 435.007L609.218 435.264L611.018 432.864ZM611.522 447C607.545 447 604.188 445.605 601.296 442.713L597.053 446.955C601.049 450.951 605.923 453 611.522 453V447ZM601.296 442.713C598.403 439.82 597.008 436.463 597.008 432.486H591.008C591.008 438.085 593.057 442.96 597.053 446.955L601.296 442.713ZM597.008 432.486V376.794H591.008V432.486H597.008ZM597.008 376.794C597.008 372.817 598.403 369.46 601.296 366.567L597.053 362.325C593.057 366.32 591.008 371.195 591.008 376.794H597.008ZM601.296 366.567C604.188 363.675 607.545 362.28 611.522 362.28V356.28C605.923 356.28 601.049 358.329 597.053 362.325L601.296 366.567ZM611.522 362.28H667.214V356.28H611.522V362.28ZM667.214 362.28C671.191 362.28 674.549 363.675 677.441 366.567L681.684 362.325C677.688 358.329 672.813 356.28 667.214 356.28V362.28ZM677.441 366.567C680.333 369.46 681.728 372.817 681.728 376.794H687.728C687.728 371.195 685.679 366.32 681.684 362.325L677.441 366.567ZM681.728 376.794V432.486H687.728V376.794H681.728ZM681.728 432.486C681.728 436.463 680.333 439.82 677.441 442.713L681.684 446.955C685.679 442.96 687.728 438.085 687.728 432.486H681.728ZM677.441 442.713C674.549 445.605 671.191 447 667.214 447V453C672.813 453 677.688 450.951 681.684 446.955L677.441 442.713ZM667.214 447H611.522V453H667.214V447ZM615.05 436.242H663.56V430.242H615.05V436.242ZM663.56 436.242C664.732 436.242 665.735 436.21 666.527 436.134C666.919 436.096 667.327 436.041 667.708 435.953C667.993 435.887 668.656 435.722 669.266 435.264L665.666 430.464C665.926 430.269 666.147 430.18 666.225 430.15C666.318 430.114 666.371 430.103 666.359 430.106C666.33 430.113 666.207 430.136 665.949 430.161C665.439 430.211 664.657 430.242 663.56 430.242V436.242ZM669.588 434.985C670.208 434.365 670.456 433.632 670.56 433.285C670.69 432.853 670.768 432.399 670.821 431.976C670.928 431.123 670.97 430.056 670.97 428.832H664.97C664.97 429.96 664.929 430.741 664.867 431.232C664.836 431.481 664.81 431.573 664.813 431.561C664.816 431.552 664.84 431.471 664.901 431.349C664.957 431.236 665.09 430.997 665.345 430.743L669.588 434.985ZM670.97 428.832V380.448H664.97V428.832H670.97ZM670.97 380.448C670.97 379.227 670.928 378.164 670.82 377.324C670.766 376.91 670.684 376.446 670.54 376.002C670.438 375.688 670.13 374.79 669.266 374.142L665.666 378.942C665.275 378.649 665.069 378.33 664.98 378.174C664.884 378.007 664.843 377.884 664.833 377.853C664.815 377.798 664.838 377.854 664.869 378.091C664.929 378.553 664.97 379.317 664.97 380.448H670.97ZM669.588 374.421C668.98 373.813 668.268 373.563 667.915 373.454C667.486 373.322 667.037 373.242 666.622 373.189C665.784 373.081 664.745 373.038 663.56 373.038V379.038C664.644 379.038 665.389 379.079 665.854 379.139C666.089 379.17 666.17 379.195 666.151 379.189C666.138 379.185 666.055 379.159 665.934 379.097C665.82 379.039 665.59 378.909 665.345 378.663L669.588 374.421ZM663.56 373.038H615.05V379.038H663.56V373.038ZM615.05 373.038C613.826 373.038 612.759 373.081 611.906 373.187C611.483 373.24 611.029 373.319 610.597 373.448C610.251 373.552 609.518 373.8 608.897 374.421L613.14 378.663C612.885 378.918 612.646 379.051 612.533 379.107C612.411 379.168 612.33 379.192 612.321 379.195C612.31 379.198 612.401 379.172 612.65 379.141C613.141 379.079 613.922 379.038 615.05 379.038V373.038ZM608.897 374.421C608.191 375.127 607.99 376.004 607.938 376.219C607.843 376.61 607.786 377.028 607.749 377.419C607.672 378.213 607.64 379.238 607.64 380.448H613.64C613.64 379.305 613.672 378.504 613.721 377.996C613.746 377.736 613.769 377.634 613.768 377.637C613.767 377.639 613.746 377.729 613.687 377.867C613.641 377.976 613.487 378.316 613.14 378.663L608.897 374.421ZM607.64 380.448V428.832H613.64V380.448H607.64ZM607.64 428.832C607.64 430.044 607.672 431.075 607.748 431.884C607.785 432.285 607.84 432.698 607.926 433.082C607.989 433.361 608.151 434.042 608.618 434.664L613.418 431.064C613.62 431.333 613.71 431.562 613.739 431.637C613.773 431.73 613.783 431.781 613.78 431.764C613.772 431.728 613.747 431.595 613.722 431.324C613.672 430.789 613.64 429.972 613.64 428.832H607.64ZM609.218 435.264C609.841 435.731 610.521 435.893 610.801 435.956C611.185 436.043 611.598 436.097 611.998 436.134C612.807 436.21 613.838 436.242 615.05 436.242V430.242C613.91 430.242 613.094 430.211 612.558 430.161C612.287 430.135 612.154 430.111 612.118 430.103C612.102 430.099 612.152 430.109 612.245 430.144C612.32 430.172 612.549 430.262 612.818 430.464L609.218 435.264ZM717.378 444.834L719.499 442.713L717.378 444.834ZM717.378 364.446L719.499 366.567L717.378 364.446ZM785.67 432.864L787.47 435.264L787.641 435.136L787.791 434.985L785.67 432.864ZM785.67 376.542L783.549 378.663L783.699 378.814L783.87 378.942L785.67 376.542ZM729.222 376.542L731.343 378.663V378.663L729.222 376.542ZM729.222 432.864L726.822 434.664L727.079 435.007L727.422 435.264L729.222 432.864ZM729.726 447C725.749 447 722.392 445.605 719.499 442.713L715.257 446.955C719.252 450.951 724.127 453 729.726 453V447ZM719.499 442.713C716.607 439.82 715.212 436.463 715.212 432.486H709.212C709.212 438.085 711.261 442.96 715.257 446.955L719.499 442.713ZM715.212 432.486V376.794H709.212V432.486H715.212ZM715.212 376.794C715.212 372.817 716.607 369.46 719.499 366.567L715.257 362.325C711.261 366.32 709.212 371.195 709.212 376.794H715.212ZM719.499 366.567C722.392 363.675 725.749 362.28 729.726 362.28V356.28C724.127 356.28 719.252 358.329 715.257 362.325L719.499 366.567ZM729.726 362.28H785.418V356.28H729.726V362.28ZM785.418 362.28C789.395 362.28 792.752 363.675 795.645 366.567L799.887 362.325C795.892 358.329 791.017 356.28 785.418 356.28V362.28ZM795.645 366.567C798.537 369.46 799.932 372.817 799.932 376.794H805.932C805.932 371.195 803.883 366.32 799.887 362.325L795.645 366.567ZM799.932 376.794V432.486H805.932V376.794H799.932ZM799.932 432.486C799.932 436.463 798.537 439.82 795.645 442.713L799.887 446.955C803.883 442.96 805.932 438.085 805.932 432.486H799.932ZM795.645 442.713C792.752 445.605 789.395 447 785.418 447V453C791.017 453 795.892 450.951 799.887 446.955L795.645 442.713ZM785.418 447H729.726V453H785.418V447ZM733.254 436.242H781.764V430.242H733.254V436.242ZM781.764 436.242C782.936 436.242 783.939 436.21 784.73 436.134C785.123 436.096 785.53 436.041 785.911 435.953C786.197 435.887 786.86 435.722 787.47 435.264L783.87 430.464C784.13 430.269 784.351 430.18 784.429 430.15C784.522 430.114 784.575 430.103 784.562 430.106C784.534 430.113 784.411 430.136 784.153 430.161C783.642 430.211 782.86 430.242 781.764 430.242V436.242ZM787.791 434.985C788.412 434.365 788.66 433.632 788.764 433.285C788.893 432.853 788.972 432.399 789.025 431.976C789.131 431.123 789.174 430.056 789.174 428.832H783.174C783.174 429.96 783.133 430.741 783.071 431.232C783.04 431.481 783.014 431.573 783.017 431.561C783.02 431.552 783.044 431.471 783.105 431.349C783.161 431.236 783.294 430.997 783.549 430.743L787.791 434.985ZM789.174 428.832V380.448H783.174V428.832H789.174ZM789.174 380.448C789.174 379.227 789.132 378.164 789.023 377.324C788.97 376.91 788.888 376.446 788.744 376.002C788.642 375.688 788.334 374.79 787.47 374.142L783.87 378.942C783.479 378.649 783.272 378.33 783.183 378.174C783.088 378.007 783.047 377.884 783.037 377.853C783.019 377.798 783.042 377.854 783.073 378.091C783.132 378.553 783.174 379.317 783.174 380.448H789.174ZM787.791 374.421C787.184 373.813 786.472 373.563 786.119 373.454C785.69 373.322 785.241 373.242 784.825 373.189C783.988 373.081 782.949 373.038 781.764 373.038V379.038C782.847 379.038 783.593 379.079 784.058 379.139C784.293 379.17 784.374 379.195 784.355 379.189C784.341 379.185 784.259 379.159 784.138 379.097C784.024 379.039 783.794 378.909 783.549 378.663L787.791 374.421ZM781.764 373.038H733.254V379.038H781.764V373.038ZM733.254 373.038C732.03 373.038 730.963 373.081 730.11 373.187C729.687 373.24 729.233 373.319 728.801 373.448C728.454 373.552 727.721 373.8 727.101 374.421L731.343 378.663C731.089 378.918 730.85 379.051 730.737 379.107C730.615 379.168 730.534 379.192 730.525 379.195C730.513 379.198 730.605 379.172 730.854 379.141C731.345 379.079 732.126 379.038 733.254 379.038V373.038ZM727.101 374.421C726.395 375.127 726.194 376.004 726.142 376.219C726.046 376.61 725.99 377.028 725.952 377.419C725.876 378.213 725.844 379.238 725.844 380.448H731.844C731.844 379.305 731.875 378.504 731.925 377.996C731.95 377.736 731.972 377.634 731.972 377.637C731.971 377.639 731.95 377.729 731.891 377.867C731.844 377.976 731.691 378.316 731.343 378.663L727.101 374.421ZM725.844 380.448V428.832H731.844V380.448H725.844ZM725.844 428.832C725.844 430.044 725.876 431.075 725.952 431.884C725.989 432.285 726.043 432.698 726.13 433.082C726.193 433.361 726.355 434.042 726.822 434.664L731.622 431.064C731.824 431.333 731.914 431.562 731.942 431.637C731.977 431.73 731.987 431.781 731.983 431.764C731.975 431.728 731.951 431.595 731.925 431.324C731.875 430.789 731.844 429.972 731.844 428.832H725.844ZM727.422 435.264C728.044 435.731 728.725 435.893 729.004 435.956C729.388 436.043 729.801 436.097 730.202 436.134C731.011 436.21 732.042 436.242 733.254 436.242V430.242C732.114 430.242 731.297 430.211 730.762 430.161C730.491 430.135 730.358 430.111 730.322 430.103C730.305 430.099 730.356 430.109 730.449 430.144C730.524 430.172 730.753 430.262 731.022 430.464L727.422 435.264ZM830.668 450H827.668V453H830.668V450ZM830.668 359.28V356.28H827.668V359.28H830.668ZM848.938 359.28L851.235 357.35L850.335 356.28H848.938V359.28ZM904.63 425.556L902.333 427.486L907.63 433.789V425.556H904.63ZM904.63 359.28V356.28H901.63V359.28H904.63ZM921.388 359.28H924.388V356.28H921.388V359.28ZM921.388 450V453H924.388V450H921.388ZM903.118 450L900.821 451.93L901.721 453H903.118V450ZM847.3 383.598L849.596 381.668L844.3 375.367V383.598H847.3ZM847.3 450V453H850.3V450H847.3ZM833.668 450V359.28H827.668V450H833.668ZM830.668 362.28H848.938V356.28H830.668V362.28ZM846.641 361.21L902.333 427.486L906.927 423.626L851.235 357.35L846.641 361.21ZM907.63 425.556V359.28H901.63V425.556H907.63ZM904.63 362.28H921.388V356.28H904.63V362.28ZM918.388 359.28V450H924.388V359.28H918.388ZM921.388 447H903.118V453H921.388V447ZM905.414 448.07L849.596 381.668L845.003 385.528L900.821 451.93L905.414 448.07ZM844.3 383.598V450H850.3V383.598H844.3ZM847.3 447H830.668V453H847.3V447Z" fill="white"/>
</svg>
