<svg width="1462" height="584" viewBox="0 0 1462 584" fill="none" xmlns="http://www.w3.org/2000/svg">
<g style="mix-blend-mode:hard-light">
<g style="mix-blend-mode:hard-light" opacity="0.63">
<path d="M3.01085 147.004H0V150H3.01085V147.004ZM3.01085 3.19573V0.199731H0V3.19573H3.01085ZM141.31 64.1145L138.341 63.622L141.31 64.1145ZM139.905 68.7084L137.164 67.4686L136.432 69.0724L137.483 70.4892L139.905 68.7084ZM145.325 78.2956L142.529 79.4083L142.548 79.4556L142.569 79.5022L145.325 78.2956ZM120.034 119.84L121.84 122.237L122.011 122.109L122.162 121.958L120.034 119.84ZM120.034 87.8828L117.904 90.0013L118.055 90.1519L118.227 90.2796L120.034 87.8828ZM30.1086 87.8828L32.2376 90.0013L30.1086 87.8828ZM30.1086 119.84L27.7 121.638L27.9581 121.98L28.3021 122.237L30.1086 119.84ZM114.012 59.9201L116.14 62.0386L114.012 59.9201ZM114.012 30.5593L111.603 32.3569L111.861 32.6993L112.205 32.9561L114.012 30.5593ZM30.1086 30.5593L32.2376 32.6777L30.1086 30.5593ZM30.1086 59.9201L27.7 61.7177L27.9581 62.0602L28.3021 62.3169L30.1086 59.9201ZM6.02171 147.004V3.19573H0V147.004H6.02171ZM3.01085 6.19174H113.811V0.199731H3.01085V6.19174ZM113.811 6.19174C120.625 6.19174 126.42 8.59491 131.352 13.5033L135.611 9.26635C129.571 3.25594 122.253 0.199731 113.811 0.199731V6.19174ZM131.352 13.5033C136.285 18.4118 138.701 24.1787 138.701 30.9587H144.723C144.723 22.559 141.651 15.2767 135.611 9.26635L131.352 13.5033ZM138.701 30.9587V59.1212H144.723V30.9587H138.701ZM138.701 59.1212C138.701 60.6984 138.578 62.1976 138.341 63.622L144.28 64.6071C144.577 62.8357 144.723 61.0061 144.723 59.1212H138.701ZM138.341 63.622C138.116 64.9637 137.723 66.2436 137.164 67.4686L142.646 69.9481C143.425 68.2437 143.969 66.4611 144.28 64.6071L138.341 63.622ZM137.483 70.4892C139.615 73.3587 141.292 76.3314 142.529 79.4083L148.12 77.1829C146.681 73.6021 144.745 70.1833 142.326 66.9276L137.483 70.4892ZM142.569 79.5022C143.889 82.4863 144.522 85.4059 144.522 88.2823H150.544C150.544 84.5008 149.705 80.7626 148.081 77.089L142.569 79.5022ZM144.522 88.2823V119.241H150.544V88.2823H144.522ZM144.522 119.241C144.522 126.021 142.106 131.788 137.173 136.697L141.432 140.933C147.472 134.923 150.544 127.641 150.544 119.241H144.522ZM137.173 136.697C132.253 141.594 126.394 144.008 119.431 144.008V150C127.99 150 135.381 146.955 141.432 140.933L137.173 136.697ZM119.431 144.008H3.01085V150H119.431V144.008ZM36.5318 123.435H113.811V117.443H36.5318V123.435ZM113.811 123.435C115.655 123.435 117.188 123.385 118.366 123.272C118.952 123.216 119.517 123.137 120.02 123.022C120.427 122.928 121.178 122.731 121.84 122.237L118.227 117.443C118.621 117.149 118.911 117.127 118.667 117.183C118.517 117.218 118.237 117.264 117.786 117.308C116.89 117.393 115.579 117.443 113.811 117.443V123.435ZM122.162 121.958C122.835 121.289 123.127 120.471 123.268 120.002C123.436 119.448 123.545 118.834 123.623 118.214C123.78 116.968 123.847 115.361 123.847 113.449H117.826C117.826 115.264 117.759 116.587 117.648 117.471C117.592 117.917 117.534 118.168 117.5 118.28C117.441 118.477 117.499 118.124 117.904 117.722L122.162 121.958ZM123.847 113.449V94.0746H117.826V113.449H123.847ZM123.847 94.0746C123.847 92.1654 123.78 90.5681 123.621 89.347C123.543 88.7434 123.43 88.1272 123.248 87.5702C123.109 87.1424 122.756 86.1701 121.84 85.486L118.227 90.2796C117.859 90.0052 117.675 89.7148 117.607 89.597C117.533 89.468 117.512 89.3926 117.52 89.4188C117.54 89.4776 117.594 89.6853 117.649 90.1137C117.758 90.9565 117.826 92.2553 117.826 94.0746H123.847ZM122.162 85.7644C121.503 85.1085 120.703 84.8151 120.228 84.6698C119.677 84.501 119.07 84.3904 118.462 84.3123C117.237 84.1551 115.668 84.0879 113.811 84.0879V90.0799C115.566 90.0799 116.841 90.1458 117.691 90.255C118.119 90.31 118.356 90.3658 118.458 90.3968C118.635 90.4512 118.295 90.3908 117.904 90.0013L122.162 85.7644ZM113.811 84.0879H36.5318V90.0799H113.811V84.0879ZM36.5318 84.0879C34.61 84.0879 32.9948 84.155 31.7424 84.3108C31.12 84.3882 30.5031 84.4973 29.9461 84.6636C29.4745 84.8044 28.6521 85.0952 27.9797 85.7644L32.2376 90.0013C31.8329 90.4041 31.4789 90.4619 31.6764 90.403C31.7884 90.3695 32.0413 90.3122 32.4893 90.2565C33.3781 90.1459 34.7068 90.0799 36.5318 90.0799V84.0879ZM27.9797 85.7644C27.2339 86.5065 26.9999 87.4579 26.9196 87.7863C26.7963 88.2911 26.7166 88.8611 26.6602 89.4417C26.5459 90.6167 26.4956 92.1769 26.4956 94.0746H32.5173C32.5173 92.2438 32.5674 90.908 32.6539 90.019C32.6978 89.5676 32.7436 89.3138 32.7708 89.2027C32.7842 89.1477 32.7781 89.1907 32.7349 89.2908C32.7044 89.3617 32.5681 89.6725 32.2376 90.0013L27.9797 85.7644ZM26.4956 94.0746V113.449H32.5173V94.0746H26.4956ZM26.4956 113.449C26.4956 115.349 26.5461 116.921 26.6593 118.123C26.7156 118.72 26.7932 119.292 26.9078 119.799C26.9987 120.201 27.1943 120.967 27.7 121.638L32.5173 118.043C32.8222 118.447 32.8422 118.747 32.7827 118.483C32.7467 118.324 32.6989 118.032 32.6547 117.563C32.5672 116.634 32.5173 115.277 32.5173 113.449H26.4956ZM28.3021 122.237C28.9763 122.74 29.7461 122.935 30.1503 123.025C30.6594 123.139 31.2348 123.217 31.8349 123.273C33.0426 123.385 34.6223 123.435 36.5318 123.435V117.443C34.6945 117.443 33.3303 117.393 32.3969 117.307C31.9265 117.263 31.632 117.216 31.4722 117.18C31.2072 117.12 31.5087 117.14 31.9152 117.443L28.3021 122.237ZM36.5318 63.5153H107.99V57.5233H36.5318V63.5153ZM107.99 63.5153C109.832 63.5153 111.353 63.4653 112.504 63.3506C113.074 63.294 113.637 63.2137 114.139 63.0888C114.478 63.0045 115.408 62.7673 116.14 62.0386L111.882 57.8016C112.202 57.484 112.502 57.3491 112.579 57.3157C112.681 57.2711 112.728 57.2635 112.679 57.2757C112.58 57.3006 112.34 57.3451 111.905 57.3884C111.05 57.4735 109.761 57.5233 107.99 57.5233V63.5153ZM116.14 62.0386C116.813 61.3695 117.105 60.5512 117.246 60.0819C117.414 59.5276 117.523 58.9137 117.602 58.2944C117.758 57.0482 117.826 55.441 117.826 53.5286H111.804C111.804 55.3446 111.738 56.6667 111.626 57.5512C111.57 57.997 111.513 58.2486 111.479 58.3602C111.419 58.5566 111.478 58.2044 111.882 57.8016L116.14 62.0386ZM117.826 53.5286V36.751H111.804V53.5286H117.826ZM117.826 36.751C117.826 34.8418 117.758 33.2446 117.6 32.0234C117.521 31.4198 117.408 30.8036 117.226 30.2467C117.087 29.8188 116.735 28.8465 115.818 28.1625L112.205 32.9561C111.837 32.6816 111.653 32.3912 111.586 32.2735C111.512 32.1444 111.491 32.069 111.499 32.0952C111.518 32.154 111.572 32.3618 111.627 32.7902C111.737 33.633 111.804 34.9317 111.804 36.751H117.826ZM116.42 28.7617C115.747 27.8683 114.8 27.5129 114.361 27.3674C113.806 27.1834 113.196 27.069 112.603 26.9903C111.403 26.8311 109.844 26.7643 107.99 26.7643V32.7563C109.749 32.7563 110.999 32.8226 111.807 32.9298C112.217 32.9842 112.41 33.0364 112.457 33.0519C112.477 33.0586 112.399 33.0355 112.268 32.9599C112.148 32.8897 111.868 32.709 111.603 32.3569L116.42 28.7617ZM107.99 26.7643H36.5318V32.7563H107.99V26.7643ZM36.5318 26.7643C34.61 26.7643 32.9948 26.8314 31.7424 26.9872C31.12 27.0646 30.5031 27.1738 29.9461 27.34C29.4745 27.4809 28.6521 27.7717 27.9797 28.4408L32.2376 32.6777C31.8329 33.0805 31.4789 33.1383 31.6764 33.0794C31.7884 33.0459 32.0413 32.9886 32.4893 32.9329C33.3781 32.8223 34.7068 32.7563 36.5318 32.7563V26.7643ZM27.9797 28.4408C27.2339 29.1828 26.9999 30.1343 26.9196 30.4628C26.7963 30.9675 26.7166 31.5375 26.6602 32.1182C26.5459 33.293 26.4956 34.8533 26.4956 36.751H32.5173C32.5173 34.9202 32.5674 33.5844 32.6539 32.6954C32.6978 32.244 32.7436 31.9902 32.7708 31.879C32.7842 31.8242 32.7781 31.8671 32.7349 31.9673C32.7044 32.0382 32.5681 32.349 32.2376 32.6777L27.9797 28.4408ZM26.4956 36.751V53.5286H32.5173V36.751H26.4956ZM26.4956 53.5286C26.4956 55.4287 26.5461 57.0006 26.6593 58.2024C26.7156 58.7996 26.7932 59.372 26.9078 59.8787C26.9987 60.2808 27.1943 61.0469 27.7 61.7177L32.5173 58.1225C32.8222 58.5271 32.8422 58.8271 32.7827 58.5634C32.7467 58.4042 32.6989 58.1112 32.6547 57.6431C32.5672 56.7144 32.5173 55.3569 32.5173 53.5286H26.4956ZM28.3021 62.3169C28.9763 62.82 29.7461 63.0147 30.1503 63.1052C30.6594 63.2192 31.2348 63.2964 31.8349 63.3524C33.0426 63.4651 34.6223 63.5153 36.5318 63.5153V57.5233C34.6945 57.5233 33.3303 57.4737 32.3969 57.3866C31.9265 57.3426 31.632 57.2951 31.4722 57.2594C31.2071 57.2 31.5087 57.2199 31.9152 57.5233L28.3021 62.3169ZM191.698 147.004H188.687V150H191.698V147.004ZM191.698 2.99601V0H188.687V2.99601H191.698ZM218.194 2.99601H221.205V0H218.194V2.99601ZM218.194 120.439H215.183V123.435H218.194V120.439ZM336.22 120.439H339.231V117.443H336.22V120.439ZM336.22 147.004V150H339.231V147.004H336.22ZM194.709 147.004V2.99601H188.687V147.004H194.709ZM191.698 5.99202H218.194V0H191.698V5.99202ZM215.183 2.99601V120.439H221.205V2.99601H215.183ZM218.194 123.435H336.22V117.443H218.194V123.435ZM333.209 120.439V147.004H339.231V120.439H333.209ZM336.22 144.008H191.698V150H336.22V144.008ZM377.829 138.815L379.959 136.697L377.829 138.815ZM369.599 3.19573V0.199731H366.588V3.19573H369.599ZM396.095 3.19573H399.106V0.199731H396.095V3.19573ZM396.697 119.84L394.288 121.638L394.546 121.98L394.891 122.237L396.697 119.84ZM486.622 119.84L488.428 122.237L488.6 122.109L488.751 121.958L486.622 119.84ZM487.424 3.19573V0.199731H484.414V3.19573H487.424ZM514.121 3.19573H517.132V0.199731H514.121V3.19573ZM397.5 144.008C390.686 144.008 384.891 141.605 379.959 136.697L375.7 140.933C381.74 146.944 389.059 150 397.5 150V144.008ZM379.959 136.697C375.026 131.788 372.61 126.021 372.61 119.241H366.588C366.588 127.641 369.66 134.923 375.7 140.933L379.959 136.697ZM372.61 119.241V3.19573H366.588V119.241H372.61ZM369.599 6.19174H396.095V0.199731H369.599V6.19174ZM393.084 3.19573V113.449H399.106V3.19573H393.084ZM393.084 113.449C393.084 115.349 393.135 116.921 393.248 118.123C393.305 118.72 393.382 119.292 393.497 119.799C393.588 120.201 393.784 120.967 394.288 121.638L399.106 118.043C399.411 118.447 399.431 118.747 399.372 118.483C399.336 118.324 399.287 118.032 399.243 117.563C399.156 116.634 399.106 115.277 399.106 113.449H393.084ZM394.891 122.237C395.565 122.74 396.335 122.935 396.739 123.025C397.248 123.139 397.823 123.217 398.423 123.273C399.632 123.385 401.211 123.435 403.12 123.435V117.443C401.284 117.443 399.919 117.393 398.985 117.307C398.516 117.263 398.221 117.216 398.061 117.18C397.796 117.12 398.097 117.14 398.504 117.443L394.891 122.237ZM403.12 123.435H480.399V117.443H403.12V123.435ZM480.399 123.435C482.244 123.435 483.776 123.385 484.955 123.272C485.541 123.216 486.106 123.137 486.609 123.022C487.016 122.928 487.767 122.731 488.428 122.237L484.815 117.443C485.21 117.149 485.501 117.127 485.255 117.183C485.106 117.218 484.826 117.264 484.374 117.308C483.479 117.393 482.169 117.443 480.399 117.443V123.435ZM488.751 121.958C489.424 121.289 489.716 120.471 489.857 120.002C490.024 119.448 490.134 118.834 490.212 118.214C490.368 116.968 490.435 115.361 490.435 113.449H484.414C484.414 115.264 484.347 116.587 484.237 117.471C484.181 117.917 484.123 118.168 484.089 118.28C484.03 118.477 484.088 118.124 484.493 117.722L488.751 121.958ZM490.435 113.449V3.19573H484.414V113.449H490.435ZM487.424 6.19174H514.121V0.199731H487.424V6.19174ZM511.11 3.19573V119.241H517.132V3.19573H511.11ZM511.11 119.241C511.11 126.021 508.695 131.788 503.762 136.697L508.021 140.933C514.061 134.923 517.132 127.641 517.132 119.241H511.11ZM503.762 136.697C498.83 141.605 493.034 144.008 486.22 144.008V150C494.662 150 501.98 146.944 508.021 140.933L503.762 136.697ZM486.22 144.008H397.5V150H486.22V144.008ZM558.707 147.004H555.696V150H558.707V147.004ZM558.707 3.19573V0.199731H555.696V3.19573H558.707ZM691.787 3.19573H694.798V0.199731H691.787V3.19573ZM691.787 29.7603V32.7563H694.798V29.7603H691.787ZM585.403 29.7603V26.7643H582.392V29.7603H585.403ZM585.403 61.7177H582.392V64.7137H585.403V61.7177ZM670.912 61.7177H673.923V58.7217H670.912V61.7177ZM670.912 88.2823V91.2783H673.923V88.2823H670.912ZM585.403 88.2823V85.2863H582.392V88.2823H585.403ZM585.403 120.439H582.392V123.435H585.403V120.439ZM691.787 120.439H694.798V117.443H691.787V120.439ZM691.787 147.004V150H694.798V147.004H691.787ZM561.718 147.004V3.19573H555.696V147.004H561.718ZM558.707 6.19174H691.787V0.199731H558.707V6.19174ZM688.776 3.19573V29.7603H694.798V3.19573H688.776ZM691.787 26.7643H585.403V32.7563H691.787V26.7643ZM582.392 29.7603V61.7177H588.414V29.7603H582.392ZM585.403 64.7137H670.912V58.7217H585.403V64.7137ZM667.901 61.7177V88.2823H673.923V61.7177H667.901ZM670.912 85.2863H585.403V91.2783H670.912V85.2863ZM582.392 88.2823V120.439H588.414V88.2823H582.392ZM585.403 123.435H691.787V117.443H585.403V123.435ZM688.776 120.439V147.004H694.798V120.439H688.776ZM691.787 144.008H558.707V150H691.787V144.008ZM729.556 147.004H726.546V150H729.556V147.004ZM729.556 3.19573V0.199731H726.546V3.19573H729.556ZM758.661 3.19573L760.968 1.26977L760.065 0.199731H758.661V3.19573ZM811.051 65.3129L808.744 67.2389L811.056 69.9787L813.361 67.2346L811.051 65.3129ZM863.239 3.19573V0.199731H861.832L860.93 1.27412L863.239 3.19573ZM892.545 3.19573H895.556V0.199731H892.545V3.19573ZM892.545 147.004V150H895.556V147.004H892.545ZM865.848 147.004H862.837V150H865.848V147.004ZM865.848 41.5446H868.859V33.3199L863.543 39.6176L865.848 41.5446ZM811.051 106.458L808.751 108.392L811.059 111.107L813.356 108.385L811.051 106.458ZM756.052 41.7443L758.351 39.8097L753.041 33.562V41.7443H756.052ZM756.052 147.004V150H759.063V147.004H756.052ZM732.567 147.004V3.19573H726.546V147.004H732.567ZM729.556 6.19174H758.661V0.199731H729.556V6.19174ZM756.355 5.12171L808.744 67.2389L813.357 63.387L760.968 1.26977L756.355 5.12171ZM813.361 67.2346L865.549 5.11737L860.93 1.27412L808.741 63.3913L813.361 67.2346ZM863.239 6.19174H892.545V0.199731H863.239V6.19174ZM889.534 3.19573V147.004H895.556V3.19573H889.534ZM892.545 144.008H865.848V150H892.545V144.008ZM868.859 147.004V41.5446H862.837V147.004H868.859ZM863.543 39.6176L808.745 104.531L813.356 108.385L868.154 43.4716L863.543 39.6176ZM813.35 104.524L758.351 39.8097L753.753 43.679L808.751 108.392L813.35 104.524ZM753.041 41.7443V147.004H759.063V41.7443H753.041ZM756.052 144.008H729.556V150H756.052V144.008ZM945.683 138.815L947.812 136.697L945.683 138.815ZM945.683 11.3848L947.812 13.5033L945.683 11.3848ZM1054.48 119.84L1056.29 122.237L1056.46 122.109L1056.61 121.958L1054.48 119.84ZM1054.48 30.5593L1052.35 32.6777L1052.5 32.8283L1052.67 32.9561L1054.48 30.5593ZM964.552 30.5593L966.68 32.6777L964.552 30.5593ZM964.552 119.84L962.143 121.638L962.401 121.98L962.745 122.237L964.552 119.84ZM965.354 144.008C958.541 144.008 952.745 141.605 947.812 136.697L943.555 140.933C949.595 146.944 956.913 150 965.354 150V144.008ZM947.812 136.697C942.879 131.788 940.465 126.021 940.465 119.241H934.443C934.443 127.641 937.514 134.923 943.555 140.933L947.812 136.697ZM940.465 119.241V30.9587H934.443V119.241H940.465ZM940.465 30.9587C940.465 24.1787 942.879 18.4118 947.812 13.5033L943.555 9.26635C937.514 15.2767 934.443 22.559 934.443 30.9587H940.465ZM947.812 13.5033C952.745 8.59491 958.541 6.19174 965.354 6.19174V0.199731C956.913 0.199731 949.595 3.25594 943.555 9.26635L947.812 13.5033ZM965.354 6.19174H1054.08V0.199731H965.354V6.19174ZM1054.08 6.19174C1060.89 6.19174 1066.68 8.59491 1071.62 13.5033L1075.88 9.26635C1069.83 3.25595 1062.52 0.199731 1054.08 0.199731V6.19174ZM1071.62 13.5033C1076.55 18.4118 1078.97 24.1787 1078.97 30.9587H1084.99C1084.99 22.559 1081.92 15.2767 1075.88 9.26635L1071.62 13.5033ZM1078.97 30.9587V119.241H1084.99V30.9587H1078.97ZM1078.97 119.241C1078.97 126.021 1076.55 131.788 1071.62 136.697L1075.88 140.933C1081.92 134.923 1084.99 127.641 1084.99 119.241H1078.97ZM1071.62 136.697C1066.68 141.605 1060.89 144.008 1054.08 144.008V150C1062.52 150 1069.83 146.944 1075.88 140.933L1071.62 136.697ZM1054.08 144.008H965.354V150H1054.08V144.008ZM970.975 123.435H1048.26V117.443H970.975V123.435ZM1048.26 123.435C1050.09 123.435 1051.63 123.385 1052.81 123.272C1053.4 123.216 1053.96 123.137 1054.46 123.022C1054.87 122.928 1055.62 122.731 1056.29 122.237L1052.67 117.443C1053.06 117.149 1053.35 117.127 1053.1 117.183C1052.96 117.218 1052.68 117.264 1052.23 117.308C1051.34 117.393 1050.02 117.443 1048.26 117.443V123.435ZM1056.61 121.958C1057.28 121.289 1057.57 120.471 1057.71 120.002C1057.88 119.448 1057.99 118.834 1058.06 118.214C1058.22 116.968 1058.29 115.361 1058.29 113.449H1052.27C1052.27 115.264 1052.2 116.587 1052.09 117.471C1052.03 117.917 1051.98 118.168 1051.94 118.28C1051.88 118.477 1051.94 118.124 1052.35 117.722L1056.61 121.958ZM1058.29 113.449V36.751H1052.27V113.449H1058.29ZM1058.29 36.751C1058.29 34.8418 1058.22 33.2446 1058.06 32.0234C1057.98 31.4198 1057.87 30.8036 1057.69 30.2467C1057.55 29.8188 1057.2 28.8465 1056.29 28.1625L1052.67 32.9561C1052.3 32.6816 1052.12 32.3912 1052.05 32.2735C1051.98 32.1444 1051.95 32.069 1051.96 32.0952C1051.98 32.154 1052.04 32.3618 1052.09 32.7902C1052.2 33.633 1052.27 34.9317 1052.27 36.751H1058.29ZM1056.61 28.4408C1055.94 27.785 1055.14 27.4915 1054.67 27.3462C1054.12 27.1775 1053.52 27.0669 1052.9 26.9887C1051.68 26.8315 1050.11 26.7643 1048.26 26.7643V32.7563C1050.01 32.7563 1051.29 32.8222 1052.13 32.9314C1052.56 32.9864 1052.8 33.0422 1052.9 33.0732C1053.07 33.1276 1052.74 33.0672 1052.35 32.6777L1056.61 28.4408ZM1048.26 26.7643H970.975V32.7563H1048.26V26.7643ZM970.975 26.7643C969.053 26.7643 967.438 26.8314 966.185 26.9872C965.563 27.0646 964.946 27.1738 964.389 27.34C963.917 27.4809 963.095 27.7717 962.423 28.4408L966.68 32.6777C966.276 33.0805 965.922 33.1383 966.119 33.0794C966.232 33.0459 966.485 32.9886 966.932 32.9329C967.821 32.8223 969.15 32.7563 970.975 32.7563V26.7643ZM962.423 28.4408C961.677 29.1828 961.443 30.1343 961.363 30.4628C961.24 30.9675 961.159 31.5375 961.103 32.1182C960.989 33.293 960.939 34.8533 960.939 36.751H966.96C966.96 34.9202 967.01 33.5844 967.097 32.6954C967.141 32.244 967.186 31.9902 967.214 31.8791C967.227 31.8242 967.221 31.8671 967.178 31.9673C967.147 32.0382 967.011 32.349 966.68 32.6777L962.423 28.4408ZM960.939 36.751V113.449H966.96V36.751H960.939ZM960.939 113.449C960.939 115.349 960.989 116.921 961.102 118.123C961.158 118.72 961.237 119.292 961.351 119.799C961.441 120.201 961.637 120.967 962.143 121.638L966.96 118.043C967.265 118.447 967.285 118.747 967.225 118.483C967.189 118.324 967.142 118.032 967.098 117.563C967.01 116.634 966.96 115.277 966.96 113.449H960.939ZM962.745 122.237C963.419 122.74 964.189 122.935 964.594 123.025C965.103 123.139 965.678 123.217 966.278 123.273C967.485 123.385 969.065 123.435 970.975 123.435V117.443C969.137 117.443 967.773 117.393 966.84 117.307C966.369 117.263 966.075 117.216 965.916 117.18C965.651 117.12 965.952 117.14 966.358 117.443L962.745 122.237ZM1133.99 138.815L1136.11 136.697L1133.99 138.815ZM1133.99 11.3848L1136.11 13.5033L1133.99 11.3848ZM1242.78 119.84L1244.59 122.237L1244.76 122.109L1244.91 121.958L1242.78 119.84ZM1242.78 30.5593L1240.65 32.6777L1240.8 32.8283L1240.97 32.9561L1242.78 30.5593ZM1152.85 30.5593L1154.98 32.6777L1152.85 30.5593ZM1152.85 119.84L1150.45 121.638L1150.71 121.98L1151.05 122.237L1152.85 119.84ZM1153.66 144.008C1146.84 144.008 1141.05 141.605 1136.11 136.697L1131.86 140.933C1137.9 146.944 1145.22 150 1153.66 150V144.008ZM1136.11 136.697C1131.19 131.788 1128.77 126.021 1128.77 119.241H1122.75C1122.75 127.641 1125.82 134.923 1131.86 140.933L1136.11 136.697ZM1128.77 119.241V30.9587H1122.75V119.241H1128.77ZM1128.77 30.9587C1128.77 24.1787 1131.19 18.4118 1136.11 13.5033L1131.86 9.26635C1125.82 15.2767 1122.75 22.559 1122.75 30.9587H1128.77ZM1136.11 13.5033C1141.05 8.59491 1146.84 6.19174 1153.66 6.19174V0.199731C1145.22 0.199731 1137.9 3.25594 1131.86 9.26635L1136.11 13.5033ZM1153.66 6.19174H1242.38V0.199731H1153.66V6.19174ZM1242.38 6.19174C1249.19 6.19174 1254.99 8.59491 1259.92 13.5033L1264.18 9.26635C1258.13 3.25595 1250.82 0.199731 1242.38 0.199731V6.19174ZM1259.92 13.5033C1264.86 18.4118 1267.27 24.1787 1267.27 30.9587H1273.29C1273.29 22.559 1270.22 15.2767 1264.18 9.26635L1259.92 13.5033ZM1267.27 30.9587V119.241H1273.29V30.9587H1267.27ZM1267.27 119.241C1267.27 126.021 1264.86 131.788 1259.92 136.697L1264.18 140.933C1270.22 134.923 1273.29 127.641 1273.29 119.241H1267.27ZM1259.92 136.697C1254.99 141.605 1249.19 144.008 1242.38 144.008V150C1250.82 150 1258.13 146.944 1264.18 140.933L1259.92 136.697ZM1242.38 144.008H1153.66V150H1242.38V144.008ZM1159.28 123.435H1236.56V117.443H1159.28V123.435ZM1236.56 123.435C1238.4 123.435 1239.94 123.385 1241.11 123.272C1241.69 123.216 1242.27 123.137 1242.77 123.022C1243.17 122.928 1243.92 122.731 1244.59 122.237L1240.97 117.443C1241.37 117.149 1241.65 117.127 1241.41 117.183C1241.26 117.218 1240.98 117.264 1240.53 117.308C1239.64 117.393 1238.32 117.443 1236.56 117.443V123.435ZM1244.91 121.958C1245.58 121.289 1245.87 120.471 1246.02 120.002C1246.18 119.448 1246.29 118.834 1246.37 118.214C1246.52 116.968 1246.59 115.361 1246.59 113.449H1240.57C1240.57 115.264 1240.51 116.587 1240.4 117.471C1240.34 117.917 1240.28 118.168 1240.25 118.28C1240.19 118.477 1240.25 118.124 1240.65 117.722L1244.91 121.958ZM1246.59 113.449V36.751H1240.57V113.449H1246.59ZM1246.59 36.751C1246.59 34.8418 1246.53 33.2446 1246.37 32.0234C1246.29 31.4198 1246.18 30.8036 1246 30.2467C1245.86 29.8188 1245.51 28.8465 1244.59 28.1625L1240.97 32.9561C1240.61 32.6816 1240.42 32.3912 1240.35 32.2735C1240.28 32.1444 1240.26 32.069 1240.27 32.0952C1240.29 32.154 1240.34 32.3618 1240.4 32.7902C1240.51 33.633 1240.57 34.9317 1240.57 36.751H1246.59ZM1244.91 28.4408C1244.25 27.785 1243.45 27.4915 1242.98 27.3462C1242.43 27.1775 1241.82 27.0669 1241.21 26.9887C1239.99 26.8315 1238.41 26.7643 1236.56 26.7643V32.7563C1238.31 32.7563 1239.59 32.8222 1240.44 32.9314C1240.86 32.9864 1241.1 33.0422 1241.2 33.0732C1241.38 33.1276 1241.04 33.0672 1240.65 32.6777L1244.91 28.4408ZM1236.56 26.7643H1159.28V32.7563H1236.56V26.7643ZM1159.28 26.7643C1157.36 26.7643 1155.74 26.8314 1154.49 26.9872C1153.87 27.0646 1153.26 27.1738 1152.69 27.34C1152.22 27.4809 1151.4 27.7717 1150.73 28.4408L1154.98 32.6777C1154.58 33.0805 1154.23 33.1383 1154.42 33.0794C1154.54 33.0459 1154.79 32.9886 1155.23 32.9329C1156.13 32.8223 1157.45 32.7563 1159.28 32.7563V26.7643ZM1150.73 28.4408C1149.98 29.1828 1149.74 30.1343 1149.66 30.4628C1149.54 30.9675 1149.46 31.5375 1149.41 32.1182C1149.29 33.293 1149.24 34.8533 1149.24 36.751H1155.26C1155.26 34.9202 1155.31 33.5844 1155.4 32.6954C1155.44 32.244 1155.49 31.9902 1155.51 31.8791C1155.53 31.8242 1155.52 31.8671 1155.48 31.9673C1155.45 32.0382 1155.31 32.349 1154.98 32.6777L1150.73 28.4408ZM1149.24 36.751V113.449H1155.26V36.751H1149.24ZM1149.24 113.449C1149.24 115.349 1149.29 116.921 1149.41 118.123C1149.46 118.72 1149.54 119.292 1149.65 119.799C1149.74 120.201 1149.94 120.967 1150.45 121.638L1155.26 118.043C1155.57 118.447 1155.59 118.747 1155.53 118.483C1155.49 118.324 1155.44 118.032 1155.4 117.563C1155.31 116.634 1155.26 115.277 1155.26 113.449H1149.24ZM1151.05 122.237C1151.72 122.74 1152.49 122.935 1152.89 123.025C1153.41 123.139 1153.98 123.217 1154.58 123.273C1155.79 123.385 1157.37 123.435 1159.28 123.435V117.443C1157.44 117.443 1156.08 117.393 1155.14 117.307C1154.67 117.263 1154.38 117.216 1154.22 117.18C1153.96 117.12 1154.26 117.14 1154.66 117.443L1151.05 122.237ZM1314.47 147.004H1311.46V150H1314.47V147.004ZM1314.47 3.19573V0.199731H1311.46V3.19573H1314.47ZM1343.57 3.19573L1345.87 1.26832L1344.97 0.199731H1343.57V3.19573ZM1432.29 108.256L1429.98 110.183L1435.3 116.478V108.256H1432.29ZM1432.29 3.19573V0.199731H1429.28V3.19573H1432.29ZM1458.99 3.19573H1462V0.199731H1458.99V3.19573ZM1458.99 147.004V150H1462V147.004H1458.99ZM1429.88 147.004L1427.58 148.931L1428.48 150H1429.88V147.004ZM1340.96 41.7443L1343.26 39.8165L1337.95 33.5242V41.7443H1340.96ZM1340.96 147.004V150H1343.97V147.004H1340.96ZM1317.48 147.004V3.19573H1311.46V147.004H1317.48ZM1314.47 6.19174H1343.57V0.199731H1314.47V6.19174ZM1341.26 5.12315L1429.98 110.183L1434.59 106.328L1345.87 1.26832L1341.26 5.12315ZM1435.3 108.256V3.19573H1429.28V108.256H1435.3ZM1432.29 6.19174H1458.99V0.199731H1432.29V6.19174ZM1455.98 3.19573V147.004H1462V3.19573H1455.98ZM1458.99 144.008H1429.88V150H1458.99V144.008ZM1432.18 145.077L1343.26 39.8165L1338.65 43.6722L1427.58 148.931L1432.18 145.077ZM1337.95 41.7443V147.004H1343.97V41.7443H1337.95ZM1340.96 144.008H1314.47V150H1340.96V144.008Z" fill="#2B5797"/>
</g>
<g style="mix-blend-mode:hard-light" opacity="0.33">
<path d="M3.01085 172.996H0V170H3.01085V172.996ZM3.01085 316.804V319.8H0V316.804H3.01085ZM141.31 255.885L138.341 256.378L141.31 255.885ZM139.905 251.292L137.164 252.531L136.432 250.928L137.483 249.511L139.905 251.292ZM145.325 241.704L142.529 240.592L142.548 240.544L142.569 240.498L145.325 241.704ZM120.034 200.16L121.84 197.763L122.011 197.891L122.162 198.042L120.034 200.16ZM120.034 232.117L117.904 229.999L118.055 229.848L118.227 229.72L120.034 232.117ZM30.1086 232.117L32.2376 229.999L30.1086 232.117ZM30.1086 200.16L27.7 198.362L27.9581 198.02L28.3021 197.763L30.1086 200.16ZM114.012 260.08L116.14 257.961L114.012 260.08ZM114.012 289.441L111.603 287.643L111.861 287.301L112.205 287.044L114.012 289.441ZM30.1086 289.441L32.2376 287.322L30.1086 289.441ZM30.1086 260.08L27.7 258.282L27.9581 257.94L28.3021 257.683L30.1086 260.08ZM6.02171 172.996V316.804H0V172.996H6.02171ZM3.01085 313.808H113.811V319.8H3.01085V313.808ZM113.811 313.808C120.625 313.808 126.42 311.405 131.352 306.497L135.611 310.734C129.571 316.744 122.253 319.8 113.811 319.8V313.808ZM131.352 306.497C136.285 301.588 138.701 295.821 138.701 289.041H144.723C144.723 297.441 141.651 304.723 135.611 310.734L131.352 306.497ZM138.701 289.041V260.879H144.723V289.041H138.701ZM138.701 260.879C138.701 259.302 138.578 257.802 138.341 256.378L144.28 255.393C144.577 257.164 144.723 258.994 144.723 260.879H138.701ZM138.341 256.378C138.116 255.036 137.723 253.756 137.164 252.531L142.646 250.052C143.425 251.756 143.969 253.539 144.28 255.393L138.341 256.378ZM137.483 249.511C139.615 246.641 141.292 243.669 142.529 240.592L148.12 242.817C146.681 246.398 144.745 249.817 142.326 253.072L137.483 249.511ZM142.569 240.498C143.889 237.514 144.522 234.594 144.522 231.718H150.544C150.544 235.499 149.705 239.237 148.081 242.911L142.569 240.498ZM144.522 231.718V200.759H150.544V231.718H144.522ZM144.522 200.759C144.522 193.979 142.106 188.212 137.173 183.303L141.432 179.067C147.472 185.077 150.544 192.359 150.544 200.759H144.522ZM137.173 183.303C132.253 178.406 126.394 175.992 119.431 175.992V170C127.99 170 135.381 173.045 141.432 179.067L137.173 183.303ZM119.431 175.992H3.01085V170H119.431V175.992ZM36.5318 196.565H113.811V202.557H36.5318V196.565ZM113.811 196.565C115.655 196.565 117.188 196.615 118.366 196.728C118.952 196.784 119.517 196.863 120.02 196.978C120.427 197.072 121.178 197.269 121.84 197.763L118.227 202.557C118.621 202.851 118.911 202.873 118.667 202.817C118.517 202.782 118.237 202.736 117.786 202.692C116.89 202.607 115.579 202.557 113.811 202.557V196.565ZM122.162 198.042C122.835 198.711 123.127 199.529 123.268 199.998C123.436 200.552 123.545 201.166 123.623 201.786C123.78 203.032 123.847 204.639 123.847 206.551H117.826C117.826 204.736 117.759 203.413 117.648 202.529C117.592 202.083 117.534 201.832 117.5 201.72C117.441 201.523 117.499 201.876 117.904 202.278L122.162 198.042ZM123.847 206.551V225.925H117.826V206.551H123.847ZM123.847 225.925C123.847 227.835 123.78 229.432 123.621 230.653C123.543 231.257 123.43 231.873 123.248 232.43C123.109 232.858 122.756 233.83 121.84 234.514L118.227 229.72C117.859 229.995 117.675 230.285 117.607 230.403C117.533 230.532 117.512 230.607 117.52 230.581C117.54 230.522 117.594 230.315 117.649 229.886C117.758 229.043 117.826 227.745 117.826 225.925H123.847ZM122.162 234.236C121.503 234.891 120.703 235.185 120.228 235.33C119.677 235.499 119.07 235.61 118.462 235.688C117.237 235.845 115.668 235.912 113.811 235.912V229.92C115.566 229.92 116.841 229.854 117.691 229.745C118.119 229.69 118.356 229.634 118.458 229.603C118.635 229.549 118.295 229.609 117.904 229.999L122.162 234.236ZM113.811 235.912H36.5318V229.92H113.811V235.912ZM36.5318 235.912C34.61 235.912 32.9948 235.845 31.7424 235.689C31.12 235.612 30.5031 235.503 29.9461 235.336C29.4745 235.196 28.6521 234.905 27.9797 234.236L32.2376 229.999C31.8329 229.596 31.4789 229.538 31.6764 229.597C31.7884 229.63 32.0413 229.688 32.4893 229.744C33.3781 229.854 34.7068 229.92 36.5318 229.92V235.912ZM27.9797 234.236C27.2339 233.494 26.9999 232.542 26.9196 232.214C26.7963 231.709 26.7166 231.139 26.6602 230.558C26.5459 229.383 26.4956 227.823 26.4956 225.925H32.5173C32.5173 227.756 32.5674 229.092 32.6539 229.981C32.6978 230.432 32.7436 230.686 32.7708 230.797C32.7842 230.852 32.7781 230.809 32.7349 230.709C32.7044 230.638 32.5681 230.327 32.2376 229.999L27.9797 234.236ZM26.4956 225.925V206.551H32.5173V225.925H26.4956ZM26.4956 206.551C26.4956 204.651 26.5461 203.079 26.6593 201.877C26.7156 201.28 26.7932 200.708 26.9078 200.201C26.9987 199.799 27.1943 199.033 27.7 198.362L32.5173 201.957C32.8222 201.553 32.8422 201.253 32.7827 201.517C32.7467 201.676 32.6989 201.968 32.6547 202.437C32.5672 203.366 32.5173 204.723 32.5173 206.551H26.4956ZM28.3021 197.763C28.9763 197.26 29.7461 197.065 30.1503 196.975C30.6594 196.861 31.2348 196.783 31.8349 196.727C33.0426 196.615 34.6223 196.565 36.5318 196.565V202.557C34.6945 202.557 33.3303 202.607 32.3969 202.693C31.9265 202.737 31.632 202.784 31.4722 202.82C31.2072 202.88 31.5087 202.86 31.9152 202.557L28.3021 197.763ZM36.5318 256.485H107.99V262.477H36.5318V256.485ZM107.99 256.485C109.832 256.485 111.353 256.535 112.504 256.649C113.074 256.706 113.637 256.786 114.139 256.911C114.478 256.996 115.408 257.233 116.14 257.961L111.882 262.198C112.202 262.516 112.502 262.651 112.579 262.684C112.681 262.729 112.728 262.736 112.679 262.724C112.58 262.699 112.34 262.655 111.905 262.612C111.05 262.527 109.761 262.477 107.99 262.477V256.485ZM116.14 257.961C116.813 258.631 117.105 259.449 117.246 259.918C117.414 260.472 117.523 261.086 117.602 261.706C117.758 262.952 117.826 264.559 117.826 266.471H111.804C111.804 264.655 111.738 263.333 111.626 262.449C111.57 262.003 111.513 261.751 111.479 261.64C111.419 261.443 111.478 261.796 111.882 262.198L116.14 257.961ZM117.826 266.471V283.249H111.804V266.471H117.826ZM117.826 283.249C117.826 285.158 117.758 286.755 117.6 287.977C117.521 288.58 117.408 289.196 117.226 289.753C117.087 290.181 116.735 291.153 115.818 291.838L112.205 287.044C111.837 287.318 111.653 287.609 111.586 287.727C111.512 287.856 111.491 287.931 111.499 287.905C111.518 287.846 111.572 287.638 111.627 287.21C111.737 286.367 111.804 285.068 111.804 283.249H117.826ZM116.42 291.238C115.747 292.132 114.8 292.487 114.361 292.633C113.806 292.817 113.196 292.931 112.603 293.01C111.403 293.169 109.844 293.236 107.99 293.236V287.244C109.749 287.244 110.999 287.177 111.807 287.07C112.217 287.016 112.41 286.964 112.457 286.948C112.477 286.941 112.399 286.965 112.268 287.04C112.148 287.11 111.868 287.291 111.603 287.643L116.42 291.238ZM107.99 293.236H36.5318V287.244H107.99V293.236ZM36.5318 293.236C34.61 293.236 32.9948 293.169 31.7424 293.013C31.12 292.935 30.5031 292.826 29.9461 292.66C29.4745 292.519 28.6521 292.228 27.9797 291.559L32.2376 287.322C31.8329 286.92 31.4789 286.862 31.6764 286.921C31.7884 286.954 32.0413 287.011 32.4893 287.067C33.3781 287.178 34.7068 287.244 36.5318 287.244V293.236ZM27.9797 291.559C27.2339 290.817 26.9999 289.866 26.9196 289.537C26.7963 289.032 26.7166 288.462 26.6602 287.882C26.5459 286.707 26.4956 285.147 26.4956 283.249H32.5173C32.5173 285.08 32.5674 286.416 32.6539 287.305C32.6978 287.756 32.7436 288.01 32.7708 288.121C32.7842 288.176 32.7781 288.133 32.7349 288.033C32.7044 287.962 32.5681 287.651 32.2376 287.322L27.9797 291.559ZM26.4956 283.249V266.471H32.5173V283.249H26.4956ZM26.4956 266.471C26.4956 264.571 26.5461 262.999 26.6593 261.798C26.7156 261.2 26.7932 260.628 26.9078 260.121C26.9987 259.719 27.1943 258.953 27.7 258.282L32.5173 261.877C32.8222 261.473 32.8422 261.173 32.7827 261.437C32.7467 261.596 32.6989 261.889 32.6547 262.357C32.5672 263.286 32.5173 264.643 32.5173 266.471H26.4956ZM28.3021 257.683C28.9763 257.18 29.7461 256.985 30.1503 256.895C30.6594 256.781 31.2348 256.704 31.8349 256.648C33.0426 256.535 34.6223 256.485 36.5318 256.485V262.477C34.6945 262.477 33.3303 262.526 32.3969 262.613C31.9265 262.657 31.632 262.705 31.4722 262.741C31.2071 262.8 31.5087 262.78 31.9152 262.477L28.3021 257.683ZM191.698 172.996H188.687V170H191.698V172.996ZM191.698 317.004V320H188.687V317.004H191.698ZM218.194 317.004H221.205V320H218.194V317.004ZM218.194 199.561H215.183V196.565H218.194V199.561ZM336.22 199.561H339.231V202.557H336.22V199.561ZM336.22 172.996V170H339.231V172.996H336.22ZM194.709 172.996V317.004H188.687V172.996H194.709ZM191.698 314.008H218.194V320H191.698V314.008ZM215.183 317.004V199.561H221.205V317.004H215.183ZM218.194 196.565H336.22V202.557H218.194V196.565ZM333.209 199.561V172.996H339.231V199.561H333.209ZM336.22 175.992H191.698V170H336.22V175.992ZM377.829 181.185L379.959 183.303L377.829 181.185ZM369.599 316.804V319.8H366.588V316.804H369.599ZM396.095 316.804H399.106V319.8H396.095V316.804ZM396.697 200.16L394.288 198.362L394.546 198.02L394.891 197.763L396.697 200.16ZM486.622 200.16L488.428 197.763L488.6 197.891L488.751 198.042L486.622 200.16ZM487.425 316.804V319.8H484.414V316.804H487.425ZM514.121 316.804H517.132V319.8H514.121V316.804ZM397.5 175.992C390.686 175.992 384.891 178.395 379.959 183.303L375.7 179.067C381.74 173.056 389.059 170 397.5 170V175.992ZM379.959 183.303C375.026 188.212 372.61 193.979 372.61 200.759H366.588C366.588 192.359 369.66 185.077 375.7 179.067L379.959 183.303ZM372.61 200.759V316.804H366.588V200.759H372.61ZM369.599 313.808H396.095V319.8H369.599V313.808ZM393.084 316.804V206.551H399.106V316.804H393.084ZM393.084 206.551C393.084 204.651 393.135 203.079 393.248 201.877C393.305 201.28 393.382 200.708 393.497 200.201C393.588 199.799 393.784 199.033 394.288 198.362L399.106 201.957C399.411 201.553 399.431 201.253 399.372 201.517C399.336 201.676 399.287 201.968 399.243 202.437C399.156 203.366 399.106 204.723 399.106 206.551H393.084ZM394.891 197.763C395.565 197.26 396.335 197.065 396.739 196.975C397.248 196.861 397.823 196.783 398.423 196.727C399.632 196.615 401.211 196.565 403.12 196.565V202.557C401.284 202.557 399.919 202.607 398.985 202.693C398.516 202.737 398.221 202.784 398.061 202.82C397.796 202.88 398.097 202.86 398.504 202.557L394.891 197.763ZM403.12 196.565H480.399V202.557H403.12V196.565ZM480.399 196.565C482.244 196.565 483.776 196.615 484.955 196.728C485.541 196.784 486.106 196.863 486.609 196.978C487.016 197.072 487.767 197.269 488.428 197.763L484.815 202.557C485.21 202.851 485.501 202.873 485.255 202.817C485.106 202.782 484.826 202.736 484.374 202.692C483.479 202.607 482.169 202.557 480.399 202.557V196.565ZM488.751 198.042C489.424 198.711 489.716 199.529 489.857 199.998C490.024 200.552 490.134 201.166 490.212 201.786C490.368 203.032 490.435 204.639 490.435 206.551H484.414C484.414 204.736 484.347 203.413 484.237 202.529C484.181 202.083 484.123 201.832 484.089 201.72C484.03 201.523 484.088 201.876 484.493 202.278L488.751 198.042ZM490.435 206.551V316.804H484.414V206.551H490.435ZM487.425 313.808H514.121V319.8H487.425V313.808ZM511.11 316.804V200.759H517.132V316.804H511.11ZM511.11 200.759C511.11 193.979 508.695 188.212 503.762 183.303L508.021 179.067C514.061 185.077 517.132 192.359 517.132 200.759H511.11ZM503.762 183.303C498.83 178.395 493.034 175.992 486.22 175.992V170C494.662 170 501.98 173.056 508.021 179.067L503.762 183.303ZM486.22 175.992H397.5V170H486.22V175.992ZM558.707 172.996H555.696V170H558.707V172.996ZM558.707 316.804V319.8H555.696V316.804H558.707ZM691.787 316.804H694.798V319.8H691.787V316.804ZM691.787 290.24V287.244H694.798V290.24H691.787ZM585.403 290.24V293.236H582.392V290.24H585.403ZM585.403 258.282H582.392V255.286H585.403V258.282ZM670.912 258.282H673.923V261.278H670.912V258.282ZM670.912 231.718V228.722H673.923V231.718H670.912ZM585.403 231.718V234.714H582.392V231.718H585.403ZM585.403 199.561H582.392V196.565H585.403V199.561ZM691.787 199.561H694.798V202.557H691.787V199.561ZM691.787 172.996V170H694.798V172.996H691.787ZM561.718 172.996V316.804H555.696V172.996H561.718ZM558.707 313.808H691.787V319.8H558.707V313.808ZM688.776 316.804V290.24H694.798V316.804H688.776ZM691.787 293.236H585.403V287.244H691.787V293.236ZM582.392 290.24V258.282H588.414V290.24H582.392ZM585.403 255.286H670.912V261.278H585.403V255.286ZM667.901 258.282V231.718H673.923V258.282H667.901ZM670.912 234.714H585.403V228.722H670.912V234.714ZM582.392 231.718V199.561H588.414V231.718H582.392ZM585.403 196.565H691.787V202.557H585.403V196.565ZM688.776 199.561V172.996H694.798V199.561H688.776ZM691.787 175.992H558.707V170H691.787V175.992ZM729.556 172.996H726.546V170H729.556V172.996ZM729.556 316.804V319.8H726.546V316.804H729.556ZM758.661 316.804L760.968 318.73L760.066 319.8H758.661V316.804ZM811.051 254.687L808.744 252.761L811.056 250.021L813.361 252.765L811.051 254.687ZM863.239 316.804V319.8H861.832L860.93 318.726L863.239 316.804ZM892.545 316.804H895.556V319.8H892.545V316.804ZM892.545 172.996V170H895.556V172.996H892.545ZM865.848 172.996H862.837V170H865.848V172.996ZM865.848 278.455H868.859V286.68L863.543 280.382L865.848 278.455ZM811.051 213.542L808.751 211.608L811.059 208.893L813.356 211.615L811.051 213.542ZM756.052 278.256L758.351 280.19L753.041 286.438V278.256H756.052ZM756.052 172.996V170H759.063V172.996H756.052ZM732.567 172.996V316.804H726.546V172.996H732.567ZM729.556 313.808H758.661V319.8H729.556V313.808ZM756.355 314.878L808.744 252.761L813.357 256.613L760.968 318.73L756.355 314.878ZM813.361 252.765L865.549 314.883L860.93 318.726L808.741 256.609L813.361 252.765ZM863.239 313.808H892.545V319.8H863.239V313.808ZM889.534 316.804V172.996H895.556V316.804H889.534ZM892.545 175.992H865.848V170H892.545V175.992ZM868.859 172.996V278.455H862.837V172.996H868.859ZM863.543 280.382L808.745 215.469L813.356 211.615L868.154 276.528L863.543 280.382ZM813.35 215.476L758.351 280.19L753.753 276.321L808.751 211.608L813.35 215.476ZM753.041 278.256V172.996H759.063V278.256H753.041ZM756.052 175.992H729.556V170H756.052V175.992ZM945.683 181.185L947.812 183.303L945.683 181.185ZM945.683 308.615L947.812 306.497L945.683 308.615ZM1054.48 200.16L1056.29 197.763L1056.46 197.891L1056.61 198.042L1054.48 200.16ZM1054.48 289.441L1052.35 287.322L1052.5 287.172L1052.67 287.044L1054.48 289.441ZM964.552 289.441L966.68 287.322L964.552 289.441ZM964.552 200.16L962.143 198.362L962.401 198.02L962.745 197.763L964.552 200.16ZM965.354 175.992C958.541 175.992 952.745 178.395 947.812 183.303L943.555 179.067C949.595 173.056 956.913 170 965.354 170V175.992ZM947.812 183.303C942.879 188.212 940.465 193.979 940.465 200.759H934.443C934.443 192.359 937.514 185.077 943.555 179.067L947.812 183.303ZM940.465 200.759V289.041H934.443V200.759H940.465ZM940.465 289.041C940.465 295.821 942.879 301.588 947.812 306.497L943.555 310.734C937.514 304.723 934.443 297.441 934.443 289.041H940.465ZM947.812 306.497C952.745 311.405 958.541 313.808 965.354 313.808V319.8C956.913 319.8 949.595 316.744 943.555 310.734L947.812 306.497ZM965.354 313.808H1054.08V319.8H965.354V313.808ZM1054.08 313.808C1060.89 313.808 1066.68 311.405 1071.62 306.497L1075.88 310.734C1069.83 316.744 1062.52 319.8 1054.08 319.8V313.808ZM1071.62 306.497C1076.55 301.588 1078.97 295.821 1078.97 289.041H1084.99C1084.99 297.441 1081.92 304.723 1075.88 310.734L1071.62 306.497ZM1078.97 289.041V200.759H1084.99V289.041H1078.97ZM1078.97 200.759C1078.97 193.979 1076.55 188.212 1071.62 183.303L1075.88 179.067C1081.92 185.077 1084.99 192.359 1084.99 200.759H1078.97ZM1071.62 183.303C1066.68 178.395 1060.89 175.992 1054.08 175.992V170C1062.52 170 1069.83 173.056 1075.88 179.067L1071.62 183.303ZM1054.08 175.992H965.354V170H1054.08V175.992ZM970.975 196.565H1048.26V202.557H970.975V196.565ZM1048.26 196.565C1050.09 196.565 1051.63 196.615 1052.81 196.728C1053.4 196.784 1053.96 196.863 1054.46 196.978C1054.87 197.072 1055.62 197.269 1056.29 197.763L1052.67 202.557C1053.06 202.851 1053.36 202.873 1053.1 202.817C1052.96 202.782 1052.68 202.736 1052.23 202.692C1051.34 202.607 1050.02 202.557 1048.26 202.557V196.565ZM1056.61 198.042C1057.28 198.711 1057.57 199.529 1057.71 199.998C1057.88 200.552 1057.99 201.166 1058.06 201.786C1058.22 203.032 1058.29 204.639 1058.29 206.551H1052.27C1052.27 204.736 1052.2 203.413 1052.09 202.529C1052.03 202.083 1051.98 201.832 1051.94 201.72C1051.88 201.523 1051.94 201.876 1052.35 202.278L1056.61 198.042ZM1058.29 206.551V283.249H1052.27V206.551H1058.29ZM1058.29 283.249C1058.29 285.158 1058.22 286.755 1058.06 287.977C1057.98 288.58 1057.87 289.196 1057.69 289.753C1057.55 290.181 1057.2 291.153 1056.29 291.838L1052.67 287.044C1052.3 287.318 1052.12 287.609 1052.05 287.727C1051.98 287.856 1051.95 287.931 1051.96 287.905C1051.98 287.846 1052.04 287.638 1052.09 287.21C1052.2 286.367 1052.27 285.068 1052.27 283.249H1058.29ZM1056.61 291.559C1055.94 292.215 1055.14 292.508 1054.67 292.654C1054.12 292.823 1053.52 292.933 1052.9 293.011C1051.68 293.168 1050.11 293.236 1048.26 293.236V287.244C1050.01 287.244 1051.29 287.178 1052.13 287.069C1052.56 287.014 1052.8 286.958 1052.9 286.927C1053.07 286.872 1052.74 286.933 1052.35 287.322L1056.61 291.559ZM1048.26 293.236H970.975V287.244H1048.26V293.236ZM970.975 293.236C969.053 293.236 967.438 293.169 966.185 293.013C965.563 292.935 964.946 292.826 964.389 292.66C963.917 292.519 963.095 292.228 962.423 291.559L966.68 287.322C966.276 286.92 965.921 286.862 966.119 286.921C966.232 286.954 966.485 287.011 966.932 287.067C967.821 287.178 969.15 287.244 970.975 287.244V293.236ZM962.423 291.559C961.677 290.817 961.443 289.866 961.363 289.537C961.24 289.032 961.159 288.462 961.103 287.882C960.989 286.707 960.939 285.147 960.939 283.249H966.96C966.96 285.08 967.01 286.416 967.097 287.305C967.141 287.756 967.186 288.01 967.214 288.121C967.227 288.176 967.221 288.133 967.178 288.033C967.147 287.962 967.011 287.651 966.68 287.322L962.423 291.559ZM960.939 283.249V206.551H966.96V283.249H960.939ZM960.939 206.551C960.939 204.651 960.989 203.079 961.102 201.877C961.158 201.28 961.237 200.708 961.351 200.201C961.441 199.799 961.637 199.033 962.143 198.362L966.96 201.957C967.265 201.553 967.285 201.253 967.225 201.517C967.189 201.676 967.142 201.968 967.098 202.437C967.01 203.366 966.96 204.723 966.96 206.551H960.939ZM962.745 197.763C963.419 197.26 964.189 197.065 964.594 196.975C965.103 196.861 965.678 196.783 966.278 196.727C967.485 196.615 969.065 196.565 970.975 196.565V202.557C969.137 202.557 967.773 202.607 966.84 202.693C966.369 202.737 966.075 202.784 965.916 202.82C965.651 202.88 965.952 202.86 966.358 202.557L962.745 197.763ZM1133.99 181.185L1136.11 183.303L1133.99 181.185ZM1133.99 308.615L1136.11 306.497L1133.99 308.615ZM1242.78 200.16L1244.59 197.763L1244.76 197.891L1244.91 198.042L1242.78 200.16ZM1242.78 289.441L1240.65 287.322L1240.8 287.172L1240.97 287.044L1242.78 289.441ZM1152.85 289.441L1154.98 287.322L1152.85 289.441ZM1152.85 200.16L1150.45 198.362L1150.71 198.02L1151.05 197.763L1152.85 200.16ZM1153.66 175.992C1146.84 175.992 1141.05 178.395 1136.11 183.303L1131.86 179.067C1137.9 173.056 1145.22 170 1153.66 170V175.992ZM1136.11 183.303C1131.19 188.212 1128.77 193.979 1128.77 200.759H1122.75C1122.75 192.359 1125.82 185.077 1131.86 179.067L1136.11 183.303ZM1128.77 200.759V289.041H1122.75V200.759H1128.77ZM1128.77 289.041C1128.77 295.821 1131.19 301.588 1136.11 306.497L1131.86 310.734C1125.82 304.723 1122.75 297.441 1122.75 289.041H1128.77ZM1136.11 306.497C1141.05 311.405 1146.84 313.808 1153.66 313.808V319.8C1145.22 319.8 1137.9 316.744 1131.86 310.734L1136.11 306.497ZM1153.66 313.808H1242.38V319.8H1153.66V313.808ZM1242.38 313.808C1249.19 313.808 1254.99 311.405 1259.92 306.497L1264.18 310.734C1258.13 316.744 1250.82 319.8 1242.38 319.8V313.808ZM1259.92 306.497C1264.86 301.588 1267.27 295.821 1267.27 289.041H1273.29C1273.29 297.441 1270.22 304.723 1264.18 310.734L1259.92 306.497ZM1267.27 289.041V200.759H1273.29V289.041H1267.27ZM1267.27 200.759C1267.27 193.979 1264.86 188.212 1259.92 183.303L1264.18 179.067C1270.22 185.077 1273.29 192.359 1273.29 200.759H1267.27ZM1259.92 183.303C1254.99 178.395 1249.19 175.992 1242.38 175.992V170C1250.82 170 1258.13 173.056 1264.18 179.067L1259.92 183.303ZM1242.38 175.992H1153.66V170H1242.38V175.992ZM1159.28 196.565H1236.56V202.557H1159.28V196.565ZM1236.56 196.565C1238.4 196.565 1239.94 196.615 1241.11 196.728C1241.69 196.784 1242.27 196.863 1242.77 196.978C1243.17 197.072 1243.92 197.269 1244.59 197.763L1240.97 202.557C1241.37 202.851 1241.65 202.873 1241.41 202.817C1241.26 202.782 1240.98 202.736 1240.53 202.692C1239.64 202.607 1238.32 202.557 1236.56 202.557V196.565ZM1244.91 198.042C1245.58 198.711 1245.87 199.529 1246.02 199.998C1246.18 200.552 1246.29 201.166 1246.37 201.786C1246.52 203.032 1246.59 204.639 1246.59 206.551H1240.57C1240.57 204.736 1240.51 203.413 1240.4 202.529C1240.34 202.083 1240.28 201.832 1240.25 201.72C1240.19 201.523 1240.25 201.876 1240.65 202.278L1244.91 198.042ZM1246.59 206.551V283.249H1240.57V206.551H1246.59ZM1246.59 283.249C1246.59 285.158 1246.53 286.755 1246.37 287.977C1246.29 288.58 1246.18 289.196 1246 289.753C1245.86 290.181 1245.51 291.153 1244.59 291.838L1240.97 287.044C1240.61 287.318 1240.42 287.609 1240.35 287.727C1240.28 287.856 1240.26 287.931 1240.27 287.905C1240.29 287.846 1240.34 287.638 1240.4 287.21C1240.51 286.367 1240.57 285.068 1240.57 283.249H1246.59ZM1244.91 291.559C1244.25 292.215 1243.45 292.508 1242.98 292.654C1242.43 292.823 1241.82 292.933 1241.21 293.011C1239.99 293.168 1238.41 293.236 1236.56 293.236V287.244C1238.31 287.244 1239.59 287.178 1240.44 287.069C1240.86 287.014 1241.1 286.958 1241.2 286.927C1241.38 286.872 1241.04 286.933 1240.65 287.322L1244.91 291.559ZM1236.56 293.236H1159.28V287.244H1236.56V293.236ZM1159.28 293.236C1157.36 293.236 1155.74 293.169 1154.49 293.013C1153.87 292.935 1153.26 292.826 1152.69 292.66C1152.22 292.519 1151.4 292.228 1150.73 291.559L1154.98 287.322C1154.58 286.92 1154.23 286.862 1154.42 286.921C1154.54 286.954 1154.79 287.011 1155.23 287.067C1156.13 287.178 1157.45 287.244 1159.28 287.244V293.236ZM1150.73 291.559C1149.98 290.817 1149.74 289.866 1149.66 289.537C1149.54 289.032 1149.46 288.462 1149.41 287.882C1149.29 286.707 1149.24 285.147 1149.24 283.249H1155.26C1155.26 285.08 1155.31 286.416 1155.4 287.305C1155.44 287.756 1155.49 288.01 1155.51 288.121C1155.53 288.176 1155.52 288.133 1155.48 288.033C1155.45 287.962 1155.31 287.651 1154.98 287.322L1150.73 291.559ZM1149.24 283.249V206.551H1155.26V283.249H1149.24ZM1149.24 206.551C1149.24 204.651 1149.29 203.079 1149.41 201.877C1149.46 201.28 1149.54 200.708 1149.65 200.201C1149.74 199.799 1149.94 199.033 1150.45 198.362L1155.26 201.957C1155.57 201.553 1155.59 201.253 1155.53 201.517C1155.49 201.676 1155.44 201.968 1155.4 202.437C1155.31 203.366 1155.26 204.723 1155.26 206.551H1149.24ZM1151.05 197.763C1151.72 197.26 1152.49 197.065 1152.89 196.975C1153.41 196.861 1153.98 196.783 1154.58 196.727C1155.79 196.615 1157.37 196.565 1159.28 196.565V202.557C1157.44 202.557 1156.08 202.607 1155.14 202.693C1154.67 202.737 1154.38 202.784 1154.22 202.82C1153.96 202.88 1154.26 202.86 1154.66 202.557L1151.05 197.763ZM1314.47 172.996H1311.46V170H1314.47V172.996ZM1314.47 316.804V319.8H1311.46V316.804H1314.47ZM1343.57 316.804L1345.87 318.732L1344.97 319.8H1343.57V316.804ZM1432.29 211.744L1429.98 209.817L1435.3 203.522V211.744H1432.29ZM1432.29 316.804V319.8H1429.28V316.804H1432.29ZM1458.99 316.804H1462V319.8H1458.99V316.804ZM1458.99 172.996V170H1462V172.996H1458.99ZM1429.88 172.996L1427.58 171.069L1428.48 170H1429.88V172.996ZM1340.96 278.256L1343.26 280.183L1337.95 286.476V278.256H1340.96ZM1340.96 172.996V170H1343.97V172.996H1340.96ZM1317.48 172.996V316.804H1311.46V172.996H1317.48ZM1314.47 313.808H1343.57V319.8H1314.47V313.808ZM1341.26 314.877L1429.98 209.817L1434.59 213.672L1345.87 318.732L1341.26 314.877ZM1435.3 211.744V316.804H1429.28V211.744H1435.3ZM1432.29 313.808H1458.99V319.8H1432.29V313.808ZM1455.98 316.804V172.996H1462V316.804H1455.98ZM1458.99 175.992H1429.88V170H1458.99V175.992ZM1432.18 174.923L1343.26 280.183L1338.65 276.328L1427.58 171.069L1432.18 174.923ZM1337.95 278.256V172.996H1343.97V278.256H1337.95ZM1340.96 175.992H1314.47V170H1340.96V175.992Z" fill="#2B5797" fill-opacity="0.8"/>
</g>
<path style="mix-blend-mode:hard-light" opacity="0.26" d="M3.01085 449.763H0V452H3.01085V449.763ZM3.01085 342.386V340.149H0V342.386H3.01085ZM141.31 387.872L138.341 387.504L141.31 387.872ZM139.905 391.302L137.164 390.377L136.432 391.574L137.483 392.632L139.905 391.302ZM145.325 398.461L142.529 399.292L142.548 399.327L142.569 399.362L145.325 398.461ZM120.034 429.481L121.84 431.27L122.011 431.175L122.162 431.062L120.034 429.481ZM120.034 405.619L117.904 407.201L118.055 407.313L118.227 407.409L120.034 405.619ZM30.1086 405.619L32.2376 407.201L30.1086 405.619ZM30.1086 429.481L27.7 430.823L27.9581 431.079L28.3021 431.27L30.1086 429.481ZM114.012 384.74L116.14 386.322L114.012 384.74ZM114.012 362.818L111.603 364.16L111.861 364.415L112.205 364.607L114.012 362.818ZM30.1086 362.818L32.2376 364.399L30.1086 362.818ZM30.1086 384.74L27.7 386.083L27.9581 386.338L28.3021 386.53L30.1086 384.74ZM6.02171 449.763V342.386H0V449.763H6.02171ZM3.01085 344.623H113.811V340.149H3.01085V344.623ZM113.811 344.623C120.625 344.623 126.42 346.418 131.352 350.082L135.611 346.919C129.571 342.431 122.253 340.149 113.811 340.149V344.623ZM131.352 350.082C136.285 353.747 138.701 358.053 138.701 363.116H144.723C144.723 356.844 141.651 351.407 135.611 346.919L131.352 350.082ZM138.701 363.116V384.144H144.723V363.116H138.701ZM138.701 384.144C138.701 385.321 138.578 386.441 138.341 387.504L144.28 388.24C144.577 386.917 144.723 385.551 144.723 384.144H138.701ZM138.341 387.504C138.116 388.506 137.723 389.462 137.164 390.377L142.646 392.228C143.425 390.955 143.969 389.624 144.28 388.24L138.341 387.504ZM137.483 392.632C139.615 394.774 141.292 396.994 142.529 399.292L148.12 397.63C146.681 394.956 144.745 392.404 142.326 389.973L137.483 392.632ZM142.569 399.362C143.889 401.59 144.522 403.77 144.522 405.917H150.544C150.544 403.094 149.705 400.303 148.081 397.56L142.569 399.362ZM144.522 405.917V429.033H150.544V405.917H144.522ZM144.522 429.033C144.522 434.096 142.106 438.402 137.173 442.067L141.432 445.23C147.472 440.743 150.544 435.305 150.544 429.033H144.522ZM137.173 442.067C132.253 445.724 126.394 447.526 119.431 447.526V452C127.99 452 135.381 449.726 141.432 445.23L137.173 442.067ZM119.431 447.526H3.01085V452H119.431V447.526ZM36.5318 432.165H113.811V427.691H36.5318V432.165ZM113.811 432.165C115.655 432.165 117.188 432.128 118.366 432.043C118.952 432.001 119.517 431.942 120.02 431.856C120.427 431.786 121.178 431.639 121.84 431.27L118.227 427.691C118.621 427.471 118.911 427.455 118.667 427.496C118.517 427.523 118.237 427.557 117.786 427.59C116.89 427.654 115.579 427.691 113.811 427.691V432.165ZM122.162 431.062C122.835 430.563 123.127 429.952 123.268 429.601C123.436 429.188 123.545 428.729 123.623 428.267C123.78 427.336 123.847 426.136 123.847 424.708H117.826C117.826 426.064 117.759 427.051 117.648 427.712C117.592 428.045 117.534 428.232 117.5 428.316C117.441 428.463 117.499 428.2 117.904 427.899L122.162 431.062ZM123.847 424.708V410.242H117.826V424.708H123.847ZM123.847 410.242C123.847 408.817 123.78 407.624 123.621 406.712C123.543 406.262 123.43 405.802 123.248 405.386C123.109 405.066 122.756 404.34 121.84 403.83L118.227 407.409C117.859 407.204 117.675 406.987 117.607 406.899C117.533 406.803 117.512 406.746 117.52 406.766C117.54 406.81 117.594 406.965 117.649 407.285C117.758 407.914 117.826 408.884 117.826 410.242H123.847ZM122.162 404.037C121.503 403.548 120.703 403.329 120.228 403.22C119.677 403.094 119.07 403.011 118.462 402.953C117.237 402.836 115.668 402.786 113.811 402.786V407.26C115.566 407.26 116.841 407.309 117.691 407.39C118.119 407.431 118.356 407.473 118.458 407.496C118.635 407.537 118.295 407.492 117.904 407.201L122.162 404.037ZM113.811 402.786H36.5318V407.26H113.811V402.786ZM36.5318 402.786C34.61 402.786 32.9948 402.836 31.7424 402.952C31.12 403.01 30.5031 403.091 29.9461 403.215C29.4745 403.321 28.6521 403.538 27.9797 404.037L32.2376 407.201C31.8329 407.502 31.4789 407.545 31.6764 407.501C31.7884 407.476 32.0413 407.433 32.4893 407.391C33.3781 407.309 34.7068 407.26 36.5318 407.26V402.786ZM27.9797 404.037C27.2339 404.591 26.9999 405.302 26.9196 405.547C26.7963 405.924 26.7166 406.35 26.6602 406.783C26.5459 407.66 26.4956 408.825 26.4956 410.242H32.5173C32.5173 408.875 32.5674 407.878 32.6539 407.214C32.6978 406.877 32.7436 406.688 32.7708 406.605C32.7842 406.564 32.7781 406.596 32.7349 406.67C32.7044 406.723 32.5681 406.955 32.2376 407.201L27.9797 404.037ZM26.4956 410.242V424.708H32.5173V410.242H26.4956ZM26.4956 424.708C26.4956 426.127 26.5461 427.301 26.6593 428.198C26.7156 428.644 26.7932 429.071 26.9078 429.45C26.9987 429.75 27.1943 430.322 27.7 430.823L32.5173 428.138C32.8222 428.44 32.8422 428.664 32.7827 428.467C32.7467 428.349 32.6989 428.13 32.6547 427.781C32.5672 427.087 32.5173 426.074 32.5173 424.708H26.4956ZM28.3021 431.27C28.9763 431.646 29.7461 431.792 30.1503 431.859C30.6594 431.944 31.2348 432.002 31.8349 432.044C33.0426 432.128 34.6223 432.165 36.5318 432.165V427.691C34.6945 427.691 33.3303 427.654 32.3969 427.589C31.9265 427.556 31.632 427.521 31.4722 427.494C31.2072 427.449 31.5087 427.464 31.9152 427.691L28.3021 431.27ZM36.5318 387.425H107.99V382.951H36.5318V387.425ZM107.99 387.425C109.832 387.425 111.353 387.387 112.504 387.302C113.074 387.26 113.637 387.2 114.139 387.106C114.478 387.043 115.408 386.866 116.14 386.322L111.882 383.159C112.202 382.921 112.502 382.821 112.579 382.796C112.681 382.762 112.728 382.757 112.679 382.766C112.58 382.784 112.34 382.818 111.905 382.85C111.05 382.914 109.761 382.951 107.99 382.951V387.425ZM116.14 386.322C116.813 385.823 117.105 385.212 117.246 384.861C117.414 384.447 117.523 383.989 117.602 383.526C117.758 382.596 117.826 381.396 117.826 379.968H111.804C111.804 381.324 111.738 382.311 111.626 382.972C111.57 383.304 111.513 383.492 111.479 383.576C111.419 383.722 111.478 383.459 111.882 383.159L116.14 386.322ZM117.826 379.968V367.441H111.804V379.968H117.826ZM117.826 367.441C117.826 366.015 117.758 364.823 117.6 363.911C117.521 363.46 117.408 363 117.226 362.584C117.087 362.265 116.735 361.539 115.818 361.028L112.205 364.607C111.837 364.402 111.653 364.185 111.586 364.098C111.512 364.001 111.491 363.945 111.499 363.964C111.518 364.008 111.572 364.163 111.627 364.483C111.737 365.113 111.804 366.082 111.804 367.441H117.826ZM116.42 361.475C115.747 360.808 114.8 360.543 114.361 360.434C113.806 360.297 113.196 360.212 112.603 360.153C111.403 360.034 109.844 359.984 107.99 359.984V364.458C109.749 364.458 110.999 364.508 111.807 364.588C112.217 364.628 112.41 364.667 112.457 364.679C112.477 364.684 112.399 364.666 112.268 364.61C112.148 364.558 111.868 364.423 111.603 364.16L116.42 361.475ZM107.99 359.984H36.5318V364.458H107.99V359.984ZM36.5318 359.984C34.61 359.984 32.9948 360.034 31.7424 360.15C31.12 360.208 30.5031 360.29 29.9461 360.414C29.4745 360.519 28.6521 360.736 27.9797 361.236L32.2376 364.399C31.8329 364.7 31.4789 364.743 31.6764 364.699C31.7884 364.674 32.0413 364.632 32.4893 364.59C33.3781 364.507 34.7068 364.458 36.5318 364.458V359.984ZM27.9797 361.236C27.2339 361.79 26.9999 362.5 26.9196 362.746C26.7963 363.122 26.7166 363.548 26.6602 363.982C26.5459 364.859 26.4956 366.024 26.4956 367.441H32.5173C32.5173 366.074 32.5674 365.076 32.6539 364.413C32.6978 364.076 32.7436 363.886 32.7708 363.803C32.7842 363.762 32.7781 363.794 32.7349 363.869C32.7044 363.922 32.5681 364.154 32.2376 364.399L27.9797 361.236ZM26.4956 367.441V379.968H32.5173V367.441H26.4956ZM26.4956 379.968C26.4956 381.387 26.5461 382.56 26.6593 383.458C26.7156 383.904 26.7932 384.331 26.9078 384.709C26.9987 385.01 27.1943 385.582 27.7 386.083L32.5173 383.398C32.8222 383.7 32.8422 383.924 32.7827 383.727C32.7467 383.608 32.6989 383.39 32.6547 383.04C32.5672 382.347 32.5173 381.333 32.5173 379.968H26.4956ZM28.3021 386.53C28.9763 386.906 29.7461 387.051 30.1503 387.119C30.6594 387.204 31.2348 387.261 31.8349 387.303C33.0426 387.387 34.6223 387.425 36.5318 387.425V382.951C34.6945 382.951 33.3303 382.914 32.3969 382.849C31.9265 382.816 31.632 382.78 31.4722 382.754C31.2071 382.709 31.5087 382.724 31.9152 382.951L28.3021 386.53ZM191.698 449.763H188.687V452H191.698V449.763ZM191.698 342.237V340H188.687V342.237H191.698ZM218.194 342.237H221.205V340H218.194V342.237ZM218.194 429.928H215.183V432.165H218.194V429.928ZM336.22 429.928H339.231V427.691H336.22V429.928ZM336.22 449.763V452H339.231V449.763H336.22ZM194.709 449.763V342.237H188.687V449.763H194.709ZM191.698 344.474H218.194V340H191.698V344.474ZM215.183 342.237V429.928H221.205V342.237H215.183ZM218.194 432.165H336.22V427.691H218.194V432.165ZM333.209 429.928V449.763H339.231V429.928H333.209ZM336.22 447.526H191.698V452H336.22V447.526ZM377.829 443.648L379.959 442.067L377.829 443.648ZM369.599 342.386V340.149H366.588V342.386H369.599ZM396.095 342.386H399.106V340.149H396.095V342.386ZM396.697 429.481L394.288 430.823L394.546 431.079L394.891 431.27L396.697 429.481ZM486.622 429.481L488.428 431.27L488.6 431.175L488.751 431.062L486.622 429.481ZM487.425 342.386V340.149H484.414V342.386H487.425ZM514.121 342.386H517.132V340.149H514.121V342.386ZM397.5 447.526C390.686 447.526 384.891 445.732 379.959 442.067L375.7 445.23C381.74 449.718 389.059 452 397.5 452V447.526ZM379.959 442.067C375.026 438.402 372.61 434.096 372.61 429.033H366.588C366.588 435.305 369.66 440.743 375.7 445.23L379.959 442.067ZM372.61 429.033V342.386H366.588V429.033H372.61ZM369.599 344.623H396.095V340.149H369.599V344.623ZM393.084 342.386V424.708H399.106V342.386H393.084ZM393.084 424.708C393.084 426.127 393.135 427.301 393.248 428.198C393.305 428.644 393.382 429.071 393.497 429.45C393.588 429.75 393.784 430.322 394.288 430.823L399.106 428.138C399.411 428.44 399.431 428.664 399.372 428.467C399.336 428.349 399.287 428.13 399.243 427.781C399.156 427.087 399.106 426.074 399.106 424.708H393.084ZM394.891 431.27C395.565 431.646 396.335 431.792 396.739 431.859C397.248 431.944 397.823 432.002 398.423 432.044C399.632 432.128 401.211 432.165 403.12 432.165V427.691C401.284 427.691 399.919 427.654 398.985 427.589C398.516 427.556 398.221 427.521 398.061 427.494C397.796 427.449 398.097 427.464 398.504 427.691L394.891 431.27ZM403.12 432.165H480.399V427.691H403.12V432.165ZM480.399 432.165C482.244 432.165 483.776 432.128 484.955 432.043C485.541 432.001 486.106 431.942 486.609 431.856C487.016 431.786 487.767 431.639 488.428 431.27L484.815 427.691C485.21 427.471 485.501 427.455 485.255 427.496C485.106 427.523 484.826 427.557 484.374 427.59C483.479 427.654 482.169 427.691 480.399 427.691V432.165ZM488.751 431.062C489.424 430.563 489.716 429.952 489.857 429.601C490.024 429.188 490.134 428.729 490.212 428.267C490.368 427.336 490.435 426.136 490.435 424.708H484.414C484.414 426.064 484.347 427.051 484.237 427.712C484.181 428.045 484.123 428.232 484.089 428.316C484.03 428.463 484.088 428.2 484.493 427.899L488.751 431.062ZM490.435 424.708V342.386H484.414V424.708H490.435ZM487.425 344.623H514.121V340.149H487.425V344.623ZM511.11 342.386V429.033H517.132V342.386H511.11ZM511.11 429.033C511.11 434.096 508.695 438.402 503.762 442.067L508.021 445.23C514.061 440.743 517.132 435.305 517.132 429.033H511.11ZM503.762 442.067C498.83 445.732 493.034 447.526 486.22 447.526V452C494.662 452 501.98 449.718 508.021 445.23L503.762 442.067ZM486.22 447.526H397.5V452H486.22V447.526ZM558.707 449.763H555.696V452H558.707V449.763ZM558.707 342.386V340.149H555.696V342.386H558.707ZM691.787 342.386H694.798V340.149H691.787V342.386ZM691.787 362.221V364.458H694.798V362.221H691.787ZM585.403 362.221V359.984H582.392V362.221H585.403ZM585.403 386.083H582.392V388.32H585.403V386.083ZM670.912 386.083H673.923V383.846H670.912V386.083ZM670.912 405.917V408.154H673.923V405.917H670.912ZM585.403 405.917V403.68H582.392V405.917H585.403ZM585.403 429.928H582.392V432.165H585.403V429.928ZM691.787 429.928H694.798V427.691H691.787V429.928ZM691.787 449.763V452H694.798V449.763H691.787ZM561.718 449.763V342.386H555.696V449.763H561.718ZM558.707 344.623H691.787V340.149H558.707V344.623ZM688.776 342.386V362.221H694.798V342.386H688.776ZM691.787 359.984H585.403V364.458H691.787V359.984ZM582.392 362.221V386.083H588.414V362.221H582.392ZM585.403 388.32H670.912V383.846H585.403V388.32ZM667.901 386.083V405.917H673.923V386.083H667.901ZM670.912 403.68H585.403V408.154H670.912V403.68ZM582.392 405.917V429.928H588.414V405.917H582.392ZM585.403 432.165H691.787V427.691H585.403V432.165ZM688.776 429.928V449.763H694.798V429.928H688.776ZM691.787 447.526H558.707V452H691.787V447.526ZM729.556 449.763H726.546V452H729.556V449.763ZM729.556 342.386V340.149H726.546V342.386H729.556ZM758.661 342.386L760.968 340.948L760.066 340.149H758.661V342.386ZM811.051 388.767L808.744 390.205L811.056 392.251L813.361 390.202L811.051 388.767ZM863.239 342.386V340.149H861.832L860.93 340.951L863.239 342.386ZM892.545 342.386H895.556V340.149H892.545V342.386ZM892.545 449.763V452H895.556V449.763H892.545ZM865.848 449.763H862.837V452H865.848V449.763ZM865.848 371.02H868.859V364.879L863.543 369.581L865.848 371.02ZM811.051 419.489L808.751 420.933L811.059 422.96L813.356 420.928L811.051 419.489ZM756.052 371.169L758.351 369.725L753.041 365.06V371.169H756.052ZM756.052 449.763V452H759.063V449.763H756.052ZM732.567 449.763V342.386H726.546V449.763H732.567ZM729.556 344.623H758.661V340.149H729.556V344.623ZM756.355 343.824L808.744 390.205L813.357 387.329L760.968 340.948L756.355 343.824ZM813.361 390.202L865.549 343.821L860.93 340.951L808.741 387.332L813.361 390.202ZM863.239 344.623H892.545V340.149H863.239V344.623ZM889.534 342.386V449.763H895.556V342.386H889.534ZM892.545 447.526H865.848V452H892.545V447.526ZM868.859 449.763V371.02H862.837V449.763H868.859ZM863.543 369.581L808.745 418.05L813.356 420.928L868.154 372.459L863.543 369.581ZM813.35 418.044L758.351 369.725L753.753 372.614L808.751 420.933L813.35 418.044ZM753.041 371.169V449.763H759.063V371.169H753.041ZM756.052 447.526H729.556V452H756.052V447.526ZM945.683 443.648L947.812 442.067L945.683 443.648ZM945.683 348.501L947.812 350.082L945.683 348.501ZM1054.48 429.481L1056.29 431.27L1056.46 431.175L1056.61 431.062L1054.48 429.481ZM1054.48 362.818L1052.35 364.399L1052.5 364.512L1052.67 364.607L1054.48 362.818ZM964.552 362.818L966.68 364.399L964.552 362.818ZM964.552 429.481L962.143 430.823L962.401 431.079L962.745 431.27L964.552 429.481ZM965.354 447.526C958.541 447.526 952.745 445.732 947.812 442.067L943.555 445.23C949.595 449.718 956.913 452 965.354 452V447.526ZM947.812 442.067C942.879 438.402 940.465 434.096 940.465 429.033H934.443C934.443 435.305 937.514 440.743 943.555 445.23L947.812 442.067ZM940.465 429.033V363.116H934.443V429.033H940.465ZM940.465 363.116C940.465 358.053 942.879 353.747 947.812 350.082L943.555 346.919C937.514 351.407 934.443 356.844 934.443 363.116H940.465ZM947.812 350.082C952.745 346.418 958.541 344.623 965.354 344.623V340.149C956.913 340.149 949.595 342.431 943.555 346.919L947.812 350.082ZM965.354 344.623H1054.08V340.149H965.354V344.623ZM1054.08 344.623C1060.89 344.623 1066.68 346.418 1071.62 350.082L1075.88 346.919C1069.83 342.431 1062.52 340.149 1054.08 340.149V344.623ZM1071.62 350.082C1076.55 353.747 1078.97 358.053 1078.97 363.116H1084.99C1084.99 356.844 1081.92 351.407 1075.88 346.919L1071.62 350.082ZM1078.97 363.116V429.033H1084.99V363.116H1078.97ZM1078.97 429.033C1078.97 434.096 1076.55 438.402 1071.62 442.067L1075.88 445.23C1081.92 440.743 1084.99 435.305 1084.99 429.033H1078.97ZM1071.62 442.067C1066.68 445.732 1060.89 447.526 1054.08 447.526V452C1062.52 452 1069.83 449.718 1075.88 445.23L1071.62 442.067ZM1054.08 447.526H965.354V452H1054.08V447.526ZM970.975 432.165H1048.26V427.691H970.975V432.165ZM1048.26 432.165C1050.09 432.165 1051.63 432.128 1052.81 432.043C1053.4 432.001 1053.96 431.942 1054.46 431.856C1054.87 431.786 1055.62 431.639 1056.29 431.27L1052.67 427.691C1053.06 427.471 1053.36 427.455 1053.1 427.496C1052.96 427.523 1052.68 427.557 1052.23 427.59C1051.34 427.654 1050.02 427.691 1048.26 427.691V432.165ZM1056.61 431.062C1057.28 430.563 1057.57 429.952 1057.71 429.601C1057.88 429.188 1057.99 428.729 1058.06 428.267C1058.22 427.336 1058.29 426.136 1058.29 424.708H1052.27C1052.27 426.064 1052.2 427.051 1052.09 427.712C1052.03 428.045 1051.98 428.232 1051.94 428.316C1051.88 428.463 1051.94 428.2 1052.35 427.899L1056.61 431.062ZM1058.29 424.708V367.441H1052.27V424.708H1058.29ZM1058.29 367.441C1058.29 366.015 1058.22 364.823 1058.06 363.911C1057.98 363.46 1057.87 363 1057.69 362.584C1057.55 362.265 1057.2 361.539 1056.29 361.028L1052.67 364.607C1052.3 364.402 1052.12 364.185 1052.05 364.098C1051.98 364.001 1051.95 363.945 1051.96 363.964C1051.98 364.008 1052.04 364.163 1052.09 364.483C1052.2 365.113 1052.27 366.082 1052.27 367.441H1058.29ZM1056.61 361.236C1055.94 360.746 1055.14 360.527 1054.67 360.419C1054.12 360.293 1053.52 360.21 1052.9 360.152C1051.68 360.034 1050.11 359.984 1048.26 359.984V364.458C1050.01 364.458 1051.29 364.507 1052.13 364.589C1052.56 364.63 1052.8 364.672 1052.9 364.695C1053.07 364.735 1052.74 364.69 1052.35 364.399L1056.61 361.236ZM1048.26 359.984H970.975V364.458H1048.26V359.984ZM970.975 359.984C969.053 359.984 967.438 360.034 966.185 360.15C965.563 360.208 964.946 360.29 964.389 360.414C963.917 360.519 963.095 360.736 962.423 361.236L966.68 364.399C966.276 364.7 965.921 364.743 966.119 364.699C966.232 364.674 966.485 364.632 966.932 364.59C967.821 364.507 969.15 364.458 970.975 364.458V359.984ZM962.423 361.236C961.677 361.79 961.443 362.5 961.363 362.746C961.24 363.122 961.159 363.548 961.103 363.982C960.989 364.859 960.939 366.024 960.939 367.441H966.96C966.96 366.074 967.01 365.076 967.097 364.413C967.141 364.076 967.186 363.886 967.214 363.803C967.227 363.762 967.221 363.794 967.178 363.869C967.147 363.922 967.011 364.154 966.68 364.399L962.423 361.236ZM960.939 367.441V424.708H966.96V367.441H960.939ZM960.939 424.708C960.939 426.127 960.989 427.301 961.102 428.198C961.158 428.644 961.237 429.071 961.351 429.45C961.441 429.75 961.637 430.322 962.143 430.823L966.96 428.138C967.265 428.44 967.285 428.664 967.225 428.467C967.189 428.349 967.142 428.13 967.098 427.781C967.01 427.087 966.96 426.074 966.96 424.708H960.939ZM962.745 431.27C963.419 431.646 964.189 431.792 964.594 431.859C965.103 431.944 965.678 432.002 966.278 432.044C967.485 432.128 969.065 432.165 970.975 432.165V427.691C969.137 427.691 967.773 427.654 966.84 427.589C966.369 427.556 966.075 427.521 965.916 427.494C965.651 427.449 965.952 427.464 966.358 427.691L962.745 431.27ZM1133.99 443.648L1136.11 442.067L1133.99 443.648ZM1133.99 348.501L1136.11 350.082L1133.99 348.501ZM1242.78 429.481L1244.59 431.27L1244.76 431.175L1244.91 431.062L1242.78 429.481ZM1242.78 362.818L1240.65 364.399L1240.8 364.512L1240.97 364.607L1242.78 362.818ZM1152.85 362.818L1154.98 364.399L1152.85 362.818ZM1152.85 429.481L1150.45 430.823L1150.71 431.079L1151.05 431.27L1152.85 429.481ZM1153.66 447.526C1146.84 447.526 1141.05 445.732 1136.11 442.067L1131.86 445.23C1137.9 449.718 1145.22 452 1153.66 452V447.526ZM1136.11 442.067C1131.19 438.402 1128.77 434.096 1128.77 429.033H1122.75C1122.75 435.305 1125.82 440.743 1131.86 445.23L1136.11 442.067ZM1128.77 429.033V363.116H1122.75V429.033H1128.77ZM1128.77 363.116C1128.77 358.053 1131.19 353.747 1136.11 350.082L1131.86 346.919C1125.82 351.407 1122.75 356.844 1122.75 363.116H1128.77ZM1136.11 350.082C1141.05 346.418 1146.84 344.623 1153.66 344.623V340.149C1145.22 340.149 1137.9 342.431 1131.86 346.919L1136.11 350.082ZM1153.66 344.623H1242.38V340.149H1153.66V344.623ZM1242.38 344.623C1249.19 344.623 1254.99 346.418 1259.92 350.082L1264.18 346.919C1258.13 342.431 1250.82 340.149 1242.38 340.149V344.623ZM1259.92 350.082C1264.86 353.747 1267.27 358.053 1267.27 363.116H1273.29C1273.29 356.844 1270.22 351.407 1264.18 346.919L1259.92 350.082ZM1267.27 363.116V429.033H1273.29V363.116H1267.27ZM1267.27 429.033C1267.27 434.096 1264.86 438.402 1259.92 442.067L1264.18 445.23C1270.22 440.743 1273.29 435.305 1273.29 429.033H1267.27ZM1259.92 442.067C1254.99 445.732 1249.19 447.526 1242.38 447.526V452C1250.82 452 1258.13 449.718 1264.18 445.23L1259.92 442.067ZM1242.38 447.526H1153.66V452H1242.38V447.526ZM1159.28 432.165H1236.56V427.691H1159.28V432.165ZM1236.56 432.165C1238.4 432.165 1239.94 432.128 1241.11 432.043C1241.69 432.001 1242.27 431.942 1242.77 431.856C1243.17 431.786 1243.92 431.639 1244.59 431.27L1240.97 427.691C1241.37 427.471 1241.65 427.455 1241.41 427.496C1241.26 427.523 1240.98 427.557 1240.53 427.59C1239.64 427.654 1238.32 427.691 1236.56 427.691V432.165ZM1244.91 431.062C1245.58 430.563 1245.87 429.952 1246.02 429.601C1246.18 429.188 1246.29 428.729 1246.37 428.267C1246.52 427.336 1246.59 426.136 1246.59 424.708H1240.57C1240.57 426.064 1240.51 427.051 1240.4 427.712C1240.34 428.045 1240.28 428.232 1240.25 428.316C1240.19 428.463 1240.25 428.2 1240.65 427.899L1244.91 431.062ZM1246.59 424.708V367.441H1240.57V424.708H1246.59ZM1246.59 367.441C1246.59 366.015 1246.53 364.823 1246.37 363.911C1246.29 363.46 1246.18 363 1246 362.584C1245.86 362.265 1245.51 361.539 1244.59 361.028L1240.97 364.607C1240.61 364.402 1240.42 364.185 1240.35 364.098C1240.28 364.001 1240.26 363.945 1240.27 363.964C1240.29 364.008 1240.34 364.163 1240.4 364.483C1240.51 365.113 1240.57 366.082 1240.57 367.441H1246.59ZM1244.91 361.236C1244.25 360.746 1243.45 360.527 1242.98 360.419C1242.43 360.293 1241.82 360.21 1241.21 360.152C1239.99 360.034 1238.41 359.984 1236.56 359.984V364.458C1238.31 364.458 1239.59 364.507 1240.44 364.589C1240.86 364.63 1241.1 364.672 1241.2 364.695C1241.38 364.735 1241.04 364.69 1240.65 364.399L1244.91 361.236ZM1236.56 359.984H1159.28V364.458H1236.56V359.984ZM1159.28 359.984C1157.36 359.984 1155.74 360.034 1154.49 360.15C1153.87 360.208 1153.26 360.29 1152.69 360.414C1152.22 360.519 1151.4 360.736 1150.73 361.236L1154.98 364.399C1154.58 364.7 1154.23 364.743 1154.42 364.699C1154.54 364.674 1154.79 364.632 1155.23 364.59C1156.13 364.507 1157.45 364.458 1159.28 364.458V359.984ZM1150.73 361.236C1149.98 361.79 1149.74 362.5 1149.66 362.746C1149.54 363.122 1149.46 363.548 1149.41 363.982C1149.29 364.859 1149.24 366.024 1149.24 367.441H1155.26C1155.26 366.074 1155.31 365.076 1155.4 364.413C1155.44 364.076 1155.49 363.886 1155.51 363.803C1155.53 363.762 1155.52 363.794 1155.48 363.869C1155.45 363.922 1155.31 364.154 1154.98 364.399L1150.73 361.236ZM1149.24 367.441V424.708H1155.26V367.441H1149.24ZM1149.24 424.708C1149.24 426.127 1149.29 427.301 1149.41 428.198C1149.46 428.644 1149.54 429.071 1149.65 429.45C1149.74 429.75 1149.94 430.322 1150.45 430.823L1155.26 428.138C1155.57 428.44 1155.59 428.664 1155.53 428.467C1155.49 428.349 1155.44 428.13 1155.4 427.781C1155.31 427.087 1155.26 426.074 1155.26 424.708H1149.24ZM1151.05 431.27C1151.72 431.646 1152.49 431.792 1152.89 431.859C1153.41 431.944 1153.98 432.002 1154.58 432.044C1155.79 432.128 1157.37 432.165 1159.28 432.165V427.691C1157.44 427.691 1156.08 427.654 1155.14 427.589C1154.67 427.556 1154.38 427.521 1154.22 427.494C1153.96 427.449 1154.26 427.464 1154.66 427.691L1151.05 431.27ZM1314.47 449.763H1311.46V452H1314.47V449.763ZM1314.47 342.386V340.149H1311.46V342.386H1314.47ZM1343.57 342.386L1345.87 340.947L1344.97 340.149H1343.57V342.386ZM1432.29 420.831L1429.98 422.27L1435.3 426.97V420.831H1432.29ZM1432.29 342.386V340.149H1429.28V342.386H1432.29ZM1458.99 342.386H1462V340.149H1458.99V342.386ZM1458.99 449.763V452H1462V449.763H1458.99ZM1429.88 449.763L1427.58 451.202L1428.48 452H1429.88V449.763ZM1340.96 371.169L1343.26 369.73L1337.95 365.031V371.169H1340.96ZM1340.96 449.763V452H1343.97V449.763H1340.96ZM1317.48 449.763V342.386H1311.46V449.763H1317.48ZM1314.47 344.623H1343.57V340.149H1314.47V344.623ZM1341.26 343.825L1429.98 422.27L1434.59 419.392L1345.87 340.947L1341.26 343.825ZM1435.3 420.831V342.386H1429.28V420.831H1435.3ZM1432.29 344.623H1458.99V340.149H1432.29V344.623ZM1455.98 342.386V449.763H1462V342.386H1455.98ZM1458.99 447.526H1429.88V452H1458.99V447.526ZM1432.18 448.324L1343.26 369.73L1338.65 372.609L1427.58 451.202L1432.18 448.324ZM1337.95 371.169V449.763H1343.97V371.169H1337.95ZM1340.96 447.526H1314.47V452H1340.96V447.526Z" fill="url(#paint0_linear)" fill-opacity="0.47"/>
<path style="mix-blend-mode:hard-light" opacity="0.11" d="M3.01085 474.237H0V472H3.01085V474.237ZM3.01085 581.614V583.851H0V581.614H3.01085ZM141.31 536.128L138.341 536.496L141.31 536.128ZM139.905 532.698L137.164 533.623L136.432 532.426L137.483 531.368L139.905 532.698ZM145.325 525.539L142.529 524.708L142.548 524.673L142.569 524.638L145.325 525.539ZM120.034 494.519L121.84 492.73L122.011 492.825L122.162 492.938L120.034 494.519ZM120.034 518.381L117.904 516.799L118.055 516.687L118.227 516.591L120.034 518.381ZM30.1086 518.381L32.2376 516.799L30.1086 518.381ZM30.1086 494.519L27.7 493.177L27.9581 492.921L28.3021 492.73L30.1086 494.519ZM114.012 539.26L116.14 537.678L114.012 539.26ZM114.012 561.182L111.603 559.84L111.861 559.585L112.205 559.393L114.012 561.182ZM30.1086 561.182L32.2376 559.601L30.1086 561.182ZM30.1086 539.26L27.7 537.917L27.9581 537.662L28.3021 537.47L30.1086 539.26ZM6.02171 474.237V581.614H0V474.237H6.02171ZM3.01085 579.377H113.811V583.851H3.01085V579.377ZM113.811 579.377C120.625 579.377 126.42 577.582 131.352 573.918L135.611 577.081C129.571 581.569 122.253 583.851 113.811 583.851V579.377ZM131.352 573.918C136.285 570.253 138.701 565.947 138.701 560.884H144.723C144.723 567.156 141.651 572.593 135.611 577.081L131.352 573.918ZM138.701 560.884V539.856H144.723V560.884H138.701ZM138.701 539.856C138.701 538.679 138.578 537.559 138.341 536.496L144.28 535.76C144.577 537.083 144.723 538.449 144.723 539.856H138.701ZM138.341 536.496C138.116 535.494 137.723 534.538 137.164 533.623L142.646 531.772C143.425 533.045 143.969 534.376 144.28 535.76L138.341 536.496ZM137.483 531.368C139.615 529.226 141.292 527.006 142.529 524.708L148.12 526.37C146.681 529.044 144.745 531.596 142.326 534.027L137.483 531.368ZM142.569 524.638C143.889 522.41 144.522 520.23 144.522 518.083H150.544C150.544 520.906 149.705 523.697 148.081 526.44L142.569 524.638ZM144.522 518.083V494.967H150.544V518.083H144.522ZM144.522 494.967C144.522 489.904 142.106 485.598 137.173 481.933L141.432 478.77C147.472 483.257 150.544 488.695 150.544 494.967H144.522ZM137.173 481.933C132.253 478.276 126.394 476.474 119.431 476.474V472C127.99 472 135.381 474.274 141.432 478.77L137.173 481.933ZM119.431 476.474H3.01085V472H119.431V476.474ZM36.5318 491.835H113.811V496.309H36.5318V491.835ZM113.811 491.835C115.655 491.835 117.188 491.872 118.366 491.957C118.952 491.999 119.517 492.058 120.02 492.144C120.427 492.214 121.178 492.361 121.84 492.73L118.227 496.309C118.621 496.529 118.911 496.545 118.667 496.504C118.517 496.477 118.237 496.443 117.786 496.41C116.89 496.346 115.579 496.309 113.811 496.309V491.835ZM122.162 492.938C122.835 493.437 123.127 494.048 123.268 494.399C123.436 494.812 123.545 495.271 123.623 495.733C123.78 496.664 123.847 497.864 123.847 499.292H117.826C117.826 497.936 117.759 496.949 117.648 496.288C117.592 495.955 117.534 495.768 117.5 495.684C117.441 495.537 117.499 495.8 117.904 496.101L122.162 492.938ZM123.847 499.292V513.758H117.826V499.292H123.847ZM123.847 513.758C123.847 515.183 123.78 516.376 123.621 517.288C123.543 517.738 123.43 518.198 123.248 518.614C123.109 518.934 122.756 519.66 121.84 520.17L118.227 516.591C117.859 516.796 117.675 517.013 117.607 517.101C117.533 517.197 117.512 517.254 117.52 517.234C117.54 517.19 117.594 517.035 117.649 516.715C117.758 516.086 117.826 515.116 117.826 513.758H123.847ZM122.162 519.963C121.503 520.452 120.703 520.671 120.228 520.78C119.677 520.906 119.07 520.989 118.462 521.047C117.237 521.164 115.668 521.214 113.811 521.214V516.74C115.566 516.74 116.841 516.691 117.691 516.61C118.119 516.569 118.356 516.527 118.458 516.504C118.635 516.463 118.295 516.508 117.904 516.799L122.162 519.963ZM113.811 521.214H36.5318V516.74H113.811V521.214ZM36.5318 521.214C34.61 521.214 32.9948 521.164 31.7424 521.048C31.12 520.99 30.5031 520.909 29.9461 520.785C29.4745 520.679 28.6521 520.462 27.9797 519.963L32.2376 516.799C31.8329 516.498 31.4789 516.455 31.6764 516.499C31.7884 516.524 32.0413 516.567 32.4893 516.609C33.3781 516.691 34.7068 516.74 36.5318 516.74V521.214ZM27.9797 519.963C27.2339 519.409 26.9999 518.698 26.9196 518.453C26.7963 518.076 26.7166 517.65 26.6602 517.217C26.5459 516.34 26.4956 515.175 26.4956 513.758H32.5173C32.5173 515.125 32.5674 516.122 32.6539 516.786C32.6978 517.123 32.7436 517.312 32.7708 517.395C32.7842 517.436 32.7781 517.404 32.7349 517.33C32.7044 517.277 32.5681 517.045 32.2376 516.799L27.9797 519.963ZM26.4956 513.758V499.292H32.5173V513.758H26.4956ZM26.4956 499.292C26.4956 497.873 26.5461 496.699 26.6593 495.802C26.7156 495.356 26.7932 494.929 26.9078 494.55C26.9987 494.25 27.1943 493.678 27.7 493.177L32.5173 495.862C32.8222 495.56 32.8422 495.336 32.7827 495.533C32.7467 495.651 32.6989 495.87 32.6547 496.219C32.5672 496.913 32.5173 497.926 32.5173 499.292H26.4956ZM28.3021 492.73C28.9763 492.354 29.7461 492.208 30.1503 492.141C30.6594 492.056 31.2348 491.998 31.8349 491.956C33.0426 491.872 34.6223 491.835 36.5318 491.835V496.309C34.6945 496.309 33.3303 496.346 32.3969 496.411C31.9265 496.444 31.632 496.479 31.4722 496.506C31.2072 496.551 31.5087 496.536 31.9152 496.309L28.3021 492.73ZM36.5318 536.575H107.99V541.049H36.5318V536.575ZM107.99 536.575C109.832 536.575 111.353 536.613 112.504 536.698C113.074 536.74 113.637 536.8 114.139 536.894C114.478 536.957 115.408 537.134 116.14 537.678L111.882 540.841C112.202 541.079 112.502 541.179 112.579 541.204C112.681 541.238 112.728 541.243 112.679 541.234C112.58 541.216 112.34 541.182 111.905 541.15C111.05 541.086 109.761 541.049 107.99 541.049V536.575ZM116.14 537.678C116.813 538.177 117.105 538.788 117.246 539.139C117.414 539.553 117.523 540.011 117.602 540.474C117.758 541.404 117.826 542.604 117.826 544.032H111.804C111.804 542.676 111.738 541.689 111.626 541.028C111.57 540.696 111.513 540.508 111.479 540.424C111.419 540.278 111.478 540.541 111.882 540.841L116.14 537.678ZM117.826 544.032V556.559H111.804V544.032H117.826ZM117.826 556.559C117.826 557.985 117.758 559.177 117.6 560.089C117.521 560.54 117.408 561 117.226 561.416C117.087 561.735 116.735 562.461 115.818 562.972L112.205 559.393C111.837 559.598 111.653 559.815 111.586 559.902C111.512 559.999 111.491 560.055 111.499 560.036C111.518 559.992 111.572 559.837 111.627 559.517C111.737 558.887 111.804 557.918 111.804 556.559H117.826ZM116.42 562.525C115.747 563.192 114.8 563.457 114.361 563.566C113.806 563.703 113.196 563.788 112.603 563.847C111.403 563.966 109.844 564.016 107.99 564.016V559.542C109.749 559.542 110.999 559.492 111.807 559.412C112.217 559.372 112.41 559.333 112.457 559.321C112.477 559.316 112.399 559.334 112.268 559.39C112.148 559.442 111.868 559.577 111.603 559.84L116.42 562.525ZM107.99 564.016H36.5318V559.542H107.99V564.016ZM36.5318 564.016C34.61 564.016 32.9948 563.966 31.7424 563.85C31.12 563.792 30.5031 563.71 29.9461 563.586C29.4745 563.481 28.6521 563.264 27.9797 562.764L32.2376 559.601C31.8329 559.3 31.4789 559.257 31.6764 559.301C31.7884 559.326 32.0413 559.368 32.4893 559.41C33.3781 559.493 34.7068 559.542 36.5318 559.542V564.016ZM27.9797 562.764C27.2339 562.21 26.9999 561.5 26.9196 561.254C26.7963 560.878 26.7166 560.452 26.6602 560.018C26.5459 559.141 26.4956 557.976 26.4956 556.559H32.5173C32.5173 557.926 32.5674 558.924 32.6539 559.587C32.6978 559.924 32.7436 560.114 32.7708 560.197C32.7842 560.238 32.7781 560.206 32.7349 560.131C32.7044 560.078 32.5681 559.846 32.2376 559.601L27.9797 562.764ZM26.4956 556.559V544.032H32.5173V556.559H26.4956ZM26.4956 544.032C26.4956 542.613 26.5461 541.44 26.6593 540.542C26.7156 540.096 26.7932 539.669 26.9078 539.291C26.9987 538.99 27.1943 538.418 27.7 537.917L32.5173 540.602C32.8222 540.3 32.8422 540.076 32.7827 540.273C32.7467 540.392 32.6989 540.61 32.6547 540.96C32.5672 541.653 32.5173 542.667 32.5173 544.032H26.4956ZM28.3021 537.47C28.9763 537.094 29.7461 536.949 30.1503 536.881C30.6594 536.796 31.2348 536.739 31.8349 536.697C33.0426 536.613 34.6223 536.575 36.5318 536.575V541.049C34.6945 541.049 33.3303 541.086 32.3969 541.151C31.9265 541.184 31.632 541.22 31.4722 541.246C31.2071 541.291 31.5087 541.276 31.9152 541.049L28.3021 537.47ZM191.698 474.237H188.687V472H191.698V474.237ZM191.698 581.763V584H188.687V581.763H191.698ZM218.194 581.763H221.205V584H218.194V581.763ZM218.194 494.072H215.183V491.835H218.194V494.072ZM336.22 494.072H339.231V496.309H336.22V494.072ZM336.22 474.237V472H339.231V474.237H336.22ZM194.709 474.237V581.763H188.687V474.237H194.709ZM191.698 579.526H218.194V584H191.698V579.526ZM215.183 581.763V494.072H221.205V581.763H215.183ZM218.194 491.835H336.22V496.309H218.194V491.835ZM333.209 494.072V474.237H339.231V494.072H333.209ZM336.22 476.474H191.698V472H336.22V476.474ZM377.829 480.352L379.959 481.933L377.829 480.352ZM369.599 581.614V583.851H366.588V581.614H369.599ZM396.095 581.614H399.106V583.851H396.095V581.614ZM396.697 494.519L394.288 493.177L394.546 492.921L394.891 492.73L396.697 494.519ZM486.622 494.519L488.428 492.73L488.6 492.825L488.751 492.938L486.622 494.519ZM487.425 581.614V583.851H484.414V581.614H487.425ZM514.121 581.614H517.132V583.851H514.121V581.614ZM397.5 476.474C390.686 476.474 384.891 478.268 379.959 481.933L375.7 478.77C381.74 474.282 389.059 472 397.5 472V476.474ZM379.959 481.933C375.026 485.598 372.61 489.904 372.61 494.967H366.588C366.588 488.695 369.66 483.257 375.7 478.77L379.959 481.933ZM372.61 494.967V581.614H366.588V494.967H372.61ZM369.599 579.377H396.095V583.851H369.599V579.377ZM393.084 581.614V499.292H399.106V581.614H393.084ZM393.084 499.292C393.084 497.873 393.135 496.699 393.248 495.802C393.305 495.356 393.382 494.929 393.497 494.55C393.588 494.25 393.784 493.678 394.288 493.177L399.106 495.862C399.411 495.56 399.431 495.336 399.372 495.533C399.336 495.651 399.287 495.87 399.243 496.219C399.156 496.913 399.106 497.926 399.106 499.292H393.084ZM394.891 492.73C395.565 492.354 396.335 492.208 396.739 492.141C397.248 492.056 397.823 491.998 398.423 491.956C399.632 491.872 401.211 491.835 403.12 491.835V496.309C401.284 496.309 399.919 496.346 398.985 496.411C398.516 496.444 398.221 496.479 398.061 496.506C397.796 496.551 398.097 496.536 398.504 496.309L394.891 492.73ZM403.12 491.835H480.399V496.309H403.12V491.835ZM480.399 491.835C482.244 491.835 483.776 491.872 484.955 491.957C485.541 491.999 486.106 492.058 486.609 492.144C487.016 492.214 487.767 492.361 488.428 492.73L484.815 496.309C485.21 496.529 485.501 496.545 485.255 496.504C485.106 496.477 484.826 496.443 484.374 496.41C483.479 496.346 482.169 496.309 480.399 496.309V491.835ZM488.751 492.938C489.424 493.437 489.716 494.048 489.857 494.399C490.024 494.812 490.134 495.271 490.212 495.733C490.368 496.664 490.435 497.864 490.435 499.292H484.414C484.414 497.936 484.347 496.949 484.237 496.288C484.181 495.955 484.123 495.768 484.089 495.684C484.03 495.537 484.088 495.8 484.493 496.101L488.751 492.938ZM490.435 499.292V581.614H484.414V499.292H490.435ZM487.425 579.377H514.121V583.851H487.425V579.377ZM511.11 581.614V494.967H517.132V581.614H511.11ZM511.11 494.967C511.11 489.904 508.695 485.598 503.762 481.933L508.021 478.77C514.061 483.257 517.132 488.695 517.132 494.967H511.11ZM503.762 481.933C498.83 478.268 493.034 476.474 486.22 476.474V472C494.662 472 501.98 474.282 508.021 478.77L503.762 481.933ZM486.22 476.474H397.5V472H486.22V476.474ZM558.707 474.237H555.696V472H558.707V474.237ZM558.707 581.614V583.851H555.696V581.614H558.707ZM691.787 581.614H694.798V583.851H691.787V581.614ZM691.787 561.779V559.542H694.798V561.779H691.787ZM585.403 561.779V564.016H582.392V561.779H585.403ZM585.403 537.917H582.392V535.68H585.403V537.917ZM670.912 537.917H673.923V540.154H670.912V537.917ZM670.912 518.083V515.846H673.923V518.083H670.912ZM585.403 518.083V520.32H582.392V518.083H585.403ZM585.403 494.072H582.392V491.835H585.403V494.072ZM691.787 494.072H694.798V496.309H691.787V494.072ZM691.787 474.237V472H694.798V474.237H691.787ZM561.718 474.237V581.614H555.696V474.237H561.718ZM558.707 579.377H691.787V583.851H558.707V579.377ZM688.776 581.614V561.779H694.798V581.614H688.776ZM691.787 564.016H585.403V559.542H691.787V564.016ZM582.392 561.779V537.917H588.414V561.779H582.392ZM585.403 535.68H670.912V540.154H585.403V535.68ZM667.901 537.917V518.083H673.923V537.917H667.901ZM670.912 520.32H585.403V515.846H670.912V520.32ZM582.392 518.083V494.072H588.414V518.083H582.392ZM585.403 491.835H691.787V496.309H585.403V491.835ZM688.776 494.072V474.237H694.798V494.072H688.776ZM691.787 476.474H558.707V472H691.787V476.474ZM729.556 474.237H726.546V472H729.556V474.237ZM729.556 581.614V583.851H726.546V581.614H729.556ZM758.661 581.614L760.968 583.052L760.066 583.851H758.661V581.614ZM811.051 535.233L808.744 533.795L811.056 531.749L813.361 533.798L811.051 535.233ZM863.239 581.614V583.851H861.832L860.93 583.049L863.239 581.614ZM892.545 581.614H895.556V583.851H892.545V581.614ZM892.545 474.237V472H895.556V474.237H892.545ZM865.848 474.237H862.837V472H865.848V474.237ZM865.848 552.98H868.859V559.121L863.543 554.419L865.848 552.98ZM811.051 504.511L808.751 503.067L811.059 501.04L813.356 503.072L811.051 504.511ZM756.052 552.831L758.351 554.275L753.041 558.94V552.831H756.052ZM756.052 474.237V472H759.063V474.237H756.052ZM732.567 474.237V581.614H726.546V474.237H732.567ZM729.556 579.377H758.661V583.851H729.556V579.377ZM756.355 580.176L808.744 533.795L813.357 536.671L760.968 583.052L756.355 580.176ZM813.361 533.798L865.549 580.179L860.93 583.049L808.741 536.668L813.361 533.798ZM863.239 579.377H892.545V583.851H863.239V579.377ZM889.534 581.614V474.237H895.556V581.614H889.534ZM892.545 476.474H865.848V472H892.545V476.474ZM868.859 474.237V552.98H862.837V474.237H868.859ZM863.543 554.419L808.745 505.95L813.356 503.072L868.154 551.541L863.543 554.419ZM813.35 505.956L758.351 554.275L753.753 551.386L808.751 503.067L813.35 505.956ZM753.041 552.831V474.237H759.063V552.831H753.041ZM756.052 476.474H729.556V472H756.052V476.474ZM945.683 480.352L947.812 481.933L945.683 480.352ZM945.683 575.499L947.812 573.918L945.683 575.499ZM1054.48 494.519L1056.29 492.73L1056.46 492.825L1056.61 492.938L1054.48 494.519ZM1054.48 561.182L1052.35 559.601L1052.5 559.488L1052.67 559.393L1054.48 561.182ZM964.552 561.182L966.68 559.601L964.552 561.182ZM964.552 494.519L962.143 493.177L962.401 492.921L962.745 492.73L964.552 494.519ZM965.354 476.474C958.541 476.474 952.745 478.268 947.812 481.933L943.555 478.77C949.595 474.282 956.913 472 965.354 472V476.474ZM947.812 481.933C942.879 485.598 940.465 489.904 940.465 494.967H934.443C934.443 488.695 937.514 483.257 943.555 478.77L947.812 481.933ZM940.465 494.967V560.884H934.443V494.967H940.465ZM940.465 560.884C940.465 565.947 942.879 570.253 947.812 573.918L943.555 577.081C937.514 572.593 934.443 567.156 934.443 560.884H940.465ZM947.812 573.918C952.745 577.582 958.541 579.377 965.354 579.377V583.851C956.913 583.851 949.595 581.569 943.555 577.081L947.812 573.918ZM965.354 579.377H1054.08V583.851H965.354V579.377ZM1054.08 579.377C1060.89 579.377 1066.68 577.582 1071.62 573.918L1075.88 577.081C1069.83 581.569 1062.52 583.851 1054.08 583.851V579.377ZM1071.62 573.918C1076.55 570.253 1078.97 565.947 1078.97 560.884H1084.99C1084.99 567.156 1081.92 572.593 1075.88 577.081L1071.62 573.918ZM1078.97 560.884V494.967H1084.99V560.884H1078.97ZM1078.97 494.967C1078.97 489.904 1076.55 485.598 1071.62 481.933L1075.88 478.77C1081.92 483.257 1084.99 488.695 1084.99 494.967H1078.97ZM1071.62 481.933C1066.68 478.268 1060.89 476.474 1054.08 476.474V472C1062.52 472 1069.83 474.282 1075.88 478.77L1071.62 481.933ZM1054.08 476.474H965.354V472H1054.08V476.474ZM970.975 491.835H1048.26V496.309H970.975V491.835ZM1048.26 491.835C1050.09 491.835 1051.63 491.872 1052.81 491.957C1053.4 491.999 1053.96 492.058 1054.46 492.144C1054.87 492.214 1055.62 492.361 1056.29 492.73L1052.67 496.309C1053.06 496.529 1053.36 496.545 1053.1 496.504C1052.96 496.477 1052.68 496.443 1052.23 496.41C1051.34 496.346 1050.02 496.309 1048.26 496.309V491.835ZM1056.61 492.938C1057.28 493.437 1057.57 494.048 1057.71 494.399C1057.88 494.812 1057.99 495.271 1058.06 495.733C1058.22 496.664 1058.29 497.864 1058.29 499.292H1052.27C1052.27 497.936 1052.2 496.949 1052.09 496.288C1052.03 495.955 1051.98 495.768 1051.94 495.684C1051.88 495.537 1051.94 495.8 1052.35 496.101L1056.61 492.938ZM1058.29 499.292V556.559H1052.27V499.292H1058.29ZM1058.29 556.559C1058.29 557.985 1058.22 559.177 1058.06 560.089C1057.98 560.54 1057.87 561 1057.69 561.416C1057.55 561.735 1057.2 562.461 1056.29 562.972L1052.67 559.393C1052.3 559.598 1052.12 559.815 1052.05 559.902C1051.98 559.999 1051.95 560.055 1051.96 560.036C1051.98 559.992 1052.04 559.837 1052.09 559.517C1052.2 558.887 1052.27 557.918 1052.27 556.559H1058.29ZM1056.61 562.764C1055.94 563.254 1055.14 563.473 1054.67 563.581C1054.12 563.707 1053.52 563.79 1052.9 563.848C1051.68 563.966 1050.11 564.016 1048.26 564.016V559.542C1050.01 559.542 1051.29 559.493 1052.13 559.411C1052.56 559.37 1052.8 559.328 1052.9 559.305C1053.07 559.265 1052.74 559.31 1052.35 559.601L1056.61 562.764ZM1048.26 564.016H970.975V559.542H1048.26V564.016ZM970.975 564.016C969.053 564.016 967.438 563.966 966.185 563.85C965.563 563.792 964.946 563.71 964.389 563.586C963.917 563.481 963.095 563.264 962.423 562.764L966.68 559.601C966.276 559.3 965.921 559.257 966.119 559.301C966.232 559.326 966.485 559.368 966.932 559.41C967.821 559.493 969.15 559.542 970.975 559.542V564.016ZM962.423 562.764C961.677 562.21 961.443 561.5 961.363 561.254C961.24 560.878 961.159 560.452 961.103 560.018C960.989 559.141 960.939 557.976 960.939 556.559H966.96C966.96 557.926 967.01 558.924 967.097 559.587C967.141 559.924 967.186 560.114 967.214 560.197C967.227 560.238 967.221 560.206 967.178 560.131C967.147 560.078 967.011 559.846 966.68 559.601L962.423 562.764ZM960.939 556.559V499.292H966.96V556.559H960.939ZM960.939 499.292C960.939 497.873 960.989 496.699 961.102 495.802C961.158 495.356 961.237 494.929 961.351 494.55C961.441 494.25 961.637 493.678 962.143 493.177L966.96 495.862C967.265 495.56 967.285 495.336 967.225 495.533C967.189 495.651 967.142 495.87 967.098 496.219C967.01 496.913 966.96 497.926 966.96 499.292H960.939ZM962.745 492.73C963.419 492.354 964.189 492.208 964.594 492.141C965.103 492.056 965.678 491.998 966.278 491.956C967.485 491.872 969.065 491.835 970.975 491.835V496.309C969.137 496.309 967.773 496.346 966.84 496.411C966.369 496.444 966.075 496.479 965.916 496.506C965.651 496.551 965.952 496.536 966.358 496.309L962.745 492.73ZM1133.99 480.352L1136.11 481.933L1133.99 480.352ZM1133.99 575.499L1136.11 573.918L1133.99 575.499ZM1242.78 494.519L1244.59 492.73L1244.76 492.825L1244.91 492.938L1242.78 494.519ZM1242.78 561.182L1240.65 559.601L1240.8 559.488L1240.97 559.393L1242.78 561.182ZM1152.85 561.182L1154.98 559.601L1152.85 561.182ZM1152.85 494.519L1150.45 493.177L1150.71 492.921L1151.05 492.73L1152.85 494.519ZM1153.66 476.474C1146.84 476.474 1141.05 478.268 1136.11 481.933L1131.86 478.77C1137.9 474.282 1145.22 472 1153.66 472V476.474ZM1136.11 481.933C1131.19 485.598 1128.77 489.904 1128.77 494.967H1122.75C1122.75 488.695 1125.82 483.257 1131.86 478.77L1136.11 481.933ZM1128.77 494.967V560.884H1122.75V494.967H1128.77ZM1128.77 560.884C1128.77 565.947 1131.19 570.253 1136.11 573.918L1131.86 577.081C1125.82 572.593 1122.75 567.156 1122.75 560.884H1128.77ZM1136.11 573.918C1141.05 577.582 1146.84 579.377 1153.66 579.377V583.851C1145.22 583.851 1137.9 581.569 1131.86 577.081L1136.11 573.918ZM1153.66 579.377H1242.38V583.851H1153.66V579.377ZM1242.38 579.377C1249.19 579.377 1254.99 577.582 1259.92 573.918L1264.18 577.081C1258.13 581.569 1250.82 583.851 1242.38 583.851V579.377ZM1259.92 573.918C1264.86 570.253 1267.27 565.947 1267.27 560.884H1273.29C1273.29 567.156 1270.22 572.593 1264.18 577.081L1259.92 573.918ZM1267.27 560.884V494.967H1273.29V560.884H1267.27ZM1267.27 494.967C1267.27 489.904 1264.86 485.598 1259.92 481.933L1264.18 478.77C1270.22 483.257 1273.29 488.695 1273.29 494.967H1267.27ZM1259.92 481.933C1254.99 478.268 1249.19 476.474 1242.38 476.474V472C1250.82 472 1258.13 474.282 1264.18 478.77L1259.92 481.933ZM1242.38 476.474H1153.66V472H1242.38V476.474ZM1159.28 491.835H1236.56V496.309H1159.28V491.835ZM1236.56 491.835C1238.4 491.835 1239.94 491.872 1241.11 491.957C1241.69 491.999 1242.27 492.058 1242.77 492.144C1243.17 492.214 1243.92 492.361 1244.59 492.73L1240.97 496.309C1241.37 496.529 1241.65 496.545 1241.41 496.504C1241.26 496.477 1240.98 496.443 1240.53 496.41C1239.64 496.346 1238.32 496.309 1236.56 496.309V491.835ZM1244.91 492.938C1245.58 493.437 1245.87 494.048 1246.02 494.399C1246.18 494.812 1246.29 495.271 1246.37 495.733C1246.52 496.664 1246.59 497.864 1246.59 499.292H1240.57C1240.57 497.936 1240.51 496.949 1240.4 496.288C1240.34 495.955 1240.28 495.768 1240.25 495.684C1240.19 495.537 1240.25 495.8 1240.65 496.101L1244.91 492.938ZM1246.59 499.292V556.559H1240.57V499.292H1246.59ZM1246.59 556.559C1246.59 557.985 1246.53 559.177 1246.37 560.089C1246.29 560.54 1246.18 561 1246 561.416C1245.86 561.735 1245.51 562.461 1244.59 562.972L1240.97 559.393C1240.61 559.598 1240.42 559.815 1240.35 559.902C1240.28 559.999 1240.26 560.055 1240.27 560.036C1240.29 559.992 1240.34 559.837 1240.4 559.517C1240.51 558.887 1240.57 557.918 1240.57 556.559H1246.59ZM1244.91 562.764C1244.25 563.254 1243.45 563.473 1242.98 563.581C1242.43 563.707 1241.82 563.79 1241.21 563.848C1239.99 563.966 1238.41 564.016 1236.56 564.016V559.542C1238.31 559.542 1239.59 559.493 1240.44 559.411C1240.86 559.37 1241.1 559.328 1241.2 559.305C1241.38 559.265 1241.04 559.31 1240.65 559.601L1244.91 562.764ZM1236.56 564.016H1159.28V559.542H1236.56V564.016ZM1159.28 564.016C1157.36 564.016 1155.74 563.966 1154.49 563.85C1153.87 563.792 1153.26 563.71 1152.69 563.586C1152.22 563.481 1151.4 563.264 1150.73 562.764L1154.98 559.601C1154.58 559.3 1154.23 559.257 1154.42 559.301C1154.54 559.326 1154.79 559.368 1155.23 559.41C1156.13 559.493 1157.45 559.542 1159.28 559.542V564.016ZM1150.73 562.764C1149.98 562.21 1149.74 561.5 1149.66 561.254C1149.54 560.878 1149.46 560.452 1149.41 560.018C1149.29 559.141 1149.24 557.976 1149.24 556.559H1155.26C1155.26 557.926 1155.31 558.924 1155.4 559.587C1155.44 559.924 1155.49 560.114 1155.51 560.197C1155.53 560.238 1155.52 560.206 1155.48 560.131C1155.45 560.078 1155.31 559.846 1154.98 559.601L1150.73 562.764ZM1149.24 556.559V499.292H1155.26V556.559H1149.24ZM1149.24 499.292C1149.24 497.873 1149.29 496.699 1149.41 495.802C1149.46 495.356 1149.54 494.929 1149.65 494.55C1149.74 494.25 1149.94 493.678 1150.45 493.177L1155.26 495.862C1155.57 495.56 1155.59 495.336 1155.53 495.533C1155.49 495.651 1155.44 495.87 1155.4 496.219C1155.31 496.913 1155.26 497.926 1155.26 499.292H1149.24ZM1151.05 492.73C1151.72 492.354 1152.49 492.208 1152.89 492.141C1153.41 492.056 1153.98 491.998 1154.58 491.956C1155.79 491.872 1157.37 491.835 1159.28 491.835V496.309C1157.44 496.309 1156.08 496.346 1155.14 496.411C1154.67 496.444 1154.38 496.479 1154.22 496.506C1153.96 496.551 1154.26 496.536 1154.66 496.309L1151.05 492.73ZM1314.47 474.237H1311.46V472H1314.47V474.237ZM1314.47 581.614V583.851H1311.46V581.614H1314.47ZM1343.57 581.614L1345.87 583.053L1344.97 583.851H1343.57V581.614ZM1432.29 503.169L1429.98 501.73L1435.3 497.03V503.169H1432.29ZM1432.29 581.614V583.851H1429.28V581.614H1432.29ZM1458.99 581.614H1462V583.851H1458.99V581.614ZM1458.99 474.237V472H1462V474.237H1458.99ZM1429.88 474.237L1427.58 472.798L1428.48 472H1429.88V474.237ZM1340.96 552.831L1343.26 554.27L1337.95 558.969V552.831H1340.96ZM1340.96 474.237V472H1343.97V474.237H1340.96ZM1317.48 474.237V581.614H1311.46V474.237H1317.48ZM1314.47 579.377H1343.57V583.851H1314.47V579.377ZM1341.26 580.175L1429.98 501.73L1434.59 504.608L1345.87 583.053L1341.26 580.175ZM1435.3 503.169V581.614H1429.28V503.169H1435.3ZM1432.29 579.377H1458.99V583.851H1432.29V579.377ZM1455.98 581.614V474.237H1462V581.614H1455.98ZM1458.99 476.474H1429.88V472H1458.99V476.474ZM1432.18 475.676L1343.26 554.27L1338.65 551.391L1427.58 472.798L1432.18 475.676ZM1337.95 552.831V474.237H1343.97V552.831H1337.95ZM1340.96 476.474H1314.47V472H1340.96V476.474Z" fill="url(#paint1_linear)" fill-opacity="0.51"/>
</g>
<defs>
<linearGradient id="paint0_linear" x1="731" y1="340" x2="731" y2="452" gradientUnits="userSpaceOnUse">
<stop offset="0.619792" stop-color="#2B5797"/>
<stop offset="1" stop-color="#2B5797" stop-opacity="0"/>
</linearGradient>
<linearGradient id="paint1_linear" x1="731" y1="584" x2="731" y2="472" gradientUnits="userSpaceOnUse">
<stop stop-color="#2B5797" stop-opacity="0"/>
<stop offset="0.833333" stop-color="#2B5797"/>
</linearGradient>
</defs>
</svg>
