<svg width="494" height="102" viewBox="0 0 494 102" fill="none" xmlns="http://www.w3.org/2000/svg">
<path d="M108.724 66V38.64H130.004C131.372 38.64 132.537 39.1213 133.5 40.084C134.462 41.0467 134.944 42.212 134.944 43.58V49.166C134.944 49.4953 134.906 49.8247 134.83 50.154C134.779 50.4833 134.678 50.7873 134.526 51.066C135.032 51.7753 135.412 52.434 135.666 53.042C135.944 53.65 136.084 54.2833 136.084 54.942V61.06C136.084 62.428 135.59 63.5933 134.602 64.556C133.639 65.5187 132.474 66 131.106 66H108.724ZM114.234 61.896H130.536C131.093 61.896 131.46 61.8073 131.638 61.63C131.84 61.4273 131.942 61.0473 131.942 60.49V55.512C131.942 54.9547 131.84 54.5873 131.638 54.41C131.46 54.2073 131.093 54.106 130.536 54.106H114.234C113.676 54.106 113.296 54.2073 113.094 54.41C112.916 54.5873 112.828 54.9547 112.828 55.512V60.49C112.828 61.0473 112.916 61.4273 113.094 61.63C113.296 61.8073 113.676 61.896 114.234 61.896ZM114.234 50.002H129.434C129.991 50.002 130.358 49.9133 130.536 49.736C130.713 49.5333 130.802 49.1533 130.802 48.596V44.15C130.802 43.5927 130.713 43.2253 130.536 43.048C130.358 42.8453 129.991 42.744 129.434 42.744H114.234C113.676 42.744 113.296 42.8453 113.094 43.048C112.916 43.2253 112.828 43.5927 112.828 44.15V48.596C112.828 49.1533 112.916 49.5333 113.094 49.736C113.296 49.9133 113.676 50.002 114.234 50.002ZM155.465 66V38.602H159.569V61.896H182.825V66H155.465ZM205.104 66C203.736 66 202.571 65.5187 201.608 64.556C200.645 63.5933 200.164 62.428 200.164 61.06V38.64H204.268V60.49C204.268 61.0473 204.357 61.4273 204.534 61.63C204.737 61.8073 205.117 61.896 205.674 61.896H221.976C222.559 61.896 222.939 61.8073 223.116 61.63C223.293 61.4273 223.382 61.0473 223.382 60.49V38.64H227.524V61.06C227.524 62.428 227.03 63.5933 226.042 64.556C225.079 65.5187 223.927 66 222.584 66H205.104ZM246.985 66V38.64H272.065V42.744H251.127V50.23H267.961V54.372H251.127V61.896H272.065V66H246.985ZM290.238 66V38.64H295.14L305.742 51.256L316.306 38.64H321.246V66H317.104V44.15L305.742 57.678L294.342 44.15V66H290.238ZM345.556 66C344.188 66 343.022 65.5187 342.06 64.556C341.097 63.5933 340.616 62.428 340.616 61.06V43.58C340.616 42.212 341.097 41.0467 342.06 40.084C343.022 39.1213 344.188 38.64 345.556 38.64H363.036C364.378 38.64 365.531 39.1213 366.494 40.084C367.482 41.0467 367.976 42.212 367.976 43.58V61.06C367.976 62.428 367.482 63.5933 366.494 64.556C365.531 65.5187 364.378 66 363.036 66H345.556ZM346.126 61.896H362.428C362.985 61.896 363.352 61.8073 363.53 61.63C363.732 61.4273 363.834 61.0473 363.834 60.49V44.15C363.834 43.5927 363.732 43.2253 363.53 43.048C363.352 42.8453 362.985 42.744 362.428 42.744H346.126C345.568 42.744 345.188 42.8453 344.986 43.048C344.808 43.2253 344.72 43.5927 344.72 44.15V60.49C344.72 61.0473 344.808 61.4273 344.986 61.63C345.188 61.8073 345.568 61.896 346.126 61.896ZM392.224 66C390.856 66 389.691 65.5187 388.728 64.556C387.766 63.5933 387.284 62.428 387.284 61.06V43.58C387.284 42.212 387.766 41.0467 388.728 40.084C389.691 39.1213 390.856 38.64 392.224 38.64H409.704C411.047 38.64 412.2 39.1213 413.162 40.084C414.15 41.0467 414.644 42.212 414.644 43.58V61.06C414.644 62.428 414.15 63.5933 413.162 64.556C412.2 65.5187 411.047 66 409.704 66H392.224ZM392.794 61.896H409.096C409.654 61.896 410.021 61.8073 410.198 61.63C410.401 61.4273 410.502 61.0473 410.502 60.49V44.15C410.502 43.5927 410.401 43.2253 410.198 43.048C410.021 42.8453 409.654 42.744 409.096 42.744H392.794C392.237 42.744 391.857 42.8453 391.654 43.048C391.477 43.2253 391.388 43.5927 391.388 44.15V60.49C391.388 61.0473 391.477 61.4273 391.654 61.63C391.857 61.8073 392.237 61.896 392.794 61.896ZM434.029 66V38.64H438.931L457.247 60.452V38.64H461.389V66H456.487L438.133 44.15V66H434.029Z" fill="white"/>
<path d="M78 51C78 72.5391 60.5391 90 39 90C17.4609 90 0 72.5391 0 51C0 29.4609 17.4609 12 39 12C60.5391 12 78 29.4609 78 51ZM2.34 51C2.34 71.2468 18.7532 87.66 39 87.66C59.2468 87.66 75.66 71.2468 75.66 51C75.66 30.7532 59.2468 14.34 39 14.34C18.7532 14.34 2.34 30.7532 2.34 51Z" fill="#F1F1F1"/>
<path d="M63 51C63 64.2548 52.2548 75 39 75C25.7452 75 15 64.2548 15 51C15 37.7452 25.7452 27 39 27C52.2548 27 63 37.7452 63 51Z" fill="#F1F1F1"/>
<circle cx="12" cy="24" r="9" fill="#00D0DD" stroke="black" stroke-width="4"/>
</svg>
