<svg width="555" height="102" viewBox="0 0 555 102" fill="none" xmlns="http://www.w3.org/2000/svg">
<path d="M173.224 66V38.64H194.504C195.872 38.64 197.037 39.1213 198 40.084C198.962 41.0467 199.444 42.212 199.444 43.58V49.166C199.444 49.4953 199.406 49.8247 199.33 50.154C199.279 50.4833 199.178 50.7873 199.026 51.066C199.532 51.7753 199.912 52.434 200.166 53.042C200.444 53.65 200.584 54.2833 200.584 54.942V61.06C200.584 62.428 200.09 63.5933 199.102 64.556C198.139 65.5187 196.974 66 195.606 66H173.224ZM178.734 61.896H195.036C195.593 61.896 195.96 61.8073 196.138 61.63C196.34 61.4273 196.442 61.0473 196.442 60.49V55.512C196.442 54.9547 196.34 54.5873 196.138 54.41C195.96 54.2073 195.593 54.106 195.036 54.106H178.734C178.176 54.106 177.796 54.2073 177.594 54.41C177.416 54.5873 177.328 54.9547 177.328 55.512V60.49C177.328 61.0473 177.416 61.4273 177.594 61.63C177.796 61.8073 178.176 61.896 178.734 61.896ZM178.734 50.002H193.934C194.491 50.002 194.858 49.9133 195.036 49.736C195.213 49.5333 195.302 49.1533 195.302 48.596V44.15C195.302 43.5927 195.213 43.2253 195.036 43.048C194.858 42.8453 194.491 42.744 193.934 42.744H178.734C178.176 42.744 177.796 42.8453 177.594 43.048C177.416 43.2253 177.328 43.5927 177.328 44.15V48.596C177.328 49.1533 177.416 49.5333 177.594 49.736C177.796 49.9133 178.176 50.002 178.734 50.002ZM219.965 66V38.602H224.069V61.896H247.325V66H219.965ZM269.604 66C268.236 66 267.071 65.5187 266.108 64.556C265.145 63.5933 264.664 62.428 264.664 61.06V38.64H268.768V60.49C268.768 61.0473 268.857 61.4273 269.034 61.63C269.237 61.8073 269.617 61.896 270.174 61.896H286.476C287.059 61.896 287.439 61.8073 287.616 61.63C287.793 61.4273 287.882 61.0473 287.882 60.49V38.64H292.024V61.06C292.024 62.428 291.53 63.5933 290.542 64.556C289.579 65.5187 288.427 66 287.084 66H269.604ZM311.485 66V38.64H336.565V42.744H315.627V50.23H332.461V54.372H315.627V61.896H336.565V66H311.485ZM354.738 66V38.64H359.64L370.242 51.256L380.806 38.64H385.746V66H381.604V44.15L370.242 57.678L358.842 44.15V66H354.738ZM410.056 66C408.688 66 407.522 65.5187 406.56 64.556C405.597 63.5933 405.116 62.428 405.116 61.06V43.58C405.116 42.212 405.597 41.0467 406.56 40.084C407.522 39.1213 408.688 38.64 410.056 38.64H427.536C428.878 38.64 430.031 39.1213 430.994 40.084C431.982 41.0467 432.476 42.212 432.476 43.58V61.06C432.476 62.428 431.982 63.5933 430.994 64.556C430.031 65.5187 428.878 66 427.536 66H410.056ZM410.626 61.896H426.928C427.485 61.896 427.852 61.8073 428.03 61.63C428.232 61.4273 428.334 61.0473 428.334 60.49V44.15C428.334 43.5927 428.232 43.2253 428.03 43.048C427.852 42.8453 427.485 42.744 426.928 42.744H410.626C410.068 42.744 409.688 42.8453 409.486 43.048C409.308 43.2253 409.22 43.5927 409.22 44.15V60.49C409.22 61.0473 409.308 61.4273 409.486 61.63C409.688 61.8073 410.068 61.896 410.626 61.896ZM456.724 66C455.356 66 454.191 65.5187 453.228 64.556C452.266 63.5933 451.784 62.428 451.784 61.06V43.58C451.784 42.212 452.266 41.0467 453.228 40.084C454.191 39.1213 455.356 38.64 456.724 38.64H474.204C475.547 38.64 476.7 39.1213 477.662 40.084C478.65 41.0467 479.144 42.212 479.144 43.58V61.06C479.144 62.428 478.65 63.5933 477.662 64.556C476.7 65.5187 475.547 66 474.204 66H456.724ZM457.294 61.896H473.596C474.154 61.896 474.521 61.8073 474.698 61.63C474.901 61.4273 475.002 61.0473 475.002 60.49V44.15C475.002 43.5927 474.901 43.2253 474.698 43.048C474.521 42.8453 474.154 42.744 473.596 42.744H457.294C456.737 42.744 456.357 42.8453 456.154 43.048C455.977 43.2253 455.888 43.5927 455.888 44.15V60.49C455.888 61.0473 455.977 61.4273 456.154 61.63C456.357 61.8073 456.737 61.896 457.294 61.896ZM498.529 66V38.64H503.431L521.747 60.452V38.64H525.889V66H520.987L502.633 44.15V66H498.529Z" fill="white"/>
<g opacity="0.36">
<path d="M90.7087 0.0674254C77.4917 0.968379 66.7919 5.26585 58.2656 13.1113C54.39 16.6832 50.6742 21.5229 48.5167 25.8124C45.4802 31.8719 43.1308 39.3586 42.3237 45.5616C41.7244 50.178 42.0281 56.1977 43.1308 61.5795C45.8717 74.9184 53.4231 86.1763 64.5784 93.5514C71.6903 98.2555 79.7292 101.038 88.5911 101.859C90.3811 102.027 95.2955 102.051 97.0215 101.899C101.073 101.548 104.733 100.855 108.425 99.7305C119.092 96.5014 128.666 89.7801 134.866 81.1931C139.381 74.9503 142.33 67.3759 143.481 59.068C143.896 56.0781 144 54.4755 144 51.0949C144 47.4991 143.856 45.4659 143.361 42.2448C142.018 33.4904 138.622 25.3818 133.756 19.2825C126.188 9.79454 114.402 2.86596 102.264 0.745134C99.4667 0.258778 97.3012 0.0674254 94.2247 0.0275602C92.8662 0.0116141 91.284 0.0275602 90.7087 0.0674254Z" fill="#A5A6F6"/>
</g>
<path d="M90.6872 0.0460021C77.4702 0.946956 66.7704 5.24443 58.2441 13.0899C54.3685 16.6618 50.6527 21.5015 48.4952 25.791C45.4587 31.8505 43.1093 39.3372 42.3022 45.5402C41.7029 50.1566 42.0066 56.1762 43.1093 61.558C45.8502 74.8969 53.4016 86.1549 64.5569 93.5299C71.6688 98.234 79.7077 101.017 88.5696 101.838C90.3596 102.005 95.274 102.029 97 101.878C101.051 101.527 104.711 100.833 108.403 99.7091C119.071 96.48 128.644 89.7587 134.845 81.1717C139.36 74.9288 142.308 67.3544 143.459 59.0465C143.875 56.0566 143.979 54.4541 143.979 51.0735C143.979 47.4776 143.835 45.4445 143.339 42.2234C141.997 33.469 138.601 25.3604 133.734 19.261C126.167 9.77312 114.38 2.84454 102.242 0.723711C99.4452 0.237355 97.2797 0.0460021 94.2032 0.00613684C92.8447 -0.00980925 91.2625 0.00613684 90.6872 0.0460021Z" fill="url(#paint0_radial)" fill-opacity="0.4"/>
<ellipse cx="78.6762" cy="22.9407" rx="6.46849" ry="6.4685" fill="black" fill-opacity="0.09"/>
<ellipse cx="103.991" cy="12.9584" rx="4.39218" ry="4.39219" fill="black" fill-opacity="0.09"/>
<ellipse cx="73.8847" cy="50.8111" rx="8.14551" ry="8.14551" fill="black" fill-opacity="0.07"/>
<ellipse cx="96.4845" cy="41.0684" rx="11.6593" ry="11.6593" fill="black" fill-opacity="0.1"/>
<ellipse cx="110.1" cy="60.1544" rx="7.38686" ry="7.42678" fill="black" fill-opacity="0.1"/>
<ellipse cx="82.0702" cy="77.0045" rx="7.38686" ry="7.42679" fill="black" fill-opacity="0.1"/>
<circle cx="61.9062" cy="29.0099" r="3.43389" fill="black" fill-opacity="0.07"/>
<ellipse cx="113.774" cy="33.1226" rx="3.7134" ry="3.71339" fill="black" fill-opacity="0.1"/>
<ellipse cx="88.299" cy="61.1527" rx="2.99467" ry="2.99467" fill="black" fill-opacity="0.07"/>
<ellipse cx="99.7187" cy="77.0444" rx="2.99467" ry="2.99468" fill="black" fill-opacity="0.07"/>
<ellipse cx="56.7952" cy="63.2689" rx="4.31233" ry="4.31232" fill="black" fill-opacity="0.08"/>
<g opacity="0.36">
<path d="M48.7087 0.0674254C35.4917 0.968379 24.7919 5.26585 16.2656 13.1113C12.39 16.6832 8.67424 21.5229 6.5167 25.8124C3.48015 31.8719 1.13082 39.3586 0.323742 45.5616C-0.275576 50.178 0.0280788 56.1977 1.13082 61.5795C3.87171 74.9184 11.4231 86.1763 22.5784 93.5514C29.6903 98.2555 37.7292 101.038 46.5911 101.859C48.3811 102.027 53.2955 102.051 55.0215 101.899C59.0729 101.548 62.7327 100.855 66.4245 99.7305C77.0924 96.5014 86.6655 89.7801 92.8664 81.1931C97.3813 74.9503 100.33 67.3759 101.481 59.068C101.896 56.0781 102 54.4755 102 51.0949C102 47.4991 101.856 45.4659 101.361 42.2448C100.018 33.4904 96.6222 25.3818 91.7557 19.2825C84.1883 9.79454 72.4017 2.86596 60.2635 0.745134C57.4667 0.258778 55.3012 0.0674254 52.2247 0.0275602C50.8662 0.0116141 49.284 0.0275602 48.7087 0.0674254Z" fill="#A5A6F6"/>
</g>
<path d="M48.6872 0.0460021C35.4702 0.946956 24.7704 5.24443 16.2441 13.0899C12.3685 16.6618 8.65274 21.5015 6.4952 25.791C3.45865 31.8505 1.10932 39.3372 0.302243 45.5402C-0.297075 50.1566 0.00657918 56.1762 1.10932 61.558C3.85021 74.8969 11.4016 86.1549 22.5569 93.5299C29.6688 98.234 37.7077 101.017 46.5696 101.838C48.3596 102.005 53.274 102.029 55 101.878C59.0514 101.527 62.7112 100.833 66.403 99.7091C77.0709 96.48 86.644 89.7587 92.8449 81.1717C97.3598 74.9288 100.308 67.3544 101.459 59.0465C101.875 56.0566 101.979 54.4541 101.979 51.0735C101.979 47.4776 101.835 45.4445 101.339 42.2234C99.9968 33.469 96.6007 25.3604 91.7342 19.261C84.1668 9.77312 72.3802 2.84454 60.242 0.723711C57.4452 0.237355 55.2797 0.0460021 52.2032 0.00613684C50.8447 -0.00980925 49.2625 0.00613684 48.6872 0.0460021Z" fill="url(#paint1_radial)" fill-opacity="0.4"/>
<ellipse cx="36.6762" cy="22.9407" rx="6.46849" ry="6.4685" fill="black" fill-opacity="0.09"/>
<ellipse cx="61.9913" cy="12.9584" rx="4.39218" ry="4.39219" fill="black" fill-opacity="0.09"/>
<ellipse cx="31.8847" cy="50.8111" rx="8.14551" ry="8.14551" fill="black" fill-opacity="0.07"/>
<ellipse cx="54.4845" cy="41.0684" rx="11.6593" ry="11.6593" fill="black" fill-opacity="0.1"/>
<ellipse cx="68.1003" cy="60.1544" rx="7.38686" ry="7.42678" fill="black" fill-opacity="0.1"/>
<ellipse cx="40.0702" cy="77.0045" rx="7.38686" ry="7.42679" fill="black" fill-opacity="0.1"/>
<circle cx="19.9062" cy="29.0099" r="3.43389" fill="black" fill-opacity="0.07"/>
<ellipse cx="71.7738" cy="33.1226" rx="3.7134" ry="3.71339" fill="black" fill-opacity="0.1"/>
<ellipse cx="46.299" cy="61.1527" rx="2.99467" ry="2.99467" fill="black" fill-opacity="0.07"/>
<ellipse cx="57.7187" cy="77.0444" rx="2.99467" ry="2.99468" fill="black" fill-opacity="0.07"/>
<ellipse cx="14.7952" cy="63.2689" rx="4.31233" ry="4.31232" fill="black" fill-opacity="0.08"/>
<defs>
<radialGradient id="paint0_radial" cx="0" cy="0" r="1" gradientUnits="userSpaceOnUse" gradientTransform="translate(92.9893 50.9893) rotate(-90) scale(50.9893)">
<stop offset="0.479167" stop-color="white"/>
<stop offset="1" stop-color="white" stop-opacity="0.04"/>
</radialGradient>
<radialGradient id="paint1_radial" cx="0" cy="0" r="1" gradientUnits="userSpaceOnUse" gradientTransform="translate(50.9893 50.9893) rotate(-90) scale(50.9893)">
<stop offset="0.479167" stop-color="#BEA5F6"/>
<stop offset="1" stop-color="#BEA5F6" stop-opacity="0.04"/>
</radialGradient>
</defs>
</svg>
