<svg width="1458" height="764" viewBox="0 0 1458 764" fill="none" xmlns="http://www.w3.org/2000/svg">
<g opacity="0.86">
<path opacity="0.74" d="M2.99998 555.6H0V558.6H2.99998V555.6ZM2.99998 411.6V408.6H0V411.6H2.99998ZM140.8 472.6L137.841 472.107L140.8 472.6ZM139.4 477.2L136.669 475.959L135.939 477.565L136.987 478.983L139.4 477.2ZM144.8 486.8L142.014 487.914L142.033 487.962L142.054 488.008L144.8 486.8ZM119.6 528.4L121.4 530.8L121.57 530.672L121.721 530.521L119.6 528.4ZM119.6 496.4L117.478 498.521L117.629 498.672L117.8 498.8L119.6 496.4ZM30 496.4L32.1213 498.521L30 496.4ZM30 528.4L27.6 530.2L27.8572 530.543L28.2 530.8L30 528.4ZM113.6 468.4L115.721 470.521L113.6 468.4ZM113.6 439L111.2 440.8L111.457 441.143L111.8 441.4L113.6 439ZM30 439L32.1213 441.121L30 439ZM30 468.4L27.6 470.2L27.8572 470.543L28.2 470.8L30 468.4ZM5.99998 555.6V411.6H0V555.6H5.99998ZM2.99998 414.6H113.4V408.6H2.99998V414.6ZM113.4 414.6C120.189 414.6 125.963 417.006 130.878 421.921L135.121 417.679C129.103 411.66 121.811 408.6 113.4 408.6V414.6ZM130.878 421.921C135.793 426.836 138.2 432.611 138.2 439.4H144.2C144.2 430.989 141.139 423.697 135.121 417.679L130.878 421.921ZM138.2 439.4V467.6H144.2V439.4H138.2ZM138.2 467.6C138.2 469.179 138.078 470.681 137.841 472.107L143.759 473.093C144.055 471.32 144.2 469.487 144.2 467.6H138.2ZM137.841 472.107C137.617 473.45 137.226 474.732 136.669 475.959L142.131 478.441C142.907 476.735 143.449 474.95 143.759 473.093L137.841 472.107ZM136.987 478.983C139.111 481.857 140.782 484.833 142.014 487.914L147.585 485.686C146.151 482.1 144.222 478.677 141.812 475.417L136.987 478.983ZM142.054 488.008C143.369 490.996 144 493.92 144 496.8H150C150 493.014 149.164 489.27 147.546 485.592L142.054 488.008ZM144 496.8V527.8H150V496.8H144ZM144 527.8C144 534.589 141.593 540.364 136.678 545.279L140.921 549.521C146.939 543.503 150 536.211 150 527.8H144ZM136.678 545.279C131.775 550.183 125.938 552.6 119 552.6V558.6C127.528 558.6 134.892 555.551 140.921 549.521L136.678 545.279ZM119 552.6H2.99998V558.6H119V552.6ZM36.4 532H113.4V526H36.4V532ZM113.4 532C115.237 532 116.765 531.95 117.939 531.836C118.522 531.78 119.085 531.701 119.587 531.586C119.992 531.492 120.74 531.295 121.4 530.8L117.8 526C118.193 525.705 118.482 525.683 118.238 525.739C118.089 525.774 117.81 525.82 117.361 525.864C116.468 525.95 115.162 526 113.4 526V532ZM121.721 530.521C122.391 529.851 122.682 529.032 122.823 528.562C122.99 528.007 123.099 527.392 123.177 526.772C123.333 525.524 123.4 523.915 123.4 522H117.4C117.4 523.818 117.334 525.142 117.223 526.028C117.167 526.474 117.11 526.726 117.076 526.838C117.017 527.035 117.075 526.682 117.478 526.279L121.721 530.521ZM123.4 522V502.6H117.4V522H123.4ZM123.4 502.6C123.4 500.688 123.333 499.089 123.175 497.866C123.097 497.262 122.984 496.645 122.803 496.087C122.664 495.659 122.313 494.685 121.4 494L117.8 498.8C117.433 498.525 117.25 498.234 117.182 498.117C117.109 497.987 117.088 497.912 117.096 497.938C117.115 497.997 117.169 498.205 117.224 498.634C117.333 499.478 117.4 500.778 117.4 502.6H123.4ZM121.721 494.279C121.064 493.622 120.267 493.328 119.794 493.183C119.245 493.014 118.64 492.903 118.034 492.825C116.814 492.667 115.25 492.6 113.4 492.6V498.6C115.149 498.6 116.419 498.666 117.266 498.775C117.692 498.83 117.929 498.886 118.03 498.917C118.207 498.972 117.868 498.911 117.478 498.521L121.721 494.279ZM113.4 492.6H36.4V498.6H113.4V492.6ZM36.4 492.6C34.4851 492.6 32.8757 492.667 31.6279 492.823C31.0077 492.901 30.393 493.01 29.838 493.177C29.3681 493.318 28.5487 493.609 27.8787 494.279L32.1213 498.521C31.718 498.925 31.3653 498.983 31.5621 498.924C31.6737 498.89 31.9257 498.833 32.3721 498.777C33.2577 498.666 34.5816 498.6 36.4 498.6V492.6ZM27.8787 494.279C27.1356 495.022 26.9025 495.975 26.8225 496.303C26.6996 496.809 26.6202 497.38 26.564 497.961C26.4501 499.138 26.4 500.7 26.4 502.6H32.4C32.4 500.767 32.4499 499.429 32.5361 498.539C32.5798 498.087 32.6254 497.833 32.6525 497.722C32.6659 497.667 32.6598 497.71 32.6168 497.81C32.5864 497.881 32.4506 498.192 32.1213 498.521L27.8787 494.279ZM26.4 502.6V522H32.4V502.6H26.4ZM26.4 522C26.4 523.903 26.4503 525.477 26.5631 526.68C26.6192 527.278 26.6965 527.851 26.8107 528.359C26.9013 528.761 27.0962 529.528 27.6 530.2L32.4 526.6C32.7038 527.005 32.7237 527.305 32.6644 527.041C32.6285 526.882 32.5809 526.589 32.5369 526.12C32.4497 525.19 32.4 523.831 32.4 522H26.4ZM28.2 530.8C28.8717 531.304 29.6388 531.499 30.0415 531.589C30.5488 531.703 31.1221 531.781 31.72 531.837C32.9234 531.95 34.4974 532 36.4 532V526C34.5693 526 33.21 525.95 32.28 525.863C31.8113 525.819 31.5179 525.772 31.3586 525.736C31.0946 525.676 31.395 525.696 31.8 526L28.2 530.8ZM36.4 472H107.6V466H36.4V472ZM107.6 472C109.435 472 110.951 471.95 112.098 471.835C112.666 471.778 113.227 471.698 113.727 471.573C114.065 471.489 114.991 471.251 115.721 470.521L111.478 466.279C111.797 465.961 112.096 465.826 112.172 465.792C112.274 465.748 112.321 465.74 112.272 465.752C112.173 465.777 111.934 465.822 111.501 465.865C110.649 465.95 109.365 466 107.6 466V472ZM115.721 470.521C116.391 469.851 116.682 469.032 116.823 468.562C116.99 468.007 117.099 467.392 117.177 466.772C117.333 465.524 117.4 463.915 117.4 462H111.4C111.4 463.818 111.334 465.142 111.223 466.028C111.167 466.474 111.11 466.726 111.076 466.838C111.017 467.035 111.075 466.682 111.478 466.279L115.721 470.521ZM117.4 462V445.2H111.4V462H117.4ZM117.4 445.2C117.4 443.288 117.333 441.689 117.175 440.466C117.097 439.862 116.984 439.245 116.803 438.687C116.664 438.259 116.313 437.285 115.4 436.6L111.8 441.4C111.433 441.125 111.25 440.834 111.183 440.717C111.109 440.587 111.088 440.512 111.096 440.538C111.115 440.597 111.169 440.805 111.224 441.234C111.333 442.078 111.4 443.378 111.4 445.2H117.4ZM116 437.2C115.329 436.306 114.385 435.95 113.948 435.804C113.395 435.62 112.787 435.505 112.196 435.426C111.001 435.267 109.447 435.2 107.6 435.2V441.2C109.353 441.2 110.598 441.266 111.403 441.374C111.812 441.428 112.004 441.48 112.051 441.496C112.071 441.503 111.993 441.48 111.863 441.404C111.743 441.334 111.464 441.153 111.2 440.8L116 437.2ZM107.6 435.2H36.4V441.2H107.6V435.2ZM36.4 435.2C34.4851 435.2 32.8757 435.267 31.6279 435.423C31.0077 435.501 30.393 435.61 29.838 435.777C29.3681 435.918 28.5487 436.209 27.8787 436.879L32.1213 441.121C31.718 441.525 31.3653 441.583 31.5621 441.524C31.6737 441.49 31.9257 441.433 32.3721 441.377C33.2577 441.266 34.5816 441.2 36.4 441.2V435.2ZM27.8787 436.879C27.1356 437.622 26.9025 438.575 26.8225 438.903C26.6996 439.409 26.6202 439.98 26.564 440.561C26.4501 441.737 26.4 443.3 26.4 445.2H32.4C32.4 443.367 32.4499 442.029 32.5361 441.139C32.5798 440.687 32.6254 440.433 32.6525 440.322C32.6659 440.267 32.6598 440.31 32.6168 440.41C32.5864 440.481 32.4506 440.792 32.1213 441.121L27.8787 436.879ZM26.4 445.2V462H32.4V445.2H26.4ZM26.4 462C26.4 463.903 26.4503 465.477 26.5631 466.68C26.6192 467.278 26.6965 467.851 26.8107 468.359C26.9013 468.761 27.0962 469.528 27.6 470.2L32.4 466.6C32.7038 467.005 32.7237 467.306 32.6644 467.042C32.6285 466.882 32.5809 466.589 32.5369 466.12C32.4497 465.19 32.4 463.831 32.4 462H26.4ZM28.2 470.8C28.8717 471.304 29.6388 471.499 30.0415 471.589C30.5488 471.704 31.1221 471.781 31.72 471.837C32.9234 471.95 34.4974 472 36.4 472V466C34.5693 466 33.21 465.95 32.28 465.863C31.8113 465.819 31.5179 465.772 31.3586 465.736C31.0945 465.676 31.395 465.696 31.8 466L28.2 470.8ZM191.006 555.6H188.006V558.6H191.006V555.6ZM191.006 411.4V408.4H188.006V411.4H191.006ZM217.406 411.4H220.406V408.4H217.406V411.4ZM217.406 529H214.406V532H217.406V529ZM335.006 529H338.006V526H335.006V529ZM335.006 555.6V558.6H338.006V555.6H335.006ZM194.006 555.6V411.4H188.006V555.6H194.006ZM191.006 414.4H217.406V408.4H191.006V414.4ZM214.406 411.4V529H220.406V411.4H214.406ZM217.406 532H335.006V526H217.406V532ZM332.006 529V555.6H338.006V529H332.006ZM335.006 552.6H191.006V558.6H335.006V552.6ZM376.465 547.4L378.587 545.279L376.465 547.4ZM368.265 411.6V408.6H365.265V411.6H368.265ZM394.665 411.6H397.665V408.6H394.665V411.6ZM395.265 528.4L392.865 530.2L393.122 530.543L393.465 530.8L395.265 528.4ZM484.865 528.4L486.665 530.8L486.836 530.672L486.987 530.521L484.865 528.4ZM485.665 411.6V408.6H482.665V411.6H485.665ZM512.265 411.6H515.265V408.6H512.265V411.6ZM396.065 552.6C389.276 552.6 383.502 550.194 378.587 545.279L374.344 549.521C380.362 555.54 387.654 558.6 396.065 558.6V552.6ZM378.587 545.279C373.672 540.364 371.265 534.589 371.265 527.8H365.265C365.265 536.211 368.326 543.503 374.344 549.521L378.587 545.279ZM371.265 527.8V411.6H365.265V527.8H371.265ZM368.265 414.6H394.665V408.6H368.265V414.6ZM391.665 411.6V522H397.665V411.6H391.665ZM391.665 522C391.665 523.903 391.716 525.477 391.828 526.68C391.885 527.278 391.962 527.851 392.076 528.359C392.167 528.761 392.362 529.528 392.865 530.2L397.665 526.6C397.969 527.005 397.989 527.305 397.93 527.041C397.894 526.882 397.846 526.589 397.802 526.12C397.715 525.19 397.665 523.831 397.665 522H391.665ZM393.465 530.8C394.137 531.304 394.904 531.499 395.307 531.589C395.814 531.703 396.387 531.781 396.985 531.837C398.189 531.95 399.763 532 401.665 532V526C399.835 526 398.475 525.95 397.545 525.863C397.077 525.819 396.783 525.772 396.624 525.736C396.36 525.676 396.66 525.696 397.065 526L393.465 530.8ZM401.665 532H478.665V526H401.665V532ZM478.665 532C480.503 532 482.03 531.95 483.204 531.836C483.788 531.78 484.351 531.701 484.852 531.586C485.258 531.492 486.006 531.295 486.665 530.8L483.065 526C483.458 525.705 483.748 525.683 483.503 525.739C483.355 525.774 483.076 525.82 482.626 525.864C481.734 525.95 480.428 526 478.665 526V532ZM486.987 530.521C487.657 529.851 487.948 529.032 488.089 528.562C488.255 528.007 488.365 527.392 488.442 526.772C488.598 525.524 488.665 523.915 488.665 522H482.665C482.665 523.818 482.599 525.142 482.489 526.028C482.433 526.474 482.375 526.726 482.342 526.838C482.283 527.035 482.341 526.682 482.744 526.279L486.987 530.521ZM488.665 522V411.6H482.665V522H488.665ZM485.665 414.6H512.265V408.6H485.665V414.6ZM509.265 411.6V527.8H515.265V411.6H509.265ZM509.265 527.8C509.265 534.589 506.859 540.364 501.944 545.279L506.187 549.521C512.205 543.503 515.265 536.211 515.265 527.8H509.265ZM501.944 545.279C497.029 550.194 491.254 552.6 484.465 552.6V558.6C492.876 558.6 500.168 555.54 506.187 549.521L501.944 545.279ZM484.465 552.6H396.065V558.6H484.465V552.6ZM556.69 555.6H553.69V558.6H556.69V555.6ZM556.69 411.6V408.6H553.69V411.6H556.69ZM689.29 411.6H692.29V408.6H689.29V411.6ZM689.29 438.2V441.2H692.29V438.2H689.29ZM583.29 438.2V435.2H580.29V438.2H583.29ZM583.29 470.2H580.29V473.2H583.29V470.2ZM668.49 470.2H671.49V467.2H668.49V470.2ZM668.49 496.8V499.8H671.49V496.8H668.49ZM583.29 496.8V493.8H580.29V496.8H583.29ZM583.29 529H580.29V532H583.29V529ZM689.29 529H692.29V526H689.29V529ZM689.29 555.6V558.6H692.29V555.6H689.29ZM559.69 555.6V411.6H553.69V555.6H559.69ZM556.69 414.6H689.29V408.6H556.69V414.6ZM686.29 411.6V438.2H692.29V411.6H686.29ZM689.29 435.2H583.29V441.2H689.29V435.2ZM580.29 438.2V470.2H586.29V438.2H580.29ZM583.29 473.2H668.49V467.2H583.29V473.2ZM665.49 470.2V496.8H671.49V470.2H665.49ZM668.49 493.8H583.29V499.8H668.49V493.8ZM580.29 496.8V529H586.29V496.8H580.29ZM583.29 532H689.29V526H583.29V532ZM686.29 529V555.6H692.29V529H686.29ZM689.29 552.6H556.69V558.6H689.29V552.6ZM726.923 555.6H723.923V558.6H726.923V555.6ZM726.923 411.6V408.6H723.923V411.6H726.923ZM755.923 411.6L758.221 409.671L757.322 408.6H755.923V411.6ZM808.123 473.8L805.825 475.729L808.128 478.472L810.425 475.724L808.123 473.8ZM860.123 411.6V408.6H858.721L857.822 409.676L860.123 411.6ZM889.323 411.6H892.323V408.6H889.323V411.6ZM889.323 555.6V558.6H892.323V555.6H889.323ZM862.723 555.6H859.723V558.6H862.723V555.6ZM862.723 450H865.723V441.764L860.426 448.07L862.723 450ZM808.123 515L805.832 516.937L808.131 519.655L810.42 516.93L808.123 515ZM753.323 450.2L755.614 448.263L750.323 442.007V450.2H753.323ZM753.323 555.6V558.6H756.323V555.6H753.323ZM729.923 555.6V411.6H723.923V555.6H729.923ZM726.923 414.6H755.923V408.6H726.923V414.6ZM753.625 413.529L805.825 475.729L810.421 471.872L758.221 409.671L753.625 413.529ZM810.425 475.724L862.425 413.524L857.822 409.676L805.822 471.876L810.425 475.724ZM860.123 414.6H889.323V408.6H860.123V414.6ZM886.323 411.6V555.6H892.323V411.6H886.323ZM889.323 552.6H862.723V558.6H889.323V552.6ZM865.723 555.6V450H859.723V555.6H865.723ZM860.426 448.07L805.826 513.07L810.42 516.93L865.02 451.93L860.426 448.07ZM810.414 513.063L755.614 448.263L751.032 452.137L805.832 516.937L810.414 513.063ZM750.323 450.2V555.6H756.323V450.2H750.323ZM753.323 552.6H726.923V558.6H753.323V552.6ZM942.27 547.4L944.391 545.279L942.27 547.4ZM942.27 419.8L944.391 421.921L942.27 419.8ZM1050.67 528.4L1052.47 530.8L1052.64 530.672L1052.79 530.521L1050.67 528.4ZM1050.67 439L1048.55 441.121L1048.7 441.272L1048.87 441.4L1050.67 439ZM961.07 439L963.191 441.121L961.07 439ZM961.07 528.4L958.67 530.2L958.927 530.543L959.27 530.8L961.07 528.4ZM961.87 552.6C955.081 552.6 949.306 550.194 944.391 545.279L940.149 549.521C946.167 555.54 953.459 558.6 961.87 558.6V552.6ZM944.391 545.279C939.476 540.364 937.07 534.589 937.07 527.8H931.07C931.07 536.211 934.13 543.503 940.149 549.521L944.391 545.279ZM937.07 527.8V439.4H931.07V527.8H937.07ZM937.07 439.4C937.07 432.611 939.476 426.836 944.391 421.921L940.149 417.679C934.13 423.697 931.07 430.989 931.07 439.4H937.07ZM944.391 421.921C949.306 417.006 955.081 414.6 961.87 414.6V408.6C953.459 408.6 946.167 411.66 940.149 417.679L944.391 421.921ZM961.87 414.6H1050.27V408.6H961.87V414.6ZM1050.27 414.6C1057.06 414.6 1062.83 417.006 1067.75 421.921L1071.99 417.679C1065.97 411.66 1058.68 408.6 1050.27 408.6V414.6ZM1067.75 421.921C1072.66 426.836 1075.07 432.611 1075.07 439.4H1081.07C1081.07 430.989 1078.01 423.697 1071.99 417.679L1067.75 421.921ZM1075.07 439.4V527.8H1081.07V439.4H1075.07ZM1075.07 527.8C1075.07 534.589 1072.66 540.364 1067.75 545.279L1071.99 549.521C1078.01 543.503 1081.07 536.211 1081.07 527.8H1075.07ZM1067.75 545.279C1062.83 550.194 1057.06 552.6 1050.27 552.6V558.6C1058.68 558.6 1065.97 555.54 1071.99 549.521L1067.75 545.279ZM1050.27 552.6H961.87V558.6H1050.27V552.6ZM967.47 532H1044.47V526H967.47V532ZM1044.47 532C1046.3 532 1047.83 531.95 1049.01 531.836C1049.59 531.78 1050.15 531.701 1050.65 531.586C1051.06 531.492 1051.81 531.295 1052.47 530.8L1048.87 526C1049.26 525.705 1049.55 525.683 1049.3 525.739C1049.16 525.774 1048.88 525.82 1048.43 525.864C1047.54 525.95 1046.23 526 1044.47 526V532ZM1052.79 530.521C1053.46 529.851 1053.75 529.032 1053.89 528.562C1054.06 528.007 1054.17 527.392 1054.24 526.772C1054.4 525.524 1054.47 523.915 1054.47 522H1048.47C1048.47 523.818 1048.4 525.142 1048.29 526.028C1048.23 526.474 1048.18 526.726 1048.14 526.838C1048.08 527.035 1048.14 526.682 1048.55 526.279L1052.79 530.521ZM1054.47 522V445.2H1048.47V522H1054.47ZM1054.47 445.2C1054.47 443.288 1054.4 441.689 1054.24 440.466C1054.16 439.862 1054.05 439.245 1053.87 438.687C1053.73 438.259 1053.38 437.285 1052.47 436.6L1048.87 441.4C1048.5 441.125 1048.32 440.834 1048.25 440.717C1048.18 440.587 1048.15 440.512 1048.16 440.538C1048.18 440.597 1048.24 440.805 1048.29 441.234C1048.4 442.078 1048.47 443.378 1048.47 445.2H1054.47ZM1052.79 436.879C1052.13 436.222 1051.33 435.928 1050.86 435.783C1050.31 435.614 1049.71 435.503 1049.1 435.425C1047.88 435.267 1046.32 435.2 1044.47 435.2V441.2C1046.22 441.2 1047.49 441.266 1048.33 441.375C1048.76 441.43 1049 441.486 1049.1 441.517C1049.27 441.572 1048.94 441.511 1048.55 441.121L1052.79 436.879ZM1044.47 435.2H967.47V441.2H1044.47V435.2ZM967.47 435.2C965.555 435.2 963.946 435.267 962.698 435.423C962.078 435.501 961.463 435.61 960.908 435.777C960.438 435.918 959.619 436.209 958.949 436.879L963.191 441.121C962.788 441.525 962.435 441.583 962.632 441.524C962.744 441.49 962.996 441.433 963.442 441.377C964.328 441.266 965.652 441.2 967.47 441.2V435.2ZM958.949 436.879C958.206 437.622 957.973 438.575 957.893 438.903C957.77 439.409 957.69 439.98 957.634 440.561C957.52 441.737 957.47 443.3 957.47 445.2H963.47C963.47 443.367 963.52 442.029 963.606 441.139C963.65 440.687 963.695 440.433 963.723 440.322C963.736 440.267 963.73 440.31 963.687 440.41C963.656 440.481 963.521 440.792 963.191 441.121L958.949 436.879ZM957.47 445.2V522H963.47V445.2H957.47ZM957.47 522C957.47 523.903 957.52 525.477 957.633 526.68C957.689 527.278 957.767 527.851 957.881 528.359C957.971 528.761 958.166 529.528 958.67 530.2L963.47 526.6C963.774 527.005 963.794 527.305 963.734 527.041C963.698 526.882 963.651 526.589 963.607 526.12C963.52 525.19 963.47 523.831 963.47 522H957.47ZM959.27 530.8C959.942 531.304 960.709 531.499 961.112 531.589C961.619 531.703 962.192 531.781 962.79 531.837C963.993 531.95 965.567 532 967.47 532V526C965.639 526 964.28 525.95 963.35 525.863C962.881 525.819 962.588 525.772 962.429 525.736C962.165 525.676 962.465 525.696 962.87 526L959.27 530.8ZM1129.89 547.4L1132.01 545.279L1129.89 547.4ZM1129.89 419.8L1132.01 421.921L1129.89 419.8ZM1238.29 528.4L1240.09 530.8L1240.26 530.672L1240.41 530.521L1238.29 528.4ZM1238.29 439L1236.17 441.121L1236.32 441.272L1236.49 441.4L1238.29 439ZM1148.69 439L1150.81 441.121L1148.69 439ZM1148.69 528.4L1146.29 530.2L1146.55 530.543L1146.89 530.8L1148.69 528.4ZM1149.49 552.6C1142.7 552.6 1136.93 550.194 1132.01 545.279L1127.77 549.521C1133.79 555.54 1141.08 558.6 1149.49 558.6V552.6ZM1132.01 545.279C1127.1 540.364 1124.69 534.589 1124.69 527.8H1118.69C1118.69 536.211 1121.75 543.503 1127.77 549.521L1132.01 545.279ZM1124.69 527.8V439.4H1118.69V527.8H1124.69ZM1124.69 439.4C1124.69 432.611 1127.1 426.836 1132.01 421.921L1127.77 417.679C1121.75 423.697 1118.69 430.989 1118.69 439.4H1124.69ZM1132.01 421.921C1136.93 417.006 1142.7 414.6 1149.49 414.6V408.6C1141.08 408.6 1133.79 411.66 1127.77 417.679L1132.01 421.921ZM1149.49 414.6H1237.89V408.6H1149.49V414.6ZM1237.89 414.6C1244.68 414.6 1250.46 417.006 1255.37 421.921L1259.61 417.679C1253.59 411.66 1246.3 408.6 1237.89 408.6V414.6ZM1255.37 421.921C1260.29 426.836 1262.69 432.611 1262.69 439.4H1268.69C1268.69 430.989 1265.63 423.697 1259.61 417.679L1255.37 421.921ZM1262.69 439.4V527.8H1268.69V439.4H1262.69ZM1262.69 527.8C1262.69 534.589 1260.29 540.364 1255.37 545.279L1259.61 549.521C1265.63 543.503 1268.69 536.211 1268.69 527.8H1262.69ZM1255.37 545.279C1250.46 550.194 1244.68 552.6 1237.89 552.6V558.6C1246.3 558.6 1253.59 555.54 1259.61 549.521L1255.37 545.279ZM1237.89 552.6H1149.49V558.6H1237.89V552.6ZM1155.09 532H1232.09V526H1155.09V532ZM1232.09 532C1233.93 532 1235.46 531.95 1236.63 531.836C1237.21 531.78 1237.78 531.701 1238.28 531.586C1238.68 531.492 1239.43 531.295 1240.09 530.8L1236.49 526C1236.89 525.705 1237.17 525.683 1236.93 525.739C1236.78 525.774 1236.5 525.82 1236.05 525.864C1235.16 525.95 1233.85 526 1232.09 526V532ZM1240.41 530.521C1241.08 529.851 1241.37 529.032 1241.52 528.562C1241.68 528.007 1241.79 527.392 1241.87 526.772C1242.02 525.524 1242.09 523.915 1242.09 522H1236.09C1236.09 523.818 1236.03 525.142 1235.92 526.028C1235.86 526.474 1235.8 526.726 1235.77 526.838C1235.71 527.035 1235.77 526.682 1236.17 526.279L1240.41 530.521ZM1242.09 522V445.2H1236.09V522H1242.09ZM1242.09 445.2C1242.09 443.288 1242.03 441.689 1241.87 440.466C1241.79 439.862 1241.68 439.245 1241.5 438.687C1241.36 438.259 1241.01 437.285 1240.09 436.6L1236.49 441.4C1236.13 441.125 1235.94 440.834 1235.87 440.717C1235.8 440.587 1235.78 440.512 1235.79 440.538C1235.81 440.597 1235.86 440.805 1235.92 441.234C1236.03 442.078 1236.09 443.378 1236.09 445.2H1242.09ZM1240.41 436.879C1239.76 436.222 1238.96 435.928 1238.49 435.783C1237.94 435.614 1237.33 435.503 1236.73 435.425C1235.51 435.267 1233.94 435.2 1232.09 435.2V441.2C1233.84 441.2 1235.11 441.266 1235.96 441.375C1236.38 441.43 1236.62 441.486 1236.72 441.517C1236.9 441.572 1236.56 441.511 1236.17 441.121L1240.41 436.879ZM1232.09 435.2H1155.09V441.2H1232.09V435.2ZM1155.09 435.2C1153.18 435.2 1151.57 435.267 1150.32 435.423C1149.7 435.501 1149.09 435.61 1148.53 435.777C1148.06 435.918 1147.24 436.209 1146.57 436.879L1150.81 441.121C1150.41 441.525 1150.06 441.583 1150.25 441.524C1150.37 441.49 1150.62 441.433 1151.06 441.377C1151.95 441.266 1153.27 441.2 1155.09 441.2V435.2ZM1146.57 436.879C1145.83 437.622 1145.59 438.575 1145.51 438.903C1145.39 439.409 1145.31 439.98 1145.26 440.561C1145.14 441.737 1145.09 443.3 1145.09 445.2H1151.09C1151.09 443.367 1151.14 442.029 1151.23 441.139C1151.27 440.687 1151.32 440.433 1151.34 440.322C1151.36 440.267 1151.35 440.31 1151.31 440.41C1151.28 440.481 1151.14 440.792 1150.81 441.121L1146.57 436.879ZM1145.09 445.2V522H1151.09V445.2H1145.09ZM1145.09 522C1145.09 523.903 1145.14 525.477 1145.26 526.68C1145.31 527.278 1145.39 527.851 1145.5 528.359C1145.59 528.761 1145.79 529.528 1146.29 530.2L1151.09 526.6C1151.4 527.005 1151.42 527.305 1151.36 527.041C1151.32 526.882 1151.27 526.589 1151.23 526.12C1151.14 525.19 1151.09 523.831 1151.09 522H1145.09ZM1146.89 530.8C1147.56 531.304 1148.33 531.499 1148.73 531.589C1149.24 531.703 1149.81 531.781 1150.41 531.837C1151.62 531.95 1153.19 532 1155.09 532V526C1153.26 526 1151.9 525.95 1150.97 525.863C1150.5 525.819 1150.21 525.772 1150.05 525.736C1149.79 525.676 1150.09 525.696 1150.49 526L1146.89 530.8ZM1309.72 555.6H1306.72V558.6H1309.72V555.6ZM1309.72 411.6V408.6H1306.72V411.6H1309.72ZM1338.72 411.6L1341.01 409.67L1340.11 408.6H1338.72V411.6ZM1427.12 516.8L1424.82 518.73L1430.12 525.033V516.8H1427.12ZM1427.12 411.6V408.6H1424.12V411.6H1427.12ZM1453.72 411.6H1456.72V408.6H1453.72V411.6ZM1453.72 555.6V558.6H1456.72V555.6H1453.72ZM1424.72 555.6L1422.42 557.53L1423.32 558.6H1424.72V555.6ZM1336.12 450.2L1338.41 448.27L1333.12 441.969V450.2H1336.12ZM1336.12 555.6V558.6H1339.12V555.6H1336.12ZM1312.72 555.6V411.6H1306.72V555.6H1312.72ZM1309.72 414.6H1338.72V408.6H1309.72V414.6ZM1336.42 413.53L1424.82 518.73L1429.41 514.87L1341.01 409.67L1336.42 413.53ZM1430.12 516.8V411.6H1424.12V516.8H1430.12ZM1427.12 414.6H1453.72V408.6H1427.12V414.6ZM1450.72 411.6V555.6H1456.72V411.6H1450.72ZM1453.72 552.6H1424.72V558.6H1453.72V552.6ZM1427.01 553.67L1338.41 448.27L1333.82 452.13L1422.42 557.53L1427.01 553.67ZM1333.12 450.2V555.6H1339.12V450.2H1333.12ZM1336.12 552.6H1309.72V558.6H1336.12V552.6Z" fill="#00E0FF" fill-opacity="0.99"/>
<path opacity="0.33" d="M2.99998 350.4H0V353.4H2.99998V350.4ZM2.99998 206.4V203.4H0V206.4H2.99998ZM140.8 267.4L137.841 266.907L140.8 267.4ZM139.4 272L136.669 270.759L135.939 272.365L136.987 273.783L139.4 272ZM144.8 281.6L142.014 282.714L142.033 282.762L142.054 282.808L144.8 281.6ZM119.6 323.2L121.4 325.6L121.57 325.472L121.721 325.321L119.6 323.2ZM119.6 291.2L117.478 293.321L117.629 293.472L117.8 293.6L119.6 291.2ZM30 291.2L32.1213 293.321L30 291.2ZM30 323.2L27.6 325L27.8572 325.343L28.2 325.6L30 323.2ZM113.6 263.2L115.721 265.321L113.6 263.2ZM113.6 233.8L111.2 235.6L111.457 235.943L111.8 236.2L113.6 233.8ZM30 233.8L32.1213 235.921L30 233.8ZM30 263.2L27.6 265L27.8572 265.343L28.2 265.6L30 263.2ZM5.99998 350.4V206.4H0V350.4H5.99998ZM2.99998 209.4H113.4V203.4H2.99998V209.4ZM113.4 209.4C120.189 209.4 125.963 211.806 130.878 216.721L135.121 212.479C129.103 206.46 121.811 203.4 113.4 203.4V209.4ZM130.878 216.721C135.793 221.636 138.2 227.411 138.2 234.2H144.2C144.2 225.789 141.139 218.497 135.121 212.479L130.878 216.721ZM138.2 234.2V262.4H144.2V234.2H138.2ZM138.2 262.4C138.2 263.979 138.078 265.48 137.841 266.907L143.759 267.893C144.055 266.12 144.2 264.287 144.2 262.4H138.2ZM137.841 266.907C137.617 268.25 137.226 269.532 136.669 270.759L142.131 273.241C142.907 271.535 143.449 269.75 143.759 267.893L137.841 266.907ZM136.987 273.783C139.111 276.656 140.782 279.633 142.014 282.714L147.585 280.486C146.151 276.9 144.222 273.477 141.812 270.217L136.987 273.783ZM142.054 282.808C143.369 285.796 144 288.72 144 291.6H150C150 287.814 149.164 284.07 147.546 280.392L142.054 282.808ZM144 291.6V322.6H150V291.6H144ZM144 322.6C144 329.389 141.593 335.164 136.678 340.079L140.921 344.321C146.939 338.303 150 331.011 150 322.6H144ZM136.678 340.079C131.775 344.983 125.938 347.4 119 347.4V353.4C127.528 353.4 134.892 350.351 140.921 344.321L136.678 340.079ZM119 347.4H2.99998V353.4H119V347.4ZM36.4 326.8H113.4V320.8H36.4V326.8ZM113.4 326.8C115.237 326.8 116.765 326.75 117.939 326.636C118.522 326.58 119.085 326.501 119.587 326.386C119.992 326.292 120.74 326.095 121.4 325.6L117.8 320.8C118.193 320.505 118.482 320.483 118.238 320.539C118.089 320.574 117.81 320.62 117.361 320.664C116.468 320.75 115.162 320.8 113.4 320.8V326.8ZM121.721 325.321C122.391 324.651 122.682 323.832 122.823 323.362C122.99 322.807 123.099 322.192 123.177 321.572C123.333 320.324 123.4 318.715 123.4 316.8H117.4C117.4 318.618 117.334 319.942 117.223 320.828C117.167 321.274 117.11 321.526 117.076 321.638C117.017 321.835 117.075 321.482 117.478 321.079L121.721 325.321ZM123.4 316.8V297.4H117.4V316.8H123.4ZM123.4 297.4C123.4 295.488 123.333 293.889 123.175 292.666C123.097 292.062 122.984 291.445 122.803 290.887C122.664 290.459 122.313 289.485 121.4 288.8L117.8 293.6C117.433 293.325 117.25 293.034 117.182 292.917C117.109 292.787 117.088 292.712 117.096 292.738C117.115 292.797 117.169 293.005 117.224 293.434C117.333 294.278 117.4 295.578 117.4 297.4H123.4ZM121.721 289.079C121.064 288.422 120.267 288.128 119.794 287.983C119.245 287.814 118.64 287.703 118.034 287.625C116.814 287.467 115.25 287.4 113.4 287.4V293.4C115.149 293.4 116.419 293.466 117.266 293.575C117.692 293.63 117.929 293.686 118.03 293.717C118.207 293.772 117.868 293.711 117.478 293.321L121.721 289.079ZM113.4 287.4H36.4V293.4H113.4V287.4ZM36.4 287.4C34.4851 287.4 32.8757 287.467 31.6279 287.623C31.0077 287.701 30.393 287.81 29.838 287.977C29.3681 288.117 28.5487 288.409 27.8787 289.079L32.1213 293.321C31.718 293.725 31.3653 293.783 31.5621 293.723C31.6737 293.69 31.9257 293.633 32.3721 293.577C33.2577 293.466 34.5816 293.4 36.4 293.4V287.4ZM27.8787 289.079C27.1356 289.822 26.9025 290.775 26.8225 291.103C26.6996 291.609 26.6202 292.18 26.564 292.761C26.4501 293.937 26.4 295.5 26.4 297.4H32.4C32.4 295.567 32.4499 294.229 32.5361 293.339C32.5798 292.887 32.6254 292.633 32.6525 292.522C32.6659 292.467 32.6598 292.51 32.6168 292.61C32.5864 292.681 32.4506 292.992 32.1213 293.321L27.8787 289.079ZM26.4 297.4V316.8H32.4V297.4H26.4ZM26.4 316.8C26.4 318.703 26.4503 320.277 26.5631 321.48C26.6192 322.078 26.6965 322.651 26.8107 323.159C26.9013 323.561 27.0962 324.328 27.6 325L32.4 321.4C32.7038 321.805 32.7237 322.105 32.6644 321.841C32.6285 321.682 32.5809 321.389 32.5369 320.92C32.4497 319.99 32.4 318.631 32.4 316.8H26.4ZM28.2 325.6C28.8717 326.104 29.6388 326.299 30.0415 326.389C30.5488 326.503 31.1221 326.581 31.72 326.637C32.9234 326.75 34.4974 326.8 36.4 326.8V320.8C34.5693 320.8 33.21 320.75 32.28 320.663C31.8113 320.619 31.5179 320.572 31.3586 320.536C31.0946 320.476 31.395 320.496 31.8 320.8L28.2 325.6ZM36.4 266.8H107.6V260.8H36.4V266.8ZM107.6 266.8C109.435 266.8 110.951 266.75 112.098 266.635C112.666 266.578 113.227 266.498 113.727 266.373C114.065 266.289 114.991 266.051 115.721 265.321L111.478 261.079C111.797 260.761 112.096 260.626 112.172 260.592C112.274 260.547 112.321 260.54 112.272 260.552C112.173 260.577 111.934 260.622 111.501 260.665C110.649 260.75 109.365 260.8 107.6 260.8V266.8ZM115.721 265.321C116.391 264.651 116.682 263.832 116.823 263.362C116.99 262.807 117.099 262.192 117.177 261.572C117.333 260.324 117.4 258.715 117.4 256.8H111.4C111.4 258.618 111.334 259.942 111.223 260.828C111.167 261.274 111.11 261.526 111.076 261.638C111.017 261.835 111.075 261.482 111.478 261.079L115.721 265.321ZM117.4 256.8V240H111.4V256.8H117.4ZM117.4 240C117.4 238.088 117.333 236.489 117.175 235.266C117.097 234.662 116.984 234.045 116.803 233.487C116.664 233.059 116.313 232.085 115.4 231.4L111.8 236.2C111.433 235.925 111.25 235.634 111.183 235.517C111.109 235.387 111.088 235.312 111.096 235.338C111.115 235.397 111.169 235.605 111.224 236.034C111.333 236.878 111.4 238.178 111.4 240H117.4ZM116 232C115.329 231.106 114.385 230.75 113.948 230.604C113.395 230.42 112.787 230.305 112.196 230.226C111.001 230.067 109.447 230 107.6 230V236C109.353 236 110.598 236.066 111.403 236.174C111.812 236.228 112.004 236.28 112.051 236.296C112.071 236.303 111.993 236.279 111.863 236.204C111.743 236.134 111.464 235.953 111.2 235.6L116 232ZM107.6 230H36.4V236H107.6V230ZM36.4 230C34.4851 230 32.8757 230.067 31.6279 230.223C31.0077 230.301 30.393 230.41 29.838 230.577C29.3681 230.717 28.5487 231.009 27.8787 231.679L32.1213 235.921C31.718 236.325 31.3653 236.383 31.5621 236.323C31.6737 236.29 31.9257 236.233 32.3721 236.177C33.2577 236.066 34.5816 236 36.4 236V230ZM27.8787 231.679C27.1356 232.422 26.9025 233.375 26.8225 233.703C26.6996 234.209 26.6202 234.78 26.564 235.361C26.4501 236.537 26.4 238.1 26.4 240H32.4C32.4 238.167 32.4499 236.829 32.5361 235.939C32.5798 235.487 32.6254 235.233 32.6525 235.122C32.6659 235.067 32.6598 235.11 32.6168 235.21C32.5864 235.281 32.4506 235.592 32.1213 235.921L27.8787 231.679ZM26.4 240V256.8H32.4V240H26.4ZM26.4 256.8C26.4 258.703 26.4503 260.277 26.5631 261.48C26.6192 262.078 26.6965 262.651 26.8107 263.159C26.9013 263.561 27.0962 264.328 27.6 265L32.4 261.4C32.7038 261.805 32.7237 262.105 32.6644 261.841C32.6285 261.682 32.5809 261.389 32.5369 260.92C32.4497 259.99 32.4 258.631 32.4 256.8H26.4ZM28.2 265.6C28.8717 266.104 29.6388 266.299 30.0415 266.389C30.5488 266.503 31.1221 266.581 31.72 266.637C32.9234 266.75 34.4974 266.8 36.4 266.8V260.8C34.5693 260.8 33.21 260.75 32.28 260.663C31.8113 260.619 31.5179 260.572 31.3586 260.536C31.0945 260.476 31.395 260.496 31.8 260.8L28.2 265.6ZM191.006 350.4H188.006V353.4H191.006V350.4ZM191.006 206.2V203.2H188.006V206.2H191.006ZM217.406 206.2H220.406V203.2H217.406V206.2ZM217.406 323.8H214.406V326.8H217.406V323.8ZM335.006 323.8H338.006V320.8H335.006V323.8ZM335.006 350.4V353.4H338.006V350.4H335.006ZM194.006 350.4V206.2H188.006V350.4H194.006ZM191.006 209.2H217.406V203.2H191.006V209.2ZM214.406 206.2V323.8H220.406V206.2H214.406ZM217.406 326.8H335.006V320.8H217.406V326.8ZM332.006 323.8V350.4H338.006V323.8H332.006ZM335.006 347.4H191.006V353.4H335.006V347.4ZM376.465 342.2L378.587 340.079L376.465 342.2ZM368.265 206.4V203.4H365.265V206.4H368.265ZM394.665 206.4H397.665V203.4H394.665V206.4ZM395.265 323.2L392.865 325L393.122 325.343L393.465 325.6L395.265 323.2ZM484.865 323.2L486.665 325.6L486.836 325.472L486.987 325.321L484.865 323.2ZM485.665 206.4V203.4H482.665V206.4H485.665ZM512.265 206.4H515.265V203.4H512.265V206.4ZM396.065 347.4C389.276 347.4 383.502 344.994 378.587 340.079L374.344 344.321C380.362 350.34 387.654 353.4 396.065 353.4V347.4ZM378.587 340.079C373.672 335.164 371.265 329.389 371.265 322.6H365.265C365.265 331.011 368.326 338.303 374.344 344.321L378.587 340.079ZM371.265 322.6V206.4H365.265V322.6H371.265ZM368.265 209.4H394.665V203.4H368.265V209.4ZM391.665 206.4V316.8H397.665V206.4H391.665ZM391.665 316.8C391.665 318.703 391.716 320.277 391.828 321.48C391.885 322.078 391.962 322.651 392.076 323.159C392.167 323.561 392.362 324.328 392.865 325L397.665 321.4C397.969 321.805 397.989 322.105 397.93 321.841C397.894 321.682 397.846 321.389 397.802 320.92C397.715 319.99 397.665 318.631 397.665 316.8H391.665ZM393.465 325.6C394.137 326.104 394.904 326.299 395.307 326.389C395.814 326.503 396.387 326.581 396.985 326.637C398.189 326.75 399.763 326.8 401.665 326.8V320.8C399.835 320.8 398.475 320.75 397.545 320.663C397.077 320.619 396.783 320.572 396.624 320.536C396.36 320.476 396.66 320.496 397.065 320.8L393.465 325.6ZM401.665 326.8H478.665V320.8H401.665V326.8ZM478.665 326.8C480.503 326.8 482.03 326.75 483.204 326.636C483.788 326.58 484.351 326.501 484.852 326.386C485.258 326.292 486.006 326.095 486.665 325.6L483.065 320.8C483.458 320.505 483.748 320.483 483.503 320.539C483.355 320.574 483.076 320.62 482.626 320.664C481.734 320.75 480.428 320.8 478.665 320.8V326.8ZM486.987 325.321C487.657 324.651 487.948 323.832 488.089 323.362C488.255 322.807 488.365 322.192 488.442 321.572C488.598 320.324 488.665 318.715 488.665 316.8H482.665C482.665 318.618 482.599 319.942 482.489 320.828C482.433 321.274 482.375 321.526 482.342 321.638C482.283 321.835 482.341 321.482 482.744 321.079L486.987 325.321ZM488.665 316.8V206.4H482.665V316.8H488.665ZM485.665 209.4H512.265V203.4H485.665V209.4ZM509.265 206.4V322.6H515.265V206.4H509.265ZM509.265 322.6C509.265 329.389 506.859 335.164 501.944 340.079L506.187 344.321C512.205 338.303 515.265 331.011 515.265 322.6H509.265ZM501.944 340.079C497.029 344.994 491.254 347.4 484.465 347.4V353.4C492.876 353.4 500.168 350.34 506.187 344.321L501.944 340.079ZM484.465 347.4H396.065V353.4H484.465V347.4ZM556.69 350.4H553.69V353.4H556.69V350.4ZM556.69 206.4V203.4H553.69V206.4H556.69ZM689.29 206.4H692.29V203.4H689.29V206.4ZM689.29 233V236H692.29V233H689.29ZM583.29 233V230H580.29V233H583.29ZM583.29 265H580.29V268H583.29V265ZM668.49 265H671.49V262H668.49V265ZM668.49 291.6V294.6H671.49V291.6H668.49ZM583.29 291.6V288.6H580.29V291.6H583.29ZM583.29 323.8H580.29V326.8H583.29V323.8ZM689.29 323.8H692.29V320.8H689.29V323.8ZM689.29 350.4V353.4H692.29V350.4H689.29ZM559.69 350.4V206.4H553.69V350.4H559.69ZM556.69 209.4H689.29V203.4H556.69V209.4ZM686.29 206.4V233H692.29V206.4H686.29ZM689.29 230H583.29V236H689.29V230ZM580.29 233V265H586.29V233H580.29ZM583.29 268H668.49V262H583.29V268ZM665.49 265V291.6H671.49V265H665.49ZM668.49 288.6H583.29V294.6H668.49V288.6ZM580.29 291.6V323.8H586.29V291.6H580.29ZM583.29 326.8H689.29V320.8H583.29V326.8ZM686.29 323.8V350.4H692.29V323.8H686.29ZM689.29 347.4H556.69V353.4H689.29V347.4ZM726.923 350.4H723.923V353.4H726.923V350.4ZM726.923 206.4V203.4H723.923V206.4H726.923ZM755.923 206.4L758.221 204.471L757.322 203.4H755.923V206.4ZM808.123 268.6L805.825 270.529L808.128 273.272L810.425 270.524L808.123 268.6ZM860.123 206.4V203.4H858.721L857.822 204.476L860.123 206.4ZM889.323 206.4H892.323V203.4H889.323V206.4ZM889.323 350.4V353.4H892.323V350.4H889.323ZM862.723 350.4H859.723V353.4H862.723V350.4ZM862.723 244.8H865.723V236.564L860.426 242.87L862.723 244.8ZM808.123 309.8L805.832 311.737L808.131 314.455L810.42 311.73L808.123 309.8ZM753.323 245L755.614 243.063L750.323 236.807V245H753.323ZM753.323 350.4V353.4H756.323V350.4H753.323ZM729.923 350.4V206.4H723.923V350.4H729.923ZM726.923 209.4H755.923V203.4H726.923V209.4ZM753.625 208.329L805.825 270.529L810.421 266.671L758.221 204.471L753.625 208.329ZM810.425 270.524L862.425 208.324L857.822 204.476L805.822 266.676L810.425 270.524ZM860.123 209.4H889.323V203.4H860.123V209.4ZM886.323 206.4V350.4H892.323V206.4H886.323ZM889.323 347.4H862.723V353.4H889.323V347.4ZM865.723 350.4V244.8H859.723V350.4H865.723ZM860.426 242.87L805.826 307.87L810.42 311.73L865.02 246.73L860.426 242.87ZM810.414 307.863L755.614 243.063L751.032 246.937L805.832 311.737L810.414 307.863ZM750.323 245V350.4H756.323V245H750.323ZM753.323 347.4H726.923V353.4H753.323V347.4ZM942.27 342.2L944.391 340.079L942.27 342.2ZM942.27 214.6L944.391 216.721L942.27 214.6ZM1050.67 323.2L1052.47 325.6L1052.64 325.472L1052.79 325.321L1050.67 323.2ZM1050.67 233.8L1048.55 235.921L1048.7 236.072L1048.87 236.2L1050.67 233.8ZM961.07 233.8L963.191 235.921L961.07 233.8ZM961.07 323.2L958.67 325L958.927 325.343L959.27 325.6L961.07 323.2ZM961.87 347.4C955.081 347.4 949.306 344.994 944.391 340.079L940.149 344.321C946.167 350.34 953.459 353.4 961.87 353.4V347.4ZM944.391 340.079C939.476 335.164 937.07 329.389 937.07 322.6H931.07C931.07 331.011 934.13 338.303 940.149 344.321L944.391 340.079ZM937.07 322.6V234.2H931.07V322.6H937.07ZM937.07 234.2C937.07 227.411 939.476 221.636 944.391 216.721L940.149 212.479C934.13 218.497 931.07 225.789 931.07 234.2H937.07ZM944.391 216.721C949.306 211.806 955.081 209.4 961.87 209.4V203.4C953.459 203.4 946.167 206.46 940.149 212.479L944.391 216.721ZM961.87 209.4H1050.27V203.4H961.87V209.4ZM1050.27 209.4C1057.06 209.4 1062.83 211.806 1067.75 216.721L1071.99 212.479C1065.97 206.46 1058.68 203.4 1050.27 203.4V209.4ZM1067.75 216.721C1072.66 221.636 1075.07 227.411 1075.07 234.2H1081.07C1081.07 225.789 1078.01 218.497 1071.99 212.479L1067.75 216.721ZM1075.07 234.2V322.6H1081.07V234.2H1075.07ZM1075.07 322.6C1075.07 329.389 1072.66 335.164 1067.75 340.079L1071.99 344.321C1078.01 338.303 1081.07 331.011 1081.07 322.6H1075.07ZM1067.75 340.079C1062.83 344.994 1057.06 347.4 1050.27 347.4V353.4C1058.68 353.4 1065.97 350.34 1071.99 344.321L1067.75 340.079ZM1050.27 347.4H961.87V353.4H1050.27V347.4ZM967.47 326.8H1044.47V320.8H967.47V326.8ZM1044.47 326.8C1046.3 326.8 1047.83 326.75 1049.01 326.636C1049.59 326.58 1050.15 326.501 1050.65 326.386C1051.06 326.292 1051.81 326.095 1052.47 325.6L1048.87 320.8C1049.26 320.505 1049.55 320.483 1049.3 320.539C1049.16 320.574 1048.88 320.62 1048.43 320.664C1047.54 320.75 1046.23 320.8 1044.47 320.8V326.8ZM1052.79 325.321C1053.46 324.651 1053.75 323.832 1053.89 323.362C1054.06 322.807 1054.17 322.192 1054.24 321.572C1054.4 320.324 1054.47 318.715 1054.47 316.8H1048.47C1048.47 318.618 1048.4 319.942 1048.29 320.828C1048.23 321.274 1048.18 321.526 1048.14 321.638C1048.08 321.835 1048.14 321.482 1048.55 321.079L1052.79 325.321ZM1054.47 316.8V240H1048.47V316.8H1054.47ZM1054.47 240C1054.47 238.088 1054.4 236.489 1054.24 235.266C1054.16 234.662 1054.05 234.045 1053.87 233.487C1053.73 233.059 1053.38 232.085 1052.47 231.4L1048.87 236.2C1048.5 235.925 1048.32 235.634 1048.25 235.517C1048.18 235.387 1048.15 235.312 1048.16 235.338C1048.18 235.397 1048.24 235.605 1048.29 236.034C1048.4 236.878 1048.47 238.178 1048.47 240H1054.47ZM1052.79 231.679C1052.13 231.022 1051.33 230.728 1050.86 230.583C1050.31 230.414 1049.71 230.303 1049.1 230.225C1047.88 230.067 1046.32 230 1044.47 230V236C1046.22 236 1047.49 236.066 1048.33 236.175C1048.76 236.23 1049 236.286 1049.1 236.317C1049.27 236.372 1048.94 236.311 1048.55 235.921L1052.79 231.679ZM1044.47 230H967.47V236H1044.47V230ZM967.47 230C965.555 230 963.946 230.067 962.698 230.223C962.078 230.301 961.463 230.41 960.908 230.577C960.438 230.717 959.619 231.009 958.949 231.679L963.191 235.921C962.788 236.325 962.435 236.383 962.632 236.323C962.744 236.29 962.996 236.233 963.442 236.177C964.328 236.066 965.652 236 967.47 236V230ZM958.949 231.679C958.206 232.422 957.973 233.375 957.893 233.703C957.77 234.209 957.69 234.78 957.634 235.361C957.52 236.537 957.47 238.1 957.47 240H963.47C963.47 238.167 963.52 236.829 963.606 235.939C963.65 235.487 963.695 235.233 963.723 235.122C963.736 235.067 963.73 235.11 963.687 235.21C963.656 235.281 963.521 235.592 963.191 235.921L958.949 231.679ZM957.47 240V316.8H963.47V240H957.47ZM957.47 316.8C957.47 318.703 957.52 320.277 957.633 321.48C957.689 322.078 957.767 322.651 957.881 323.159C957.971 323.561 958.166 324.328 958.67 325L963.47 321.4C963.774 321.805 963.794 322.105 963.734 321.841C963.698 321.682 963.651 321.389 963.607 320.92C963.52 319.99 963.47 318.631 963.47 316.8H957.47ZM959.27 325.6C959.942 326.104 960.709 326.299 961.112 326.389C961.619 326.503 962.192 326.581 962.79 326.637C963.993 326.75 965.567 326.8 967.47 326.8V320.8C965.639 320.8 964.28 320.75 963.35 320.663C962.881 320.619 962.588 320.572 962.429 320.536C962.165 320.476 962.465 320.496 962.87 320.8L959.27 325.6ZM1129.89 342.2L1132.01 340.079L1129.89 342.2ZM1129.89 214.6L1132.01 216.721L1129.89 214.6ZM1238.29 323.2L1240.09 325.6L1240.26 325.472L1240.41 325.321L1238.29 323.2ZM1238.29 233.8L1236.17 235.921L1236.32 236.072L1236.49 236.2L1238.29 233.8ZM1148.69 233.8L1150.81 235.921L1148.69 233.8ZM1148.69 323.2L1146.29 325L1146.55 325.343L1146.89 325.6L1148.69 323.2ZM1149.49 347.4C1142.7 347.4 1136.93 344.994 1132.01 340.079L1127.77 344.321C1133.79 350.34 1141.08 353.4 1149.49 353.4V347.4ZM1132.01 340.079C1127.1 335.164 1124.69 329.389 1124.69 322.6H1118.69C1118.69 331.011 1121.75 338.303 1127.77 344.321L1132.01 340.079ZM1124.69 322.6V234.2H1118.69V322.6H1124.69ZM1124.69 234.2C1124.69 227.411 1127.1 221.636 1132.01 216.721L1127.77 212.479C1121.75 218.497 1118.69 225.789 1118.69 234.2H1124.69ZM1132.01 216.721C1136.93 211.806 1142.7 209.4 1149.49 209.4V203.4C1141.08 203.4 1133.79 206.46 1127.77 212.479L1132.01 216.721ZM1149.49 209.4H1237.89V203.4H1149.49V209.4ZM1237.89 209.4C1244.68 209.4 1250.46 211.806 1255.37 216.721L1259.61 212.479C1253.59 206.46 1246.3 203.4 1237.89 203.4V209.4ZM1255.37 216.721C1260.29 221.636 1262.69 227.411 1262.69 234.2H1268.69C1268.69 225.789 1265.63 218.497 1259.61 212.479L1255.37 216.721ZM1262.69 234.2V322.6H1268.69V234.2H1262.69ZM1262.69 322.6C1262.69 329.389 1260.29 335.164 1255.37 340.079L1259.61 344.321C1265.63 338.303 1268.69 331.011 1268.69 322.6H1262.69ZM1255.37 340.079C1250.46 344.994 1244.68 347.4 1237.89 347.4V353.4C1246.3 353.4 1253.59 350.34 1259.61 344.321L1255.37 340.079ZM1237.89 347.4H1149.49V353.4H1237.89V347.4ZM1155.09 326.8H1232.09V320.8H1155.09V326.8ZM1232.09 326.8C1233.93 326.8 1235.46 326.75 1236.63 326.636C1237.21 326.58 1237.78 326.501 1238.28 326.386C1238.68 326.292 1239.43 326.095 1240.09 325.6L1236.49 320.8C1236.89 320.505 1237.17 320.483 1236.93 320.539C1236.78 320.574 1236.5 320.62 1236.05 320.664C1235.16 320.75 1233.85 320.8 1232.09 320.8V326.8ZM1240.41 325.321C1241.08 324.651 1241.37 323.832 1241.52 323.362C1241.68 322.807 1241.79 322.192 1241.87 321.572C1242.02 320.324 1242.09 318.715 1242.09 316.8H1236.09C1236.09 318.618 1236.03 319.942 1235.92 320.828C1235.86 321.274 1235.8 321.526 1235.77 321.638C1235.71 321.835 1235.77 321.482 1236.17 321.079L1240.41 325.321ZM1242.09 316.8V240H1236.09V316.8H1242.09ZM1242.09 240C1242.09 238.088 1242.03 236.489 1241.87 235.266C1241.79 234.662 1241.68 234.045 1241.5 233.487C1241.36 233.059 1241.01 232.085 1240.09 231.4L1236.49 236.2C1236.13 235.925 1235.94 235.634 1235.87 235.517C1235.8 235.387 1235.78 235.312 1235.79 235.338C1235.81 235.397 1235.86 235.605 1235.92 236.034C1236.03 236.878 1236.09 238.178 1236.09 240H1242.09ZM1240.41 231.679C1239.76 231.022 1238.96 230.728 1238.49 230.583C1237.94 230.414 1237.33 230.303 1236.73 230.225C1235.51 230.067 1233.94 230 1232.09 230V236C1233.84 236 1235.11 236.066 1235.96 236.175C1236.38 236.23 1236.62 236.286 1236.72 236.317C1236.9 236.372 1236.56 236.311 1236.17 235.921L1240.41 231.679ZM1232.09 230H1155.09V236H1232.09V230ZM1155.09 230C1153.18 230 1151.57 230.067 1150.32 230.223C1149.7 230.301 1149.09 230.41 1148.53 230.577C1148.06 230.717 1147.24 231.009 1146.57 231.679L1150.81 235.921C1150.41 236.325 1150.06 236.383 1150.25 236.323C1150.37 236.29 1150.62 236.233 1151.06 236.177C1151.95 236.066 1153.27 236 1155.09 236V230ZM1146.57 231.679C1145.83 232.422 1145.59 233.375 1145.51 233.703C1145.39 234.209 1145.31 234.78 1145.26 235.361C1145.14 236.537 1145.09 238.1 1145.09 240H1151.09C1151.09 238.167 1151.14 236.829 1151.23 235.939C1151.27 235.487 1151.32 235.233 1151.34 235.122C1151.36 235.067 1151.35 235.11 1151.31 235.21C1151.28 235.281 1151.14 235.592 1150.81 235.921L1146.57 231.679ZM1145.09 240V316.8H1151.09V240H1145.09ZM1145.09 316.8C1145.09 318.703 1145.14 320.277 1145.26 321.48C1145.31 322.078 1145.39 322.651 1145.5 323.159C1145.59 323.561 1145.79 324.328 1146.29 325L1151.09 321.4C1151.4 321.805 1151.42 322.105 1151.36 321.841C1151.32 321.682 1151.27 321.389 1151.23 320.92C1151.14 319.99 1151.09 318.631 1151.09 316.8H1145.09ZM1146.89 325.6C1147.56 326.104 1148.33 326.299 1148.73 326.389C1149.24 326.503 1149.81 326.581 1150.41 326.637C1151.62 326.75 1153.19 326.8 1155.09 326.8V320.8C1153.26 320.8 1151.9 320.75 1150.97 320.663C1150.5 320.619 1150.21 320.572 1150.05 320.536C1149.79 320.476 1150.09 320.496 1150.49 320.8L1146.89 325.6ZM1309.72 350.4H1306.72V353.4H1309.72V350.4ZM1309.72 206.4V203.4H1306.72V206.4H1309.72ZM1338.72 206.4L1341.01 204.47L1340.11 203.4H1338.72V206.4ZM1427.12 311.6L1424.82 313.53L1430.12 319.833V311.6H1427.12ZM1427.12 206.4V203.4H1424.12V206.4H1427.12ZM1453.72 206.4H1456.72V203.4H1453.72V206.4ZM1453.72 350.4V353.4H1456.72V350.4H1453.72ZM1424.72 350.4L1422.42 352.33L1423.32 353.4H1424.72V350.4ZM1336.12 245L1338.41 243.07L1333.12 236.769V245H1336.12ZM1336.12 350.4V353.4H1339.12V350.4H1336.12ZM1312.72 350.4V206.4H1306.72V350.4H1312.72ZM1309.72 209.4H1338.72V203.4H1309.72V209.4ZM1336.42 208.33L1424.82 313.53L1429.41 309.67L1341.01 204.47L1336.42 208.33ZM1430.12 311.6V206.4H1424.12V311.6H1430.12ZM1427.12 209.4H1453.72V203.4H1427.12V209.4ZM1450.72 206.4V350.4H1456.72V206.4H1450.72ZM1453.72 347.4H1424.72V353.4H1453.72V347.4ZM1427.01 348.47L1338.41 243.07L1333.82 246.93L1422.42 352.33L1427.01 348.47ZM1333.12 245V350.4H1339.12V245H1333.12ZM1336.12 347.4H1309.72V353.4H1336.12V347.4Z" fill="#00E0FF"/>
<path opacity="0.26" d="M5 146.2H3V148.2H5V146.2ZM5 2.20001V0.200012H3V2.20001H5ZM142.8 63.2L140.827 62.871L142.8 63.2ZM141.4 67.8L139.579 66.972L139.092 68.043L139.791 68.989L141.4 67.8ZM146.8 77.4L144.943 78.143L144.955 78.174L144.969 78.205L146.8 77.4ZM121.6 119L122.8 120.6L122.913 120.515L123.014 120.414L121.6 119ZM121.6 87L120.186 88.414L120.286 88.515L120.4 88.6L121.6 87ZM32 87L33.4142 88.414L32 87ZM32 119L30.4 120.2L30.5714 120.429L30.8 120.6L32 119ZM115.6 59L117.014 60.414L115.6 59ZM115.6 29.6L114 30.8L114.171 31.029L114.4 31.2L115.6 29.6ZM32 29.6L33.4142 31.014L32 29.6ZM32 59L30.4 60.2L30.5714 60.429L30.8 60.6L32 59ZM7 146.2V2.20001H3V146.2H7ZM5 4.20001H115.4V0.200012H5V4.20001ZM115.4 4.20001C122.459 4.20001 128.487 6.71503 133.586 11.814L136.414 8.98602C130.579 3.15102 123.54 0.200012 115.4 0.200012V4.20001ZM133.586 11.814C138.684 16.913 141.2 22.941 141.2 30H145.2C145.2 21.859 142.248 14.82 136.414 8.98602L133.586 11.814ZM141.2 30V58.2H145.2V30H141.2ZM141.2 58.2C141.2 59.831 141.074 61.387 140.827 62.871L144.773 63.529C145.058 61.813 145.2 60.036 145.2 58.2H141.2ZM140.827 62.871C140.589 64.3 140.173 65.666 139.579 66.972L143.22 68.628C143.96 67.001 144.477 65.3 144.773 63.529L140.827 62.871ZM139.791 68.989C141.963 71.927 143.677 74.978 144.943 78.143L148.657 76.657C147.256 73.156 145.37 69.807 143.008 66.611L139.791 68.989ZM144.969 78.205C146.334 81.309 147 84.369 147 87.4H151C151 83.765 150.198 80.158 148.63 76.595L144.969 78.205ZM147 87.4V118.4H151V87.4H147ZM147 118.4C147 125.459 144.484 131.487 139.386 136.586L142.214 139.414C148.048 133.58 151 126.541 151 118.4H147ZM139.386 136.586C134.294 141.677 128.203 144.2 121 144.2V148.2C129.263 148.2 136.372 145.256 142.214 139.414L139.386 136.586ZM121 144.2H5V148.2H121V144.2ZM38.4 121.6H115.4V117.6H38.4V121.6ZM115.4 121.6C117.225 121.6 118.715 121.55 119.842 121.441C120.404 121.386 120.919 121.313 121.362 121.211C121.741 121.124 122.315 120.963 122.8 120.6L120.4 117.4C120.617 117.237 120.734 117.251 120.463 117.314C120.255 117.362 119.929 117.414 119.457 117.459C118.518 117.55 117.175 117.6 115.4 117.6V121.6ZM123.014 120.414C123.505 119.923 123.738 119.299 123.865 118.875C124.01 118.394 124.11 117.839 124.184 117.248C124.333 116.061 124.4 114.499 124.4 112.6H120.4C120.4 114.435 120.333 115.806 120.215 116.752C120.156 117.227 120.09 117.54 120.034 117.725C119.961 117.968 119.961 117.81 120.186 117.586L123.014 120.414ZM124.4 112.6V93.2H120.4V112.6H124.4ZM124.4 93.2C124.4 91.303 124.333 89.754 124.183 88.594C124.109 88.019 124.006 87.47 123.852 86.995C123.726 86.607 123.453 85.89 122.8 85.4L120.4 88.6C120.013 88.31 119.973 88.001 120.047 88.23C120.093 88.372 120.157 88.648 120.216 89.106C120.333 90.013 120.4 91.363 120.4 93.2H124.4ZM123.014 85.586C122.532 85.104 121.924 84.869 121.5 84.738C121.026 84.592 120.482 84.491 119.906 84.416C118.748 84.267 117.233 84.2 115.4 84.2V88.2C117.166 88.2 118.485 88.266 119.394 88.384C119.85 88.442 120.149 88.508 120.324 88.562C120.55 88.631 120.401 88.63 120.186 88.414L123.014 85.586ZM115.4 84.2H38.4V88.2H115.4V84.2ZM38.4 84.2C36.5012 84.2 34.9393 84.267 33.752 84.415C33.1607 84.489 32.6064 84.59 32.1253 84.734C31.701 84.862 31.0769 85.095 30.5858 85.586L33.4142 88.414C33.1898 88.639 33.0324 88.638 33.2747 88.566C33.4603 88.51 33.7727 88.444 34.2481 88.385C35.194 88.266 36.5655 88.2 38.4 88.2V84.2ZM30.5858 85.586C30.0571 86.115 29.8725 86.818 29.7942 87.14C29.6872 87.579 29.6135 88.098 29.5593 88.657C29.4501 89.786 29.4 91.311 29.4 93.2H33.4C33.4 91.356 33.45 89.981 33.5407 89.043C33.5865 88.569 33.6378 88.262 33.6809 88.085C33.7525 87.791 33.7429 88.085 33.4142 88.414L30.5858 85.586ZM29.4 93.2V112.6H33.4V93.2H29.4ZM29.4 112.6C29.4 114.491 29.4502 116.029 29.5588 117.187C29.6128 117.763 29.6852 118.29 29.7863 118.739C29.8717 119.119 30.0308 119.708 30.4 120.2L33.6 117.8C33.7692 118.026 33.7533 118.148 33.6887 117.861C33.6398 117.644 33.5873 117.304 33.5413 116.813C33.4498 115.838 33.4 114.443 33.4 112.6H29.4ZM30.8 120.6C31.2923 120.969 31.8814 121.128 32.261 121.214C32.7103 121.315 33.2369 121.387 33.8133 121.441C34.9712 121.55 36.5094 121.6 38.4 121.6V117.6C36.5573 117.6 35.1622 117.55 34.1867 117.459C33.6964 117.413 33.3564 117.36 33.139 117.311C32.8519 117.247 32.9744 117.231 33.2 117.4L30.8 120.6ZM38.4 61.6H109.6V57.6H38.4V61.6ZM109.6 61.6C111.423 61.6 112.9 61.55 113.999 61.44C114.544 61.386 115.051 61.311 115.485 61.203C115.81 61.122 116.494 60.934 117.014 60.414L114.186 57.586C114.505 57.266 114.79 57.253 114.515 57.322C114.348 57.364 114.056 57.414 113.601 57.46C112.699 57.55 111.376 57.6 109.6 57.6V61.6ZM117.014 60.414C117.505 59.923 117.738 59.299 117.865 58.875C118.01 58.394 118.11 57.839 118.184 57.248C118.333 56.061 118.4 54.499 118.4 52.6H114.4C114.4 54.435 114.333 55.806 114.215 56.752C114.156 57.227 114.09 57.54 114.034 57.725C113.961 57.968 113.961 57.81 114.186 57.586L117.014 60.414ZM118.4 52.6V35.8H114.4V52.6H118.4ZM118.4 35.8C118.4 33.903 118.333 32.354 118.183 31.194C118.109 30.619 118.006 30.07 117.852 29.595C117.726 29.207 117.453 28.49 116.8 28L114.4 31.2C114.013 30.91 113.973 30.601 114.047 30.83C114.093 30.972 114.157 31.248 114.216 31.706C114.333 32.613 114.4 33.963 114.4 35.8H118.4ZM117.2 28.4C116.719 27.759 116.023 27.483 115.632 27.353C115.163 27.196 114.625 27.092 114.064 27.018C112.934 26.867 111.431 26.8 109.6 26.8V30.8C111.368 30.8 112.666 30.866 113.535 30.982C113.975 31.041 114.236 31.104 114.367 31.147C114.576 31.217 114.28 31.174 114 30.8L117.2 28.4ZM109.6 26.8H38.4V30.8H109.6V26.8ZM38.4 26.8C36.5012 26.8 34.9393 26.867 33.752 27.015C33.1607 27.089 32.6064 27.19 32.1253 27.334C31.701 27.462 31.0769 27.695 30.5858 28.186L33.4142 31.014C33.1898 31.239 33.0324 31.238 33.2747 31.166C33.4603 31.11 33.7727 31.044 34.2481 30.985C35.194 30.866 36.5655 30.8 38.4 30.8V26.8ZM30.5858 28.186C30.0571 28.714 29.8725 29.418 29.7942 29.74C29.6872 30.179 29.6135 30.698 29.5593 31.257C29.4501 32.386 29.4 33.911 29.4 35.8H33.4C33.4 33.956 33.45 32.581 33.5407 31.643C33.5865 31.169 33.6378 30.862 33.6809 30.685C33.7525 30.391 33.7429 30.686 33.4142 31.014L30.5858 28.186ZM29.4 35.8V52.6H33.4V35.8H29.4ZM29.4 52.6C29.4 54.491 29.4502 56.029 29.5588 57.187C29.6128 57.763 29.6852 58.29 29.7863 58.739C29.8717 59.119 30.0308 59.708 30.4 60.2L33.6 57.8C33.7692 58.026 33.7533 58.148 33.6887 57.861C33.6398 57.644 33.5873 57.304 33.5413 56.813C33.4498 55.838 33.4 54.443 33.4 52.6H29.4ZM30.8 60.6C31.2923 60.969 31.8814 61.128 32.261 61.214C32.7103 61.315 33.2369 61.387 33.8133 61.441C34.9712 61.55 36.5094 61.6 38.4 61.6V57.6C36.5573 57.6 35.1622 57.55 34.1867 57.459C33.6964 57.413 33.3564 57.36 33.139 57.311C32.8519 57.247 32.9744 57.231 33.2 57.4L30.8 60.6ZM193.006 146.2H191.006V148.2H193.006V146.2ZM193.006 2V0H191.006V2H193.006ZM219.406 2H221.406V0H219.406V2ZM219.406 119.6H217.406V121.6H219.406V119.6ZM337.006 119.6H339.006V117.6H337.006V119.6ZM337.006 146.2V148.2H339.006V146.2H337.006ZM195.006 146.2V2H191.006V146.2H195.006ZM193.006 4H219.406V0H193.006V4ZM217.406 2V119.6H221.406V2H217.406ZM219.406 121.6H337.006V117.6H219.406V121.6ZM335.006 119.6V146.2H339.006V119.6H335.006ZM337.006 144.2H193.006V148.2H337.006V144.2ZM378.465 138L379.88 136.586L378.465 138ZM370.265 2.20001V0.200012H368.265V2.20001H370.265ZM396.665 2.20001H398.665V0.200012H396.665V2.20001ZM397.265 119L395.665 120.2L395.837 120.429L396.065 120.6L397.265 119ZM486.865 119L488.065 120.6L488.179 120.515L488.28 120.414L486.865 119ZM487.665 2.20001V0.200012H485.665V2.20001H487.665ZM514.265 2.20001H516.265V0.200012H514.265V2.20001ZM398.065 144.2C391.006 144.2 384.978 141.685 379.88 136.586L377.051 139.414C382.886 145.249 389.925 148.2 398.065 148.2V144.2ZM379.88 136.586C374.781 131.487 372.265 125.459 372.265 118.4H368.265C368.265 126.541 371.217 133.58 377.051 139.414L379.88 136.586ZM372.265 118.4V2.20001H368.265V118.4H372.265ZM370.265 4.20001H396.665V0.200012H370.265V4.20001ZM394.665 2.20001V112.6H398.665V2.20001H394.665ZM394.665 112.6C394.665 114.491 394.716 116.029 394.824 117.187C394.878 117.763 394.951 118.29 395.052 118.739C395.137 119.119 395.296 119.708 395.665 120.2L398.865 117.8C399.035 118.026 399.019 118.148 398.954 117.861C398.905 117.644 398.853 117.304 398.807 116.813C398.715 115.838 398.665 114.443 398.665 112.6H394.665ZM396.065 120.6C396.558 120.969 397.147 121.128 397.526 121.214C397.976 121.315 398.502 121.387 399.079 121.441C400.236 121.55 401.775 121.6 403.665 121.6V117.6C401.823 117.6 400.428 117.55 399.452 117.459C398.962 117.413 398.622 117.36 398.404 117.311C398.117 117.247 398.24 117.231 398.465 117.4L396.065 120.6ZM403.665 121.6H480.665V117.6H403.665V121.6ZM480.665 121.6C482.49 121.6 483.981 121.55 485.108 121.441C485.669 121.386 486.185 121.313 486.628 121.211C487.006 121.124 487.581 120.963 488.065 120.6L485.665 117.4C485.883 117.237 485.999 117.251 485.728 117.314C485.521 117.362 485.195 117.414 484.723 117.459C483.783 117.55 482.44 117.6 480.665 117.6V121.6ZM488.28 120.414C488.771 119.923 489.004 119.299 489.131 118.875C489.275 118.394 489.376 117.839 489.45 117.248C489.598 116.061 489.665 114.499 489.665 112.6H485.665C485.665 114.435 485.599 115.806 485.481 116.752C485.421 117.227 485.355 117.54 485.3 117.725C485.227 117.968 485.227 117.81 485.451 117.586L488.28 120.414ZM489.665 112.6V2.20001H485.665V112.6H489.665ZM487.665 4.20001H514.265V0.200012H487.665V4.20001ZM512.265 2.20001V118.4H516.265V2.20001H512.265ZM512.265 118.4C512.265 125.459 509.75 131.487 504.651 136.586L507.48 139.414C513.314 133.58 516.265 126.541 516.265 118.4H512.265ZM504.651 136.586C499.552 141.685 493.525 144.2 486.465 144.2V148.2C494.606 148.2 501.645 145.249 507.48 139.414L504.651 136.586ZM486.465 144.2H398.065V148.2H486.465V144.2ZM558.69 146.2H556.69V148.2H558.69V146.2ZM558.69 2.20001V0.200012H556.69V2.20001H558.69ZM691.29 2.20001H693.29V0.200012H691.29V2.20001ZM691.29 28.8V30.8H693.29V28.8H691.29ZM585.29 28.8V26.8H583.29V28.8H585.29ZM585.29 60.8H583.29V62.8H585.29V60.8ZM670.49 60.8H672.49V58.8H670.49V60.8ZM670.49 87.4V89.4H672.49V87.4H670.49ZM585.29 87.4V85.4H583.29V87.4H585.29ZM585.29 119.6H583.29V121.6H585.29V119.6ZM691.29 119.6H693.29V117.6H691.29V119.6ZM691.29 146.2V148.2H693.29V146.2H691.29ZM560.69 146.2V2.20001H556.69V146.2H560.69ZM558.69 4.20001H691.29V0.200012H558.69V4.20001ZM689.29 2.20001V28.8H693.29V2.20001H689.29ZM691.29 26.8H585.29V30.8H691.29V26.8ZM583.29 28.8V60.8H587.29V28.8H583.29ZM585.29 62.8H670.49V58.8H585.29V62.8ZM668.49 60.8V87.4H672.49V60.8H668.49ZM670.49 85.4H585.29V89.4H670.49V85.4ZM583.29 87.4V119.6H587.29V87.4H583.29ZM585.29 121.6H691.29V117.6H585.29V121.6ZM689.29 119.6V146.2H693.29V119.6H689.29ZM691.29 144.2H558.69V148.2H691.29V144.2ZM728.923 146.2H726.923V148.2H728.923V146.2ZM728.923 2.20001V0.200012H726.923V2.20001H728.923ZM757.923 2.20001L759.455 0.914001L758.856 0.200012H757.923V2.20001ZM810.123 64.4L808.591 65.686L810.126 67.515L811.658 65.683L810.123 64.4ZM862.123 2.20001V0.200012H861.188L860.589 0.917023L862.123 2.20001ZM891.323 2.20001H893.323V0.200012H891.323V2.20001ZM891.323 146.2V148.2H893.323V146.2H891.323ZM864.723 146.2H862.723V148.2H864.723V146.2ZM864.723 40.6H866.723V35.11L863.192 39.314L864.723 40.6ZM810.123 105.6L808.596 106.891L810.128 108.703L811.655 106.886L810.123 105.6ZM755.323 40.8L756.85 39.509L753.323 35.338V40.8H755.323ZM755.323 146.2V148.2H757.323V146.2H755.323ZM730.923 146.2V2.20001H726.923V146.2H730.923ZM728.923 4.20001H757.923V0.200012H728.923V4.20001ZM756.391 3.48602L808.591 65.686L811.655 63.114L759.455 0.914001L756.391 3.48602ZM811.658 65.683L863.658 3.483L860.589 0.917023L808.589 63.117L811.658 65.683ZM862.123 4.20001H891.323V0.200012H862.123V4.20001ZM889.323 2.20001V146.2H893.323V2.20001H889.323ZM891.323 144.2H864.723V148.2H891.323V144.2ZM866.723 146.2V40.6H862.723V146.2H866.723ZM863.192 39.314L808.592 104.314L811.655 106.886L866.255 41.886L863.192 39.314ZM811.65 104.309L756.85 39.509L753.796 42.091L808.596 106.891L811.65 104.309ZM753.323 40.8V146.2H757.323V40.8H753.323ZM755.323 144.2H728.923V148.2H755.323V144.2ZM944.27 138L945.684 136.586L944.27 138ZM944.27 10.4L945.684 11.814L944.27 10.4ZM1052.67 119L1053.87 120.6L1053.98 120.515L1054.08 120.414L1052.67 119ZM1052.67 29.6L1051.25 31.014L1051.35 31.115L1051.47 31.2L1052.67 29.6ZM963.07 29.6L964.484 31.014L963.07 29.6ZM963.07 119L961.47 120.2L961.641 120.429L961.87 120.6L963.07 119ZM963.87 144.2C956.811 144.2 950.783 141.685 945.684 136.586L942.856 139.414C948.69 145.249 955.729 148.2 963.87 148.2V144.2ZM945.684 136.586C940.585 131.487 938.07 125.459 938.07 118.4H934.07C934.07 126.541 937.021 133.58 942.856 139.414L945.684 136.586ZM938.07 118.4V30H934.07V118.4H938.07ZM938.07 30C938.07 22.941 940.585 16.913 945.684 11.814L942.856 8.98602C937.021 14.82 934.07 21.859 934.07 30H938.07ZM945.684 11.814C950.783 6.71503 956.811 4.20001 963.87 4.20001V0.200012C955.729 0.200012 948.69 3.15102 942.856 8.98602L945.684 11.814ZM963.87 4.20001H1052.27V0.200012H963.87V4.20001ZM1052.27 4.20001C1059.33 4.20001 1065.35 6.71503 1070.45 11.814L1073.28 8.98602C1067.45 3.15102 1060.41 0.200012 1052.27 0.200012V4.20001ZM1070.45 11.814C1075.55 16.913 1078.07 22.941 1078.07 30H1082.07C1082.07 21.859 1079.12 14.82 1073.28 8.98602L1070.45 11.814ZM1078.07 30V118.4H1082.07V30H1078.07ZM1078.07 118.4C1078.07 125.459 1075.55 131.487 1070.45 136.586L1073.28 139.414C1079.12 133.58 1082.07 126.541 1082.07 118.4H1078.07ZM1070.45 136.586C1065.35 141.685 1059.33 144.2 1052.27 144.2V148.2C1060.41 148.2 1067.45 145.249 1073.28 139.414L1070.45 136.586ZM1052.27 144.2H963.87V148.2H1052.27V144.2ZM969.47 121.6H1046.47V117.6H969.47V121.6ZM1046.47 121.6C1048.29 121.6 1049.78 121.55 1050.91 121.441C1051.47 121.386 1051.99 121.313 1052.43 121.211C1052.81 121.124 1053.38 120.963 1053.87 120.6L1051.47 117.4C1051.68 117.237 1051.8 117.251 1051.53 117.314C1051.32 117.362 1051 117.414 1050.52 117.459C1049.58 117.55 1048.24 117.6 1046.47 117.6V121.6ZM1054.08 120.414C1054.57 119.923 1054.81 119.299 1054.93 118.875C1055.08 118.394 1055.18 117.839 1055.25 117.248C1055.4 116.061 1055.47 114.499 1055.47 112.6H1051.47C1051.47 114.435 1051.4 115.806 1051.28 116.752C1051.22 117.227 1051.16 117.54 1051.1 117.725C1051.03 117.968 1051.03 117.81 1051.25 117.586L1054.08 120.414ZM1055.47 112.6V35.8H1051.47V112.6H1055.47ZM1055.47 35.8C1055.47 33.903 1055.4 32.354 1055.25 31.194C1055.18 30.619 1055.07 30.07 1054.92 29.595C1054.79 29.207 1054.52 28.49 1053.87 28L1051.47 31.2C1051.08 30.91 1051.04 30.601 1051.11 30.83C1051.16 30.972 1051.22 31.248 1051.28 31.706C1051.4 32.613 1051.47 33.963 1051.47 35.8H1055.47ZM1054.08 28.186C1053.6 27.704 1052.99 27.469 1052.57 27.338C1052.09 27.192 1051.55 27.091 1050.97 27.016C1049.82 26.867 1048.3 26.8 1046.47 26.8V30.8C1048.23 30.8 1049.55 30.866 1050.46 30.984C1050.92 31.042 1051.22 31.108 1051.39 31.162C1051.62 31.231 1051.47 31.23 1051.25 31.014L1054.08 28.186ZM1046.47 26.8H969.47V30.8H1046.47V26.8ZM969.47 26.8C967.571 26.8 966.009 26.867 964.822 27.015C964.231 27.089 963.676 27.19 963.195 27.334C962.771 27.462 962.147 27.695 961.656 28.186L964.484 31.014C964.26 31.239 964.102 31.238 964.345 31.166C964.53 31.11 964.843 31.044 965.318 30.985C966.264 30.866 967.636 30.8 969.47 30.8V26.8ZM961.656 28.186C961.127 28.714 960.943 29.418 960.864 29.74C960.757 30.179 960.683 30.698 960.629 31.257C960.52 32.386 960.47 33.911 960.47 35.8H964.47C964.47 33.956 964.52 32.581 964.611 31.643C964.657 31.169 964.708 30.862 964.751 30.685C964.823 30.391 964.813 30.686 964.484 31.014L961.656 28.186ZM960.47 35.8V112.6H964.47V35.8H960.47ZM960.47 112.6C960.47 114.491 960.52 116.029 960.629 117.187C960.683 117.763 960.755 118.29 960.856 118.739C960.942 119.119 961.101 119.708 961.47 120.2L964.67 117.8C964.839 118.026 964.823 118.148 964.759 117.861C964.71 117.644 964.657 117.304 964.611 116.813C964.52 115.838 964.47 114.443 964.47 112.6H960.47ZM961.87 120.6C962.362 120.969 962.951 121.128 963.331 121.214C963.78 121.315 964.307 121.387 964.883 121.441C966.041 121.55 967.579 121.6 969.47 121.6V117.6C967.627 117.6 966.232 117.55 965.257 117.459C964.766 117.413 964.426 117.36 964.209 117.311C963.922 117.247 964.044 117.231 964.27 117.4L961.87 120.6ZM1131.89 138L1133.31 136.586L1131.89 138ZM1131.89 10.4L1133.31 11.814L1131.89 10.4ZM1240.29 119L1241.49 120.6L1241.61 120.515L1241.71 120.414L1240.29 119ZM1240.29 29.6L1238.88 31.014L1238.98 31.115L1239.09 31.2L1240.29 29.6ZM1150.69 29.6L1152.11 31.014L1150.69 29.6ZM1150.69 119L1149.09 120.2L1149.26 120.429L1149.49 120.6L1150.69 119ZM1151.49 144.2C1144.43 144.2 1138.41 141.685 1133.31 136.586L1130.48 139.414C1136.31 145.249 1143.35 148.2 1151.49 148.2V144.2ZM1133.31 136.586C1128.21 131.487 1125.69 125.459 1125.69 118.4H1121.69C1121.69 126.541 1124.64 133.58 1130.48 139.414L1133.31 136.586ZM1125.69 118.4V30H1121.69V118.4H1125.69ZM1125.69 30C1125.69 22.941 1128.21 16.913 1133.31 11.814L1130.48 8.98602C1124.64 14.82 1121.69 21.859 1121.69 30H1125.69ZM1133.31 11.814C1138.41 6.71503 1144.43 4.20001 1151.49 4.20001V0.200012C1143.35 0.200012 1136.31 3.15102 1130.48 8.98602L1133.31 11.814ZM1151.49 4.20001H1239.89V0.200012H1151.49V4.20001ZM1239.89 4.20001C1246.95 4.20001 1252.98 6.71503 1258.08 11.814L1260.91 8.98602C1255.07 3.15102 1248.03 0.200012 1239.89 0.200012V4.20001ZM1258.08 11.814C1263.18 16.913 1265.69 22.941 1265.69 30H1269.69C1269.69 21.859 1266.74 14.82 1260.91 8.98602L1258.08 11.814ZM1265.69 30V118.4H1269.69V30H1265.69ZM1265.69 118.4C1265.69 125.459 1263.18 131.487 1258.08 136.586L1260.91 139.414C1266.74 133.58 1269.69 126.541 1269.69 118.4H1265.69ZM1258.08 136.586C1252.98 141.685 1246.95 144.2 1239.89 144.2V148.2C1248.03 148.2 1255.07 145.249 1260.91 139.414L1258.08 136.586ZM1239.89 144.2H1151.49V148.2H1239.89V144.2ZM1157.09 121.6H1234.09V117.6H1157.09V121.6ZM1234.09 121.6C1235.92 121.6 1237.41 121.55 1238.53 121.441C1239.1 121.386 1239.61 121.313 1240.05 121.211C1240.43 121.124 1241.01 120.963 1241.49 120.6L1239.09 117.4C1239.31 117.237 1239.43 117.251 1239.15 117.314C1238.95 117.362 1238.62 117.414 1238.15 117.459C1237.21 117.55 1235.87 117.6 1234.09 117.6V121.6ZM1241.71 120.414C1242.2 119.923 1242.43 119.299 1242.56 118.875C1242.7 118.394 1242.8 117.839 1242.88 117.248C1243.02 116.061 1243.09 114.499 1243.09 112.6H1239.09C1239.09 114.435 1239.03 115.806 1238.91 116.752C1238.85 117.227 1238.78 117.54 1238.73 117.725C1238.65 117.968 1238.65 117.81 1238.88 117.586L1241.71 120.414ZM1243.09 112.6V35.8H1239.09V112.6H1243.09ZM1243.09 35.8C1243.09 33.903 1243.03 32.354 1242.88 31.194C1242.8 30.619 1242.7 30.07 1242.54 29.595C1242.42 29.207 1242.15 28.49 1241.49 28L1239.09 31.2C1238.71 30.91 1238.67 30.601 1238.74 30.83C1238.79 30.972 1238.85 31.248 1238.91 31.706C1239.03 32.613 1239.09 33.963 1239.09 35.8H1243.09ZM1241.71 28.186C1241.22 27.704 1240.62 27.469 1240.19 27.338C1239.72 27.192 1239.17 27.091 1238.6 27.016C1237.44 26.867 1235.93 26.8 1234.09 26.8V30.8C1235.86 30.8 1237.18 30.866 1238.09 30.984C1238.54 31.042 1238.84 31.108 1239.02 31.162C1239.24 31.231 1239.09 31.23 1238.88 31.014L1241.71 28.186ZM1234.09 26.8H1157.09V30.8H1234.09V26.8ZM1157.09 26.8C1155.19 26.8 1153.63 26.867 1152.44 27.015C1151.85 27.089 1151.3 27.19 1150.82 27.334C1150.39 27.462 1149.77 27.695 1149.28 28.186L1152.11 31.014C1151.88 31.239 1151.72 31.238 1151.97 31.166C1152.15 31.11 1152.46 31.044 1152.94 30.985C1153.89 30.866 1155.26 30.8 1157.09 30.8V26.8ZM1149.28 28.186C1148.75 28.714 1148.56 29.418 1148.49 29.74C1148.38 30.179 1148.31 30.698 1148.25 31.257C1148.14 32.386 1148.09 33.911 1148.09 35.8H1152.09C1152.09 33.956 1152.14 32.581 1152.23 31.643C1152.28 31.169 1152.33 30.862 1152.37 30.685C1152.44 30.391 1152.44 30.686 1152.11 31.014L1149.28 28.186ZM1148.09 35.8V112.6H1152.09V35.8H1148.09ZM1148.09 112.6C1148.09 114.491 1148.14 116.029 1148.25 117.187C1148.3 117.763 1148.38 118.29 1148.48 118.739C1148.56 119.119 1148.72 119.708 1149.09 120.2L1152.29 117.8C1152.46 118.026 1152.45 118.148 1152.38 117.861C1152.33 117.644 1152.28 117.304 1152.23 116.813C1152.14 115.838 1152.09 114.443 1152.09 112.6H1148.09ZM1149.49 120.6C1149.98 120.969 1150.57 121.128 1150.95 121.214C1151.4 121.315 1151.93 121.387 1152.51 121.441C1153.66 121.55 1155.2 121.6 1157.09 121.6V117.6C1155.25 117.6 1153.85 117.55 1152.88 117.459C1152.39 117.413 1152.05 117.36 1151.83 117.311C1151.54 117.247 1151.67 117.231 1151.89 117.4L1149.49 120.6ZM1311.72 146.2H1309.72V148.2H1311.72V146.2ZM1311.72 2.20001V0.200012H1309.72V2.20001H1311.72ZM1340.72 2.20001L1342.25 0.913025L1341.65 0.200012H1340.72V2.20001ZM1429.12 107.4L1427.59 108.687L1431.12 112.889V107.4H1429.12ZM1429.12 2.20001V0.200012H1427.12V2.20001H1429.12ZM1455.72 2.20001H1457.72V0.200012H1455.72V2.20001ZM1455.72 146.2V148.2H1457.72V146.2H1455.72ZM1426.72 146.2L1425.19 147.487L1425.79 148.2H1426.72V146.2ZM1338.12 40.8L1339.65 39.513L1336.12 35.313V40.8H1338.12ZM1338.12 146.2V148.2H1340.12V146.2H1338.12ZM1313.72 146.2V2.20001H1309.72V146.2H1313.72ZM1311.72 4.20001H1340.72V0.200012H1311.72V4.20001ZM1339.19 3.487L1427.59 108.687L1430.65 106.113L1342.25 0.913025L1339.19 3.487ZM1431.12 107.4V2.20001H1427.12V107.4H1431.12ZM1429.12 4.20001H1455.72V0.200012H1429.12V4.20001ZM1453.72 2.20001V146.2H1457.72V2.20001H1453.72ZM1455.72 144.2H1426.72V148.2H1455.72V144.2ZM1428.25 144.913L1339.65 39.513L1336.59 42.087L1425.19 147.487L1428.25 144.913ZM1336.12 40.8V146.2H1340.12V40.8H1336.12ZM1338.12 144.2H1311.72V148.2H1338.12V144.2Z" fill="#00E0FF"/>
<path opacity="0.23" d="M2.99998 760.8H0V763.8H2.99998V760.8ZM2.99998 616.8V613.8H0V616.8H2.99998ZM140.8 677.8L137.841 677.307L140.8 677.8ZM139.4 682.4L136.669 681.159L135.939 682.765L136.987 684.183L139.4 682.4ZM144.8 692L142.014 693.114L142.033 693.162L142.054 693.208L144.8 692ZM119.6 733.6L121.4 736L121.57 735.872L121.721 735.721L119.6 733.6ZM119.6 701.6L117.478 703.721L117.629 703.872L117.8 704L119.6 701.6ZM30 701.6L32.1213 703.721L30 701.6ZM30 733.6L27.6 735.4L27.8572 735.743L28.2 736L30 733.6ZM113.6 673.6L115.721 675.721L113.6 673.6ZM113.6 644.2L111.2 646L111.457 646.343L111.8 646.6L113.6 644.2ZM30 644.2L32.1213 646.321L30 644.2ZM30 673.6L27.6 675.4L27.8572 675.743L28.2 676L30 673.6ZM5.99998 760.8V616.8H0V760.8H5.99998ZM2.99998 619.8H113.4V613.8H2.99998V619.8ZM113.4 619.8C120.189 619.8 125.963 622.206 130.878 627.121L135.121 622.879C129.103 616.86 121.811 613.8 113.4 613.8V619.8ZM130.878 627.121C135.793 632.036 138.2 637.811 138.2 644.6H144.2C144.2 636.189 141.139 628.897 135.121 622.879L130.878 627.121ZM138.2 644.6V672.8H144.2V644.6H138.2ZM138.2 672.8C138.2 674.379 138.078 675.88 137.841 677.307L143.759 678.293C144.055 676.52 144.2 674.687 144.2 672.8H138.2ZM137.841 677.307C137.617 678.65 137.226 679.932 136.669 681.159L142.131 683.641C142.907 681.935 143.449 680.15 143.759 678.293L137.841 677.307ZM136.987 684.183C139.111 687.056 140.782 690.033 142.014 693.114L147.585 690.886C146.151 687.3 144.222 683.877 141.812 680.617L136.987 684.183ZM142.054 693.208C143.369 696.196 144 699.12 144 702H150C150 698.214 149.164 694.47 147.546 690.792L142.054 693.208ZM144 702V733H150V702H144ZM144 733C144 739.789 141.593 745.564 136.678 750.479L140.921 754.721C146.939 748.703 150 741.411 150 733H144ZM136.678 750.479C131.775 755.383 125.938 757.8 119 757.8V763.8C127.528 763.8 134.892 760.751 140.921 754.721L136.678 750.479ZM119 757.8H2.99998V763.8H119V757.8ZM36.4 737.2H113.4V731.2H36.4V737.2ZM113.4 737.2C115.237 737.2 116.765 737.15 117.939 737.036C118.522 736.98 119.085 736.901 119.587 736.786C119.992 736.692 120.74 736.495 121.4 736L117.8 731.2C118.193 730.905 118.482 730.883 118.238 730.939C118.089 730.974 117.81 731.02 117.361 731.064C116.468 731.15 115.162 731.2 113.4 731.2V737.2ZM121.721 735.721C122.391 735.051 122.682 734.232 122.823 733.762C122.99 733.207 123.099 732.592 123.177 731.972C123.333 730.724 123.4 729.115 123.4 727.2H117.4C117.4 729.018 117.334 730.342 117.223 731.228C117.167 731.674 117.11 731.926 117.076 732.038C117.017 732.235 117.075 731.882 117.478 731.479L121.721 735.721ZM123.4 727.2V707.8H117.4V727.2H123.4ZM123.4 707.8C123.4 705.888 123.333 704.289 123.175 703.066C123.097 702.462 122.984 701.845 122.803 701.287C122.664 700.859 122.313 699.885 121.4 699.2L117.8 704C117.433 703.725 117.25 703.434 117.182 703.317C117.109 703.187 117.088 703.112 117.096 703.138C117.115 703.197 117.169 703.405 117.224 703.834C117.333 704.678 117.4 705.978 117.4 707.8H123.4ZM121.721 699.479C121.064 698.822 120.267 698.528 119.794 698.383C119.245 698.214 118.64 698.103 118.034 698.025C116.814 697.867 115.25 697.8 113.4 697.8V703.8C115.149 703.8 116.419 703.866 117.266 703.975C117.692 704.03 117.929 704.086 118.03 704.117C118.207 704.172 117.868 704.111 117.478 703.721L121.721 699.479ZM113.4 697.8H36.4V703.8H113.4V697.8ZM36.4 697.8C34.4851 697.8 32.8757 697.867 31.6279 698.023C31.0077 698.101 30.393 698.21 29.838 698.377C29.3681 698.517 28.5487 698.809 27.8787 699.479L32.1213 703.721C31.718 704.125 31.3653 704.183 31.5621 704.123C31.6737 704.09 31.9257 704.033 32.3721 703.977C33.2577 703.866 34.5816 703.8 36.4 703.8V697.8ZM27.8787 699.479C27.1356 700.222 26.9025 701.175 26.8225 701.503C26.6996 702.009 26.6202 702.58 26.564 703.161C26.4501 704.337 26.4 705.9 26.4 707.8H32.4C32.4 705.967 32.4499 704.629 32.5361 703.739C32.5798 703.287 32.6254 703.033 32.6525 702.922C32.6659 702.867 32.6598 702.91 32.6168 703.01C32.5864 703.081 32.4506 703.392 32.1213 703.721L27.8787 699.479ZM26.4 707.8V727.2H32.4V707.8H26.4ZM26.4 727.2C26.4 729.103 26.4503 730.677 26.5631 731.88C26.6192 732.478 26.6965 733.051 26.8107 733.559C26.9013 733.961 27.0962 734.728 27.6 735.4L32.4 731.8C32.7038 732.205 32.7237 732.505 32.6644 732.241C32.6285 732.082 32.5809 731.789 32.5369 731.32C32.4497 730.39 32.4 729.031 32.4 727.2H26.4ZM28.2 736C28.8717 736.504 29.6388 736.699 30.0415 736.789C30.5488 736.903 31.1221 736.981 31.72 737.037C32.9234 737.15 34.4974 737.2 36.4 737.2V731.2C34.5693 731.2 33.21 731.15 32.28 731.063C31.8113 731.019 31.5179 730.972 31.3586 730.936C31.0946 730.876 31.395 730.896 31.8 731.2L28.2 736ZM36.4 677.2H107.6V671.2H36.4V677.2ZM107.6 677.2C109.435 677.2 110.951 677.15 112.098 677.035C112.666 676.978 113.227 676.898 113.727 676.773C114.065 676.689 114.991 676.451 115.721 675.721L111.478 671.479C111.797 671.161 112.096 671.026 112.172 670.992C112.274 670.947 112.321 670.94 112.272 670.952C112.173 670.977 111.934 671.022 111.501 671.065C110.649 671.15 109.365 671.2 107.6 671.2V677.2ZM115.721 675.721C116.391 675.051 116.682 674.232 116.823 673.762C116.99 673.207 117.099 672.592 117.177 671.972C117.333 670.724 117.4 669.115 117.4 667.2H111.4C111.4 669.018 111.334 670.342 111.223 671.228C111.167 671.674 111.11 671.926 111.076 672.038C111.017 672.235 111.075 671.882 111.478 671.479L115.721 675.721ZM117.4 667.2V650.4H111.4V667.2H117.4ZM117.4 650.4C117.4 648.488 117.333 646.889 117.175 645.666C117.097 645.062 116.984 644.445 116.803 643.887C116.664 643.459 116.313 642.485 115.4 641.8L111.8 646.6C111.433 646.325 111.25 646.034 111.183 645.917C111.109 645.787 111.088 645.712 111.096 645.738C111.115 645.797 111.169 646.005 111.224 646.434C111.333 647.278 111.4 648.578 111.4 650.4H117.4ZM116 642.4C115.329 641.506 114.385 641.15 113.948 641.004C113.395 640.82 112.787 640.705 112.196 640.626C111.001 640.467 109.447 640.4 107.6 640.4V646.4C109.353 646.4 110.598 646.466 111.403 646.574C111.812 646.628 112.004 646.68 112.051 646.696C112.071 646.703 111.993 646.679 111.863 646.604C111.743 646.534 111.464 646.353 111.2 646L116 642.4ZM107.6 640.4H36.4V646.4H107.6V640.4ZM36.4 640.4C34.4851 640.4 32.8757 640.467 31.6279 640.623C31.0077 640.701 30.393 640.81 29.838 640.977C29.3681 641.117 28.5487 641.409 27.8787 642.079L32.1213 646.321C31.718 646.725 31.3653 646.783 31.5621 646.723C31.6737 646.69 31.9257 646.633 32.3721 646.577C33.2577 646.466 34.5816 646.4 36.4 646.4V640.4ZM27.8787 642.079C27.1356 642.822 26.9025 643.775 26.8225 644.103C26.6996 644.609 26.6202 645.18 26.564 645.761C26.4501 646.937 26.4 648.5 26.4 650.4H32.4C32.4 648.567 32.4499 647.229 32.5361 646.339C32.5798 645.887 32.6254 645.633 32.6525 645.522C32.6659 645.467 32.6598 645.51 32.6168 645.61C32.5864 645.681 32.4506 645.992 32.1213 646.321L27.8787 642.079ZM26.4 650.4V667.2H32.4V650.4H26.4ZM26.4 667.2C26.4 669.103 26.4503 670.677 26.5631 671.88C26.6192 672.478 26.6965 673.051 26.8107 673.559C26.9013 673.961 27.0962 674.728 27.6 675.4L32.4 671.8C32.7038 672.205 32.7237 672.505 32.6644 672.241C32.6285 672.082 32.5809 671.789 32.5369 671.32C32.4497 670.39 32.4 669.031 32.4 667.2H26.4ZM28.2 676C28.8717 676.504 29.6388 676.699 30.0415 676.789C30.5488 676.903 31.1221 676.981 31.72 677.037C32.9234 677.15 34.4974 677.2 36.4 677.2V671.2C34.5693 671.2 33.21 671.15 32.28 671.063C31.8113 671.019 31.5179 670.972 31.3586 670.936C31.0945 670.876 31.395 670.896 31.8 671.2L28.2 676ZM191.006 760.8H188.006V763.8H191.006V760.8ZM191.006 616.6V613.6H188.006V616.6H191.006ZM217.406 616.6H220.406V613.6H217.406V616.6ZM217.406 734.2H214.406V737.2H217.406V734.2ZM335.006 734.2H338.006V731.2H335.006V734.2ZM335.006 760.8V763.8H338.006V760.8H335.006ZM194.006 760.8V616.6H188.006V760.8H194.006ZM191.006 619.6H217.406V613.6H191.006V619.6ZM214.406 616.6V734.2H220.406V616.6H214.406ZM217.406 737.2H335.006V731.2H217.406V737.2ZM332.006 734.2V760.8H338.006V734.2H332.006ZM335.006 757.8H191.006V763.8H335.006V757.8ZM376.465 752.6L378.587 750.479L376.465 752.6ZM368.265 616.8V613.8H365.265V616.8H368.265ZM394.665 616.8H397.665V613.8H394.665V616.8ZM395.265 733.6L392.865 735.4L393.122 735.743L393.465 736L395.265 733.6ZM484.865 733.6L486.665 736L486.836 735.872L486.987 735.721L484.865 733.6ZM485.665 616.8V613.8H482.665V616.8H485.665ZM512.265 616.8H515.265V613.8H512.265V616.8ZM396.065 757.8C389.276 757.8 383.502 755.394 378.587 750.479L374.344 754.721C380.362 760.74 387.654 763.8 396.065 763.8V757.8ZM378.587 750.479C373.672 745.564 371.265 739.789 371.265 733H365.265C365.265 741.411 368.326 748.703 374.344 754.721L378.587 750.479ZM371.265 733V616.8H365.265V733H371.265ZM368.265 619.8H394.665V613.8H368.265V619.8ZM391.665 616.8V727.2H397.665V616.8H391.665ZM391.665 727.2C391.665 729.103 391.716 730.677 391.828 731.88C391.885 732.478 391.962 733.051 392.076 733.559C392.167 733.961 392.362 734.728 392.865 735.4L397.665 731.8C397.969 732.205 397.989 732.505 397.93 732.241C397.894 732.082 397.846 731.789 397.802 731.32C397.715 730.39 397.665 729.031 397.665 727.2H391.665ZM393.465 736C394.137 736.504 394.904 736.699 395.307 736.789C395.814 736.903 396.387 736.981 396.985 737.037C398.189 737.15 399.763 737.2 401.665 737.2V731.2C399.835 731.2 398.475 731.15 397.545 731.063C397.077 731.019 396.783 730.972 396.624 730.936C396.36 730.876 396.66 730.896 397.065 731.2L393.465 736ZM401.665 737.2H478.665V731.2H401.665V737.2ZM478.665 737.2C480.503 737.2 482.03 737.15 483.204 737.036C483.788 736.98 484.351 736.901 484.852 736.786C485.258 736.692 486.006 736.495 486.665 736L483.065 731.2C483.458 730.905 483.748 730.883 483.503 730.939C483.355 730.974 483.076 731.02 482.626 731.064C481.734 731.15 480.428 731.2 478.665 731.2V737.2ZM486.987 735.721C487.657 735.051 487.948 734.232 488.089 733.762C488.255 733.207 488.365 732.592 488.442 731.972C488.598 730.724 488.665 729.115 488.665 727.2H482.665C482.665 729.018 482.599 730.342 482.489 731.228C482.433 731.674 482.375 731.926 482.342 732.038C482.283 732.235 482.341 731.882 482.744 731.479L486.987 735.721ZM488.665 727.2V616.8H482.665V727.2H488.665ZM485.665 619.8H512.265V613.8H485.665V619.8ZM509.265 616.8V733H515.265V616.8H509.265ZM509.265 733C509.265 739.789 506.859 745.564 501.944 750.479L506.187 754.721C512.205 748.703 515.265 741.411 515.265 733H509.265ZM501.944 750.479C497.029 755.394 491.254 757.8 484.465 757.8V763.8C492.876 763.8 500.168 760.74 506.187 754.721L501.944 750.479ZM484.465 757.8H396.065V763.8H484.465V757.8ZM556.69 760.8H553.69V763.8H556.69V760.8ZM556.69 616.8V613.8H553.69V616.8H556.69ZM689.29 616.8H692.29V613.8H689.29V616.8ZM689.29 643.4V646.4H692.29V643.4H689.29ZM583.29 643.4V640.4H580.29V643.4H583.29ZM583.29 675.4H580.29V678.4H583.29V675.4ZM668.49 675.4H671.49V672.4H668.49V675.4ZM668.49 702V705H671.49V702H668.49ZM583.29 702V699H580.29V702H583.29ZM583.29 734.2H580.29V737.2H583.29V734.2ZM689.29 734.2H692.29V731.2H689.29V734.2ZM689.29 760.8V763.8H692.29V760.8H689.29ZM559.69 760.8V616.8H553.69V760.8H559.69ZM556.69 619.8H689.29V613.8H556.69V619.8ZM686.29 616.8V643.4H692.29V616.8H686.29ZM689.29 640.4H583.29V646.4H689.29V640.4ZM580.29 643.4V675.4H586.29V643.4H580.29ZM583.29 678.4H668.49V672.4H583.29V678.4ZM665.49 675.4V702H671.49V675.4H665.49ZM668.49 699H583.29V705H668.49V699ZM580.29 702V734.2H586.29V702H580.29ZM583.29 737.2H689.29V731.2H583.29V737.2ZM686.29 734.2V760.8H692.29V734.2H686.29ZM689.29 757.8H556.69V763.8H689.29V757.8ZM726.923 760.8H723.923V763.8H726.923V760.8ZM726.923 616.8V613.8H723.923V616.8H726.923ZM755.923 616.8L758.221 614.871L757.322 613.8H755.923V616.8ZM808.123 679L805.825 680.929L808.128 683.672L810.425 680.924L808.123 679ZM860.123 616.8V613.8H858.721L857.822 614.876L860.123 616.8ZM889.323 616.8H892.323V613.8H889.323V616.8ZM889.323 760.8V763.8H892.323V760.8H889.323ZM862.723 760.8H859.723V763.8H862.723V760.8ZM862.723 655.2H865.723V646.964L860.426 653.27L862.723 655.2ZM808.123 720.2L805.832 722.137L808.131 724.855L810.42 722.13L808.123 720.2ZM753.323 655.4L755.614 653.463L750.323 647.207V655.4H753.323ZM753.323 760.8V763.8H756.323V760.8H753.323ZM729.923 760.8V616.8H723.923V760.8H729.923ZM726.923 619.8H755.923V613.8H726.923V619.8ZM753.625 618.729L805.825 680.929L810.421 677.071L758.221 614.871L753.625 618.729ZM810.425 680.924L862.425 618.724L857.822 614.876L805.822 677.076L810.425 680.924ZM860.123 619.8H889.323V613.8H860.123V619.8ZM886.323 616.8V760.8H892.323V616.8H886.323ZM889.323 757.8H862.723V763.8H889.323V757.8ZM865.723 760.8V655.2H859.723V760.8H865.723ZM860.426 653.27L805.826 718.27L810.42 722.13L865.02 657.13L860.426 653.27ZM810.414 718.263L755.614 653.463L751.032 657.337L805.832 722.137L810.414 718.263ZM750.323 655.4V760.8H756.323V655.4H750.323ZM753.323 757.8H726.923V763.8H753.323V757.8ZM942.27 752.6L944.391 750.479L942.27 752.6ZM942.27 625L944.391 627.121L942.27 625ZM1050.67 733.6L1052.47 736L1052.64 735.872L1052.79 735.721L1050.67 733.6ZM1050.67 644.2L1048.55 646.321L1048.7 646.472L1048.87 646.6L1050.67 644.2ZM961.07 644.2L963.191 646.321L961.07 644.2ZM961.07 733.6L958.67 735.4L958.927 735.743L959.27 736L961.07 733.6ZM961.87 757.8C955.081 757.8 949.306 755.394 944.391 750.479L940.149 754.721C946.167 760.74 953.459 763.8 961.87 763.8V757.8ZM944.391 750.479C939.476 745.564 937.07 739.789 937.07 733H931.07C931.07 741.411 934.13 748.703 940.149 754.721L944.391 750.479ZM937.07 733V644.6H931.07V733H937.07ZM937.07 644.6C937.07 637.811 939.476 632.036 944.391 627.121L940.149 622.879C934.13 628.897 931.07 636.189 931.07 644.6H937.07ZM944.391 627.121C949.306 622.206 955.081 619.8 961.87 619.8V613.8C953.459 613.8 946.167 616.86 940.149 622.879L944.391 627.121ZM961.87 619.8H1050.27V613.8H961.87V619.8ZM1050.27 619.8C1057.06 619.8 1062.83 622.206 1067.75 627.121L1071.99 622.879C1065.97 616.86 1058.68 613.8 1050.27 613.8V619.8ZM1067.75 627.121C1072.66 632.036 1075.07 637.811 1075.07 644.6H1081.07C1081.07 636.189 1078.01 628.897 1071.99 622.879L1067.75 627.121ZM1075.07 644.6V733H1081.07V644.6H1075.07ZM1075.07 733C1075.07 739.789 1072.66 745.564 1067.75 750.479L1071.99 754.721C1078.01 748.703 1081.07 741.411 1081.07 733H1075.07ZM1067.75 750.479C1062.83 755.394 1057.06 757.8 1050.27 757.8V763.8C1058.68 763.8 1065.97 760.74 1071.99 754.721L1067.75 750.479ZM1050.27 757.8H961.87V763.8H1050.27V757.8ZM967.47 737.2H1044.47V731.2H967.47V737.2ZM1044.47 737.2C1046.3 737.2 1047.83 737.15 1049.01 737.036C1049.59 736.98 1050.15 736.901 1050.65 736.786C1051.06 736.692 1051.81 736.495 1052.47 736L1048.87 731.2C1049.26 730.905 1049.55 730.883 1049.3 730.939C1049.16 730.974 1048.88 731.02 1048.43 731.064C1047.54 731.15 1046.23 731.2 1044.47 731.2V737.2ZM1052.79 735.721C1053.46 735.051 1053.75 734.232 1053.89 733.762C1054.06 733.207 1054.17 732.592 1054.24 731.972C1054.4 730.724 1054.47 729.115 1054.47 727.2H1048.47C1048.47 729.018 1048.4 730.342 1048.29 731.228C1048.23 731.674 1048.18 731.926 1048.14 732.038C1048.08 732.235 1048.14 731.882 1048.55 731.479L1052.79 735.721ZM1054.47 727.2V650.4H1048.47V727.2H1054.47ZM1054.47 650.4C1054.47 648.488 1054.4 646.889 1054.24 645.666C1054.16 645.062 1054.05 644.445 1053.87 643.887C1053.73 643.459 1053.38 642.485 1052.47 641.8L1048.87 646.6C1048.5 646.325 1048.32 646.034 1048.25 645.917C1048.18 645.787 1048.15 645.712 1048.16 645.738C1048.18 645.797 1048.24 646.005 1048.29 646.434C1048.4 647.278 1048.47 648.578 1048.47 650.4H1054.47ZM1052.79 642.079C1052.13 641.422 1051.33 641.128 1050.86 640.983C1050.31 640.814 1049.71 640.703 1049.1 640.625C1047.88 640.467 1046.32 640.4 1044.47 640.4V646.4C1046.22 646.4 1047.49 646.466 1048.33 646.575C1048.76 646.63 1049 646.686 1049.1 646.717C1049.27 646.772 1048.94 646.711 1048.55 646.321L1052.79 642.079ZM1044.47 640.4H967.47V646.4H1044.47V640.4ZM967.47 640.4C965.555 640.4 963.946 640.467 962.698 640.623C962.078 640.701 961.463 640.81 960.908 640.977C960.438 641.117 959.619 641.409 958.949 642.079L963.191 646.321C962.788 646.725 962.435 646.783 962.632 646.723C962.744 646.69 962.996 646.633 963.442 646.577C964.328 646.466 965.652 646.4 967.47 646.4V640.4ZM958.949 642.079C958.206 642.822 957.973 643.775 957.893 644.103C957.77 644.609 957.69 645.18 957.634 645.761C957.52 646.937 957.47 648.5 957.47 650.4H963.47C963.47 648.567 963.52 647.229 963.606 646.339C963.65 645.887 963.695 645.633 963.723 645.522C963.736 645.467 963.73 645.51 963.687 645.61C963.656 645.681 963.521 645.992 963.191 646.321L958.949 642.079ZM957.47 650.4V727.2H963.47V650.4H957.47ZM957.47 727.2C957.47 729.103 957.52 730.677 957.633 731.88C957.689 732.478 957.767 733.051 957.881 733.559C957.971 733.961 958.166 734.728 958.67 735.4L963.47 731.8C963.774 732.205 963.794 732.505 963.734 732.241C963.698 732.082 963.651 731.789 963.607 731.32C963.52 730.39 963.47 729.031 963.47 727.2H957.47ZM959.27 736C959.942 736.504 960.709 736.699 961.112 736.789C961.619 736.903 962.192 736.981 962.79 737.037C963.993 737.15 965.567 737.2 967.47 737.2V731.2C965.639 731.2 964.28 731.15 963.35 731.063C962.881 731.019 962.588 730.972 962.429 730.936C962.165 730.876 962.465 730.896 962.87 731.2L959.27 736ZM1129.89 752.6L1132.01 750.479L1129.89 752.6ZM1129.89 625L1132.01 627.121L1129.89 625ZM1238.29 733.6L1240.09 736L1240.26 735.872L1240.41 735.721L1238.29 733.6ZM1238.29 644.2L1236.17 646.321L1236.32 646.472L1236.49 646.6L1238.29 644.2ZM1148.69 644.2L1150.81 646.321L1148.69 644.2ZM1148.69 733.6L1146.29 735.4L1146.55 735.743L1146.89 736L1148.69 733.6ZM1149.49 757.8C1142.7 757.8 1136.93 755.394 1132.01 750.479L1127.77 754.721C1133.79 760.74 1141.08 763.8 1149.49 763.8V757.8ZM1132.01 750.479C1127.1 745.564 1124.69 739.789 1124.69 733H1118.69C1118.69 741.411 1121.75 748.703 1127.77 754.721L1132.01 750.479ZM1124.69 733V644.6H1118.69V733H1124.69ZM1124.69 644.6C1124.69 637.811 1127.1 632.036 1132.01 627.121L1127.77 622.879C1121.75 628.897 1118.69 636.189 1118.69 644.6H1124.69ZM1132.01 627.121C1136.93 622.206 1142.7 619.8 1149.49 619.8V613.8C1141.08 613.8 1133.79 616.86 1127.77 622.879L1132.01 627.121ZM1149.49 619.8H1237.89V613.8H1149.49V619.8ZM1237.89 619.8C1244.68 619.8 1250.46 622.206 1255.37 627.121L1259.61 622.879C1253.59 616.86 1246.3 613.8 1237.89 613.8V619.8ZM1255.37 627.121C1260.29 632.036 1262.69 637.811 1262.69 644.6H1268.69C1268.69 636.189 1265.63 628.897 1259.61 622.879L1255.37 627.121ZM1262.69 644.6V733H1268.69V644.6H1262.69ZM1262.69 733C1262.69 739.789 1260.29 745.564 1255.37 750.479L1259.61 754.721C1265.63 748.703 1268.69 741.411 1268.69 733H1262.69ZM1255.37 750.479C1250.46 755.394 1244.68 757.8 1237.89 757.8V763.8C1246.3 763.8 1253.59 760.74 1259.61 754.721L1255.37 750.479ZM1237.89 757.8H1149.49V763.8H1237.89V757.8ZM1155.09 737.2H1232.09V731.2H1155.09V737.2ZM1232.09 737.2C1233.93 737.2 1235.46 737.15 1236.63 737.036C1237.21 736.98 1237.78 736.901 1238.28 736.786C1238.68 736.692 1239.43 736.495 1240.09 736L1236.49 731.2C1236.89 730.905 1237.17 730.883 1236.93 730.939C1236.78 730.974 1236.5 731.02 1236.05 731.064C1235.16 731.15 1233.85 731.2 1232.09 731.2V737.2ZM1240.41 735.721C1241.08 735.051 1241.37 734.232 1241.52 733.762C1241.68 733.207 1241.79 732.592 1241.87 731.972C1242.02 730.724 1242.09 729.115 1242.09 727.2H1236.09C1236.09 729.018 1236.03 730.342 1235.92 731.228C1235.86 731.674 1235.8 731.926 1235.77 732.038C1235.71 732.235 1235.77 731.882 1236.17 731.479L1240.41 735.721ZM1242.09 727.2V650.4H1236.09V727.2H1242.09ZM1242.09 650.4C1242.09 648.488 1242.03 646.889 1241.87 645.666C1241.79 645.062 1241.68 644.445 1241.5 643.887C1241.36 643.459 1241.01 642.485 1240.09 641.8L1236.49 646.6C1236.13 646.325 1235.94 646.034 1235.87 645.917C1235.8 645.787 1235.78 645.712 1235.79 645.738C1235.81 645.797 1235.86 646.005 1235.92 646.434C1236.03 647.278 1236.09 648.578 1236.09 650.4H1242.09ZM1240.41 642.079C1239.76 641.422 1238.96 641.128 1238.49 640.983C1237.94 640.814 1237.33 640.703 1236.73 640.625C1235.51 640.467 1233.94 640.4 1232.09 640.4V646.4C1233.84 646.4 1235.11 646.466 1235.96 646.575C1236.38 646.63 1236.62 646.686 1236.72 646.717C1236.9 646.772 1236.56 646.711 1236.17 646.321L1240.41 642.079ZM1232.09 640.4H1155.09V646.4H1232.09V640.4ZM1155.09 640.4C1153.18 640.4 1151.57 640.467 1150.32 640.623C1149.7 640.701 1149.09 640.81 1148.53 640.977C1148.06 641.117 1147.24 641.409 1146.57 642.079L1150.81 646.321C1150.41 646.725 1150.06 646.783 1150.25 646.723C1150.37 646.69 1150.62 646.633 1151.06 646.577C1151.95 646.466 1153.27 646.4 1155.09 646.4V640.4ZM1146.57 642.079C1145.83 642.822 1145.59 643.775 1145.51 644.103C1145.39 644.609 1145.31 645.18 1145.26 645.761C1145.14 646.937 1145.09 648.5 1145.09 650.4H1151.09C1151.09 648.567 1151.14 647.229 1151.23 646.339C1151.27 645.887 1151.32 645.633 1151.34 645.522C1151.36 645.467 1151.35 645.51 1151.31 645.61C1151.28 645.681 1151.14 645.992 1150.81 646.321L1146.57 642.079ZM1145.09 650.4V727.2H1151.09V650.4H1145.09ZM1145.09 727.2C1145.09 729.103 1145.14 730.677 1145.26 731.88C1145.31 732.478 1145.39 733.051 1145.5 733.559C1145.59 733.961 1145.79 734.728 1146.29 735.4L1151.09 731.8C1151.4 732.205 1151.42 732.505 1151.36 732.241C1151.32 732.082 1151.27 731.789 1151.23 731.32C1151.14 730.39 1151.09 729.031 1151.09 727.2H1145.09ZM1146.89 736C1147.56 736.504 1148.33 736.699 1148.73 736.789C1149.24 736.903 1149.81 736.981 1150.41 737.037C1151.62 737.15 1153.19 737.2 1155.09 737.2V731.2C1153.26 731.2 1151.9 731.15 1150.97 731.063C1150.5 731.019 1150.21 730.972 1150.05 730.936C1149.79 730.876 1150.09 730.896 1150.49 731.2L1146.89 736ZM1309.72 760.8H1306.72V763.8H1309.72V760.8ZM1309.72 616.8V613.8H1306.72V616.8H1309.72ZM1338.72 616.8L1341.01 614.87L1340.11 613.8H1338.72V616.8ZM1427.12 722L1424.82 723.93L1430.12 730.233V722H1427.12ZM1427.12 616.8V613.8H1424.12V616.8H1427.12ZM1453.72 616.8H1456.72V613.8H1453.72V616.8ZM1453.72 760.8V763.8H1456.72V760.8H1453.72ZM1424.72 760.8L1422.42 762.73L1423.32 763.8H1424.72V760.8ZM1336.12 655.4L1338.41 653.47L1333.12 647.169V655.4H1336.12ZM1336.12 760.8V763.8H1339.12V760.8H1336.12ZM1312.72 760.8V616.8H1306.72V760.8H1312.72ZM1309.72 619.8H1338.72V613.8H1309.72V619.8ZM1336.42 618.73L1424.82 723.93L1429.41 720.07L1341.01 614.87L1336.42 618.73ZM1430.12 722V616.8H1424.12V722H1430.12ZM1427.12 619.8H1453.72V613.8H1427.12V619.8ZM1450.72 616.8V760.8H1456.72V616.8H1450.72ZM1453.72 757.8H1424.72V763.8H1453.72V757.8ZM1427.01 758.87L1338.41 653.47L1333.82 657.33L1422.42 762.73L1427.01 758.87ZM1333.12 655.4V760.8H1339.12V655.4H1333.12ZM1336.12 757.8H1309.72V763.8H1336.12V757.8Z" fill="#00E0FF"/>
</g>
</svg>
