<svg width="1476" height="763" viewBox="0 0 1476 763" fill="none" xmlns="http://www.w3.org/2000/svg">
<g opacity="0.86">
<path opacity="0.64" d="M11.9367 148H8.93672V151H11.9367V148ZM11.9367 3.99999V0.999992H8.93672V3.99999H11.9367ZM149.737 65L146.778 64.5068V64.5068L149.737 65ZM148.337 69.6L145.606 68.3586L144.876 69.9645L145.924 71.3832L148.337 69.6ZM153.737 79.2L150.951 80.3142L150.97 80.3615L150.991 80.4082L153.737 79.2ZM128.537 120.8L130.337 123.2L130.507 123.072L130.658 122.921L128.537 120.8ZM128.537 88.8L126.415 90.9213L126.566 91.0721L126.737 91.2L128.537 88.8ZM38.9367 88.8L41.058 90.9213L38.9367 88.8ZM38.9367 120.8L36.5367 122.6L36.7939 122.943L37.1367 123.2L38.9367 120.8ZM122.537 60.8L124.658 62.9213L124.658 62.9213L122.537 60.8ZM122.537 31.4L120.137 33.2L120.394 33.5429L120.737 33.8L122.537 31.4ZM38.9367 31.4L41.058 33.5213L41.058 33.5213L38.9367 31.4ZM38.9367 60.8L36.5367 62.6L36.7939 62.9429L37.1367 63.2L38.9367 60.8ZM14.9367 148V3.99999H8.93672V148H14.9367ZM11.9367 6.99999H122.337V0.999992H11.9367V6.99999ZM122.337 6.99999C129.126 6.99999 134.9 9.40637 139.815 14.3213L144.058 10.0787C138.04 4.06028 130.748 0.999992 122.337 0.999992V6.99999ZM139.815 14.3213C144.73 19.2363 147.137 25.0109 147.137 31.8H153.137C153.137 23.3891 150.076 16.0971 144.058 10.0787L139.815 14.3213ZM147.137 31.8V60H153.137V31.8H147.137ZM147.137 60C147.137 61.5793 147.015 63.0805 146.778 64.5068L152.696 65.4932C152.992 63.7195 153.137 61.8874 153.137 60H147.137ZM146.778 64.5068C146.554 65.8503 146.163 67.1319 145.606 68.3586L151.068 70.8414C151.844 69.1347 152.386 67.3497 152.696 65.4932L146.778 64.5068ZM145.924 71.3832C148.048 74.2565 149.719 77.2332 150.951 80.3142L156.522 78.0858C155.088 74.5002 153.159 71.0769 150.749 67.8168L145.924 71.3832ZM150.991 80.4082C152.306 83.3963 152.937 86.3198 152.937 89.2H158.937C158.937 85.4135 158.101 81.6703 156.483 77.9918L150.991 80.4082ZM152.937 89.2V120.2H158.937V89.2H152.937ZM152.937 120.2C152.937 126.989 150.53 132.764 145.615 137.679L149.858 141.921C155.876 135.903 158.937 128.611 158.937 120.2H152.937ZM145.615 137.679C140.712 142.583 134.875 145 127.937 145V151C136.465 151 143.829 147.951 149.858 141.921L145.615 137.679ZM127.937 145H11.9367V151H127.937V145ZM45.3367 124.4H122.337V118.4H45.3367V124.4ZM122.337 124.4C124.174 124.4 125.702 124.35 126.876 124.236C127.459 124.18 128.022 124.101 128.524 123.986C128.929 123.892 129.677 123.695 130.337 123.2L126.737 118.4C127.13 118.105 127.419 118.083 127.175 118.139C127.026 118.174 126.747 118.22 126.298 118.264C125.405 118.35 124.099 118.4 122.337 118.4V124.4ZM130.658 122.921C131.328 122.251 131.619 121.432 131.76 120.962C131.927 120.407 132.036 119.792 132.114 119.172C132.27 117.924 132.337 116.315 132.337 114.4H126.337C126.337 116.218 126.271 117.542 126.16 118.428C126.104 118.874 126.047 119.126 126.013 119.238C125.954 119.435 126.012 119.082 126.415 118.679L130.658 122.921ZM132.337 114.4V95H126.337V114.4H132.337ZM132.337 95C132.337 93.0883 132.27 91.4889 132.112 90.2661C132.034 89.6617 131.921 89.0447 131.74 88.487C131.601 88.0586 131.25 87.085 130.337 86.4L126.737 91.2C126.37 90.9252 126.187 90.6344 126.119 90.5165C126.046 90.3873 126.025 90.3118 126.033 90.338C126.052 90.3969 126.106 90.6049 126.161 91.0339C126.27 91.8778 126.337 93.1783 126.337 95H132.337ZM130.658 86.6787C130.001 86.022 129.204 85.7282 128.731 85.5827C128.182 85.4137 127.577 85.3029 126.971 85.2247C125.751 85.0673 124.187 85 122.337 85V91C124.086 91 125.356 91.066 126.203 91.1753C126.629 91.2304 126.866 91.2863 126.967 91.3173C127.144 91.3718 126.805 91.3113 126.415 90.9213L130.658 86.6787ZM122.337 85H45.3367V91H122.337V85ZM45.3367 85C43.4218 85 41.8124 85.0672 40.5646 85.2232C39.9444 85.3007 39.3297 85.41 38.7747 85.5765C38.3048 85.7175 37.4854 86.0087 36.8154 86.6787L41.058 90.9213C40.6547 91.3246 40.302 91.3825 40.4988 91.3235C40.6104 91.29 40.8624 91.2326 41.3088 91.1768C42.1944 91.0661 43.5183 91 45.3367 91V85ZM36.8154 86.6787C36.0723 87.4218 35.8392 88.3745 35.7592 88.7034C35.6363 89.2088 35.5569 89.7796 35.5007 90.361C35.3868 91.5375 35.3367 93.0998 35.3367 95H41.3367C41.3367 93.1668 41.3866 91.8292 41.4728 90.939C41.5165 90.487 41.5621 90.2329 41.5892 90.1216C41.6026 90.0666 41.5965 90.1096 41.5535 90.2099C41.5231 90.2809 41.3873 90.5921 41.058 90.9213L36.8154 86.6787ZM35.3367 95V114.4H41.3367V95H35.3367ZM35.3367 114.4C35.3367 116.303 35.387 117.877 35.4998 119.08C35.5559 119.678 35.6332 120.251 35.7474 120.759C35.838 121.161 36.0329 121.928 36.5367 122.6L41.3367 119C41.6405 119.405 41.6604 119.705 41.6011 119.441C41.5652 119.282 41.5176 118.989 41.4736 118.52C41.3864 117.59 41.3367 116.231 41.3367 114.4H35.3367ZM37.1367 123.2C37.8084 123.704 38.5755 123.899 38.9782 123.989C39.4855 124.103 40.0588 124.181 40.6567 124.237C41.8601 124.35 43.4341 124.4 45.3367 124.4V118.4C43.506 118.4 42.1467 118.35 41.2167 118.263C40.748 118.219 40.4546 118.172 40.2953 118.136C40.0313 118.076 40.3317 118.096 40.7367 118.4L37.1367 123.2ZM45.3367 64.4H116.537V58.4H45.3367V64.4ZM116.537 64.4C118.372 64.4 119.888 64.3499 121.035 64.2351C121.603 64.1784 122.164 64.098 122.664 63.9729C123.002 63.8885 123.928 63.651 124.658 62.9213L120.415 58.6787C120.734 58.3606 121.033 58.2256 121.109 58.1921C121.211 58.1475 121.258 58.1399 121.209 58.1521C121.11 58.177 120.871 58.2216 120.438 58.2649C119.586 58.3501 118.302 58.4 116.537 58.4V64.4ZM124.658 62.9213C125.328 62.2513 125.619 61.4319 125.76 60.962C125.927 60.407 126.036 59.7923 126.114 59.1721C126.27 57.9243 126.337 56.3149 126.337 54.4H120.337C120.337 56.2184 120.271 57.5423 120.16 58.4279C120.104 58.8743 120.047 59.1263 120.013 59.238C119.954 59.4347 120.012 59.082 120.415 58.6787L124.658 62.9213ZM126.337 54.4V37.6H120.337V54.4H126.337ZM126.337 37.6C126.337 35.6883 126.27 34.0889 126.112 32.8661C126.034 32.2617 125.921 31.6447 125.74 31.087C125.601 30.6586 125.25 29.685 124.337 29L120.737 33.8C120.37 33.5252 120.187 33.2344 120.12 33.1165C120.046 32.9873 120.025 32.9118 120.033 32.938C120.052 32.9969 120.106 33.2049 120.161 33.6339C120.27 34.4778 120.337 35.7783 120.337 37.6H126.337ZM124.937 29.6C124.266 28.7055 123.322 28.3496 122.885 28.2039C122.332 28.0196 121.724 27.9051 121.133 27.8263C119.938 27.6669 118.384 27.6 116.537 27.6V33.6C118.29 33.6 119.535 33.6664 120.34 33.7737C120.749 33.8282 120.941 33.8804 120.988 33.896C121.008 33.9027 120.93 33.8795 120.8 33.8038C120.68 33.7336 120.401 33.5526 120.137 33.2L124.937 29.6ZM116.537 27.6H45.3367V33.6H116.537V27.6ZM45.3367 27.6C43.4218 27.6 41.8124 27.6672 40.5646 27.8232C39.9444 27.9007 39.3297 28.01 38.7747 28.1765C38.3048 28.3175 37.4854 28.6087 36.8154 29.2787L41.058 33.5213C40.6547 33.9246 40.302 33.9825 40.4988 33.9235C40.6104 33.89 40.8624 33.8326 41.3088 33.7768C42.1944 33.6661 43.5183 33.6 45.3367 33.6V27.6ZM36.8154 29.2787C36.0723 30.0217 35.8392 30.9745 35.7592 31.3034C35.6363 31.8088 35.5569 32.3796 35.5007 32.961C35.3868 34.1374 35.3367 35.6998 35.3367 37.6H41.3367C41.3367 35.7668 41.3866 34.4292 41.4728 33.539C41.5165 33.087 41.5621 32.8329 41.5892 32.7215C41.6026 32.6666 41.5965 32.7096 41.5535 32.8099C41.5231 32.8809 41.3873 33.1921 41.058 33.5213L36.8154 29.2787ZM35.3367 37.6V54.4H41.3367V37.6H35.3367ZM35.3367 54.4C35.3367 56.3026 35.387 57.8766 35.4998 59.08C35.5559 59.678 35.6332 60.2512 35.7474 60.7585C35.838 61.1612 36.0329 61.9283 36.5367 62.6L41.3367 59C41.6405 59.4051 41.6604 59.7055 41.6011 59.4415C41.5652 59.2821 41.5176 58.9887 41.4736 58.52C41.3864 57.59 41.3367 56.2307 41.3367 54.4H35.3367ZM37.1367 63.2C37.8084 63.7038 38.5755 63.8987 38.9782 63.9893C39.4855 64.1035 40.0588 64.1808 40.6567 64.2369C41.8601 64.3497 43.4341 64.4 45.3367 64.4V58.4C43.506 58.4 42.1467 58.3503 41.2167 58.2631C40.748 58.2191 40.4546 58.1715 40.2953 58.1357C40.0312 58.0763 40.3317 58.0962 40.7367 58.4L37.1367 63.2ZM199.943 148H196.943V151H199.943V148ZM199.943 3.8V0.799995H196.943V3.8H199.943ZM226.343 3.8H229.343V0.799995H226.343V3.8ZM226.343 121.4H223.343V124.4H226.343V121.4ZM343.943 121.4H346.943V118.4H343.943V121.4ZM343.943 148V151H346.943V148H343.943ZM202.943 148V3.8H196.943V148H202.943ZM199.943 6.8H226.343V0.799995H199.943V6.8ZM223.343 3.8V121.4H229.343V3.8H223.343ZM226.343 124.4H343.943V118.4H226.343V124.4ZM340.943 121.4V148H346.943V121.4H340.943ZM343.943 145H199.943V151H343.943V145ZM385.402 139.8L387.524 137.679L385.402 139.8ZM377.202 3.99999V0.999992H374.202V3.99999H377.202ZM403.602 3.99999H406.602V0.999992H403.602V3.99999ZM404.202 120.8L401.802 122.6L402.059 122.943L402.402 123.2L404.202 120.8ZM493.802 120.8L495.602 123.2L495.773 123.072L495.924 122.921L493.802 120.8ZM494.602 3.99999V0.999992H491.602V3.99999H494.602ZM521.202 3.99999H524.202V0.999992H521.202V3.99999ZM405.002 145C398.213 145 392.439 142.594 387.524 137.679L383.281 141.921C389.299 147.94 396.591 151 405.002 151V145ZM387.524 137.679C382.609 132.764 380.202 126.989 380.202 120.2H374.202C374.202 128.611 377.263 135.903 383.281 141.921L387.524 137.679ZM380.202 120.2V3.99999H374.202V120.2H380.202ZM377.202 6.99999H403.602V0.999992H377.202V6.99999ZM400.602 3.99999V114.4H406.602V3.99999H400.602ZM400.602 114.4C400.602 116.303 400.653 117.877 400.765 119.08C400.822 119.678 400.899 120.251 401.013 120.759C401.104 121.161 401.299 121.928 401.802 122.6L406.602 119C406.906 119.405 406.926 119.705 406.867 119.441C406.831 119.282 406.783 118.989 406.739 118.52C406.652 117.59 406.602 116.231 406.602 114.4H400.602ZM402.402 123.2C403.074 123.704 403.841 123.899 404.244 123.989C404.751 124.103 405.324 124.181 405.922 124.237C407.126 124.35 408.7 124.4 410.602 124.4V118.4C408.772 118.4 407.412 118.35 406.482 118.263C406.014 118.219 405.72 118.172 405.561 118.136C405.297 118.076 405.597 118.096 406.002 118.4L402.402 123.2ZM410.602 124.4H487.602V118.4H410.602V124.4ZM487.602 124.4C489.44 124.4 490.967 124.35 492.141 124.236C492.725 124.18 493.288 124.101 493.789 123.986C494.195 123.892 494.943 123.695 495.602 123.2L492.002 118.4C492.395 118.105 492.685 118.083 492.44 118.139C492.292 118.174 492.013 118.22 491.563 118.264C490.671 118.35 489.365 118.4 487.602 118.4V124.4ZM495.924 122.921C496.594 122.251 496.885 121.432 497.026 120.962C497.192 120.407 497.302 119.792 497.379 119.172C497.535 117.924 497.602 116.315 497.602 114.4H491.602C491.602 116.218 491.536 117.542 491.426 118.428C491.37 118.874 491.312 119.126 491.279 119.238C491.22 119.435 491.278 119.082 491.681 118.679L495.924 122.921ZM497.602 114.4V3.99999H491.602V114.4H497.602ZM494.602 6.99999H521.202V0.999992H494.602V6.99999ZM518.202 3.99999V120.2H524.202V3.99999H518.202ZM518.202 120.2C518.202 126.989 515.796 132.764 510.881 137.679L515.124 141.921C521.142 135.903 524.202 128.611 524.202 120.2H518.202ZM510.881 137.679C505.966 142.594 500.191 145 493.402 145V151C501.813 151 509.105 147.94 515.124 141.921L510.881 137.679ZM493.402 145H405.002V151H493.402V145ZM565.627 148H562.627V151H565.627V148ZM565.627 3.99999V0.999992H562.627V3.99999H565.627ZM698.227 3.99999H701.227V0.999992H698.227V3.99999ZM698.227 30.6V33.6H701.227V30.6H698.227ZM592.227 30.6V27.6H589.227V30.6H592.227ZM592.227 62.6H589.227V65.6H592.227V62.6ZM677.427 62.6H680.427V59.6H677.427V62.6ZM677.427 89.2V92.2H680.427V89.2H677.427ZM592.227 89.2V86.2H589.227V89.2H592.227ZM592.227 121.4H589.227V124.4H592.227V121.4ZM698.227 121.4H701.227V118.4H698.227V121.4ZM698.227 148V151H701.227V148H698.227ZM568.627 148V3.99999H562.627V148H568.627ZM565.627 6.99999H698.227V0.999992H565.627V6.99999ZM695.227 3.99999V30.6H701.227V3.99999H695.227ZM698.227 27.6H592.227V33.6H698.227V27.6ZM589.227 30.6V62.6H595.227V30.6H589.227ZM592.227 65.6H677.427V59.6H592.227V65.6ZM674.427 62.6V89.2H680.427V62.6H674.427ZM677.427 86.2H592.227V92.2H677.427V86.2ZM589.227 89.2V121.4H595.227V89.2H589.227ZM592.227 124.4H698.227V118.4H592.227V124.4ZM695.227 121.4V148H701.227V121.4H695.227ZM698.227 145H565.627V151H698.227V145ZM735.86 148H732.86V151H735.86V148ZM735.86 3.99999V0.999992H732.86V3.99999H735.86ZM764.86 3.99999L767.158 2.07146L766.259 0.999992H764.86V3.99999ZM817.06 66.2L814.762 68.1285L817.065 70.872L819.362 68.1242L817.06 66.2ZM869.06 3.99999V0.999992H867.658L866.759 2.07581L869.06 3.99999ZM898.26 3.99999H901.26V0.999992H898.26V3.99999ZM898.26 148V151H901.26V148H898.26ZM871.66 148H868.66V151H871.66V148ZM871.66 42.4H874.66V34.1643L869.363 40.4704L871.66 42.4ZM817.06 107.4L814.769 109.337L817.068 112.055L819.357 109.33L817.06 107.4ZM762.26 42.6L764.551 40.6628L759.26 34.4067V42.6H762.26ZM762.26 148V151H765.26V148H762.26ZM738.86 148V3.99999H732.86V148H738.86ZM735.86 6.99999H764.86V0.999992H735.86V6.99999ZM762.562 5.92853L814.762 68.1285L819.358 64.2715L767.158 2.07146L762.562 5.92853ZM819.362 68.1242L871.362 5.92419L866.759 2.07581L814.759 64.2758L819.362 68.1242ZM869.06 6.99999H898.26V0.999992H869.06V6.99999ZM895.26 3.99999V148H901.26V3.99999H895.26ZM898.26 145H871.66V151H898.26V145ZM874.66 148V42.4H868.66V148H874.66ZM869.363 40.4704L814.763 105.47L819.357 109.33L873.957 44.3296L869.363 40.4704ZM819.351 105.463L764.551 40.6628L759.969 44.5372L814.769 109.337L819.351 105.463ZM759.26 42.6V148H765.26V42.6H759.26ZM762.26 145H735.86V151H762.26V145ZM951.207 139.8L953.328 137.679L951.207 139.8ZM951.207 12.2L953.328 14.3213L951.207 12.2ZM1059.61 120.8L1061.41 123.2L1061.58 123.072L1061.73 122.921L1059.61 120.8ZM1059.61 31.4L1057.49 33.5213L1057.64 33.6721L1057.81 33.8L1059.61 31.4ZM970.007 31.4L972.128 33.5213V33.5213L970.007 31.4ZM970.007 120.8L967.607 122.6L967.864 122.943L968.207 123.2L970.007 120.8ZM970.807 145C964.018 145 958.243 142.594 953.328 137.679L949.086 141.921C955.104 147.94 962.396 151 970.807 151V145ZM953.328 137.679C948.413 132.764 946.007 126.989 946.007 120.2H940.007C940.007 128.611 943.067 135.903 949.086 141.921L953.328 137.679ZM946.007 120.2V31.8H940.007V120.2H946.007ZM946.007 31.8C946.007 25.0109 948.413 19.2363 953.328 14.3213L949.086 10.0787C943.067 16.0971 940.007 23.3891 940.007 31.8H946.007ZM953.328 14.3213C958.243 9.40637 964.018 6.99999 970.807 6.99999V0.999992C962.396 0.999992 955.104 4.06028 949.086 10.0787L953.328 14.3213ZM970.807 6.99999H1059.21V0.999992H970.807V6.99999ZM1059.21 6.99999C1066 6.99999 1071.77 9.40637 1076.69 14.3213L1080.93 10.0787C1074.91 4.06029 1067.62 0.999992 1059.21 0.999992V6.99999ZM1076.69 14.3213C1081.6 19.2363 1084.01 25.0109 1084.01 31.8H1090.01C1090.01 23.3891 1086.95 16.0971 1080.93 10.0787L1076.69 14.3213ZM1084.01 31.8V120.2H1090.01V31.8H1084.01ZM1084.01 120.2C1084.01 126.989 1081.6 132.764 1076.69 137.679L1080.93 141.921C1086.95 135.903 1090.01 128.611 1090.01 120.2H1084.01ZM1076.69 137.679C1071.77 142.594 1066 145 1059.21 145V151C1067.62 151 1074.91 147.94 1080.93 141.921L1076.69 137.679ZM1059.21 145H970.807V151H1059.21V145ZM976.407 124.4H1053.41V118.4H976.407V124.4ZM1053.41 124.4C1055.24 124.4 1056.77 124.35 1057.95 124.236C1058.53 124.18 1059.09 124.101 1059.59 123.986C1060 123.892 1060.75 123.695 1061.41 123.2L1057.81 118.4C1058.2 118.105 1058.49 118.083 1058.24 118.139C1058.1 118.174 1057.82 118.22 1057.37 118.264C1056.48 118.35 1055.17 118.4 1053.41 118.4V124.4ZM1061.73 122.921C1062.4 122.251 1062.69 121.432 1062.83 120.962C1063 120.407 1063.11 119.792 1063.18 119.172C1063.34 117.924 1063.41 116.315 1063.41 114.4H1057.41C1057.41 116.218 1057.34 117.542 1057.23 118.428C1057.17 118.874 1057.12 119.126 1057.08 119.238C1057.02 119.435 1057.08 119.082 1057.49 118.679L1061.73 122.921ZM1063.41 114.4V37.6H1057.41V114.4H1063.41ZM1063.41 37.6C1063.41 35.6883 1063.34 34.0889 1063.18 32.8661C1063.1 32.2617 1062.99 31.6447 1062.81 31.087C1062.67 30.6586 1062.32 29.685 1061.41 29L1057.81 33.8C1057.44 33.5252 1057.26 33.2344 1057.19 33.1165C1057.12 32.9873 1057.09 32.9118 1057.1 32.938C1057.12 32.9969 1057.18 33.2049 1057.23 33.6339C1057.34 34.4778 1057.41 35.7783 1057.41 37.6H1063.41ZM1061.73 29.2787C1061.07 28.622 1060.27 28.3282 1059.8 28.1827C1059.25 28.0137 1058.65 27.903 1058.04 27.8247C1056.82 27.6673 1055.26 27.6 1053.41 27.6V33.6C1055.16 33.6 1056.43 33.666 1057.27 33.7753C1057.7 33.8304 1057.94 33.8863 1058.04 33.9173C1058.21 33.9718 1057.88 33.9113 1057.49 33.5213L1061.73 29.2787ZM1053.41 27.6H976.407V33.6H1053.41V27.6ZM976.407 27.6C974.492 27.6 972.883 27.6672 971.635 27.8232C971.015 27.9007 970.4 28.01 969.845 28.1765C969.375 28.3175 968.556 28.6087 967.886 29.2787L972.128 33.5213C971.725 33.9246 971.372 33.9825 971.569 33.9235C971.681 33.89 971.933 33.8326 972.379 33.7768C973.265 33.6661 974.589 33.6 976.407 33.6V27.6ZM967.886 29.2787C967.143 30.0217 966.91 30.9745 966.83 31.3034C966.707 31.8088 966.627 32.3796 966.571 32.961C966.457 34.1374 966.407 35.6998 966.407 37.6H972.407C972.407 35.7668 972.457 34.4292 972.543 33.539C972.587 33.087 972.632 32.8329 972.66 32.7216C972.673 32.6666 972.667 32.7096 972.624 32.8099C972.593 32.8809 972.458 33.1921 972.128 33.5213L967.886 29.2787ZM966.407 37.6V114.4H972.407V37.6H966.407ZM966.407 114.4C966.407 116.303 966.457 117.877 966.57 119.08C966.626 119.678 966.704 120.251 966.818 120.759C966.908 121.161 967.103 121.928 967.607 122.6L972.407 119C972.711 119.405 972.731 119.705 972.671 119.441C972.635 119.282 972.588 118.989 972.544 118.52C972.457 117.59 972.407 116.231 972.407 114.4H966.407ZM968.207 123.2C968.879 123.704 969.646 123.899 970.049 123.989C970.556 124.103 971.129 124.181 971.727 124.237C972.93 124.35 974.504 124.4 976.407 124.4V118.4C974.576 118.4 973.217 118.35 972.287 118.263C971.818 118.219 971.525 118.172 971.366 118.136C971.102 118.076 971.402 118.096 971.807 118.4L968.207 123.2ZM1138.83 139.8L1140.95 137.679L1138.83 139.8ZM1138.83 12.2L1140.95 14.3213L1138.83 12.2ZM1247.23 120.8L1249.03 123.2L1249.2 123.072L1249.35 122.921L1247.23 120.8ZM1247.23 31.4L1245.11 33.5213L1245.26 33.6721L1245.43 33.8L1247.23 31.4ZM1157.63 31.4L1159.75 33.5213L1159.75 33.5213L1157.63 31.4ZM1157.63 120.8L1155.23 122.6L1155.49 122.943L1155.83 123.2L1157.63 120.8ZM1158.43 145C1151.64 145 1145.87 142.594 1140.95 137.679L1136.71 141.921C1142.73 147.94 1150.02 151 1158.43 151V145ZM1140.95 137.679C1136.04 132.764 1133.63 126.989 1133.63 120.2H1127.63C1127.63 128.611 1130.69 135.903 1136.71 141.921L1140.95 137.679ZM1133.63 120.2V31.8H1127.63V120.2H1133.63ZM1133.63 31.8C1133.63 25.0109 1136.04 19.2363 1140.95 14.3213L1136.71 10.0787C1130.69 16.0971 1127.63 23.3891 1127.63 31.8H1133.63ZM1140.95 14.3213C1145.87 9.40637 1151.64 6.99999 1158.43 6.99999V0.999992C1150.02 0.999992 1142.73 4.06028 1136.71 10.0787L1140.95 14.3213ZM1158.43 6.99999H1246.83V0.999992H1158.43V6.99999ZM1246.83 6.99999C1253.62 6.99999 1259.4 9.40637 1264.31 14.3213L1268.55 10.0787C1262.53 4.06029 1255.24 0.999992 1246.83 0.999992V6.99999ZM1264.31 14.3213C1269.23 19.2363 1271.63 25.0109 1271.63 31.8H1277.63C1277.63 23.3891 1274.57 16.0971 1268.55 10.0787L1264.31 14.3213ZM1271.63 31.8V120.2H1277.63V31.8H1271.63ZM1271.63 120.2C1271.63 126.989 1269.23 132.764 1264.31 137.679L1268.55 141.921C1274.57 135.903 1277.63 128.611 1277.63 120.2H1271.63ZM1264.31 137.679C1259.4 142.594 1253.62 145 1246.83 145V151C1255.24 151 1262.53 147.94 1268.55 141.921L1264.31 137.679ZM1246.83 145H1158.43V151H1246.83V145ZM1164.03 124.4H1241.03V118.4H1164.03V124.4ZM1241.03 124.4C1242.87 124.4 1244.4 124.35 1245.57 124.236C1246.15 124.18 1246.72 124.101 1247.22 123.986C1247.62 123.892 1248.37 123.695 1249.03 123.2L1245.43 118.4C1245.83 118.105 1246.11 118.083 1245.87 118.139C1245.72 118.174 1245.44 118.22 1244.99 118.264C1244.1 118.35 1242.79 118.4 1241.03 118.4V124.4ZM1249.35 122.921C1250.02 122.251 1250.31 121.432 1250.46 120.962C1250.62 120.407 1250.73 119.792 1250.81 119.172C1250.96 117.924 1251.03 116.315 1251.03 114.4H1245.03C1245.03 116.218 1244.97 117.542 1244.86 118.428C1244.8 118.874 1244.74 119.126 1244.71 119.238C1244.65 119.435 1244.71 119.082 1245.11 118.679L1249.35 122.921ZM1251.03 114.4V37.6H1245.03V114.4H1251.03ZM1251.03 37.6C1251.03 35.6883 1250.97 34.0889 1250.81 32.8661C1250.73 32.2617 1250.62 31.6447 1250.44 31.087C1250.3 30.6586 1249.95 29.685 1249.03 29L1245.43 33.8C1245.07 33.5252 1244.88 33.2344 1244.81 33.1165C1244.74 32.9873 1244.72 32.9118 1244.73 32.938C1244.75 32.9969 1244.8 33.2049 1244.86 33.6339C1244.97 34.4778 1245.03 35.7783 1245.03 37.6H1251.03ZM1249.35 29.2787C1248.7 28.622 1247.9 28.3282 1247.43 28.1827C1246.88 28.0137 1246.27 27.903 1245.67 27.8247C1244.45 27.6673 1242.88 27.6 1241.03 27.6V33.6C1242.78 33.6 1244.05 33.666 1244.9 33.7753C1245.32 33.8304 1245.56 33.8863 1245.66 33.9173C1245.84 33.9718 1245.5 33.9113 1245.11 33.5213L1249.35 29.2787ZM1241.03 27.6H1164.03V33.6H1241.03V27.6ZM1164.03 27.6C1162.12 27.6 1160.51 27.6672 1159.26 27.8232C1158.64 27.9007 1158.03 28.01 1157.47 28.1765C1157 28.3175 1156.18 28.6087 1155.51 29.2787L1159.75 33.5213C1159.35 33.9246 1159 33.9825 1159.19 33.9235C1159.31 33.89 1159.56 33.8326 1160 33.7768C1160.89 33.6661 1162.21 33.6 1164.03 33.6V27.6ZM1155.51 29.2787C1154.77 30.0217 1154.53 30.9745 1154.45 31.3034C1154.33 31.8088 1154.25 32.3796 1154.2 32.961C1154.08 34.1374 1154.03 35.6998 1154.03 37.6H1160.03C1160.03 35.7668 1160.08 34.4292 1160.17 33.539C1160.21 33.087 1160.26 32.8329 1160.28 32.7216C1160.3 32.6666 1160.29 32.7096 1160.25 32.8099C1160.22 32.8809 1160.08 33.1921 1159.75 33.5213L1155.51 29.2787ZM1154.03 37.6V114.4H1160.03V37.6H1154.03ZM1154.03 114.4C1154.03 116.303 1154.08 117.877 1154.2 119.08C1154.25 119.678 1154.33 120.251 1154.44 120.759C1154.53 121.161 1154.73 121.928 1155.23 122.6L1160.03 119C1160.34 119.405 1160.36 119.705 1160.3 119.441C1160.26 119.282 1160.21 118.989 1160.17 118.52C1160.08 117.59 1160.03 116.231 1160.03 114.4H1154.03ZM1155.83 123.2C1156.5 123.704 1157.27 123.899 1157.67 123.989C1158.18 124.103 1158.75 124.181 1159.35 124.237C1160.56 124.35 1162.13 124.4 1164.03 124.4V118.4C1162.2 118.4 1160.84 118.35 1159.91 118.263C1159.44 118.219 1159.15 118.172 1158.99 118.136C1158.73 118.076 1159.03 118.096 1159.43 118.4L1155.83 123.2ZM1318.66 148H1315.66V151H1318.66V148ZM1318.66 3.99999V0.999992H1315.66V3.99999H1318.66ZM1347.66 3.99999L1349.95 2.07001L1349.05 0.999992H1347.66V3.99999ZM1436.06 109.2L1433.76 111.13L1439.06 117.433V109.2H1436.06ZM1436.06 3.99999V0.999992H1433.06V3.99999H1436.06ZM1462.66 3.99999H1465.66V0.999992H1462.66V3.99999ZM1462.66 148V151H1465.66V148H1462.66ZM1433.66 148L1431.36 149.93L1432.26 151H1433.66V148ZM1345.06 42.6L1347.35 40.6696L1342.06 34.3689V42.6H1345.06ZM1345.06 148V151H1348.06V148H1345.06ZM1321.66 148V3.99999H1315.66V148H1321.66ZM1318.66 6.99999H1347.66V0.999992H1318.66V6.99999ZM1345.36 5.92998L1433.76 111.13L1438.35 107.27L1349.95 2.07001L1345.36 5.92998ZM1439.06 109.2V3.99999H1433.06V109.2H1439.06ZM1436.06 6.99999H1462.66V0.999992H1436.06V6.99999ZM1459.66 3.99999V148H1465.66V3.99999H1459.66ZM1462.66 145H1433.66V151H1462.66V145ZM1435.95 146.07L1347.35 40.6696L1342.76 44.5304L1431.36 149.93L1435.95 146.07ZM1342.06 42.6V148H1348.06V42.6H1342.06ZM1345.06 145H1318.66V151H1345.06V145Z" fill="#00E0FF" fill-opacity="0.95"/>
<path opacity="0.33" d="M11.9367 353H8.93672V356H11.9367V353ZM11.9367 209V206H8.93672V209H11.9367ZM149.737 270L146.778 269.507V269.507L149.737 270ZM148.337 274.6L145.606 273.359L144.876 274.965L145.924 276.383L148.337 274.6ZM153.737 284.2L150.951 285.314L150.97 285.362L150.991 285.408L153.737 284.2ZM128.537 325.8L130.337 328.2L130.507 328.072L130.658 327.921L128.537 325.8ZM128.537 293.8L126.415 295.921L126.566 296.072L126.737 296.2L128.537 293.8ZM38.9367 293.8L41.058 295.921L38.9367 293.8ZM38.9367 325.8L36.5367 327.6L36.7939 327.943L37.1367 328.2L38.9367 325.8ZM122.537 265.8L124.658 267.921L124.658 267.921L122.537 265.8ZM122.537 236.4L120.137 238.2L120.394 238.543L120.737 238.8L122.537 236.4ZM38.9367 236.4L41.058 238.521L41.058 238.521L38.9367 236.4ZM38.9367 265.8L36.5367 267.6L36.7939 267.943L37.1367 268.2L38.9367 265.8ZM14.9367 353V209H8.93672V353H14.9367ZM11.9367 212H122.337V206H11.9367V212ZM122.337 212C129.126 212 134.9 214.406 139.815 219.321L144.058 215.079C138.04 209.06 130.748 206 122.337 206V212ZM139.815 219.321C144.73 224.236 147.137 230.011 147.137 236.8H153.137C153.137 228.389 150.076 221.097 144.058 215.079L139.815 219.321ZM147.137 236.8V265H153.137V236.8H147.137ZM147.137 265C147.137 266.579 147.015 268.08 146.778 269.507L152.696 270.493C152.992 268.72 153.137 266.887 153.137 265H147.137ZM146.778 269.507C146.554 270.85 146.163 272.132 145.606 273.359L151.068 275.841C151.844 274.135 152.386 272.35 152.696 270.493L146.778 269.507ZM145.924 276.383C148.048 279.256 149.719 282.233 150.951 285.314L156.522 283.086C155.088 279.5 153.159 276.077 150.749 272.817L145.924 276.383ZM150.991 285.408C152.306 288.396 152.937 291.32 152.937 294.2H158.937C158.937 290.414 158.101 286.67 156.483 282.992L150.991 285.408ZM152.937 294.2V325.2H158.937V294.2H152.937ZM152.937 325.2C152.937 331.989 150.53 337.764 145.615 342.679L149.858 346.921C155.876 340.903 158.937 333.611 158.937 325.2H152.937ZM145.615 342.679C140.712 347.583 134.875 350 127.937 350V356C136.465 356 143.829 352.951 149.858 346.921L145.615 342.679ZM127.937 350H11.9367V356H127.937V350ZM45.3367 329.4H122.337V323.4H45.3367V329.4ZM122.337 329.4C124.174 329.4 125.702 329.35 126.876 329.236C127.459 329.18 128.022 329.101 128.524 328.986C128.929 328.892 129.677 328.695 130.337 328.2L126.737 323.4C127.13 323.105 127.419 323.083 127.175 323.139C127.026 323.174 126.747 323.22 126.298 323.264C125.405 323.35 124.099 323.4 122.337 323.4V329.4ZM130.658 327.921C131.328 327.251 131.619 326.432 131.76 325.962C131.927 325.407 132.036 324.792 132.114 324.172C132.27 322.924 132.337 321.315 132.337 319.4H126.337C126.337 321.218 126.271 322.542 126.16 323.428C126.104 323.874 126.047 324.126 126.013 324.238C125.954 324.435 126.012 324.082 126.415 323.679L130.658 327.921ZM132.337 319.4V300H126.337V319.4H132.337ZM132.337 300C132.337 298.088 132.27 296.489 132.112 295.266C132.034 294.662 131.921 294.045 131.74 293.487C131.601 293.059 131.25 292.085 130.337 291.4L126.737 296.2C126.37 295.925 126.187 295.634 126.119 295.517C126.046 295.387 126.025 295.312 126.033 295.338C126.052 295.397 126.106 295.605 126.161 296.034C126.27 296.878 126.337 298.178 126.337 300H132.337ZM130.658 291.679C130.001 291.022 129.204 290.728 128.731 290.583C128.182 290.414 127.577 290.303 126.971 290.225C125.751 290.067 124.187 290 122.337 290V296C124.086 296 125.356 296.066 126.203 296.175C126.629 296.23 126.866 296.286 126.967 296.317C127.144 296.372 126.805 296.311 126.415 295.921L130.658 291.679ZM122.337 290H45.3367V296H122.337V290ZM45.3367 290C43.4218 290 41.8124 290.067 40.5646 290.223C39.9444 290.301 39.3297 290.41 38.7747 290.577C38.3048 290.717 37.4854 291.009 36.8154 291.679L41.058 295.921C40.6547 296.325 40.302 296.383 40.4988 296.323C40.6104 296.29 40.8624 296.233 41.3088 296.177C42.1944 296.066 43.5183 296 45.3367 296V290ZM36.8154 291.679C36.0723 292.422 35.8392 293.375 35.7592 293.703C35.6363 294.209 35.5569 294.78 35.5007 295.361C35.3868 296.537 35.3367 298.1 35.3367 300H41.3367C41.3367 298.167 41.3866 296.829 41.4728 295.939C41.5165 295.487 41.5621 295.233 41.5892 295.122C41.6026 295.067 41.5965 295.11 41.5535 295.21C41.5231 295.281 41.3873 295.592 41.058 295.921L36.8154 291.679ZM35.3367 300V319.4H41.3367V300H35.3367ZM35.3367 319.4C35.3367 321.303 35.387 322.877 35.4998 324.08C35.5559 324.678 35.6332 325.251 35.7474 325.759C35.838 326.161 36.0329 326.928 36.5367 327.6L41.3367 324C41.6405 324.405 41.6604 324.705 41.6011 324.441C41.5652 324.282 41.5176 323.989 41.4736 323.52C41.3864 322.59 41.3367 321.231 41.3367 319.4H35.3367ZM37.1367 328.2C37.8084 328.704 38.5755 328.899 38.9782 328.989C39.4855 329.103 40.0588 329.181 40.6567 329.237C41.8601 329.35 43.4341 329.4 45.3367 329.4V323.4C43.506 323.4 42.1467 323.35 41.2167 323.263C40.748 323.219 40.4546 323.172 40.2953 323.136C40.0313 323.076 40.3317 323.096 40.7367 323.4L37.1367 328.2ZM45.3367 269.4H116.537V263.4H45.3367V269.4ZM116.537 269.4C118.372 269.4 119.888 269.35 121.035 269.235C121.603 269.178 122.164 269.098 122.664 268.973C123.002 268.889 123.928 268.651 124.658 267.921L120.415 263.679C120.734 263.361 121.033 263.226 121.109 263.192C121.211 263.147 121.258 263.14 121.209 263.152C121.11 263.177 120.871 263.222 120.438 263.265C119.586 263.35 118.302 263.4 116.537 263.4V269.4ZM124.658 267.921C125.328 267.251 125.619 266.432 125.76 265.962C125.927 265.407 126.036 264.792 126.114 264.172C126.27 262.924 126.337 261.315 126.337 259.4H120.337C120.337 261.218 120.271 262.542 120.16 263.428C120.104 263.874 120.047 264.126 120.013 264.238C119.954 264.435 120.012 264.082 120.415 263.679L124.658 267.921ZM126.337 259.4V242.6H120.337V259.4H126.337ZM126.337 242.6C126.337 240.688 126.27 239.089 126.112 237.866C126.034 237.262 125.921 236.645 125.74 236.087C125.601 235.659 125.25 234.685 124.337 234L120.737 238.8C120.37 238.525 120.187 238.234 120.12 238.117C120.046 237.987 120.025 237.912 120.033 237.938C120.052 237.997 120.106 238.205 120.161 238.634C120.27 239.478 120.337 240.778 120.337 242.6H126.337ZM124.937 234.6C124.266 233.706 123.322 233.35 122.885 233.204C122.332 233.02 121.724 232.905 121.133 232.826C119.938 232.667 118.384 232.6 116.537 232.6V238.6C118.29 238.6 119.535 238.666 120.34 238.774C120.749 238.828 120.941 238.88 120.988 238.896C121.008 238.903 120.93 238.879 120.8 238.804C120.68 238.734 120.401 238.553 120.137 238.2L124.937 234.6ZM116.537 232.6H45.3367V238.6H116.537V232.6ZM45.3367 232.6C43.4218 232.6 41.8124 232.667 40.5646 232.823C39.9444 232.901 39.3297 233.01 38.7747 233.177C38.3048 233.317 37.4854 233.609 36.8154 234.279L41.058 238.521C40.6547 238.925 40.302 238.983 40.4988 238.923C40.6104 238.89 40.8624 238.833 41.3088 238.777C42.1944 238.666 43.5183 238.6 45.3367 238.6V232.6ZM36.8154 234.279C36.0723 235.022 35.8392 235.975 35.7592 236.303C35.6363 236.809 35.5569 237.38 35.5007 237.961C35.3868 239.137 35.3367 240.7 35.3367 242.6H41.3367C41.3367 240.767 41.3866 239.429 41.4728 238.539C41.5165 238.087 41.5621 237.833 41.5892 237.722C41.6026 237.667 41.5965 237.71 41.5535 237.81C41.5231 237.881 41.3873 238.192 41.058 238.521L36.8154 234.279ZM35.3367 242.6V259.4H41.3367V242.6H35.3367ZM35.3367 259.4C35.3367 261.303 35.387 262.877 35.4998 264.08C35.5559 264.678 35.6332 265.251 35.7474 265.759C35.838 266.161 36.0329 266.928 36.5367 267.6L41.3367 264C41.6405 264.405 41.6604 264.705 41.6011 264.441C41.5652 264.282 41.5176 263.989 41.4736 263.52C41.3864 262.59 41.3367 261.231 41.3367 259.4H35.3367ZM37.1367 268.2C37.8084 268.704 38.5755 268.899 38.9782 268.989C39.4855 269.103 40.0588 269.181 40.6567 269.237C41.8601 269.35 43.4341 269.4 45.3367 269.4V263.4C43.506 263.4 42.1467 263.35 41.2167 263.263C40.748 263.219 40.4546 263.172 40.2953 263.136C40.0312 263.076 40.3317 263.096 40.7367 263.4L37.1367 268.2ZM199.943 353H196.943V356H199.943V353ZM199.943 208.8V205.8H196.943V208.8H199.943ZM226.343 208.8H229.343V205.8H226.343V208.8ZM226.343 326.4H223.343V329.4H226.343V326.4ZM343.943 326.4H346.943V323.4H343.943V326.4ZM343.943 353V356H346.943V353H343.943ZM202.943 353V208.8H196.943V353H202.943ZM199.943 211.8H226.343V205.8H199.943V211.8ZM223.343 208.8V326.4H229.343V208.8H223.343ZM226.343 329.4H343.943V323.4H226.343V329.4ZM340.943 326.4V353H346.943V326.4H340.943ZM343.943 350H199.943V356H343.943V350ZM385.402 344.8L387.524 342.679L385.402 344.8ZM377.202 209V206H374.202V209H377.202ZM403.602 209H406.602V206H403.602V209ZM404.202 325.8L401.802 327.6L402.059 327.943L402.402 328.2L404.202 325.8ZM493.802 325.8L495.602 328.2L495.773 328.072L495.924 327.921L493.802 325.8ZM494.602 209V206H491.602V209H494.602ZM521.202 209H524.202V206H521.202V209ZM405.002 350C398.213 350 392.439 347.594 387.524 342.679L383.281 346.921C389.299 352.94 396.591 356 405.002 356V350ZM387.524 342.679C382.609 337.764 380.202 331.989 380.202 325.2H374.202C374.202 333.611 377.263 340.903 383.281 346.921L387.524 342.679ZM380.202 325.2V209H374.202V325.2H380.202ZM377.202 212H403.602V206H377.202V212ZM400.602 209V319.4H406.602V209H400.602ZM400.602 319.4C400.602 321.303 400.653 322.877 400.765 324.08C400.822 324.678 400.899 325.251 401.013 325.759C401.104 326.161 401.299 326.928 401.802 327.6L406.602 324C406.906 324.405 406.926 324.705 406.867 324.441C406.831 324.282 406.783 323.989 406.739 323.52C406.652 322.59 406.602 321.231 406.602 319.4H400.602ZM402.402 328.2C403.074 328.704 403.841 328.899 404.244 328.989C404.751 329.103 405.324 329.181 405.922 329.237C407.126 329.35 408.7 329.4 410.602 329.4V323.4C408.772 323.4 407.412 323.35 406.482 323.263C406.014 323.219 405.72 323.172 405.561 323.136C405.297 323.076 405.597 323.096 406.002 323.4L402.402 328.2ZM410.602 329.4H487.602V323.4H410.602V329.4ZM487.602 329.4C489.44 329.4 490.967 329.35 492.141 329.236C492.725 329.18 493.288 329.101 493.789 328.986C494.195 328.892 494.943 328.695 495.602 328.2L492.002 323.4C492.395 323.105 492.685 323.083 492.44 323.139C492.292 323.174 492.013 323.22 491.563 323.264C490.671 323.35 489.365 323.4 487.602 323.4V329.4ZM495.924 327.921C496.594 327.251 496.885 326.432 497.026 325.962C497.192 325.407 497.302 324.792 497.379 324.172C497.535 322.924 497.602 321.315 497.602 319.4H491.602C491.602 321.218 491.536 322.542 491.426 323.428C491.37 323.874 491.312 324.126 491.279 324.238C491.22 324.435 491.278 324.082 491.681 323.679L495.924 327.921ZM497.602 319.4V209H491.602V319.4H497.602ZM494.602 212H521.202V206H494.602V212ZM518.202 209V325.2H524.202V209H518.202ZM518.202 325.2C518.202 331.989 515.796 337.764 510.881 342.679L515.124 346.921C521.142 340.903 524.202 333.611 524.202 325.2H518.202ZM510.881 342.679C505.966 347.594 500.191 350 493.402 350V356C501.813 356 509.105 352.94 515.124 346.921L510.881 342.679ZM493.402 350H405.002V356H493.402V350ZM565.627 353H562.627V356H565.627V353ZM565.627 209V206H562.627V209H565.627ZM698.227 209H701.227V206H698.227V209ZM698.227 235.6V238.6H701.227V235.6H698.227ZM592.227 235.6V232.6H589.227V235.6H592.227ZM592.227 267.6H589.227V270.6H592.227V267.6ZM677.427 267.6H680.427V264.6H677.427V267.6ZM677.427 294.2V297.2H680.427V294.2H677.427ZM592.227 294.2V291.2H589.227V294.2H592.227ZM592.227 326.4H589.227V329.4H592.227V326.4ZM698.227 326.4H701.227V323.4H698.227V326.4ZM698.227 353V356H701.227V353H698.227ZM568.627 353V209H562.627V353H568.627ZM565.627 212H698.227V206H565.627V212ZM695.227 209V235.6H701.227V209H695.227ZM698.227 232.6H592.227V238.6H698.227V232.6ZM589.227 235.6V267.6H595.227V235.6H589.227ZM592.227 270.6H677.427V264.6H592.227V270.6ZM674.427 267.6V294.2H680.427V267.6H674.427ZM677.427 291.2H592.227V297.2H677.427V291.2ZM589.227 294.2V326.4H595.227V294.2H589.227ZM592.227 329.4H698.227V323.4H592.227V329.4ZM695.227 326.4V353H701.227V326.4H695.227ZM698.227 350H565.627V356H698.227V350ZM735.86 353H732.86V356H735.86V353ZM735.86 209V206H732.86V209H735.86ZM764.86 209L767.158 207.071L766.259 206H764.86V209ZM817.06 271.2L814.762 273.129L817.065 275.872L819.362 273.124L817.06 271.2ZM869.06 209V206H867.658L866.759 207.076L869.06 209ZM898.26 209H901.26V206H898.26V209ZM898.26 353V356H901.26V353H898.26ZM871.66 353H868.66V356H871.66V353ZM871.66 247.4H874.66V239.164L869.363 245.47L871.66 247.4ZM817.06 312.4L814.769 314.337L817.068 317.055L819.357 314.33L817.06 312.4ZM762.26 247.6L764.551 245.663L759.26 239.407V247.6H762.26ZM762.26 353V356H765.26V353H762.26ZM738.86 353V209H732.86V353H738.86ZM735.86 212H764.86V206H735.86V212ZM762.562 210.929L814.762 273.129L819.358 269.271L767.158 207.071L762.562 210.929ZM819.362 273.124L871.362 210.924L866.759 207.076L814.759 269.276L819.362 273.124ZM869.06 212H898.26V206H869.06V212ZM895.26 209V353H901.26V209H895.26ZM898.26 350H871.66V356H898.26V350ZM874.66 353V247.4H868.66V353H874.66ZM869.363 245.47L814.763 310.47L819.357 314.33L873.957 249.33L869.363 245.47ZM819.351 310.463L764.551 245.663L759.969 249.537L814.769 314.337L819.351 310.463ZM759.26 247.6V353H765.26V247.6H759.26ZM762.26 350H735.86V356H762.26V350ZM951.207 344.8L953.328 342.679L951.207 344.8ZM951.207 217.2L953.328 219.321L951.207 217.2ZM1059.61 325.8L1061.41 328.2L1061.58 328.072L1061.73 327.921L1059.61 325.8ZM1059.61 236.4L1057.49 238.521L1057.64 238.672L1057.81 238.8L1059.61 236.4ZM970.007 236.4L972.128 238.521V238.521L970.007 236.4ZM970.007 325.8L967.607 327.6L967.864 327.943L968.207 328.2L970.007 325.8ZM970.807 350C964.018 350 958.243 347.594 953.328 342.679L949.086 346.921C955.104 352.94 962.396 356 970.807 356V350ZM953.328 342.679C948.413 337.764 946.007 331.989 946.007 325.2H940.007C940.007 333.611 943.067 340.903 949.086 346.921L953.328 342.679ZM946.007 325.2V236.8H940.007V325.2H946.007ZM946.007 236.8C946.007 230.011 948.413 224.236 953.328 219.321L949.086 215.079C943.067 221.097 940.007 228.389 940.007 236.8H946.007ZM953.328 219.321C958.243 214.406 964.018 212 970.807 212V206C962.396 206 955.104 209.06 949.086 215.079L953.328 219.321ZM970.807 212H1059.21V206H970.807V212ZM1059.21 212C1066 212 1071.77 214.406 1076.69 219.321L1080.93 215.079C1074.91 209.06 1067.62 206 1059.21 206V212ZM1076.69 219.321C1081.6 224.236 1084.01 230.011 1084.01 236.8H1090.01C1090.01 228.389 1086.95 221.097 1080.93 215.079L1076.69 219.321ZM1084.01 236.8V325.2H1090.01V236.8H1084.01ZM1084.01 325.2C1084.01 331.989 1081.6 337.764 1076.69 342.679L1080.93 346.921C1086.95 340.903 1090.01 333.611 1090.01 325.2H1084.01ZM1076.69 342.679C1071.77 347.594 1066 350 1059.21 350V356C1067.62 356 1074.91 352.94 1080.93 346.921L1076.69 342.679ZM1059.21 350H970.807V356H1059.21V350ZM976.407 329.4H1053.41V323.4H976.407V329.4ZM1053.41 329.4C1055.24 329.4 1056.77 329.35 1057.95 329.236C1058.53 329.18 1059.09 329.101 1059.59 328.986C1060 328.892 1060.75 328.695 1061.41 328.2L1057.81 323.4C1058.2 323.105 1058.49 323.083 1058.24 323.139C1058.1 323.174 1057.82 323.22 1057.37 323.264C1056.48 323.35 1055.17 323.4 1053.41 323.4V329.4ZM1061.73 327.921C1062.4 327.251 1062.69 326.432 1062.83 325.962C1063 325.407 1063.11 324.792 1063.18 324.172C1063.34 322.924 1063.41 321.315 1063.41 319.4H1057.41C1057.41 321.218 1057.34 322.542 1057.23 323.428C1057.17 323.874 1057.12 324.126 1057.08 324.238C1057.02 324.435 1057.08 324.082 1057.49 323.679L1061.73 327.921ZM1063.41 319.4V242.6H1057.41V319.4H1063.41ZM1063.41 242.6C1063.41 240.688 1063.34 239.089 1063.18 237.866C1063.1 237.262 1062.99 236.645 1062.81 236.087C1062.67 235.659 1062.32 234.685 1061.41 234L1057.81 238.8C1057.44 238.525 1057.26 238.234 1057.19 238.117C1057.12 237.987 1057.09 237.912 1057.1 237.938C1057.12 237.997 1057.18 238.205 1057.23 238.634C1057.34 239.478 1057.41 240.778 1057.41 242.6H1063.41ZM1061.73 234.279C1061.07 233.622 1060.27 233.328 1059.8 233.183C1059.25 233.014 1058.65 232.903 1058.04 232.825C1056.82 232.667 1055.26 232.6 1053.41 232.6V238.6C1055.16 238.6 1056.43 238.666 1057.27 238.775C1057.7 238.83 1057.94 238.886 1058.04 238.917C1058.21 238.972 1057.88 238.911 1057.49 238.521L1061.73 234.279ZM1053.41 232.6H976.407V238.6H1053.41V232.6ZM976.407 232.6C974.492 232.6 972.883 232.667 971.635 232.823C971.015 232.901 970.4 233.01 969.845 233.177C969.375 233.317 968.556 233.609 967.886 234.279L972.128 238.521C971.725 238.925 971.372 238.983 971.569 238.923C971.681 238.89 971.933 238.833 972.379 238.777C973.265 238.666 974.589 238.6 976.407 238.6V232.6ZM967.886 234.279C967.143 235.022 966.91 235.975 966.83 236.303C966.707 236.809 966.627 237.38 966.571 237.961C966.457 239.137 966.407 240.7 966.407 242.6H972.407C972.407 240.767 972.457 239.429 972.543 238.539C972.587 238.087 972.632 237.833 972.66 237.722C972.673 237.667 972.667 237.71 972.624 237.81C972.593 237.881 972.458 238.192 972.128 238.521L967.886 234.279ZM966.407 242.6V319.4H972.407V242.6H966.407ZM966.407 319.4C966.407 321.303 966.457 322.877 966.57 324.08C966.626 324.678 966.704 325.251 966.818 325.759C966.908 326.161 967.103 326.928 967.607 327.6L972.407 324C972.711 324.405 972.731 324.705 972.671 324.441C972.635 324.282 972.588 323.989 972.544 323.52C972.457 322.59 972.407 321.231 972.407 319.4H966.407ZM968.207 328.2C968.879 328.704 969.646 328.899 970.049 328.989C970.556 329.103 971.129 329.181 971.727 329.237C972.93 329.35 974.504 329.4 976.407 329.4V323.4C974.576 323.4 973.217 323.35 972.287 323.263C971.818 323.219 971.525 323.172 971.366 323.136C971.102 323.076 971.402 323.096 971.807 323.4L968.207 328.2ZM1138.83 344.8L1140.95 342.679L1138.83 344.8ZM1138.83 217.2L1140.95 219.321L1138.83 217.2ZM1247.23 325.8L1249.03 328.2L1249.2 328.072L1249.35 327.921L1247.23 325.8ZM1247.23 236.4L1245.11 238.521L1245.26 238.672L1245.43 238.8L1247.23 236.4ZM1157.63 236.4L1159.75 238.521L1159.75 238.521L1157.63 236.4ZM1157.63 325.8L1155.23 327.6L1155.49 327.943L1155.83 328.2L1157.63 325.8ZM1158.43 350C1151.64 350 1145.87 347.594 1140.95 342.679L1136.71 346.921C1142.73 352.94 1150.02 356 1158.43 356V350ZM1140.95 342.679C1136.04 337.764 1133.63 331.989 1133.63 325.2H1127.63C1127.63 333.611 1130.69 340.903 1136.71 346.921L1140.95 342.679ZM1133.63 325.2V236.8H1127.63V325.2H1133.63ZM1133.63 236.8C1133.63 230.011 1136.04 224.236 1140.95 219.321L1136.71 215.079C1130.69 221.097 1127.63 228.389 1127.63 236.8H1133.63ZM1140.95 219.321C1145.87 214.406 1151.64 212 1158.43 212V206C1150.02 206 1142.73 209.06 1136.71 215.079L1140.95 219.321ZM1158.43 212H1246.83V206H1158.43V212ZM1246.83 212C1253.62 212 1259.4 214.406 1264.31 219.321L1268.55 215.079C1262.53 209.06 1255.24 206 1246.83 206V212ZM1264.31 219.321C1269.23 224.236 1271.63 230.011 1271.63 236.8H1277.63C1277.63 228.389 1274.57 221.097 1268.55 215.079L1264.31 219.321ZM1271.63 236.8V325.2H1277.63V236.8H1271.63ZM1271.63 325.2C1271.63 331.989 1269.23 337.764 1264.31 342.679L1268.55 346.921C1274.57 340.903 1277.63 333.611 1277.63 325.2H1271.63ZM1264.31 342.679C1259.4 347.594 1253.62 350 1246.83 350V356C1255.24 356 1262.53 352.94 1268.55 346.921L1264.31 342.679ZM1246.83 350H1158.43V356H1246.83V350ZM1164.03 329.4H1241.03V323.4H1164.03V329.4ZM1241.03 329.4C1242.87 329.4 1244.4 329.35 1245.57 329.236C1246.15 329.18 1246.72 329.101 1247.22 328.986C1247.62 328.892 1248.37 328.695 1249.03 328.2L1245.43 323.4C1245.83 323.105 1246.11 323.083 1245.87 323.139C1245.72 323.174 1245.44 323.22 1244.99 323.264C1244.1 323.35 1242.79 323.4 1241.03 323.4V329.4ZM1249.35 327.921C1250.02 327.251 1250.31 326.432 1250.46 325.962C1250.62 325.407 1250.73 324.792 1250.81 324.172C1250.96 322.924 1251.03 321.315 1251.03 319.4H1245.03C1245.03 321.218 1244.97 322.542 1244.86 323.428C1244.8 323.874 1244.74 324.126 1244.71 324.238C1244.65 324.435 1244.71 324.082 1245.11 323.679L1249.35 327.921ZM1251.03 319.4V242.6H1245.03V319.4H1251.03ZM1251.03 242.6C1251.03 240.688 1250.97 239.089 1250.81 237.866C1250.73 237.262 1250.62 236.645 1250.44 236.087C1250.3 235.659 1249.95 234.685 1249.03 234L1245.43 238.8C1245.07 238.525 1244.88 238.234 1244.81 238.117C1244.74 237.987 1244.72 237.912 1244.73 237.938C1244.75 237.997 1244.8 238.205 1244.86 238.634C1244.97 239.478 1245.03 240.778 1245.03 242.6H1251.03ZM1249.35 234.279C1248.7 233.622 1247.9 233.328 1247.43 233.183C1246.88 233.014 1246.27 232.903 1245.67 232.825C1244.45 232.667 1242.88 232.6 1241.03 232.6V238.6C1242.78 238.6 1244.05 238.666 1244.9 238.775C1245.32 238.83 1245.56 238.886 1245.66 238.917C1245.84 238.972 1245.5 238.911 1245.11 238.521L1249.35 234.279ZM1241.03 232.6H1164.03V238.6H1241.03V232.6ZM1164.03 232.6C1162.12 232.6 1160.51 232.667 1159.26 232.823C1158.64 232.901 1158.03 233.01 1157.47 233.177C1157 233.317 1156.18 233.609 1155.51 234.279L1159.75 238.521C1159.35 238.925 1159 238.983 1159.19 238.923C1159.31 238.89 1159.56 238.833 1160 238.777C1160.89 238.666 1162.21 238.6 1164.03 238.6V232.6ZM1155.51 234.279C1154.77 235.022 1154.53 235.975 1154.45 236.303C1154.33 236.809 1154.25 237.38 1154.2 237.961C1154.08 239.137 1154.03 240.7 1154.03 242.6H1160.03C1160.03 240.767 1160.08 239.429 1160.17 238.539C1160.21 238.087 1160.26 237.833 1160.28 237.722C1160.3 237.667 1160.29 237.71 1160.25 237.81C1160.22 237.881 1160.08 238.192 1159.75 238.521L1155.51 234.279ZM1154.03 242.6V319.4H1160.03V242.6H1154.03ZM1154.03 319.4C1154.03 321.303 1154.08 322.877 1154.2 324.08C1154.25 324.678 1154.33 325.251 1154.44 325.759C1154.53 326.161 1154.73 326.928 1155.23 327.6L1160.03 324C1160.34 324.405 1160.36 324.705 1160.3 324.441C1160.26 324.282 1160.21 323.989 1160.17 323.52C1160.08 322.59 1160.03 321.231 1160.03 319.4H1154.03ZM1155.83 328.2C1156.5 328.704 1157.27 328.899 1157.67 328.989C1158.18 329.103 1158.75 329.181 1159.35 329.237C1160.56 329.35 1162.13 329.4 1164.03 329.4V323.4C1162.2 323.4 1160.84 323.35 1159.91 323.263C1159.44 323.219 1159.15 323.172 1158.99 323.136C1158.73 323.076 1159.03 323.096 1159.43 323.4L1155.83 328.2ZM1318.66 353H1315.66V356H1318.66V353ZM1318.66 209V206H1315.66V209H1318.66ZM1347.66 209L1349.95 207.07L1349.05 206H1347.66V209ZM1436.06 314.2L1433.76 316.13L1439.06 322.433V314.2H1436.06ZM1436.06 209V206H1433.06V209H1436.06ZM1462.66 209H1465.66V206H1462.66V209ZM1462.66 353V356H1465.66V353H1462.66ZM1433.66 353L1431.36 354.93L1432.26 356H1433.66V353ZM1345.06 247.6L1347.35 245.67L1342.06 239.369V247.6H1345.06ZM1345.06 353V356H1348.06V353H1345.06ZM1321.66 353V209H1315.66V353H1321.66ZM1318.66 212H1347.66V206H1318.66V212ZM1345.36 210.93L1433.76 316.13L1438.35 312.27L1349.95 207.07L1345.36 210.93ZM1439.06 314.2V209H1433.06V314.2H1439.06ZM1436.06 212H1462.66V206H1436.06V212ZM1459.66 209V353H1465.66V209H1459.66ZM1462.66 350H1433.66V356H1462.66V350ZM1435.95 351.07L1347.35 245.67L1342.76 249.53L1431.36 354.93L1435.95 351.07ZM1342.06 247.6V353H1348.06V247.6H1342.06ZM1345.06 350H1318.66V356H1345.06V350Z" fill="#00E0FF"/>
<path opacity="0.26" d="M13.9367 558H11.9367V560H13.9367V558ZM13.9367 414V412H11.9367V414H13.9367ZM151.737 475L149.764 474.671V474.671L151.737 475ZM150.337 479.6L148.516 478.772L148.029 479.843L148.728 480.789L150.337 479.6ZM155.737 489.2L153.88 489.943L153.892 489.974L153.906 490.005L155.737 489.2ZM130.537 530.8L131.737 532.4L131.85 532.315L131.951 532.214L130.537 530.8ZM130.537 498.8L129.123 500.214L129.223 500.315L129.337 500.4L130.537 498.8ZM40.9367 498.8L42.3509 500.214L40.9367 498.8ZM40.9367 530.8L39.3367 532L39.5081 532.229L39.7367 532.4L40.9367 530.8ZM124.537 470.8L125.951 472.214L125.951 472.214L124.537 470.8ZM124.537 441.4L122.937 442.6L123.108 442.829L123.337 443L124.537 441.4ZM40.9367 441.4L42.3509 442.814L42.3509 442.814L40.9367 441.4ZM40.9367 470.8L39.3367 472L39.5081 472.229L39.7367 472.4L40.9367 470.8ZM15.9367 558V414H11.9367V558H15.9367ZM13.9367 416H124.337V412H13.9367V416ZM124.337 416C131.396 416 137.424 418.515 142.523 423.614L145.351 420.786C139.516 414.951 132.477 412 124.337 412V416ZM142.523 423.614C147.621 428.713 150.137 434.741 150.137 441.8H154.137C154.137 433.659 151.185 426.62 145.351 420.786L142.523 423.614ZM150.137 441.8V470H154.137V441.8H150.137ZM150.137 470C150.137 471.631 150.011 473.187 149.764 474.671L153.71 475.329C153.995 473.613 154.137 471.836 154.137 470H150.137ZM149.764 474.671C149.526 476.1 149.11 477.466 148.516 478.772L152.157 480.428C152.897 478.801 153.414 477.1 153.71 475.329L149.764 474.671ZM148.728 480.789C150.9 483.727 152.614 486.778 153.88 489.943L157.594 488.457C156.193 484.956 154.307 481.607 151.945 478.411L148.728 480.789ZM153.906 490.005C155.271 493.109 155.937 496.169 155.937 499.2H159.937C159.937 495.565 159.135 491.958 157.567 488.395L153.906 490.005ZM155.937 499.2V530.2H159.937V499.2H155.937ZM155.937 530.2C155.937 537.259 153.421 543.287 148.323 548.386L151.151 551.214C156.985 545.38 159.937 538.341 159.937 530.2H155.937ZM148.323 548.386C143.231 553.477 137.14 556 129.937 556V560C138.2 560 145.309 557.056 151.151 551.214L148.323 548.386ZM129.937 556H13.9367V560H129.937V556ZM47.3367 533.4H124.337V529.4H47.3367V533.4ZM124.337 533.4C126.162 533.4 127.652 533.35 128.779 533.241C129.341 533.186 129.856 533.113 130.299 533.011C130.678 532.924 131.252 532.763 131.737 532.4L129.337 529.2C129.554 529.037 129.671 529.051 129.4 529.114C129.192 529.162 128.866 529.214 128.394 529.259C127.455 529.35 126.112 529.4 124.337 529.4V533.4ZM131.951 532.214C132.442 531.723 132.675 531.099 132.802 530.675C132.947 530.194 133.047 529.639 133.121 529.048C133.27 527.861 133.337 526.299 133.337 524.4H129.337C129.337 526.235 129.27 527.606 129.152 528.552C129.093 529.027 129.027 529.34 128.971 529.525C128.898 529.768 128.898 529.61 129.123 529.386L131.951 532.214ZM133.337 524.4V505H129.337V524.4H133.337ZM133.337 505C133.337 503.103 133.27 501.554 133.12 500.394C133.046 499.819 132.943 499.27 132.789 498.795C132.663 498.407 132.39 497.69 131.737 497.2L129.337 500.4C128.95 500.11 128.91 499.801 128.984 500.03C129.03 500.172 129.094 500.448 129.153 500.906C129.27 501.813 129.337 503.163 129.337 505H133.337ZM131.951 497.386C131.469 496.904 130.861 496.669 130.437 496.538C129.963 496.392 129.419 496.291 128.843 496.216C127.685 496.067 126.17 496 124.337 496V500C126.103 500 127.422 500.066 128.331 500.184C128.787 500.242 129.086 500.308 129.261 500.362C129.487 500.431 129.338 500.43 129.123 500.214L131.951 497.386ZM124.337 496H47.3367V500H124.337V496ZM47.3367 496C45.4379 496 43.876 496.067 42.6887 496.215C42.0974 496.289 41.5431 496.39 41.062 496.534C40.6377 496.662 40.0136 496.895 39.5225 497.386L42.3509 500.214C42.1265 500.439 41.9691 500.438 42.2114 500.366C42.397 500.31 42.7094 500.244 43.1848 500.185C44.1307 500.066 45.5022 500 47.3367 500V496ZM39.5225 497.386C38.9938 497.915 38.8092 498.618 38.7309 498.94C38.6239 499.379 38.5502 499.898 38.496 500.457C38.3868 501.586 38.3367 503.111 38.3367 505H42.3367C42.3367 503.156 42.3867 501.781 42.4774 500.843C42.5232 500.369 42.5745 500.062 42.6176 499.885C42.6892 499.591 42.6796 499.885 42.3509 500.214L39.5225 497.386ZM38.3367 505V524.4H42.3367V505H38.3367ZM38.3367 524.4C38.3367 526.291 38.3869 527.829 38.4955 528.987C38.5495 529.563 38.6219 530.09 38.723 530.539C38.8084 530.919 38.9675 531.508 39.3367 532L42.5367 529.6C42.7059 529.826 42.69 529.948 42.6254 529.661C42.5765 529.444 42.524 529.104 42.478 528.613C42.3865 527.638 42.3367 526.243 42.3367 524.4H38.3367ZM39.7367 532.4C40.229 532.769 40.8181 532.928 41.1977 533.014C41.647 533.115 42.1736 533.187 42.75 533.241C43.9079 533.35 45.4461 533.4 47.3367 533.4V529.4C45.494 529.4 44.0989 529.35 43.1234 529.259C42.6331 529.213 42.2931 529.16 42.0757 529.111C41.7886 529.047 41.9111 529.031 42.1367 529.2L39.7367 532.4ZM47.3367 473.4H118.537V469.4H47.3367V473.4ZM118.537 473.4C120.36 473.4 121.837 473.35 122.936 473.24C123.481 473.186 123.988 473.111 124.422 473.003C124.747 472.922 125.431 472.734 125.951 472.214L123.123 469.386C123.442 469.066 123.727 469.053 123.452 469.122C123.285 469.164 122.993 469.214 122.538 469.26C121.636 469.35 120.313 469.4 118.537 469.4V473.4ZM125.951 472.214C126.442 471.723 126.675 471.099 126.802 470.675C126.947 470.194 127.047 469.639 127.121 469.048C127.27 467.861 127.337 466.299 127.337 464.4H123.337C123.337 466.235 123.27 467.606 123.152 468.552C123.093 469.027 123.027 469.34 122.971 469.525C122.898 469.768 122.898 469.61 123.123 469.386L125.951 472.214ZM127.337 464.4V447.6H123.337V464.4H127.337ZM127.337 447.6C127.337 445.703 127.27 444.154 127.12 442.994C127.046 442.419 126.943 441.87 126.789 441.395C126.663 441.007 126.39 440.29 125.737 439.8L123.337 443C122.95 442.71 122.91 442.401 122.984 442.63C123.03 442.772 123.094 443.048 123.153 443.506C123.27 444.413 123.337 445.763 123.337 447.6H127.337ZM126.137 440.2C125.656 439.559 124.96 439.283 124.569 439.153C124.1 438.996 123.562 438.892 123.001 438.818C121.871 438.667 120.368 438.6 118.537 438.6V442.6C120.305 442.6 121.603 442.666 122.472 442.782C122.912 442.841 123.173 442.904 123.304 442.947C123.513 443.017 123.217 442.974 122.937 442.6L126.137 440.2ZM118.537 438.6H47.3367V442.6H118.537V438.6ZM47.3367 438.6C45.4379 438.6 43.876 438.667 42.6887 438.815C42.0974 438.889 41.5431 438.99 41.062 439.134C40.6377 439.262 40.0136 439.495 39.5225 439.986L42.3509 442.814C42.1265 443.039 41.9691 443.038 42.2114 442.966C42.397 442.91 42.7094 442.844 43.1848 442.785C44.1307 442.666 45.5022 442.6 47.3367 442.6V438.6ZM39.5225 439.986C38.9938 440.514 38.8092 441.218 38.7309 441.54C38.6239 441.979 38.5502 442.498 38.496 443.057C38.3868 444.186 38.3367 445.711 38.3367 447.6H42.3367C42.3367 445.756 42.3867 444.381 42.4774 443.443C42.5232 442.969 42.5745 442.662 42.6176 442.485C42.6892 442.191 42.6796 442.486 42.3509 442.814L39.5225 439.986ZM38.3367 447.6V464.4H42.3367V447.6H38.3367ZM38.3367 464.4C38.3367 466.291 38.3869 467.829 38.4955 468.987C38.5495 469.563 38.6219 470.09 38.723 470.539C38.8084 470.919 38.9675 471.508 39.3367 472L42.5367 469.6C42.7059 469.826 42.69 469.948 42.6254 469.661C42.5765 469.444 42.524 469.104 42.478 468.613C42.3865 467.638 42.3367 466.243 42.3367 464.4H38.3367ZM39.7367 472.4C40.229 472.769 40.8181 472.928 41.1977 473.014C41.647 473.115 42.1736 473.187 42.75 473.241C43.9079 473.35 45.4461 473.4 47.3367 473.4V469.4C45.494 469.4 44.0989 469.35 43.1234 469.259C42.6331 469.213 42.2931 469.16 42.0757 469.111C41.7886 469.047 41.9111 469.031 42.1367 469.2L39.7367 472.4ZM201.943 558H199.943V560H201.943V558ZM201.943 413.8V411.8H199.943V413.8H201.943ZM228.343 413.8H230.343V411.8H228.343V413.8ZM228.343 531.4H226.343V533.4H228.343V531.4ZM345.943 531.4H347.943V529.4H345.943V531.4ZM345.943 558V560H347.943V558H345.943ZM203.943 558V413.8H199.943V558H203.943ZM201.943 415.8H228.343V411.8H201.943V415.8ZM226.343 413.8V531.4H230.343V413.8H226.343ZM228.343 533.4H345.943V529.4H228.343V533.4ZM343.943 531.4V558H347.943V531.4H343.943ZM345.943 556H201.943V560H345.943V556ZM387.402 549.8L388.817 548.386L387.402 549.8ZM379.202 414V412H377.202V414H379.202ZM405.602 414H407.602V412H405.602V414ZM406.202 530.8L404.602 532L404.774 532.229L405.002 532.4L406.202 530.8ZM495.802 530.8L497.002 532.4L497.116 532.315L497.217 532.214L495.802 530.8ZM496.602 414V412H494.602V414H496.602ZM523.202 414H525.202V412H523.202V414ZM407.002 556C399.943 556 393.915 553.485 388.817 548.386L385.988 551.214C391.823 557.049 398.862 560 407.002 560V556ZM388.817 548.386C383.718 543.287 381.202 537.259 381.202 530.2H377.202C377.202 538.341 380.154 545.38 385.988 551.214L388.817 548.386ZM381.202 530.2V414H377.202V530.2H381.202ZM379.202 416H405.602V412H379.202V416ZM403.602 414V524.4H407.602V414H403.602ZM403.602 524.4C403.602 526.291 403.653 527.829 403.761 528.987C403.815 529.563 403.888 530.09 403.989 530.539C404.074 530.919 404.233 531.508 404.602 532L407.802 529.6C407.972 529.826 407.956 529.948 407.891 529.661C407.842 529.444 407.79 529.104 407.744 528.613C407.652 527.638 407.602 526.243 407.602 524.4H403.602ZM405.002 532.4C405.495 532.769 406.084 532.928 406.463 533.014C406.913 533.115 407.439 533.187 408.016 533.241C409.173 533.35 410.712 533.4 412.602 533.4V529.4C410.76 529.4 409.365 529.35 408.389 529.259C407.899 529.213 407.559 529.16 407.341 529.111C407.054 529.047 407.177 529.031 407.402 529.2L405.002 532.4ZM412.602 533.4H489.602V529.4H412.602V533.4ZM489.602 533.4C491.427 533.4 492.918 533.35 494.045 533.241C494.606 533.186 495.122 533.113 495.565 533.011C495.943 532.924 496.518 532.763 497.002 532.4L494.602 529.2C494.82 529.037 494.936 529.051 494.665 529.114C494.458 529.162 494.132 529.214 493.66 529.259C492.72 529.35 491.377 529.4 489.602 529.4V533.4ZM497.217 532.214C497.708 531.723 497.941 531.099 498.068 530.675C498.212 530.194 498.313 529.639 498.387 529.048C498.535 527.861 498.602 526.299 498.602 524.4H494.602C494.602 526.235 494.536 527.606 494.418 528.552C494.358 529.027 494.292 529.34 494.237 529.525C494.164 529.768 494.164 529.61 494.388 529.386L497.217 532.214ZM498.602 524.4V414H494.602V524.4H498.602ZM496.602 416H523.202V412H496.602V416ZM521.202 414V530.2H525.202V414H521.202ZM521.202 530.2C521.202 537.259 518.687 543.287 513.588 548.386L516.417 551.214C522.251 545.38 525.202 538.341 525.202 530.2H521.202ZM513.588 548.386C508.489 553.485 502.462 556 495.402 556V560C503.543 560 510.582 557.049 516.417 551.214L513.588 548.386ZM495.402 556H407.002V560H495.402V556ZM567.627 558H565.627V560H567.627V558ZM567.627 414V412H565.627V414H567.627ZM700.227 414H702.227V412H700.227V414ZM700.227 440.6V442.6H702.227V440.6H700.227ZM594.227 440.6V438.6H592.227V440.6H594.227ZM594.227 472.6H592.227V474.6H594.227V472.6ZM679.427 472.6H681.427V470.6H679.427V472.6ZM679.427 499.2V501.2H681.427V499.2H679.427ZM594.227 499.2V497.2H592.227V499.2H594.227ZM594.227 531.4H592.227V533.4H594.227V531.4ZM700.227 531.4H702.227V529.4H700.227V531.4ZM700.227 558V560H702.227V558H700.227ZM569.627 558V414H565.627V558H569.627ZM567.627 416H700.227V412H567.627V416ZM698.227 414V440.6H702.227V414H698.227ZM700.227 438.6H594.227V442.6H700.227V438.6ZM592.227 440.6V472.6H596.227V440.6H592.227ZM594.227 474.6H679.427V470.6H594.227V474.6ZM677.427 472.6V499.2H681.427V472.6H677.427ZM679.427 497.2H594.227V501.2H679.427V497.2ZM592.227 499.2V531.4H596.227V499.2H592.227ZM594.227 533.4H700.227V529.4H594.227V533.4ZM698.227 531.4V558H702.227V531.4H698.227ZM700.227 556H567.627V560H700.227V556ZM737.86 558H735.86V560H737.86V558ZM737.86 414V412H735.86V414H737.86ZM766.86 414L768.392 412.714L767.793 412H766.86V414ZM819.06 476.2L817.528 477.486L819.063 479.315L820.595 477.483L819.06 476.2ZM871.06 414V412H870.125L869.526 412.717L871.06 414ZM900.26 414H902.26V412H900.26V414ZM900.26 558V560H902.26V558H900.26ZM873.66 558H871.66V560H873.66V558ZM873.66 452.4H875.66V446.91L872.129 451.114L873.66 452.4ZM819.06 517.4L817.533 518.691L819.065 520.503L820.592 518.686L819.06 517.4ZM764.26 452.6L765.787 451.309L762.26 447.138V452.6H764.26ZM764.26 558V560H766.26V558H764.26ZM739.86 558V414H735.86V558H739.86ZM737.86 416H766.86V412H737.86V416ZM765.328 415.286L817.528 477.486L820.592 474.914L768.392 412.714L765.328 415.286ZM820.595 477.483L872.595 415.283L869.526 412.717L817.526 474.917L820.595 477.483ZM871.06 416H900.26V412H871.06V416ZM898.26 414V558H902.26V414H898.26ZM900.26 556H873.66V560H900.26V556ZM875.66 558V452.4H871.66V558H875.66ZM872.129 451.114L817.529 516.114L820.592 518.686L875.192 453.686L872.129 451.114ZM820.587 516.109L765.787 451.309L762.733 453.891L817.533 518.691L820.587 516.109ZM762.26 452.6V558H766.26V452.6H762.26ZM764.26 556H737.86V560H764.26V556ZM953.207 549.8L954.621 548.386L953.207 549.8ZM953.207 422.2L954.621 423.614L953.207 422.2ZM1061.61 530.8L1062.81 532.4L1062.92 532.315L1063.02 532.214L1061.61 530.8ZM1061.61 441.4L1060.19 442.814L1060.29 442.915L1060.41 443L1061.61 441.4ZM972.007 441.4L973.421 442.814V442.814L972.007 441.4ZM972.007 530.8L970.407 532L970.578 532.229L970.807 532.4L972.007 530.8ZM972.807 556C965.748 556 959.72 553.485 954.621 548.386L951.793 551.214C957.627 557.049 964.666 560 972.807 560V556ZM954.621 548.386C949.522 543.287 947.007 537.259 947.007 530.2H943.007C943.007 538.341 945.958 545.38 951.793 551.214L954.621 548.386ZM947.007 530.2V441.8H943.007V530.2H947.007ZM947.007 441.8C947.007 434.741 949.522 428.713 954.621 423.614L951.793 420.786C945.958 426.62 943.007 433.659 943.007 441.8H947.007ZM954.621 423.614C959.72 418.515 965.748 416 972.807 416V412C964.666 412 957.627 414.951 951.793 420.786L954.621 423.614ZM972.807 416H1061.21V412H972.807V416ZM1061.21 416C1068.27 416 1074.29 418.515 1079.39 423.614L1082.22 420.786C1076.39 414.951 1069.35 412 1061.21 412V416ZM1079.39 423.614C1084.49 428.713 1087.01 434.741 1087.01 441.8H1091.01C1091.01 433.659 1088.06 426.62 1082.22 420.786L1079.39 423.614ZM1087.01 441.8V530.2H1091.01V441.8H1087.01ZM1087.01 530.2C1087.01 537.259 1084.49 543.287 1079.39 548.386L1082.22 551.214C1088.06 545.38 1091.01 538.341 1091.01 530.2H1087.01ZM1079.39 548.386C1074.29 553.485 1068.27 556 1061.21 556V560C1069.35 560 1076.39 557.049 1082.22 551.214L1079.39 548.386ZM1061.21 556H972.807V560H1061.21V556ZM978.407 533.4H1055.41V529.4H978.407V533.4ZM1055.41 533.4C1057.23 533.4 1058.72 533.35 1059.85 533.241C1060.41 533.186 1060.93 533.113 1061.37 533.011C1061.75 532.924 1062.32 532.763 1062.81 532.4L1060.41 529.2C1060.62 529.037 1060.74 529.051 1060.47 529.114C1060.26 529.162 1059.94 529.214 1059.46 529.259C1058.52 529.35 1057.18 529.4 1055.41 529.4V533.4ZM1063.02 532.214C1063.51 531.723 1063.75 531.099 1063.87 530.675C1064.02 530.194 1064.12 529.639 1064.19 529.048C1064.34 527.861 1064.41 526.299 1064.41 524.4H1060.41C1060.41 526.235 1060.34 527.606 1060.22 528.552C1060.16 529.027 1060.1 529.34 1060.04 529.525C1059.97 529.768 1059.97 529.61 1060.19 529.386L1063.02 532.214ZM1064.41 524.4V447.6H1060.41V524.4H1064.41ZM1064.41 447.6C1064.41 445.703 1064.34 444.154 1064.19 442.994C1064.12 442.419 1064.01 441.87 1063.86 441.395C1063.73 441.007 1063.46 440.29 1062.81 439.8L1060.41 443C1060.02 442.71 1059.98 442.401 1060.05 442.63C1060.1 442.772 1060.16 443.048 1060.22 443.506C1060.34 444.413 1060.41 445.763 1060.41 447.6H1064.41ZM1063.02 439.986C1062.54 439.504 1061.93 439.269 1061.51 439.138C1061.03 438.992 1060.49 438.891 1059.91 438.816C1058.76 438.667 1057.24 438.6 1055.41 438.6V442.6C1057.17 442.6 1058.49 442.666 1059.4 442.784C1059.86 442.842 1060.16 442.908 1060.33 442.962C1060.56 443.031 1060.41 443.03 1060.19 442.814L1063.02 439.986ZM1055.41 438.6H978.407V442.6H1055.41V438.6ZM978.407 438.6C976.508 438.6 974.946 438.667 973.759 438.815C973.168 438.889 972.613 438.99 972.132 439.134C971.708 439.262 971.084 439.495 970.593 439.986L973.421 442.814C973.197 443.039 973.039 443.038 973.282 442.966C973.467 442.91 973.78 442.844 974.255 442.785C975.201 442.666 976.573 442.6 978.407 442.6V438.6ZM970.593 439.986C970.064 440.514 969.88 441.218 969.801 441.54C969.694 441.979 969.62 442.498 969.566 443.057C969.457 444.186 969.407 445.711 969.407 447.6H973.407C973.407 445.756 973.457 444.381 973.548 443.443C973.594 442.969 973.645 442.662 973.688 442.485C973.76 442.191 973.75 442.486 973.421 442.814L970.593 439.986ZM969.407 447.6V524.4H973.407V447.6H969.407ZM969.407 524.4C969.407 526.291 969.457 527.829 969.566 528.987C969.62 529.563 969.692 530.09 969.793 530.539C969.879 530.919 970.038 531.508 970.407 532L973.607 529.6C973.776 529.826 973.76 529.948 973.696 529.661C973.647 529.444 973.594 529.104 973.548 528.613C973.457 527.638 973.407 526.243 973.407 524.4H969.407ZM970.807 532.4C971.299 532.769 971.888 532.928 972.268 533.014C972.717 533.115 973.244 533.187 973.82 533.241C974.978 533.35 976.516 533.4 978.407 533.4V529.4C976.564 529.4 975.169 529.35 974.194 529.259C973.703 529.213 973.363 529.16 973.146 529.111C972.859 529.047 972.981 529.031 973.207 529.2L970.807 532.4ZM1140.83 549.8L1142.25 548.386L1140.83 549.8ZM1140.83 422.2L1142.25 423.614L1140.83 422.2ZM1249.23 530.8L1250.43 532.4L1250.55 532.315L1250.65 532.214L1249.23 530.8ZM1249.23 441.4L1247.82 442.814L1247.92 442.915L1248.03 443L1249.23 441.4ZM1159.63 441.4L1161.05 442.814V442.814L1159.63 441.4ZM1159.63 530.8L1158.03 532L1158.2 532.229L1158.43 532.4L1159.63 530.8ZM1160.43 556C1153.37 556 1147.35 553.485 1142.25 548.386L1139.42 551.214C1145.25 557.049 1152.29 560 1160.43 560V556ZM1142.25 548.386C1137.15 543.287 1134.63 537.259 1134.63 530.2H1130.63C1130.63 538.341 1133.58 545.38 1139.42 551.214L1142.25 548.386ZM1134.63 530.2V441.8H1130.63V530.2H1134.63ZM1134.63 441.8C1134.63 434.741 1137.15 428.713 1142.25 423.614L1139.42 420.786C1133.58 426.62 1130.63 433.659 1130.63 441.8H1134.63ZM1142.25 423.614C1147.35 418.515 1153.37 416 1160.43 416V412C1152.29 412 1145.25 414.951 1139.42 420.786L1142.25 423.614ZM1160.43 416H1248.83V412H1160.43V416ZM1248.83 416C1255.89 416 1261.92 418.515 1267.02 423.614L1269.85 420.786C1264.01 414.951 1256.97 412 1248.83 412V416ZM1267.02 423.614C1272.12 428.713 1274.63 434.741 1274.63 441.8H1278.63C1278.63 433.659 1275.68 426.62 1269.85 420.786L1267.02 423.614ZM1274.63 441.8V530.2H1278.63V441.8H1274.63ZM1274.63 530.2C1274.63 537.259 1272.12 543.287 1267.02 548.386L1269.85 551.214C1275.68 545.38 1278.63 538.341 1278.63 530.2H1274.63ZM1267.02 548.386C1261.92 553.485 1255.89 556 1248.83 556V560C1256.97 560 1264.01 557.049 1269.85 551.214L1267.02 548.386ZM1248.83 556H1160.43V560H1248.83V556ZM1166.03 533.4H1243.03V529.4H1166.03V533.4ZM1243.03 533.4C1244.86 533.4 1246.35 533.35 1247.47 533.241C1248.04 533.186 1248.55 533.113 1248.99 533.011C1249.37 532.924 1249.95 532.763 1250.43 532.4L1248.03 529.2C1248.25 529.037 1248.37 529.051 1248.09 529.114C1247.89 529.162 1247.56 529.214 1247.09 529.259C1246.15 529.35 1244.81 529.4 1243.03 529.4V533.4ZM1250.65 532.214C1251.14 531.723 1251.37 531.099 1251.5 530.675C1251.64 530.194 1251.74 529.639 1251.82 529.048C1251.96 527.861 1252.03 526.299 1252.03 524.4H1248.03C1248.03 526.235 1247.97 527.606 1247.85 528.552C1247.79 529.027 1247.72 529.34 1247.67 529.525C1247.59 529.768 1247.59 529.61 1247.82 529.386L1250.65 532.214ZM1252.03 524.4V447.6H1248.03V524.4H1252.03ZM1252.03 447.6C1252.03 445.703 1251.97 444.154 1251.82 442.994C1251.74 442.419 1251.64 441.87 1251.48 441.395C1251.36 441.007 1251.09 440.29 1250.43 439.8L1248.03 443C1247.65 442.71 1247.61 442.401 1247.68 442.63C1247.73 442.772 1247.79 443.048 1247.85 443.506C1247.97 444.413 1248.03 445.763 1248.03 447.6H1252.03ZM1250.65 439.986C1250.16 439.504 1249.56 439.269 1249.13 439.138C1248.66 438.992 1248.11 438.891 1247.54 438.816C1246.38 438.667 1244.87 438.6 1243.03 438.6V442.6C1244.8 442.6 1246.12 442.666 1247.03 442.784C1247.48 442.842 1247.78 442.908 1247.96 442.962C1248.18 443.031 1248.03 443.03 1247.82 442.814L1250.65 439.986ZM1243.03 438.6H1166.03V442.6H1243.03V438.6ZM1166.03 438.6C1164.13 438.6 1162.57 438.667 1161.38 438.815C1160.79 438.889 1160.24 438.99 1159.76 439.134C1159.33 439.262 1158.71 439.495 1158.22 439.986L1161.05 442.814C1160.82 443.039 1160.66 443.038 1160.91 442.966C1161.09 442.91 1161.4 442.844 1161.88 442.785C1162.83 442.666 1164.2 442.6 1166.03 442.6V438.6ZM1158.22 439.986C1157.69 440.514 1157.5 441.218 1157.43 441.54C1157.32 441.979 1157.25 442.498 1157.19 443.057C1157.08 444.186 1157.03 445.711 1157.03 447.6H1161.03C1161.03 445.756 1161.08 444.381 1161.17 443.443C1161.22 442.969 1161.27 442.662 1161.31 442.485C1161.38 442.191 1161.38 442.486 1161.05 442.814L1158.22 439.986ZM1157.03 447.6V524.4H1161.03V447.6H1157.03ZM1157.03 524.4C1157.03 526.291 1157.08 527.829 1157.19 528.987C1157.24 529.563 1157.32 530.09 1157.42 530.539C1157.5 530.919 1157.66 531.508 1158.03 532L1161.23 529.6C1161.4 529.826 1161.39 529.948 1161.32 529.661C1161.27 529.444 1161.22 529.104 1161.17 528.613C1161.08 527.638 1161.03 526.243 1161.03 524.4H1157.03ZM1158.43 532.4C1158.92 532.769 1159.51 532.928 1159.89 533.014C1160.34 533.115 1160.87 533.187 1161.45 533.241C1162.6 533.35 1164.14 533.4 1166.03 533.4V529.4C1164.19 529.4 1162.79 529.35 1161.82 529.259C1161.33 529.213 1160.99 529.16 1160.77 529.111C1160.48 529.047 1160.61 529.031 1160.83 529.2L1158.43 532.4ZM1320.66 558H1318.66V560H1320.66V558ZM1320.66 414V412H1318.66V414H1320.66ZM1349.66 414L1351.19 412.713L1350.59 412H1349.66V414ZM1438.06 519.2L1436.53 520.487L1440.06 524.689V519.2H1438.06ZM1438.06 414V412H1436.06V414H1438.06ZM1464.66 414H1466.66V412H1464.66V414ZM1464.66 558V560H1466.66V558H1464.66ZM1435.66 558L1434.13 559.287L1434.73 560H1435.66V558ZM1347.06 452.6L1348.59 451.313L1345.06 447.113V452.6H1347.06ZM1347.06 558V560H1349.06V558H1347.06ZM1322.66 558V414H1318.66V558H1322.66ZM1320.66 416H1349.66V412H1320.66V416ZM1348.13 415.287L1436.53 520.487L1439.59 517.913L1351.19 412.713L1348.13 415.287ZM1440.06 519.2V414H1436.06V519.2H1440.06ZM1438.06 416H1464.66V412H1438.06V416ZM1462.66 414V558H1466.66V414H1462.66ZM1464.66 556H1435.66V560H1464.66V556ZM1437.19 556.713L1348.59 451.313L1345.53 453.887L1434.13 559.287L1437.19 556.713ZM1345.06 452.6V558H1349.06V452.6H1345.06ZM1347.06 556H1320.66V560H1347.06V556Z" fill="#00E0FF"/>
<path opacity="0.23" d="M11.9367 763H8.93672V766H11.9367V763ZM11.9367 619V616H8.93672V619H11.9367ZM149.737 680L146.778 679.507V679.507L149.737 680ZM148.337 684.6L145.606 683.359L144.876 684.965L145.924 686.383L148.337 684.6ZM153.737 694.2L150.951 695.314L150.97 695.362L150.991 695.408L153.737 694.2ZM128.537 735.8L130.337 738.2L130.507 738.072L130.658 737.921L128.537 735.8ZM128.537 703.8L126.415 705.921L126.566 706.072L126.737 706.2L128.537 703.8ZM38.9367 703.8L41.058 705.921L38.9367 703.8ZM38.9367 735.8L36.5367 737.6L36.7939 737.943L37.1367 738.2L38.9367 735.8ZM122.537 675.8L124.658 677.921L124.658 677.921L122.537 675.8ZM122.537 646.4L120.137 648.2L120.394 648.543L120.737 648.8L122.537 646.4ZM38.9367 646.4L41.058 648.521L41.058 648.521L38.9367 646.4ZM38.9367 675.8L36.5367 677.6L36.7939 677.943L37.1367 678.2L38.9367 675.8ZM14.9367 763V619H8.93672V763H14.9367ZM11.9367 622H122.337V616H11.9367V622ZM122.337 622C129.126 622 134.9 624.406 139.815 629.321L144.058 625.079C138.04 619.06 130.748 616 122.337 616V622ZM139.815 629.321C144.73 634.236 147.137 640.011 147.137 646.8H153.137C153.137 638.389 150.076 631.097 144.058 625.079L139.815 629.321ZM147.137 646.8V675H153.137V646.8H147.137ZM147.137 675C147.137 676.579 147.015 678.08 146.778 679.507L152.696 680.493C152.992 678.72 153.137 676.887 153.137 675H147.137ZM146.778 679.507C146.554 680.85 146.163 682.132 145.606 683.359L151.068 685.841C151.844 684.135 152.386 682.35 152.696 680.493L146.778 679.507ZM145.924 686.383C148.048 689.256 149.719 692.233 150.951 695.314L156.522 693.086C155.088 689.5 153.159 686.077 150.749 682.817L145.924 686.383ZM150.991 695.408C152.306 698.396 152.937 701.32 152.937 704.2H158.937C158.937 700.414 158.101 696.67 156.483 692.992L150.991 695.408ZM152.937 704.2V735.2H158.937V704.2H152.937ZM152.937 735.2C152.937 741.989 150.53 747.764 145.615 752.679L149.858 756.921C155.876 750.903 158.937 743.611 158.937 735.2H152.937ZM145.615 752.679C140.712 757.583 134.875 760 127.937 760V766C136.465 766 143.829 762.951 149.858 756.921L145.615 752.679ZM127.937 760H11.9367V766H127.937V760ZM45.3367 739.4H122.337V733.4H45.3367V739.4ZM122.337 739.4C124.174 739.4 125.702 739.35 126.876 739.236C127.459 739.18 128.022 739.101 128.524 738.986C128.929 738.892 129.677 738.695 130.337 738.2L126.737 733.4C127.13 733.105 127.419 733.083 127.175 733.139C127.026 733.174 126.747 733.22 126.298 733.264C125.405 733.35 124.099 733.4 122.337 733.4V739.4ZM130.658 737.921C131.328 737.251 131.619 736.432 131.76 735.962C131.927 735.407 132.036 734.792 132.114 734.172C132.27 732.924 132.337 731.315 132.337 729.4H126.337C126.337 731.218 126.271 732.542 126.16 733.428C126.104 733.874 126.047 734.126 126.013 734.238C125.954 734.435 126.012 734.082 126.415 733.679L130.658 737.921ZM132.337 729.4V710H126.337V729.4H132.337ZM132.337 710C132.337 708.088 132.27 706.489 132.112 705.266C132.034 704.662 131.921 704.045 131.74 703.487C131.601 703.059 131.25 702.085 130.337 701.4L126.737 706.2C126.37 705.925 126.187 705.634 126.119 705.517C126.046 705.387 126.025 705.312 126.033 705.338C126.052 705.397 126.106 705.605 126.161 706.034C126.27 706.878 126.337 708.178 126.337 710H132.337ZM130.658 701.679C130.001 701.022 129.204 700.728 128.731 700.583C128.182 700.414 127.577 700.303 126.971 700.225C125.751 700.067 124.187 700 122.337 700V706C124.086 706 125.356 706.066 126.203 706.175C126.629 706.23 126.866 706.286 126.967 706.317C127.144 706.372 126.805 706.311 126.415 705.921L130.658 701.679ZM122.337 700H45.3367V706H122.337V700ZM45.3367 700C43.4218 700 41.8124 700.067 40.5646 700.223C39.9444 700.301 39.3297 700.41 38.7747 700.577C38.3048 700.717 37.4854 701.009 36.8154 701.679L41.058 705.921C40.6547 706.325 40.302 706.383 40.4988 706.323C40.6104 706.29 40.8624 706.233 41.3088 706.177C42.1944 706.066 43.5183 706 45.3367 706V700ZM36.8154 701.679C36.0723 702.422 35.8392 703.375 35.7592 703.703C35.6363 704.209 35.5569 704.78 35.5007 705.361C35.3868 706.537 35.3367 708.1 35.3367 710H41.3367C41.3367 708.167 41.3866 706.829 41.4728 705.939C41.5165 705.487 41.5621 705.233 41.5892 705.122C41.6026 705.067 41.5965 705.11 41.5535 705.21C41.5231 705.281 41.3873 705.592 41.058 705.921L36.8154 701.679ZM35.3367 710V729.4H41.3367V710H35.3367ZM35.3367 729.4C35.3367 731.303 35.387 732.877 35.4998 734.08C35.5559 734.678 35.6332 735.251 35.7474 735.759C35.838 736.161 36.0329 736.928 36.5367 737.6L41.3367 734C41.6405 734.405 41.6604 734.705 41.6011 734.441C41.5652 734.282 41.5176 733.989 41.4736 733.52C41.3864 732.59 41.3367 731.231 41.3367 729.4H35.3367ZM37.1367 738.2C37.8084 738.704 38.5755 738.899 38.9782 738.989C39.4855 739.103 40.0588 739.181 40.6567 739.237C41.8601 739.35 43.4341 739.4 45.3367 739.4V733.4C43.506 733.4 42.1467 733.35 41.2167 733.263C40.748 733.219 40.4546 733.172 40.2953 733.136C40.0313 733.076 40.3317 733.096 40.7367 733.4L37.1367 738.2ZM45.3367 679.4H116.537V673.4H45.3367V679.4ZM116.537 679.4C118.372 679.4 119.888 679.35 121.035 679.235C121.603 679.178 122.164 679.098 122.664 678.973C123.002 678.889 123.928 678.651 124.658 677.921L120.415 673.679C120.734 673.361 121.033 673.226 121.109 673.192C121.211 673.147 121.258 673.14 121.209 673.152C121.11 673.177 120.871 673.222 120.438 673.265C119.586 673.35 118.302 673.4 116.537 673.4V679.4ZM124.658 677.921C125.328 677.251 125.619 676.432 125.76 675.962C125.927 675.407 126.036 674.792 126.114 674.172C126.27 672.924 126.337 671.315 126.337 669.4H120.337C120.337 671.218 120.271 672.542 120.16 673.428C120.104 673.874 120.047 674.126 120.013 674.238C119.954 674.435 120.012 674.082 120.415 673.679L124.658 677.921ZM126.337 669.4V652.6H120.337V669.4H126.337ZM126.337 652.6C126.337 650.688 126.27 649.089 126.112 647.866C126.034 647.262 125.921 646.645 125.74 646.087C125.601 645.659 125.25 644.685 124.337 644L120.737 648.8C120.37 648.525 120.187 648.234 120.12 648.117C120.046 647.987 120.025 647.912 120.033 647.938C120.052 647.997 120.106 648.205 120.161 648.634C120.27 649.478 120.337 650.778 120.337 652.6H126.337ZM124.937 644.6C124.266 643.706 123.322 643.35 122.885 643.204C122.332 643.02 121.724 642.905 121.133 642.826C119.938 642.667 118.384 642.6 116.537 642.6V648.6C118.29 648.6 119.535 648.666 120.34 648.774C120.749 648.828 120.941 648.88 120.988 648.896C121.008 648.903 120.93 648.879 120.8 648.804C120.68 648.734 120.401 648.553 120.137 648.2L124.937 644.6ZM116.537 642.6H45.3367V648.6H116.537V642.6ZM45.3367 642.6C43.4218 642.6 41.8124 642.667 40.5646 642.823C39.9444 642.901 39.3297 643.01 38.7747 643.177C38.3048 643.317 37.4854 643.609 36.8154 644.279L41.058 648.521C40.6547 648.925 40.302 648.983 40.4988 648.923C40.6104 648.89 40.8624 648.833 41.3088 648.777C42.1944 648.666 43.5183 648.6 45.3367 648.6V642.6ZM36.8154 644.279C36.0723 645.022 35.8392 645.975 35.7592 646.303C35.6363 646.809 35.5569 647.38 35.5007 647.961C35.3868 649.137 35.3367 650.7 35.3367 652.6H41.3367C41.3367 650.767 41.3866 649.429 41.4728 648.539C41.5165 648.087 41.5621 647.833 41.5892 647.722C41.6026 647.667 41.5965 647.71 41.5535 647.81C41.5231 647.881 41.3873 648.192 41.058 648.521L36.8154 644.279ZM35.3367 652.6V669.4H41.3367V652.6H35.3367ZM35.3367 669.4C35.3367 671.303 35.387 672.877 35.4998 674.08C35.5559 674.678 35.6332 675.251 35.7474 675.759C35.838 676.161 36.0329 676.928 36.5367 677.6L41.3367 674C41.6405 674.405 41.6604 674.705 41.6011 674.441C41.5652 674.282 41.5176 673.989 41.4736 673.52C41.3864 672.59 41.3367 671.231 41.3367 669.4H35.3367ZM37.1367 678.2C37.8084 678.704 38.5755 678.899 38.9782 678.989C39.4855 679.103 40.0588 679.181 40.6567 679.237C41.8601 679.35 43.4341 679.4 45.3367 679.4V673.4C43.506 673.4 42.1467 673.35 41.2167 673.263C40.748 673.219 40.4546 673.172 40.2953 673.136C40.0312 673.076 40.3317 673.096 40.7367 673.4L37.1367 678.2ZM199.943 763H196.943V766H199.943V763ZM199.943 618.8V615.8H196.943V618.8H199.943ZM226.343 618.8H229.343V615.8H226.343V618.8ZM226.343 736.4H223.343V739.4H226.343V736.4ZM343.943 736.4H346.943V733.4H343.943V736.4ZM343.943 763V766H346.943V763H343.943ZM202.943 763V618.8H196.943V763H202.943ZM199.943 621.8H226.343V615.8H199.943V621.8ZM223.343 618.8V736.4H229.343V618.8H223.343ZM226.343 739.4H343.943V733.4H226.343V739.4ZM340.943 736.4V763H346.943V736.4H340.943ZM343.943 760H199.943V766H343.943V760ZM385.402 754.8L387.524 752.679L385.402 754.8ZM377.202 619V616H374.202V619H377.202ZM403.602 619H406.602V616H403.602V619ZM404.202 735.8L401.802 737.6L402.059 737.943L402.402 738.2L404.202 735.8ZM493.802 735.8L495.602 738.2L495.773 738.072L495.924 737.921L493.802 735.8ZM494.602 619V616H491.602V619H494.602ZM521.202 619H524.202V616H521.202V619ZM405.002 760C398.213 760 392.439 757.594 387.524 752.679L383.281 756.921C389.299 762.94 396.591 766 405.002 766V760ZM387.524 752.679C382.609 747.764 380.202 741.989 380.202 735.2H374.202C374.202 743.611 377.263 750.903 383.281 756.921L387.524 752.679ZM380.202 735.2V619H374.202V735.2H380.202ZM377.202 622H403.602V616H377.202V622ZM400.602 619V729.4H406.602V619H400.602ZM400.602 729.4C400.602 731.303 400.653 732.877 400.765 734.08C400.822 734.678 400.899 735.251 401.013 735.759C401.104 736.161 401.299 736.928 401.802 737.6L406.602 734C406.906 734.405 406.926 734.705 406.867 734.441C406.831 734.282 406.783 733.989 406.739 733.52C406.652 732.59 406.602 731.231 406.602 729.4H400.602ZM402.402 738.2C403.074 738.704 403.841 738.899 404.244 738.989C404.751 739.103 405.324 739.181 405.922 739.237C407.126 739.35 408.7 739.4 410.602 739.4V733.4C408.772 733.4 407.412 733.35 406.482 733.263C406.014 733.219 405.72 733.172 405.561 733.136C405.297 733.076 405.597 733.096 406.002 733.4L402.402 738.2ZM410.602 739.4H487.602V733.4H410.602V739.4ZM487.602 739.4C489.44 739.4 490.967 739.35 492.141 739.236C492.725 739.18 493.288 739.101 493.789 738.986C494.195 738.892 494.943 738.695 495.602 738.2L492.002 733.4C492.395 733.105 492.685 733.083 492.44 733.139C492.292 733.174 492.013 733.22 491.563 733.264C490.671 733.35 489.365 733.4 487.602 733.4V739.4ZM495.924 737.921C496.594 737.251 496.885 736.432 497.026 735.962C497.192 735.407 497.302 734.792 497.379 734.172C497.535 732.924 497.602 731.315 497.602 729.4H491.602C491.602 731.218 491.536 732.542 491.426 733.428C491.37 733.874 491.312 734.126 491.279 734.238C491.22 734.435 491.278 734.082 491.681 733.679L495.924 737.921ZM497.602 729.4V619H491.602V729.4H497.602ZM494.602 622H521.202V616H494.602V622ZM518.202 619V735.2H524.202V619H518.202ZM518.202 735.2C518.202 741.989 515.796 747.764 510.881 752.679L515.124 756.921C521.142 750.903 524.202 743.611 524.202 735.2H518.202ZM510.881 752.679C505.966 757.594 500.191 760 493.402 760V766C501.813 766 509.105 762.94 515.124 756.921L510.881 752.679ZM493.402 760H405.002V766H493.402V760ZM565.627 763H562.627V766H565.627V763ZM565.627 619V616H562.627V619H565.627ZM698.227 619H701.227V616H698.227V619ZM698.227 645.6V648.6H701.227V645.6H698.227ZM592.227 645.6V642.6H589.227V645.6H592.227ZM592.227 677.6H589.227V680.6H592.227V677.6ZM677.427 677.6H680.427V674.6H677.427V677.6ZM677.427 704.2V707.2H680.427V704.2H677.427ZM592.227 704.2V701.2H589.227V704.2H592.227ZM592.227 736.4H589.227V739.4H592.227V736.4ZM698.227 736.4H701.227V733.4H698.227V736.4ZM698.227 763V766H701.227V763H698.227ZM568.627 763V619H562.627V763H568.627ZM565.627 622H698.227V616H565.627V622ZM695.227 619V645.6H701.227V619H695.227ZM698.227 642.6H592.227V648.6H698.227V642.6ZM589.227 645.6V677.6H595.227V645.6H589.227ZM592.227 680.6H677.427V674.6H592.227V680.6ZM674.427 677.6V704.2H680.427V677.6H674.427ZM677.427 701.2H592.227V707.2H677.427V701.2ZM589.227 704.2V736.4H595.227V704.2H589.227ZM592.227 739.4H698.227V733.4H592.227V739.4ZM695.227 736.4V763H701.227V736.4H695.227ZM698.227 760H565.627V766H698.227V760ZM735.86 763H732.86V766H735.86V763ZM735.86 619V616H732.86V619H735.86ZM764.86 619L767.158 617.071L766.259 616H764.86V619ZM817.06 681.2L814.762 683.129L817.065 685.872L819.362 683.124L817.06 681.2ZM869.06 619V616H867.658L866.759 617.076L869.06 619ZM898.26 619H901.26V616H898.26V619ZM898.26 763V766H901.26V763H898.26ZM871.66 763H868.66V766H871.66V763ZM871.66 657.4H874.66V649.164L869.363 655.47L871.66 657.4ZM817.06 722.4L814.769 724.337L817.068 727.055L819.357 724.33L817.06 722.4ZM762.26 657.6L764.551 655.663L759.26 649.407V657.6H762.26ZM762.26 763V766H765.26V763H762.26ZM738.86 763V619H732.86V763H738.86ZM735.86 622H764.86V616H735.86V622ZM762.562 620.929L814.762 683.129L819.358 679.271L767.158 617.071L762.562 620.929ZM819.362 683.124L871.362 620.924L866.759 617.076L814.759 679.276L819.362 683.124ZM869.06 622H898.26V616H869.06V622ZM895.26 619V763H901.26V619H895.26ZM898.26 760H871.66V766H898.26V760ZM874.66 763V657.4H868.66V763H874.66ZM869.363 655.47L814.763 720.47L819.357 724.33L873.957 659.33L869.363 655.47ZM819.351 720.463L764.551 655.663L759.969 659.537L814.769 724.337L819.351 720.463ZM759.26 657.6V763H765.26V657.6H759.26ZM762.26 760H735.86V766H762.26V760ZM951.207 754.8L953.328 752.679L951.207 754.8ZM951.207 627.2L953.328 629.321L951.207 627.2ZM1059.61 735.8L1061.41 738.2L1061.58 738.072L1061.73 737.921L1059.61 735.8ZM1059.61 646.4L1057.49 648.521L1057.64 648.672L1057.81 648.8L1059.61 646.4ZM970.007 646.4L972.128 648.521V648.521L970.007 646.4ZM970.007 735.8L967.607 737.6L967.864 737.943L968.207 738.2L970.007 735.8ZM970.807 760C964.018 760 958.243 757.594 953.328 752.679L949.086 756.921C955.104 762.94 962.396 766 970.807 766V760ZM953.328 752.679C948.413 747.764 946.007 741.989 946.007 735.2H940.007C940.007 743.611 943.067 750.903 949.086 756.921L953.328 752.679ZM946.007 735.2V646.8H940.007V735.2H946.007ZM946.007 646.8C946.007 640.011 948.413 634.236 953.328 629.321L949.086 625.079C943.067 631.097 940.007 638.389 940.007 646.8H946.007ZM953.328 629.321C958.243 624.406 964.018 622 970.807 622V616C962.396 616 955.104 619.06 949.086 625.079L953.328 629.321ZM970.807 622H1059.21V616H970.807V622ZM1059.21 622C1066 622 1071.77 624.406 1076.69 629.321L1080.93 625.079C1074.91 619.06 1067.62 616 1059.21 616V622ZM1076.69 629.321C1081.6 634.236 1084.01 640.011 1084.01 646.8H1090.01C1090.01 638.389 1086.95 631.097 1080.93 625.079L1076.69 629.321ZM1084.01 646.8V735.2H1090.01V646.8H1084.01ZM1084.01 735.2C1084.01 741.989 1081.6 747.764 1076.69 752.679L1080.93 756.921C1086.95 750.903 1090.01 743.611 1090.01 735.2H1084.01ZM1076.69 752.679C1071.77 757.594 1066 760 1059.21 760V766C1067.62 766 1074.91 762.94 1080.93 756.921L1076.69 752.679ZM1059.21 760H970.807V766H1059.21V760ZM976.407 739.4H1053.41V733.4H976.407V739.4ZM1053.41 739.4C1055.24 739.4 1056.77 739.35 1057.95 739.236C1058.53 739.18 1059.09 739.101 1059.59 738.986C1060 738.892 1060.75 738.695 1061.41 738.2L1057.81 733.4C1058.2 733.105 1058.49 733.083 1058.24 733.139C1058.1 733.174 1057.82 733.22 1057.37 733.264C1056.48 733.35 1055.17 733.4 1053.41 733.4V739.4ZM1061.73 737.921C1062.4 737.251 1062.69 736.432 1062.83 735.962C1063 735.407 1063.11 734.792 1063.18 734.172C1063.34 732.924 1063.41 731.315 1063.41 729.4H1057.41C1057.41 731.218 1057.34 732.542 1057.23 733.428C1057.17 733.874 1057.12 734.126 1057.08 734.238C1057.02 734.435 1057.08 734.082 1057.49 733.679L1061.73 737.921ZM1063.41 729.4V652.6H1057.41V729.4H1063.41ZM1063.41 652.6C1063.41 650.688 1063.34 649.089 1063.18 647.866C1063.1 647.262 1062.99 646.645 1062.81 646.087C1062.67 645.659 1062.32 644.685 1061.41 644L1057.81 648.8C1057.44 648.525 1057.26 648.234 1057.19 648.117C1057.12 647.987 1057.09 647.912 1057.1 647.938C1057.12 647.997 1057.18 648.205 1057.23 648.634C1057.34 649.478 1057.41 650.778 1057.41 652.6H1063.41ZM1061.73 644.279C1061.07 643.622 1060.27 643.328 1059.8 643.183C1059.25 643.014 1058.65 642.903 1058.04 642.825C1056.82 642.667 1055.26 642.6 1053.41 642.6V648.6C1055.16 648.6 1056.43 648.666 1057.27 648.775C1057.7 648.83 1057.94 648.886 1058.04 648.917C1058.21 648.972 1057.88 648.911 1057.49 648.521L1061.73 644.279ZM1053.41 642.6H976.407V648.6H1053.41V642.6ZM976.407 642.6C974.492 642.6 972.883 642.667 971.635 642.823C971.015 642.901 970.4 643.01 969.845 643.177C969.375 643.317 968.556 643.609 967.886 644.279L972.128 648.521C971.725 648.925 971.372 648.983 971.569 648.923C971.681 648.89 971.933 648.833 972.379 648.777C973.265 648.666 974.589 648.6 976.407 648.6V642.6ZM967.886 644.279C967.143 645.022 966.91 645.975 966.83 646.303C966.707 646.809 966.627 647.38 966.571 647.961C966.457 649.137 966.407 650.7 966.407 652.6H972.407C972.407 650.767 972.457 649.429 972.543 648.539C972.587 648.087 972.632 647.833 972.66 647.722C972.673 647.667 972.667 647.71 972.624 647.81C972.593 647.881 972.458 648.192 972.128 648.521L967.886 644.279ZM966.407 652.6V729.4H972.407V652.6H966.407ZM966.407 729.4C966.407 731.303 966.457 732.877 966.57 734.08C966.626 734.678 966.704 735.251 966.818 735.759C966.908 736.161 967.103 736.928 967.607 737.6L972.407 734C972.711 734.405 972.731 734.705 972.671 734.441C972.635 734.282 972.588 733.989 972.544 733.52C972.457 732.59 972.407 731.231 972.407 729.4H966.407ZM968.207 738.2C968.879 738.704 969.646 738.899 970.049 738.989C970.556 739.103 971.129 739.181 971.727 739.237C972.93 739.35 974.504 739.4 976.407 739.4V733.4C974.576 733.4 973.217 733.35 972.287 733.263C971.818 733.219 971.525 733.172 971.366 733.136C971.102 733.076 971.402 733.096 971.807 733.4L968.207 738.2ZM1138.83 754.8L1140.95 752.679L1138.83 754.8ZM1138.83 627.2L1140.95 629.321L1138.83 627.2ZM1247.23 735.8L1249.03 738.2L1249.2 738.072L1249.35 737.921L1247.23 735.8ZM1247.23 646.4L1245.11 648.521L1245.26 648.672L1245.43 648.8L1247.23 646.4ZM1157.63 646.4L1159.75 648.521L1159.75 648.521L1157.63 646.4ZM1157.63 735.8L1155.23 737.6L1155.49 737.943L1155.83 738.2L1157.63 735.8ZM1158.43 760C1151.64 760 1145.87 757.594 1140.95 752.679L1136.71 756.921C1142.73 762.94 1150.02 766 1158.43 766V760ZM1140.95 752.679C1136.04 747.764 1133.63 741.989 1133.63 735.2H1127.63C1127.63 743.611 1130.69 750.903 1136.71 756.921L1140.95 752.679ZM1133.63 735.2V646.8H1127.63V735.2H1133.63ZM1133.63 646.8C1133.63 640.011 1136.04 634.236 1140.95 629.321L1136.71 625.079C1130.69 631.097 1127.63 638.389 1127.63 646.8H1133.63ZM1140.95 629.321C1145.87 624.406 1151.64 622 1158.43 622V616C1150.02 616 1142.73 619.06 1136.71 625.079L1140.95 629.321ZM1158.43 622H1246.83V616H1158.43V622ZM1246.83 622C1253.62 622 1259.4 624.406 1264.31 629.321L1268.55 625.079C1262.53 619.06 1255.24 616 1246.83 616V622ZM1264.31 629.321C1269.23 634.236 1271.63 640.011 1271.63 646.8H1277.63C1277.63 638.389 1274.57 631.097 1268.55 625.079L1264.31 629.321ZM1271.63 646.8V735.2H1277.63V646.8H1271.63ZM1271.63 735.2C1271.63 741.989 1269.23 747.764 1264.31 752.679L1268.55 756.921C1274.57 750.903 1277.63 743.611 1277.63 735.2H1271.63ZM1264.31 752.679C1259.4 757.594 1253.62 760 1246.83 760V766C1255.24 766 1262.53 762.94 1268.55 756.921L1264.31 752.679ZM1246.83 760H1158.43V766H1246.83V760ZM1164.03 739.4H1241.03V733.4H1164.03V739.4ZM1241.03 739.4C1242.87 739.4 1244.4 739.35 1245.57 739.236C1246.15 739.18 1246.72 739.101 1247.22 738.986C1247.62 738.892 1248.37 738.695 1249.03 738.2L1245.43 733.4C1245.83 733.105 1246.11 733.083 1245.87 733.139C1245.72 733.174 1245.44 733.22 1244.99 733.264C1244.1 733.35 1242.79 733.4 1241.03 733.4V739.4ZM1249.35 737.921C1250.02 737.251 1250.31 736.432 1250.46 735.962C1250.62 735.407 1250.73 734.792 1250.81 734.172C1250.96 732.924 1251.03 731.315 1251.03 729.4H1245.03C1245.03 731.218 1244.97 732.542 1244.86 733.428C1244.8 733.874 1244.74 734.126 1244.71 734.238C1244.65 734.435 1244.71 734.082 1245.11 733.679L1249.35 737.921ZM1251.03 729.4V652.6H1245.03V729.4H1251.03ZM1251.03 652.6C1251.03 650.688 1250.97 649.089 1250.81 647.866C1250.73 647.262 1250.62 646.645 1250.44 646.087C1250.3 645.659 1249.95 644.685 1249.03 644L1245.43 648.8C1245.07 648.525 1244.88 648.234 1244.81 648.117C1244.74 647.987 1244.72 647.912 1244.73 647.938C1244.75 647.997 1244.8 648.205 1244.86 648.634C1244.97 649.478 1245.03 650.778 1245.03 652.6H1251.03ZM1249.35 644.279C1248.7 643.622 1247.9 643.328 1247.43 643.183C1246.88 643.014 1246.27 642.903 1245.67 642.825C1244.45 642.667 1242.88 642.6 1241.03 642.6V648.6C1242.78 648.6 1244.05 648.666 1244.9 648.775C1245.32 648.83 1245.56 648.886 1245.66 648.917C1245.84 648.972 1245.5 648.911 1245.11 648.521L1249.35 644.279ZM1241.03 642.6H1164.03V648.6H1241.03V642.6ZM1164.03 642.6C1162.12 642.6 1160.51 642.667 1159.26 642.823C1158.64 642.901 1158.03 643.01 1157.47 643.177C1157 643.317 1156.18 643.609 1155.51 644.279L1159.75 648.521C1159.35 648.925 1159 648.983 1159.19 648.923C1159.31 648.89 1159.56 648.833 1160 648.777C1160.89 648.666 1162.21 648.6 1164.03 648.6V642.6ZM1155.51 644.279C1154.77 645.022 1154.53 645.975 1154.45 646.303C1154.33 646.809 1154.25 647.38 1154.2 647.961C1154.08 649.137 1154.03 650.7 1154.03 652.6H1160.03C1160.03 650.767 1160.08 649.429 1160.17 648.539C1160.21 648.087 1160.26 647.833 1160.28 647.722C1160.3 647.667 1160.29 647.71 1160.25 647.81C1160.22 647.881 1160.08 648.192 1159.75 648.521L1155.51 644.279ZM1154.03 652.6V729.4H1160.03V652.6H1154.03ZM1154.03 729.4C1154.03 731.303 1154.08 732.877 1154.2 734.08C1154.25 734.678 1154.33 735.251 1154.44 735.759C1154.53 736.161 1154.73 736.928 1155.23 737.6L1160.03 734C1160.34 734.405 1160.36 734.705 1160.3 734.441C1160.26 734.282 1160.21 733.989 1160.17 733.52C1160.08 732.59 1160.03 731.231 1160.03 729.4H1154.03ZM1155.83 738.2C1156.5 738.704 1157.27 738.899 1157.67 738.989C1158.18 739.103 1158.75 739.181 1159.35 739.237C1160.56 739.35 1162.13 739.4 1164.03 739.4V733.4C1162.2 733.4 1160.84 733.35 1159.91 733.263C1159.44 733.219 1159.15 733.172 1158.99 733.136C1158.73 733.076 1159.03 733.096 1159.43 733.4L1155.83 738.2ZM1318.66 763H1315.66V766H1318.66V763ZM1318.66 619V616H1315.66V619H1318.66ZM1347.66 619L1349.95 617.07L1349.05 616H1347.66V619ZM1436.06 724.2L1433.76 726.13L1439.06 732.433V724.2H1436.06ZM1436.06 619V616H1433.06V619H1436.06ZM1462.66 619H1465.66V616H1462.66V619ZM1462.66 763V766H1465.66V763H1462.66ZM1433.66 763L1431.36 764.93L1432.26 766H1433.66V763ZM1345.06 657.6L1347.35 655.67L1342.06 649.369V657.6H1345.06ZM1345.06 763V766H1348.06V763H1345.06ZM1321.66 763V619H1315.66V763H1321.66ZM1318.66 622H1347.66V616H1318.66V622ZM1345.36 620.93L1433.76 726.13L1438.35 722.27L1349.95 617.07L1345.36 620.93ZM1439.06 724.2V619H1433.06V724.2H1439.06ZM1436.06 622H1462.66V616H1436.06V622ZM1459.66 619V763H1465.66V619H1459.66ZM1462.66 760H1433.66V766H1462.66V760ZM1435.95 761.07L1347.35 655.67L1342.76 659.53L1431.36 764.93L1435.95 761.07ZM1342.06 657.6V763H1348.06V657.6H1342.06ZM1345.06 760H1318.66V766H1345.06V760Z" fill="#00E0FF"/>
</g>
</svg>
