<svg width="1464" height="563" viewBox="0 0 1464 563" fill="none" xmlns="http://www.w3.org/2000/svg">
<g style="mix-blend-mode:hard-light" opacity="0.96">
<path opacity="0.64" d="M9.99998 147.2H7V150.2H9.99998V147.2ZM9.99998 3.2V0.199997H7V3.2H9.99998ZM147.8 64.2L144.841 63.7068L147.8 64.2ZM146.4 68.8L143.669 67.5586L142.939 69.1645L143.987 70.5832L146.4 68.8ZM151.8 78.4L149.014 79.5142L149.033 79.5615L149.054 79.6082L151.8 78.4ZM126.6 120L128.4 122.4L128.57 122.272L128.721 122.121L126.6 120ZM126.6 88L124.478 90.1213L124.629 90.2721L124.8 90.4L126.6 88ZM37 88L39.1213 90.1213L37 88ZM37 120L34.6 121.8L34.8572 122.143L35.2 122.4L37 120ZM120.6 60L122.721 62.1213L120.6 60ZM120.6 30.6L118.2 32.4L118.457 32.7429L118.8 33L120.6 30.6ZM37 30.6L39.1213 32.7213L37 30.6ZM37 60L34.6 61.8L34.8572 62.1429L35.2 62.4L37 60ZM13 147.2V3.2H7V147.2H13ZM9.99998 6.2H120.4V0.199997H9.99998V6.2ZM120.4 6.2C127.189 6.2 132.963 8.60637 137.878 13.5213L142.121 9.2787C136.103 3.26028 128.811 0.199997 120.4 0.199997V6.2ZM137.878 13.5213C142.793 18.4363 145.2 24.2109 145.2 31H151.2C151.2 22.5891 148.139 15.2971 142.121 9.2787L137.878 13.5213ZM145.2 31V59.2H151.2V31H145.2ZM145.2 59.2C145.2 60.7793 145.078 62.2805 144.841 63.7068L150.759 64.6932C151.055 62.9195 151.2 61.0874 151.2 59.2H145.2ZM144.841 63.7068C144.617 65.0503 144.226 66.3319 143.669 67.5586L149.131 70.0414C149.907 68.3347 150.449 66.5497 150.759 64.6932L144.841 63.7068ZM143.987 70.5832C146.111 73.4565 147.782 76.4332 149.014 79.5142L154.585 77.2858C153.151 73.7002 151.222 70.2769 148.812 67.0168L143.987 70.5832ZM149.054 79.6082C150.369 82.5963 151 85.5198 151 88.4H157C157 84.6135 156.164 80.8703 154.546 77.1918L149.054 79.6082ZM151 88.4V119.4H157V88.4H151ZM151 119.4C151 126.189 148.593 131.964 143.678 136.879L147.921 141.121C153.939 135.103 157 127.811 157 119.4H151ZM143.678 136.879C138.775 141.783 132.938 144.2 126 144.2V150.2C134.528 150.2 141.892 147.151 147.921 141.121L143.678 136.879ZM126 144.2H9.99998V150.2H126V144.2ZM43.4 123.6H120.4V117.6H43.4V123.6ZM120.4 123.6C122.237 123.6 123.765 123.55 124.939 123.436C125.522 123.38 126.085 123.301 126.587 123.186C126.992 123.092 127.74 122.895 128.4 122.4L124.8 117.6C125.193 117.305 125.482 117.283 125.238 117.339C125.089 117.374 124.81 117.42 124.361 117.464C123.468 117.55 122.162 117.6 120.4 117.6V123.6ZM128.721 122.121C129.391 121.451 129.682 120.632 129.823 120.162C129.99 119.607 130.099 118.992 130.177 118.372C130.333 117.124 130.4 115.515 130.4 113.6H124.4C124.4 115.418 124.334 116.742 124.223 117.628C124.167 118.074 124.11 118.326 124.076 118.438C124.017 118.635 124.075 118.282 124.478 117.879L128.721 122.121ZM130.4 113.6V94.2H124.4V113.6H130.4ZM130.4 94.2C130.4 92.2883 130.333 90.6889 130.175 89.4661C130.097 88.8617 129.984 88.2447 129.803 87.687C129.664 87.2586 129.313 86.285 128.4 85.6L124.8 90.4C124.433 90.1252 124.25 89.8344 124.182 89.7165C124.109 89.5873 124.088 89.5118 124.096 89.538C124.115 89.5969 124.169 89.8049 124.224 90.2339C124.333 91.0778 124.4 92.3783 124.4 94.2H130.4ZM128.721 85.8787C128.064 85.222 127.267 84.9282 126.794 84.7827C126.245 84.6137 125.64 84.5029 125.034 84.4247C123.814 84.2673 122.25 84.2 120.4 84.2V90.2C122.149 90.2 123.419 90.266 124.266 90.3753C124.692 90.4304 124.929 90.4863 125.03 90.5173C125.207 90.5718 124.868 90.5113 124.478 90.1213L128.721 85.8787ZM120.4 84.2H43.4V90.2H120.4V84.2ZM43.4 84.2C41.4851 84.2 39.8757 84.2672 38.6279 84.4232C38.0077 84.5007 37.393 84.61 36.838 84.7765C36.3681 84.9175 35.5487 85.2087 34.8787 85.8787L39.1213 90.1213C38.718 90.5246 38.3653 90.5825 38.5621 90.5235C38.6737 90.49 38.9257 90.4326 39.3721 90.3768C40.2577 90.2661 41.5816 90.2 43.4 90.2V84.2ZM34.8787 85.8787C34.1356 86.6218 33.9025 87.5745 33.8225 87.9034C33.6996 88.4088 33.6202 88.9796 33.564 89.561C33.4501 90.7375 33.4 92.2998 33.4 94.2H39.4C39.4 92.3668 39.4499 91.0292 39.5361 90.139C39.5798 89.687 39.6254 89.4329 39.6525 89.3216C39.6659 89.2666 39.6598 89.3096 39.6168 89.4099C39.5864 89.4809 39.4506 89.7921 39.1213 90.1213L34.8787 85.8787ZM33.4 94.2V113.6H39.4V94.2H33.4ZM33.4 113.6C33.4 115.503 33.4503 117.077 33.5631 118.28C33.6192 118.878 33.6965 119.451 33.8107 119.959C33.9013 120.361 34.0962 121.128 34.6 121.8L39.4 118.2C39.7038 118.605 39.7237 118.905 39.6644 118.641C39.6285 118.482 39.5809 118.189 39.5369 117.72C39.4497 116.79 39.4 115.431 39.4 113.6H33.4ZM35.2 122.4C35.8717 122.904 36.6388 123.099 37.0415 123.189C37.5488 123.303 38.1221 123.381 38.72 123.437C39.9234 123.55 41.4974 123.6 43.4 123.6V117.6C41.5693 117.6 40.21 117.55 39.28 117.463C38.8113 117.419 38.5179 117.372 38.3586 117.336C38.0946 117.276 38.395 117.296 38.8 117.6L35.2 122.4ZM43.4 63.6H114.6V57.6H43.4V63.6ZM114.6 63.6C116.435 63.6 117.951 63.5499 119.098 63.4351C119.666 63.3784 120.227 63.298 120.727 63.1729C121.065 63.0885 121.991 62.851 122.721 62.1213L118.478 57.8787C118.797 57.5606 119.096 57.4256 119.172 57.3921C119.274 57.3475 119.321 57.3399 119.272 57.3521C119.173 57.377 118.934 57.4216 118.501 57.4649C117.649 57.5501 116.365 57.6 114.6 57.6V63.6ZM122.721 62.1213C123.391 61.4513 123.682 60.6319 123.823 60.162C123.99 59.607 124.099 58.9923 124.177 58.3721C124.333 57.1243 124.4 55.5149 124.4 53.6H118.4C118.4 55.4184 118.334 56.7423 118.223 57.6279C118.167 58.0743 118.11 58.3263 118.076 58.438C118.017 58.6347 118.075 58.282 118.478 57.8787L122.721 62.1213ZM124.4 53.6V36.8H118.4V53.6H124.4ZM124.4 36.8C124.4 34.8883 124.333 33.2889 124.175 32.0661C124.097 31.4617 123.984 30.8447 123.803 30.287C123.664 29.8586 123.313 28.885 122.4 28.2L118.8 33C118.433 32.7252 118.25 32.4344 118.183 32.3165C118.109 32.1873 118.088 32.1118 118.096 32.138C118.115 32.1969 118.169 32.4049 118.224 32.8339C118.333 33.6778 118.4 34.9783 118.4 36.8H124.4ZM123 28.8C122.329 27.9055 121.385 27.5496 120.948 27.4039C120.395 27.2196 119.787 27.1051 119.196 27.0263C118.001 26.8669 116.447 26.8 114.6 26.8V32.8C116.353 32.8 117.598 32.8664 118.403 32.9737C118.812 33.0282 119.004 33.0804 119.051 33.096C119.071 33.1027 118.993 33.0795 118.863 33.0038C118.743 32.9336 118.464 32.7526 118.2 32.4L123 28.8ZM114.6 26.8H43.4V32.8H114.6V26.8ZM43.4 26.8C41.4851 26.8 39.8757 26.8672 38.6279 27.0232C38.0077 27.1007 37.393 27.21 36.838 27.3765C36.3681 27.5175 35.5487 27.8087 34.8787 28.4787L39.1213 32.7213C38.718 33.1246 38.3653 33.1825 38.5621 33.1235C38.6737 33.09 38.9257 33.0326 39.3721 32.9768C40.2577 32.8661 41.5816 32.8 43.4 32.8V26.8ZM34.8787 28.4787C34.1356 29.2217 33.9025 30.1745 33.8225 30.5034C33.6996 31.0088 33.6202 31.5796 33.564 32.161C33.4501 33.3374 33.4 34.8998 33.4 36.8H39.4C39.4 34.9668 39.4499 33.6292 39.5361 32.739C39.5798 32.287 39.6254 32.0329 39.6525 31.9215C39.6659 31.8666 39.6598 31.9096 39.6168 32.0099C39.5864 32.0809 39.4506 32.3921 39.1213 32.7213L34.8787 28.4787ZM33.4 36.8V53.6H39.4V36.8H33.4ZM33.4 53.6C33.4 55.5026 33.4503 57.0766 33.5631 58.28C33.6192 58.878 33.6965 59.4512 33.8107 59.9585C33.9013 60.3612 34.0962 61.1283 34.6 61.8L39.4 58.2C39.7038 58.6051 39.7237 58.9055 39.6644 58.6415C39.6285 58.4821 39.5809 58.1887 39.5369 57.72C39.4497 56.79 39.4 55.4307 39.4 53.6H33.4ZM35.2 62.4C35.8717 62.9038 36.6388 63.0987 37.0415 63.1893C37.5488 63.3035 38.1221 63.3808 38.72 63.4369C39.9234 63.5497 41.4974 63.6 43.4 63.6V57.6C41.5693 57.6 40.21 57.5503 39.28 57.4631C38.8113 57.4191 38.5179 57.3715 38.3586 57.3357C38.0945 57.2763 38.395 57.2962 38.8 57.6L35.2 62.4ZM198.006 147.2H195.006V150.2H198.006V147.2ZM198.006 3.00001V0H195.006V3.00001H198.006ZM224.406 3.00001H227.406V0H224.406V3.00001ZM224.406 120.6H221.406V123.6H224.406V120.6ZM342.006 120.6H345.006V117.6H342.006V120.6ZM342.006 147.2V150.2H345.006V147.2H342.006ZM201.006 147.2V3.00001H195.006V147.2H201.006ZM198.006 6.00001H224.406V0H198.006V6.00001ZM221.406 3.00001V120.6H227.406V3.00001H221.406ZM224.406 123.6H342.006V117.6H224.406V123.6ZM339.006 120.6V147.2H345.006V120.6H339.006ZM342.006 144.2H198.006V150.2H342.006V144.2ZM383.465 139L385.587 136.879L383.465 139ZM375.265 3.2V0.199997H372.265V3.2H375.265ZM401.665 3.2H404.665V0.199997H401.665V3.2ZM402.265 120L399.865 121.8L400.122 122.143L400.465 122.4L402.265 120ZM491.865 120L493.665 122.4L493.836 122.272L493.987 122.121L491.865 120ZM492.665 3.2V0.199997H489.665V3.2H492.665ZM519.265 3.2H522.265V0.199997H519.265V3.2ZM403.065 144.2C396.276 144.2 390.502 141.794 385.587 136.879L381.344 141.121C387.362 147.14 394.654 150.2 403.065 150.2V144.2ZM385.587 136.879C380.672 131.964 378.265 126.189 378.265 119.4H372.265C372.265 127.811 375.326 135.103 381.344 141.121L385.587 136.879ZM378.265 119.4V3.2H372.265V119.4H378.265ZM375.265 6.2H401.665V0.199997H375.265V6.2ZM398.665 3.2V113.6H404.665V3.2H398.665ZM398.665 113.6C398.665 115.503 398.716 117.077 398.828 118.28C398.885 118.878 398.962 119.451 399.076 119.959C399.167 120.361 399.362 121.128 399.865 121.8L404.665 118.2C404.969 118.605 404.989 118.905 404.93 118.641C404.894 118.482 404.846 118.189 404.802 117.72C404.715 116.79 404.665 115.431 404.665 113.6H398.665ZM400.465 122.4C401.137 122.904 401.904 123.099 402.307 123.189C402.814 123.303 403.387 123.381 403.985 123.437C405.189 123.55 406.763 123.6 408.665 123.6V117.6C406.835 117.6 405.475 117.55 404.545 117.463C404.077 117.419 403.783 117.372 403.624 117.336C403.36 117.276 403.66 117.296 404.065 117.6L400.465 122.4ZM408.665 123.6H485.665V117.6H408.665V123.6ZM485.665 123.6C487.503 123.6 489.03 123.55 490.204 123.436C490.788 123.38 491.351 123.301 491.852 123.186C492.258 123.092 493.006 122.895 493.665 122.4L490.065 117.6C490.458 117.305 490.748 117.283 490.503 117.339C490.355 117.374 490.076 117.42 489.626 117.464C488.734 117.55 487.428 117.6 485.665 117.6V123.6ZM493.987 122.121C494.657 121.451 494.948 120.632 495.089 120.162C495.255 119.607 495.365 118.992 495.442 118.372C495.598 117.124 495.665 115.515 495.665 113.6H489.665C489.665 115.418 489.599 116.742 489.489 117.628C489.433 118.074 489.375 118.326 489.342 118.438C489.283 118.635 489.341 118.282 489.744 117.879L493.987 122.121ZM495.665 113.6V3.2H489.665V113.6H495.665ZM492.665 6.2H519.265V0.199997H492.665V6.2ZM516.265 3.2V119.4H522.265V3.2H516.265ZM516.265 119.4C516.265 126.189 513.859 131.964 508.944 136.879L513.187 141.121C519.205 135.103 522.265 127.811 522.265 119.4H516.265ZM508.944 136.879C504.029 141.794 498.254 144.2 491.465 144.2V150.2C499.876 150.2 507.168 147.14 513.187 141.121L508.944 136.879ZM491.465 144.2H403.065V150.2H491.465V144.2ZM563.69 147.2H560.69V150.2H563.69V147.2ZM563.69 3.2V0.199997H560.69V3.2H563.69ZM696.29 3.2H699.29V0.199997H696.29V3.2ZM696.29 29.8V32.8H699.29V29.8H696.29ZM590.29 29.8V26.8H587.29V29.8H590.29ZM590.29 61.8H587.29V64.8H590.29V61.8ZM675.49 61.8H678.49V58.8H675.49V61.8ZM675.49 88.4V91.4H678.49V88.4H675.49ZM590.29 88.4V85.4H587.29V88.4H590.29ZM590.29 120.6H587.29V123.6H590.29V120.6ZM696.29 120.6H699.29V117.6H696.29V120.6ZM696.29 147.2V150.2H699.29V147.2H696.29ZM566.69 147.2V3.2H560.69V147.2H566.69ZM563.69 6.2H696.29V0.199997H563.69V6.2ZM693.29 3.2V29.8H699.29V3.2H693.29ZM696.29 26.8H590.29V32.8H696.29V26.8ZM587.29 29.8V61.8H593.29V29.8H587.29ZM590.29 64.8H675.49V58.8H590.29V64.8ZM672.49 61.8V88.4H678.49V61.8H672.49ZM675.49 85.4H590.29V91.4H675.49V85.4ZM587.29 88.4V120.6H593.29V88.4H587.29ZM590.29 123.6H696.29V117.6H590.29V123.6ZM693.29 120.6V147.2H699.29V120.6H693.29ZM696.29 144.2H563.69V150.2H696.29V144.2ZM733.923 147.2H730.923V150.2H733.923V147.2ZM733.923 3.2V0.199997H730.923V3.2H733.923ZM762.923 3.2L765.221 1.27147L764.322 0.199997H762.923V3.2ZM815.123 65.4L812.825 67.3285L815.128 70.072L817.425 67.3242L815.123 65.4ZM867.123 3.2V0.199997H865.721L864.822 1.27582L867.123 3.2ZM896.323 3.2H899.323V0.199997H896.323V3.2ZM896.323 147.2V150.2H899.323V147.2H896.323ZM869.723 147.2H866.723V150.2H869.723V147.2ZM869.723 41.6H872.723V33.3643L867.426 39.6704L869.723 41.6ZM815.123 106.6L812.832 108.537L815.131 111.255L817.42 108.53L815.123 106.6ZM760.323 41.8L762.614 39.8628L757.323 33.6067V41.8H760.323ZM760.323 147.2V150.2H763.323V147.2H760.323ZM736.923 147.2V3.2H730.923V147.2H736.923ZM733.923 6.2H762.923V0.199997H733.923V6.2ZM760.625 5.12854L812.825 67.3285L817.421 63.4715L765.221 1.27147L760.625 5.12854ZM817.425 67.3242L869.425 5.1242L864.822 1.27582L812.822 63.4758L817.425 67.3242ZM867.123 6.2H896.323V0.199997H867.123V6.2ZM893.323 3.2V147.2H899.323V3.2H893.323ZM896.323 144.2H869.723V150.2H896.323V144.2ZM872.723 147.2V41.6H866.723V147.2H872.723ZM867.426 39.6704L812.826 104.67L817.42 108.53L872.02 43.5296L867.426 39.6704ZM817.414 104.663L762.614 39.8628L758.032 43.7372L812.832 108.537L817.414 104.663ZM757.323 41.8V147.2H763.323V41.8H757.323ZM760.323 144.2H733.923V150.2H760.323V144.2ZM949.27 139L951.391 136.879L949.27 139ZM949.27 11.4L951.391 13.5213L949.27 11.4ZM1057.67 120L1059.47 122.4L1059.64 122.272L1059.79 122.121L1057.67 120ZM1057.67 30.6L1055.55 32.7213L1055.7 32.8721L1055.87 33L1057.67 30.6ZM968.07 30.6L970.191 32.7213L968.07 30.6ZM968.07 120L965.67 121.8L965.927 122.143L966.27 122.4L968.07 120ZM968.87 144.2C962.081 144.2 956.306 141.794 951.391 136.879L947.149 141.121C953.167 147.14 960.459 150.2 968.87 150.2V144.2ZM951.391 136.879C946.476 131.964 944.07 126.189 944.07 119.4H938.07C938.07 127.811 941.13 135.103 947.149 141.121L951.391 136.879ZM944.07 119.4V31H938.07V119.4H944.07ZM944.07 31C944.07 24.2109 946.476 18.4363 951.391 13.5213L947.149 9.2787C941.13 15.2971 938.07 22.5891 938.07 31H944.07ZM951.391 13.5213C956.306 8.60637 962.081 6.2 968.87 6.2V0.199997C960.459 0.199997 953.167 3.26028 947.149 9.2787L951.391 13.5213ZM968.87 6.2H1057.27V0.199997H968.87V6.2ZM1057.27 6.2C1064.06 6.2 1069.83 8.60637 1074.75 13.5213L1078.99 9.2787C1072.97 3.26029 1065.68 0.199997 1057.27 0.199997V6.2ZM1074.75 13.5213C1079.66 18.4363 1082.07 24.2109 1082.07 31H1088.07C1088.07 22.5891 1085.01 15.2971 1078.99 9.2787L1074.75 13.5213ZM1082.07 31V119.4H1088.07V31H1082.07ZM1082.07 119.4C1082.07 126.189 1079.66 131.964 1074.75 136.879L1078.99 141.121C1085.01 135.103 1088.07 127.811 1088.07 119.4H1082.07ZM1074.75 136.879C1069.83 141.794 1064.06 144.2 1057.27 144.2V150.2C1065.68 150.2 1072.97 147.14 1078.99 141.121L1074.75 136.879ZM1057.27 144.2H968.87V150.2H1057.27V144.2ZM974.47 123.6H1051.47V117.6H974.47V123.6ZM1051.47 123.6C1053.3 123.6 1054.83 123.55 1056.01 123.436C1056.59 123.38 1057.15 123.301 1057.65 123.186C1058.06 123.092 1058.81 122.895 1059.47 122.4L1055.87 117.6C1056.26 117.305 1056.55 117.283 1056.3 117.339C1056.16 117.374 1055.88 117.42 1055.43 117.464C1054.54 117.55 1053.23 117.6 1051.47 117.6V123.6ZM1059.79 122.121C1060.46 121.451 1060.75 120.632 1060.89 120.162C1061.06 119.607 1061.17 118.992 1061.24 118.372C1061.4 117.124 1061.47 115.515 1061.47 113.6H1055.47C1055.47 115.418 1055.4 116.742 1055.29 117.628C1055.23 118.074 1055.18 118.326 1055.14 118.438C1055.08 118.635 1055.14 118.282 1055.55 117.879L1059.79 122.121ZM1061.47 113.6V36.8H1055.47V113.6H1061.47ZM1061.47 36.8C1061.47 34.8883 1061.4 33.2889 1061.24 32.0661C1061.16 31.4617 1061.05 30.8447 1060.87 30.287C1060.73 29.8586 1060.38 28.885 1059.47 28.2L1055.87 33C1055.5 32.7252 1055.32 32.4344 1055.25 32.3165C1055.18 32.1873 1055.15 32.1118 1055.16 32.138C1055.18 32.1969 1055.24 32.4049 1055.29 32.8339C1055.4 33.6778 1055.47 34.9783 1055.47 36.8H1061.47ZM1059.79 28.4787C1059.13 27.822 1058.33 27.5282 1057.86 27.3827C1057.31 27.2137 1056.71 27.103 1056.1 27.0247C1054.88 26.8673 1053.32 26.8 1051.47 26.8V32.8C1053.22 32.8 1054.49 32.866 1055.33 32.9753C1055.76 33.0304 1056 33.0863 1056.1 33.1173C1056.27 33.1718 1055.94 33.1113 1055.55 32.7213L1059.79 28.4787ZM1051.47 26.8H974.47V32.8H1051.47V26.8ZM974.47 26.8C972.555 26.8 970.946 26.8672 969.698 27.0232C969.078 27.1007 968.463 27.21 967.908 27.3765C967.438 27.5175 966.619 27.8087 965.949 28.4787L970.191 32.7213C969.788 33.1246 969.435 33.1825 969.632 33.1235C969.744 33.09 969.996 33.0326 970.442 32.9768C971.328 32.8661 972.652 32.8 974.47 32.8V26.8ZM965.949 28.4787C965.206 29.2217 964.973 30.1745 964.893 30.5034C964.77 31.0088 964.69 31.5796 964.634 32.161C964.52 33.3374 964.47 34.8998 964.47 36.8H970.47C970.47 34.9668 970.52 33.6292 970.606 32.739C970.65 32.287 970.695 32.0329 970.723 31.9216C970.736 31.8666 970.73 31.9096 970.687 32.0099C970.656 32.0809 970.521 32.3921 970.191 32.7213L965.949 28.4787ZM964.47 36.8V113.6H970.47V36.8H964.47ZM964.47 113.6C964.47 115.503 964.52 117.077 964.633 118.28C964.689 118.878 964.767 119.451 964.881 119.959C964.971 120.361 965.166 121.128 965.67 121.8L970.47 118.2C970.774 118.605 970.794 118.905 970.734 118.641C970.698 118.482 970.651 118.189 970.607 117.72C970.52 116.79 970.47 115.431 970.47 113.6H964.47ZM966.27 122.4C966.942 122.904 967.709 123.099 968.112 123.189C968.619 123.303 969.192 123.381 969.79 123.437C970.993 123.55 972.567 123.6 974.47 123.6V117.6C972.639 117.6 971.28 117.55 970.35 117.463C969.881 117.419 969.588 117.372 969.429 117.336C969.165 117.276 969.465 117.296 969.87 117.6L966.27 122.4ZM1136.89 139L1139.01 136.879L1136.89 139ZM1136.89 11.4L1139.01 13.5213L1136.89 11.4ZM1245.29 120L1247.09 122.4L1247.26 122.272L1247.41 122.121L1245.29 120ZM1245.29 30.6L1243.17 32.7213L1243.32 32.8721L1243.49 33L1245.29 30.6ZM1155.69 30.6L1157.81 32.7213L1155.69 30.6ZM1155.69 120L1153.29 121.8L1153.55 122.143L1153.89 122.4L1155.69 120ZM1156.49 144.2C1149.7 144.2 1143.93 141.794 1139.01 136.879L1134.77 141.121C1140.79 147.14 1148.08 150.2 1156.49 150.2V144.2ZM1139.01 136.879C1134.1 131.964 1131.69 126.189 1131.69 119.4H1125.69C1125.69 127.811 1128.75 135.103 1134.77 141.121L1139.01 136.879ZM1131.69 119.4V31H1125.69V119.4H1131.69ZM1131.69 31C1131.69 24.2109 1134.1 18.4363 1139.01 13.5213L1134.77 9.2787C1128.75 15.2971 1125.69 22.5891 1125.69 31H1131.69ZM1139.01 13.5213C1143.93 8.60637 1149.7 6.2 1156.49 6.2V0.199997C1148.08 0.199997 1140.79 3.26028 1134.77 9.2787L1139.01 13.5213ZM1156.49 6.2H1244.89V0.199997H1156.49V6.2ZM1244.89 6.2C1251.68 6.2 1257.46 8.60637 1262.37 13.5213L1266.61 9.2787C1260.59 3.26029 1253.3 0.199997 1244.89 0.199997V6.2ZM1262.37 13.5213C1267.29 18.4363 1269.69 24.2109 1269.69 31H1275.69C1275.69 22.5891 1272.63 15.2971 1266.61 9.2787L1262.37 13.5213ZM1269.69 31V119.4H1275.69V31H1269.69ZM1269.69 119.4C1269.69 126.189 1267.29 131.964 1262.37 136.879L1266.61 141.121C1272.63 135.103 1275.69 127.811 1275.69 119.4H1269.69ZM1262.37 136.879C1257.46 141.794 1251.68 144.2 1244.89 144.2V150.2C1253.3 150.2 1260.59 147.14 1266.61 141.121L1262.37 136.879ZM1244.89 144.2H1156.49V150.2H1244.89V144.2ZM1162.09 123.6H1239.09V117.6H1162.09V123.6ZM1239.09 123.6C1240.93 123.6 1242.46 123.55 1243.63 123.436C1244.21 123.38 1244.78 123.301 1245.28 123.186C1245.68 123.092 1246.43 122.895 1247.09 122.4L1243.49 117.6C1243.89 117.305 1244.17 117.283 1243.93 117.339C1243.78 117.374 1243.5 117.42 1243.05 117.464C1242.16 117.55 1240.85 117.6 1239.09 117.6V123.6ZM1247.41 122.121C1248.08 121.451 1248.37 120.632 1248.52 120.162C1248.68 119.607 1248.79 118.992 1248.87 118.372C1249.02 117.124 1249.09 115.515 1249.09 113.6H1243.09C1243.09 115.418 1243.03 116.742 1242.92 117.628C1242.86 118.074 1242.8 118.326 1242.77 118.438C1242.71 118.635 1242.77 118.282 1243.17 117.879L1247.41 122.121ZM1249.09 113.6V36.8H1243.09V113.6H1249.09ZM1249.09 36.8C1249.09 34.8883 1249.03 33.2889 1248.87 32.0661C1248.79 31.4617 1248.68 30.8447 1248.5 30.287C1248.36 29.8586 1248.01 28.885 1247.09 28.2L1243.49 33C1243.13 32.7252 1242.94 32.4344 1242.87 32.3165C1242.8 32.1873 1242.78 32.1118 1242.79 32.138C1242.81 32.1969 1242.86 32.4049 1242.92 32.8339C1243.03 33.6778 1243.09 34.9783 1243.09 36.8H1249.09ZM1247.41 28.4787C1246.76 27.822 1245.96 27.5282 1245.49 27.3827C1244.94 27.2137 1244.33 27.103 1243.73 27.0247C1242.51 26.8673 1240.94 26.8 1239.09 26.8V32.8C1240.84 32.8 1242.11 32.866 1242.96 32.9753C1243.38 33.0304 1243.62 33.0863 1243.72 33.1173C1243.9 33.1718 1243.56 33.1113 1243.17 32.7213L1247.41 28.4787ZM1239.09 26.8H1162.09V32.8H1239.09V26.8ZM1162.09 26.8C1160.18 26.8 1158.57 26.8672 1157.32 27.0232C1156.7 27.1007 1156.09 27.21 1155.53 27.3765C1155.06 27.5175 1154.24 27.8087 1153.57 28.4787L1157.81 32.7213C1157.41 33.1246 1157.06 33.1825 1157.25 33.1235C1157.37 33.09 1157.62 33.0326 1158.06 32.9768C1158.95 32.8661 1160.27 32.8 1162.09 32.8V26.8ZM1153.57 28.4787C1152.83 29.2217 1152.59 30.1745 1152.51 30.5034C1152.39 31.0088 1152.31 31.5796 1152.26 32.161C1152.14 33.3374 1152.09 34.8998 1152.09 36.8H1158.09C1158.09 34.9668 1158.14 33.6292 1158.23 32.739C1158.27 32.287 1158.32 32.0329 1158.34 31.9216C1158.36 31.8666 1158.35 31.9096 1158.31 32.0099C1158.28 32.0809 1158.14 32.3921 1157.81 32.7213L1153.57 28.4787ZM1152.09 36.8V113.6H1158.09V36.8H1152.09ZM1152.09 113.6C1152.09 115.503 1152.14 117.077 1152.26 118.28C1152.31 118.878 1152.39 119.451 1152.5 119.959C1152.59 120.361 1152.79 121.128 1153.29 121.8L1158.09 118.2C1158.4 118.605 1158.42 118.905 1158.36 118.641C1158.32 118.482 1158.27 118.189 1158.23 117.72C1158.14 116.79 1158.09 115.431 1158.09 113.6H1152.09ZM1153.89 122.4C1154.56 122.904 1155.33 123.099 1155.73 123.189C1156.24 123.303 1156.81 123.381 1157.41 123.437C1158.62 123.55 1160.19 123.6 1162.09 123.6V117.6C1160.26 117.6 1158.9 117.55 1157.97 117.463C1157.5 117.419 1157.21 117.372 1157.05 117.336C1156.79 117.276 1157.09 117.296 1157.49 117.6L1153.89 122.4ZM1316.72 147.2H1313.72V150.2H1316.72V147.2ZM1316.72 3.2V0.199997H1313.72V3.2H1316.72ZM1345.72 3.2L1348.01 1.27002L1347.11 0.199997H1345.72V3.2ZM1434.12 108.4L1431.82 110.33L1437.12 116.633V108.4H1434.12ZM1434.12 3.2V0.199997H1431.12V3.2H1434.12ZM1460.72 3.2H1463.72V0.199997H1460.72V3.2ZM1460.72 147.2V150.2H1463.72V147.2H1460.72ZM1431.72 147.2L1429.42 149.13L1430.32 150.2H1431.72V147.2ZM1343.12 41.8L1345.41 39.8696L1340.12 33.5689V41.8H1343.12ZM1343.12 147.2V150.2H1346.12V147.2H1343.12ZM1319.72 147.2V3.2H1313.72V147.2H1319.72ZM1316.72 6.2H1345.72V0.199997H1316.72V6.2ZM1343.42 5.12998L1431.82 110.33L1436.41 106.47L1348.01 1.27002L1343.42 5.12998ZM1437.12 108.4V3.2H1431.12V108.4H1437.12ZM1434.12 6.2H1460.72V0.199997H1434.12V6.2ZM1457.72 3.2V147.2H1463.72V3.2H1457.72ZM1460.72 144.2H1431.72V150.2H1460.72V144.2ZM1434.01 145.27L1345.41 39.8696L1340.82 43.7304L1429.42 149.13L1434.01 145.27ZM1340.12 41.8V147.2H1346.12V41.8H1340.12ZM1343.12 144.2H1316.72V150.2H1343.12V144.2Z" fill="#00E0FF"/>
<path opacity="0.33" d="M5.01085 184.956H2V182H5.01085V184.956ZM5.01085 326.847V329.803H2V326.847H5.01085ZM143.31 266.74L140.341 267.226L143.31 266.74ZM141.905 262.208L139.164 263.431L138.432 261.848L139.483 260.451L141.905 262.208ZM147.325 252.748L144.529 251.651L144.548 251.603L144.569 251.558L147.325 252.748ZM122.034 211.758L123.84 209.393L124.011 209.519L124.162 209.668L122.034 211.758ZM122.034 243.289L119.904 241.199L120.055 241.05L120.227 240.924L122.034 243.289ZM32.1086 243.289L34.2376 241.199L32.1086 243.289ZM32.1086 211.758L29.7 209.984L29.9581 209.646L30.3021 209.393L32.1086 211.758ZM116.012 270.879L118.14 268.789L116.012 270.879ZM116.012 299.848L113.603 298.075L113.861 297.737L114.205 297.483L116.012 299.848ZM32.1086 299.848L34.2376 297.758L32.1086 299.848ZM32.1086 270.879L29.7 269.105L29.9581 268.767L30.3021 268.514L32.1086 270.879ZM8.02171 184.956V326.847H2V184.956H8.02171ZM5.01085 323.891H115.811V329.803H5.01085V323.891ZM115.811 323.891C122.625 323.891 128.42 321.52 133.352 316.677L137.611 320.857C131.571 326.788 124.253 329.803 115.811 329.803V323.891ZM133.352 316.677C138.285 311.834 140.701 306.144 140.701 299.454H146.723C146.723 307.742 143.651 314.927 137.611 320.857L133.352 316.677ZM140.701 299.454V271.667H146.723V299.454H140.701ZM140.701 271.667C140.701 270.111 140.578 268.632 140.341 267.226L146.28 266.255C146.577 268.002 146.723 269.808 146.723 271.667H140.701ZM140.341 267.226C140.116 265.903 139.723 264.64 139.164 263.431L144.646 260.985C145.425 262.666 145.969 264.425 146.28 266.255L140.341 267.226ZM139.483 260.451C141.615 257.62 143.292 254.687 144.529 251.651L150.12 253.846C148.681 257.379 146.745 260.752 144.326 263.965L139.483 260.451ZM144.569 251.558C145.889 248.614 146.522 245.733 146.522 242.895H152.544C152.544 246.625 151.705 250.315 150.081 253.939L144.569 251.558ZM146.522 242.895V212.349H152.544V242.895H146.522ZM146.522 212.349C146.522 205.659 144.106 199.969 139.173 195.126L143.432 190.946C149.472 196.876 152.544 204.061 152.544 212.349H146.522ZM139.173 195.126C134.253 190.294 128.394 187.912 121.431 187.912V182C129.99 182 137.381 185.004 143.432 190.946L139.173 195.126ZM121.431 187.912H5.01085V182H121.431V187.912ZM38.5318 208.21H115.811V214.123H38.5318V208.21ZM115.811 208.21C117.655 208.21 119.188 208.26 120.366 208.372C120.952 208.427 121.517 208.505 122.02 208.618C122.427 208.711 123.178 208.905 123.84 209.393L120.227 214.123C120.621 214.413 120.911 214.435 120.667 214.38C120.517 214.345 120.237 214.3 119.786 214.257C118.89 214.172 117.579 214.123 115.811 214.123V208.21ZM124.162 209.668C124.835 210.328 125.127 211.135 125.268 211.598C125.436 212.145 125.545 212.751 125.623 213.362C125.78 214.592 125.847 216.177 125.847 218.064H119.826C119.826 216.273 119.759 214.968 119.648 214.095C119.592 213.655 119.534 213.407 119.5 213.297C119.441 213.103 119.499 213.451 119.904 213.848L124.162 209.668ZM125.847 218.064V237.18H119.826V218.064H125.847ZM125.847 237.18C125.847 239.064 125.78 240.639 125.621 241.844C125.543 242.44 125.43 243.048 125.248 243.597C125.109 244.019 124.756 244.979 123.84 245.654L120.227 240.924C119.859 241.195 119.675 241.482 119.607 241.597C119.533 241.725 119.512 241.799 119.52 241.773C119.54 241.715 119.594 241.51 119.649 241.088C119.758 240.256 119.826 238.975 119.826 237.18H125.847ZM124.162 245.379C123.503 246.026 122.703 246.316 122.228 246.459C121.677 246.625 121.07 246.735 120.462 246.812C119.237 246.967 117.668 247.033 115.811 247.033V241.121C117.566 241.121 118.841 241.056 119.691 240.949C120.119 240.895 120.356 240.839 120.458 240.809C120.635 240.755 120.295 240.815 119.904 241.199L124.162 245.379ZM115.811 247.033H38.5318V241.121H115.811V247.033ZM38.5318 247.033C36.61 247.033 34.9948 246.967 33.7424 246.814C33.12 246.737 32.5031 246.629 31.9461 246.465C31.4745 246.327 30.6521 246.039 29.9797 245.379L34.2376 241.199C33.8329 240.801 33.4789 240.744 33.6764 240.803C33.7884 240.835 34.0413 240.892 34.4893 240.947C35.3781 241.056 36.7068 241.121 38.5318 241.121V247.033ZM29.9797 245.379C29.2339 244.647 28.9999 243.708 28.9196 243.385C28.7963 242.886 28.7166 242.323 28.6602 241.751C28.5459 240.592 28.4956 239.052 28.4956 237.18H34.5173C34.5173 238.986 34.5674 240.304 34.6539 241.181C34.6978 241.627 34.7436 241.877 34.7708 241.986C34.7842 242.04 34.7781 241.998 34.7349 241.9C34.7044 241.83 34.5681 241.523 34.2376 241.199L29.9797 245.379ZM28.4956 237.18V218.064H34.5173V237.18H28.4956ZM28.4956 218.064C28.4956 216.189 28.5461 214.638 28.6593 213.452C28.7156 212.863 28.7932 212.299 28.9078 211.798C28.9987 211.402 29.1943 210.646 29.7 209.984L34.5173 213.531C34.8222 213.132 34.8422 212.837 34.7827 213.097C34.7467 213.253 34.6989 213.542 34.6547 214.004C34.5672 214.921 34.5173 216.26 34.5173 218.064H28.4956ZM30.3021 209.393C30.9763 208.896 31.7461 208.704 32.1503 208.615C32.6594 208.503 33.2348 208.426 33.8349 208.371C35.0426 208.26 36.6223 208.21 38.5318 208.21V214.123C36.6945 214.123 35.3303 214.172 34.3969 214.257C33.9265 214.301 33.632 214.347 33.4722 214.383C33.2072 214.442 33.5087 214.422 33.9152 214.123L30.3021 209.393ZM38.5318 267.332H109.99V273.244H38.5318V267.332ZM109.99 267.332C111.832 267.332 113.353 267.381 114.504 267.494C115.074 267.55 115.637 267.629 116.139 267.752C116.478 267.835 117.408 268.07 118.14 268.789L113.882 272.969C114.202 273.282 114.502 273.415 114.579 273.449C114.681 273.493 114.728 273.5 114.679 273.488C114.58 273.463 114.34 273.419 113.905 273.377C113.05 273.293 111.761 273.244 109.99 273.244V267.332ZM118.14 268.789C118.813 269.449 119.105 270.256 119.246 270.719C119.414 271.266 119.523 271.872 119.602 272.483C119.758 273.713 119.826 275.298 119.826 277.185H113.804C113.804 275.394 113.738 274.089 113.626 273.216C113.57 272.777 113.513 272.528 113.479 272.418C113.419 272.224 113.478 272.572 113.882 272.969L118.14 268.789ZM119.826 277.185V293.739H113.804V277.185H119.826ZM119.826 293.739C119.826 295.623 119.758 297.199 119.6 298.404C119.521 298.999 119.408 299.607 119.226 300.157C119.087 300.578 118.735 301.538 117.818 302.213L114.205 297.483C113.837 297.754 113.653 298.041 113.586 298.156C113.512 298.284 113.491 298.358 113.499 298.333C113.518 298.275 113.572 298.07 113.627 297.647C113.737 296.815 113.804 295.534 113.804 293.739H119.826ZM118.42 301.622C117.747 302.503 116.8 302.854 116.361 302.997C115.806 303.179 115.196 303.292 114.603 303.37C113.403 303.527 111.844 303.593 109.99 303.593V297.68C111.749 297.68 112.999 297.615 113.807 297.509C114.217 297.456 114.41 297.405 114.457 297.389C114.477 297.382 114.399 297.406 114.268 297.479C114.148 297.548 113.868 297.727 113.603 298.075L118.42 301.622ZM109.99 303.593H38.5318V297.68H109.99V303.593ZM38.5318 303.593C36.61 303.593 34.9948 303.527 33.7424 303.373C33.12 303.296 32.5031 303.189 31.9461 303.024C31.4745 302.886 30.6521 302.598 29.9797 301.938L34.2376 297.758C33.8329 297.36 33.4789 297.303 33.6764 297.362C33.7884 297.395 34.0413 297.451 34.4893 297.506C35.3781 297.615 36.7068 297.68 38.5318 297.68V303.593ZM29.9797 301.938C29.2339 301.206 28.9999 300.267 28.9196 299.944C28.7963 299.445 28.7166 298.883 28.6602 298.31C28.5459 297.151 28.4956 295.611 28.4956 293.739H34.5173C34.5173 295.545 34.5674 296.864 34.6539 297.741C34.6978 298.186 34.7436 298.436 34.7708 298.546C34.7842 298.6 34.7781 298.557 34.7349 298.459C34.7044 298.389 34.5681 298.082 34.2376 297.758L29.9797 301.938ZM28.4956 293.739V277.185H34.5173V293.739H28.4956ZM28.4956 277.185C28.4956 275.31 28.5461 273.759 28.6593 272.574C28.7156 271.984 28.7932 271.42 28.9078 270.919C28.9987 270.523 29.1943 269.767 29.7 269.105L34.5173 272.652C34.8222 272.253 34.8422 271.958 34.7827 272.218C34.7467 272.375 34.6989 272.663 34.6547 273.125C34.5672 274.042 34.5173 275.381 34.5173 277.185H28.4956ZM30.3021 268.514C30.9763 268.017 31.7461 267.825 32.1503 267.737C32.6594 267.624 33.2348 267.547 33.8349 267.492C35.0426 267.381 36.6223 267.332 38.5318 267.332V273.244C36.6945 273.244 35.3303 273.293 34.3969 273.379C33.9265 273.422 33.632 273.468 33.4722 273.504C33.2071 273.563 33.5087 273.543 33.9152 273.244L30.3021 268.514ZM193.698 184.956H190.687V182H193.698V184.956ZM193.698 327.044V330H190.687V327.044H193.698ZM220.194 327.044H223.205V330H220.194V327.044ZM220.194 211.166H217.183V208.21H220.194V211.166ZM338.22 211.166H341.231V214.123H338.22V211.166ZM338.22 184.956V182H341.231V184.956H338.22ZM196.709 184.956V327.044H190.687V184.956H196.709ZM193.698 324.088H220.194V330H193.698V324.088ZM217.183 327.044V211.166H223.205V327.044H217.183ZM220.194 208.21H338.22V214.123H220.194V208.21ZM335.209 211.166V184.956H341.231V211.166H335.209ZM338.22 187.912H193.698V182H338.22V187.912ZM379.829 193.036L381.959 195.126L379.829 193.036ZM371.599 326.847V329.803H368.588V326.847H371.599ZM398.095 326.847H401.106V329.803H398.095V326.847ZM398.697 211.758L396.288 209.984L396.546 209.646L396.891 209.393L398.697 211.758ZM488.622 211.758L490.428 209.393L490.6 209.519L490.751 209.668L488.622 211.758ZM489.425 326.847V329.803H486.414V326.847H489.425ZM516.121 326.847H519.132V329.803H516.121V326.847ZM399.5 187.912C392.686 187.912 386.891 190.283 381.959 195.126L377.7 190.946C383.74 185.015 391.059 182 399.5 182V187.912ZM381.959 195.126C377.026 199.969 374.61 205.659 374.61 212.349H368.588C368.588 204.061 371.66 196.876 377.7 190.946L381.959 195.126ZM374.61 212.349V326.847H368.588V212.349H374.61ZM371.599 323.891H398.095V329.803H371.599V323.891ZM395.084 326.847V218.064H401.106V326.847H395.084ZM395.084 218.064C395.084 216.189 395.135 214.638 395.248 213.452C395.305 212.863 395.382 212.299 395.497 211.798C395.588 211.402 395.784 210.646 396.288 209.984L401.106 213.531C401.411 213.132 401.431 212.837 401.372 213.097C401.336 213.253 401.287 213.542 401.243 214.004C401.156 214.921 401.106 216.26 401.106 218.064H395.084ZM396.891 209.393C397.565 208.896 398.335 208.704 398.739 208.615C399.248 208.503 399.823 208.426 400.423 208.371C401.632 208.26 403.211 208.21 405.12 208.21V214.123C403.284 214.123 401.919 214.172 400.985 214.257C400.516 214.301 400.221 214.347 400.061 214.383C399.796 214.442 400.097 214.422 400.504 214.123L396.891 209.393ZM405.12 208.21H482.399V214.123H405.12V208.21ZM482.399 208.21C484.244 208.21 485.776 208.26 486.955 208.372C487.541 208.427 488.106 208.505 488.609 208.618C489.016 208.711 489.767 208.905 490.428 209.393L486.815 214.123C487.21 214.413 487.501 214.435 487.255 214.38C487.106 214.345 486.826 214.3 486.374 214.257C485.479 214.172 484.169 214.123 482.399 214.123V208.21ZM490.751 209.668C491.424 210.328 491.716 211.135 491.857 211.598C492.024 212.145 492.134 212.751 492.212 213.362C492.368 214.592 492.435 216.177 492.435 218.064H486.414C486.414 216.273 486.347 214.968 486.237 214.095C486.181 213.655 486.123 213.407 486.089 213.297C486.03 213.103 486.088 213.451 486.493 213.848L490.751 209.668ZM492.435 218.064V326.847H486.414V218.064H492.435ZM489.425 323.891H516.121V329.803H489.425V323.891ZM513.11 326.847V212.349H519.132V326.847H513.11ZM513.11 212.349C513.11 205.659 510.695 199.969 505.762 195.126L510.021 190.946C516.061 196.876 519.132 204.061 519.132 212.349H513.11ZM505.762 195.126C500.83 190.283 495.034 187.912 488.22 187.912V182C496.662 182 503.98 185.015 510.021 190.946L505.762 195.126ZM488.22 187.912H399.5V182H488.22V187.912ZM560.707 184.956H557.696V182H560.707V184.956ZM560.707 326.847V329.803H557.696V326.847H560.707ZM693.787 326.847H696.798V329.803H693.787V326.847ZM693.787 300.636V297.68H696.798V300.636H693.787ZM587.403 300.636V303.593H584.392V300.636H587.403ZM587.403 269.105H584.392V266.149H587.403V269.105ZM672.912 269.105H675.923V272.061H672.912V269.105ZM672.912 242.895V239.939H675.923V242.895H672.912ZM587.403 242.895V245.851H584.392V242.895H587.403ZM587.403 211.166H584.392V208.21H587.403V211.166ZM693.787 211.166H696.798V214.123H693.787V211.166ZM693.787 184.956V182H696.798V184.956H693.787ZM563.718 184.956V326.847H557.696V184.956H563.718ZM560.707 323.891H693.787V329.803H560.707V323.891ZM690.776 326.847V300.636H696.798V326.847H690.776ZM693.787 303.593H587.403V297.68H693.787V303.593ZM584.392 300.636V269.105H590.414V300.636H584.392ZM587.403 266.149H672.912V272.061H587.403V266.149ZM669.901 269.105V242.895H675.923V269.105H669.901ZM672.912 245.851H587.403V239.939H672.912V245.851ZM584.392 242.895V211.166H590.414V242.895H584.392ZM587.403 208.21H693.787V214.123H587.403V208.21ZM690.776 211.166V184.956H696.798V211.166H690.776ZM693.787 187.912H560.707V182H693.787V187.912ZM731.556 184.956H728.546V182H731.556V184.956ZM731.556 326.847V329.803H728.546V326.847H731.556ZM760.661 326.847L762.968 328.748L762.066 329.803H760.661V326.847ZM813.051 265.558L810.744 263.657L813.056 260.954L815.361 263.662L813.051 265.558ZM865.239 326.847V329.803H863.832L862.93 328.743L865.239 326.847ZM894.545 326.847H897.556V329.803H894.545V326.847ZM894.545 184.956V182H897.556V184.956H894.545ZM867.848 184.956H864.837V182H867.848V184.956ZM867.848 289.009H870.859V297.125L865.543 290.911L867.848 289.009ZM813.051 224.961L810.751 223.053L813.059 220.375L815.356 223.06L813.051 224.961ZM758.052 288.812L760.351 290.721L755.041 296.885V288.812H758.052ZM758.052 184.956V182H761.063V184.956H758.052ZM734.567 184.956V326.847H728.546V184.956H734.567ZM731.556 323.891H760.661V329.803H731.556V323.891ZM758.355 324.946L810.744 263.657L815.357 267.459L762.968 328.748L758.355 324.946ZM815.361 263.662L867.549 324.951L862.93 328.743L810.741 267.454L815.361 263.662ZM865.239 323.891H894.545V329.803H865.239V323.891ZM891.534 326.847V184.956H897.556V326.847H891.534ZM894.545 187.912H867.848V182H894.545V187.912ZM870.859 184.956V289.009H864.837V184.956H870.859ZM865.543 290.911L810.745 226.863L815.356 223.06L870.154 287.108L865.543 290.911ZM815.35 226.87L760.351 290.721L755.753 286.904L810.751 223.053L815.35 226.87ZM755.041 288.812V184.956H761.063V288.812H755.041ZM758.052 187.912H731.556V182H758.052V187.912ZM947.683 193.036L949.812 195.126L947.683 193.036ZM947.683 318.767L949.812 316.677L947.683 318.767ZM1056.48 211.758L1058.29 209.393L1058.46 209.519L1058.61 209.668L1056.48 211.758ZM1056.48 299.848L1054.35 297.758L1054.5 297.609L1054.67 297.483L1056.48 299.848ZM966.552 299.848L968.68 297.758L966.552 299.848ZM966.552 211.758L964.143 209.984L964.401 209.646L964.745 209.393L966.552 211.758ZM967.354 187.912C960.541 187.912 954.745 190.283 949.812 195.126L945.555 190.946C951.595 185.015 958.913 182 967.354 182V187.912ZM949.812 195.126C944.879 199.969 942.465 205.659 942.465 212.349H936.443C936.443 204.061 939.514 196.876 945.555 190.946L949.812 195.126ZM942.465 212.349V299.454H936.443V212.349H942.465ZM942.465 299.454C942.465 306.144 944.879 311.834 949.812 316.677L945.555 320.857C939.514 314.927 936.443 307.742 936.443 299.454H942.465ZM949.812 316.677C954.745 321.52 960.541 323.891 967.354 323.891V329.803C958.913 329.803 951.595 326.788 945.555 320.857L949.812 316.677ZM967.354 323.891H1056.08V329.803H967.354V323.891ZM1056.08 323.891C1062.89 323.891 1068.68 321.52 1073.62 316.677L1077.88 320.857C1071.83 326.788 1064.52 329.803 1056.08 329.803V323.891ZM1073.62 316.677C1078.55 311.834 1080.97 306.144 1080.97 299.454H1086.99C1086.99 307.742 1083.92 314.927 1077.88 320.857L1073.62 316.677ZM1080.97 299.454V212.349H1086.99V299.454H1080.97ZM1080.97 212.349C1080.97 205.659 1078.55 199.969 1073.62 195.126L1077.88 190.946C1083.92 196.876 1086.99 204.061 1086.99 212.349H1080.97ZM1073.62 195.126C1068.68 190.283 1062.89 187.912 1056.08 187.912V182C1064.52 182 1071.83 185.015 1077.88 190.946L1073.62 195.126ZM1056.08 187.912H967.354V182H1056.08V187.912ZM972.975 208.21H1050.26V214.123H972.975V208.21ZM1050.26 208.21C1052.09 208.21 1053.63 208.26 1054.81 208.372C1055.4 208.427 1055.96 208.505 1056.46 208.618C1056.87 208.711 1057.62 208.905 1058.29 209.393L1054.67 214.123C1055.06 214.413 1055.36 214.435 1055.1 214.38C1054.96 214.345 1054.68 214.3 1054.23 214.257C1053.34 214.172 1052.02 214.123 1050.26 214.123V208.21ZM1058.61 209.668C1059.28 210.328 1059.57 211.135 1059.71 211.598C1059.88 212.145 1059.99 212.751 1060.06 213.362C1060.22 214.592 1060.29 216.177 1060.29 218.064H1054.27C1054.27 216.273 1054.2 214.968 1054.09 214.095C1054.03 213.655 1053.98 213.407 1053.94 213.297C1053.88 213.103 1053.94 213.451 1054.35 213.848L1058.61 209.668ZM1060.29 218.064V293.739H1054.27V218.064H1060.29ZM1060.29 293.739C1060.29 295.623 1060.22 297.199 1060.06 298.404C1059.98 298.999 1059.87 299.607 1059.69 300.157C1059.55 300.578 1059.2 301.538 1058.29 302.213L1054.67 297.483C1054.3 297.754 1054.12 298.041 1054.05 298.156C1053.98 298.284 1053.95 298.358 1053.96 298.333C1053.98 298.275 1054.04 298.07 1054.09 297.647C1054.2 296.815 1054.27 295.534 1054.27 293.739H1060.29ZM1058.61 301.938C1057.94 302.586 1057.14 302.875 1056.67 303.018C1056.12 303.185 1055.52 303.294 1054.9 303.371C1053.68 303.527 1052.11 303.593 1050.26 303.593V297.68C1052.01 297.68 1053.29 297.615 1054.13 297.508C1054.56 297.454 1054.8 297.399 1054.9 297.368C1055.07 297.314 1054.74 297.374 1054.35 297.758L1058.61 301.938ZM1050.26 303.593H972.975V297.68H1050.26V303.593ZM972.975 303.593C971.053 303.593 969.438 303.527 968.185 303.373C967.563 303.296 966.946 303.189 966.389 303.024C965.917 302.886 965.095 302.598 964.423 301.938L968.68 297.758C968.276 297.36 967.921 297.303 968.119 297.362C968.232 297.395 968.485 297.451 968.932 297.506C969.821 297.615 971.15 297.68 972.975 297.68V303.593ZM964.423 301.938C963.677 301.206 963.443 300.267 963.363 299.944C963.24 299.445 963.159 298.883 963.103 298.31C962.989 297.151 962.939 295.611 962.939 293.739H968.96C968.96 295.545 969.01 296.864 969.097 297.741C969.141 298.186 969.186 298.436 969.214 298.546C969.227 298.6 969.221 298.557 969.178 298.459C969.147 298.389 969.011 298.082 968.68 297.758L964.423 301.938ZM962.939 293.739V218.064H968.96V293.739H962.939ZM962.939 218.064C962.939 216.189 962.989 214.638 963.102 213.452C963.158 212.863 963.237 212.299 963.351 211.798C963.441 211.402 963.637 210.646 964.143 209.984L968.96 213.531C969.265 213.132 969.285 212.837 969.225 213.097C969.189 213.253 969.142 213.542 969.098 214.004C969.01 214.921 968.96 216.26 968.96 218.064H962.939ZM964.745 209.393C965.419 208.896 966.189 208.704 966.594 208.615C967.103 208.503 967.678 208.426 968.278 208.371C969.485 208.26 971.065 208.21 972.975 208.21V214.123C971.137 214.123 969.773 214.172 968.84 214.257C968.369 214.301 968.075 214.347 967.916 214.383C967.651 214.442 967.952 214.422 968.358 214.123L964.745 209.393ZM1135.99 193.036L1138.11 195.126L1135.99 193.036ZM1135.99 318.767L1138.11 316.677L1135.99 318.767ZM1244.78 211.758L1246.59 209.393L1246.76 209.519L1246.91 209.668L1244.78 211.758ZM1244.78 299.848L1242.65 297.758L1242.8 297.609L1242.97 297.483L1244.78 299.848ZM1154.85 299.848L1156.98 297.758L1154.85 299.848ZM1154.85 211.758L1152.45 209.984L1152.71 209.646L1153.05 209.393L1154.85 211.758ZM1155.66 187.912C1148.84 187.912 1143.05 190.283 1138.11 195.126L1133.86 190.946C1139.9 185.015 1147.22 182 1155.66 182V187.912ZM1138.11 195.126C1133.19 199.969 1130.77 205.659 1130.77 212.349H1124.75C1124.75 204.061 1127.82 196.876 1133.86 190.946L1138.11 195.126ZM1130.77 212.349V299.454H1124.75V212.349H1130.77ZM1130.77 299.454C1130.77 306.144 1133.19 311.834 1138.11 316.677L1133.86 320.857C1127.82 314.927 1124.75 307.742 1124.75 299.454H1130.77ZM1138.11 316.677C1143.05 321.52 1148.84 323.891 1155.66 323.891V329.803C1147.22 329.803 1139.9 326.788 1133.86 320.857L1138.11 316.677ZM1155.66 323.891H1244.38V329.803H1155.66V323.891ZM1244.38 323.891C1251.19 323.891 1256.99 321.52 1261.92 316.677L1266.18 320.857C1260.13 326.788 1252.82 329.803 1244.38 329.803V323.891ZM1261.92 316.677C1266.86 311.834 1269.27 306.144 1269.27 299.454H1275.29C1275.29 307.742 1272.22 314.927 1266.18 320.857L1261.92 316.677ZM1269.27 299.454V212.349H1275.29V299.454H1269.27ZM1269.27 212.349C1269.27 205.659 1266.86 199.969 1261.92 195.126L1266.18 190.946C1272.22 196.876 1275.29 204.061 1275.29 212.349H1269.27ZM1261.92 195.126C1256.99 190.283 1251.19 187.912 1244.38 187.912V182C1252.82 182 1260.13 185.015 1266.18 190.946L1261.92 195.126ZM1244.38 187.912H1155.66V182H1244.38V187.912ZM1161.28 208.21H1238.56V214.123H1161.28V208.21ZM1238.56 208.21C1240.4 208.21 1241.94 208.26 1243.11 208.372C1243.69 208.427 1244.27 208.505 1244.77 208.618C1245.17 208.711 1245.92 208.905 1246.59 209.393L1242.97 214.123C1243.37 214.413 1243.65 214.435 1243.41 214.38C1243.26 214.345 1242.98 214.3 1242.53 214.257C1241.64 214.172 1240.32 214.123 1238.56 214.123V208.21ZM1246.91 209.668C1247.58 210.328 1247.87 211.135 1248.02 211.598C1248.18 212.145 1248.29 212.751 1248.37 213.362C1248.52 214.592 1248.59 216.177 1248.59 218.064H1242.57C1242.57 216.273 1242.51 214.968 1242.4 214.095C1242.34 213.655 1242.28 213.407 1242.25 213.297C1242.19 213.103 1242.25 213.451 1242.65 213.848L1246.91 209.668ZM1248.59 218.064V293.739H1242.57V218.064H1248.59ZM1248.59 293.739C1248.59 295.623 1248.53 297.199 1248.37 298.404C1248.29 298.999 1248.18 299.607 1248 300.157C1247.86 300.578 1247.51 301.538 1246.59 302.213L1242.97 297.483C1242.61 297.754 1242.42 298.041 1242.35 298.156C1242.28 298.284 1242.26 298.358 1242.27 298.333C1242.29 298.275 1242.34 298.07 1242.4 297.647C1242.51 296.815 1242.57 295.534 1242.57 293.739H1248.59ZM1246.91 301.938C1246.25 302.586 1245.45 302.875 1244.98 303.018C1244.43 303.185 1243.82 303.294 1243.21 303.371C1241.99 303.527 1240.41 303.593 1238.56 303.593V297.68C1240.31 297.68 1241.59 297.615 1242.44 297.508C1242.86 297.454 1243.1 297.399 1243.2 297.368C1243.38 297.314 1243.04 297.374 1242.65 297.758L1246.91 301.938ZM1238.56 303.593H1161.28V297.68H1238.56V303.593ZM1161.28 303.593C1159.36 303.593 1157.74 303.527 1156.49 303.373C1155.87 303.296 1155.26 303.189 1154.69 303.024C1154.22 302.886 1153.4 302.598 1152.73 301.938L1156.98 297.758C1156.58 297.36 1156.23 297.303 1156.42 297.362C1156.54 297.395 1156.79 297.451 1157.23 297.506C1158.13 297.615 1159.45 297.68 1161.28 297.68V303.593ZM1152.73 301.938C1151.98 301.206 1151.74 300.267 1151.66 299.944C1151.54 299.445 1151.46 298.883 1151.41 298.31C1151.29 297.151 1151.24 295.611 1151.24 293.739H1157.26C1157.26 295.545 1157.31 296.864 1157.4 297.741C1157.44 298.186 1157.49 298.436 1157.51 298.546C1157.53 298.6 1157.52 298.557 1157.48 298.459C1157.45 298.389 1157.31 298.082 1156.98 297.758L1152.73 301.938ZM1151.24 293.739V218.064H1157.26V293.739H1151.24ZM1151.24 218.064C1151.24 216.189 1151.29 214.638 1151.41 213.452C1151.46 212.863 1151.54 212.299 1151.65 211.798C1151.74 211.402 1151.94 210.646 1152.45 209.984L1157.26 213.531C1157.57 213.132 1157.59 212.837 1157.53 213.097C1157.49 213.253 1157.44 213.542 1157.4 214.004C1157.31 214.921 1157.26 216.26 1157.26 218.064H1151.24ZM1153.05 209.393C1153.72 208.896 1154.49 208.704 1154.89 208.615C1155.41 208.503 1155.98 208.426 1156.58 208.371C1157.79 208.26 1159.37 208.21 1161.28 208.21V214.123C1159.44 214.123 1158.08 214.172 1157.14 214.257C1156.67 214.301 1156.38 214.347 1156.22 214.383C1155.96 214.442 1156.26 214.422 1156.66 214.123L1153.05 209.393ZM1316.47 184.956H1313.46V182H1316.47V184.956ZM1316.47 326.847V329.803H1313.46V326.847H1316.47ZM1345.57 326.847L1347.87 328.749L1346.97 329.803H1345.57V326.847ZM1434.29 223.188L1431.98 221.286L1437.3 215.075V223.188H1434.29ZM1434.29 326.847V329.803H1431.28V326.847H1434.29ZM1460.99 326.847H1464V329.803H1460.99V326.847ZM1460.99 184.956V182H1464V184.956H1460.99ZM1431.88 184.956L1429.58 183.054L1430.48 182H1431.88V184.956ZM1342.96 288.812L1345.26 290.714L1339.95 296.923V288.812H1342.96ZM1342.96 184.956V182H1345.97V184.956H1342.96ZM1319.48 184.956V326.847H1313.46V184.956H1319.48ZM1316.47 323.891H1345.57V329.803H1316.47V323.891ZM1343.26 324.945L1431.98 221.286L1436.59 225.089L1347.87 328.749L1343.26 324.945ZM1437.3 223.188V326.847H1431.28V223.188H1437.3ZM1434.29 323.891H1460.99V329.803H1434.29V323.891ZM1457.98 326.847V184.956H1464V326.847H1457.98ZM1460.99 187.912H1431.88V182H1460.99V187.912ZM1434.18 186.858L1345.26 290.714L1340.65 286.911L1429.58 183.054L1434.18 186.858ZM1339.95 288.812V184.956H1345.97V288.812H1339.95ZM1342.96 187.912H1316.47V182H1342.96V187.912Z" fill="#00E0FF"/>
<path opacity="0.26" d="M4.00038 443.785H2V445H4.00038V443.785ZM4.00038 356.336V355.121H2V356.336H4.00038ZM141.827 393.381L139.854 393.181L141.827 393.381ZM140.427 396.174L138.605 395.671L138.118 396.322L138.817 396.896L140.427 396.174ZM145.828 402.004L143.97 402.455L143.982 402.474L143.996 402.493L145.828 402.004ZM120.623 427.267L121.823 428.239L121.936 428.187L122.037 428.126L120.623 427.267ZM120.623 407.834L119.209 408.693L119.309 408.754L119.423 408.806L120.623 407.834ZM31.0055 407.834L32.42 408.693L31.0055 407.834ZM31.0055 427.267L29.4052 427.996L29.5766 428.135L29.8053 428.239L31.0055 427.267ZM114.622 390.83L116.036 391.689L114.622 390.83ZM114.622 372.976L113.021 373.704L113.192 373.844L113.421 373.947L114.622 372.976ZM31.0055 372.976L32.42 373.834L31.0055 372.976ZM31.0055 390.83L29.4052 391.559L29.5766 391.698L29.8053 391.802L31.0055 390.83ZM6.00076 443.785V356.336H2V443.785H6.00076ZM4.00038 357.551H114.422V355.121H4.00038V357.551ZM114.422 357.551C121.482 357.551 127.511 359.078 132.611 362.175L135.44 360.457C129.604 356.914 122.563 355.121 114.422 355.121V357.551ZM132.611 362.175C137.71 365.271 140.227 368.932 140.227 373.219H144.227C144.227 368.275 141.275 364 135.44 360.457L132.611 362.175ZM140.227 373.219V390.344H144.227V373.219H140.227ZM140.227 390.344C140.227 391.335 140.101 392.28 139.854 393.181L143.8 393.58C144.085 392.538 144.227 391.459 144.227 390.344H140.227ZM139.854 393.181C139.615 394.049 139.199 394.878 138.605 395.671L142.247 396.677C142.987 395.689 143.504 394.656 143.8 393.58L139.854 393.181ZM138.817 396.896C140.99 398.68 142.704 400.533 143.97 402.455L147.685 401.553C146.284 399.427 144.397 397.393 142.035 395.452L138.817 396.896ZM143.996 402.493C145.362 404.378 146.028 406.236 146.028 408.077H150.028C150.028 405.869 149.226 403.679 147.658 401.515L143.996 402.493ZM146.028 408.077V426.903H150.028V408.077H146.028ZM146.028 426.903C146.028 431.19 143.511 434.85 138.412 437.947L141.241 439.664C147.076 436.121 150.028 431.847 150.028 426.903H146.028ZM138.412 437.947C133.319 441.039 127.227 442.571 120.023 442.571V445C128.287 445 135.398 443.212 141.241 439.664L138.412 437.947ZM120.023 442.571H4.00038V445H120.023V442.571ZM37.4067 428.846H114.422V426.417H37.4067V428.846ZM114.422 428.846C116.247 428.846 117.737 428.816 118.865 428.75C119.427 428.716 119.942 428.672 120.385 428.61C120.764 428.557 121.338 428.459 121.823 428.239L119.423 426.296C119.64 426.197 119.757 426.205 119.486 426.243C119.278 426.272 118.952 426.304 118.479 426.331C117.54 426.387 116.197 426.417 114.422 426.417V428.846ZM122.037 428.126C122.528 427.828 122.761 427.449 122.888 427.191C123.033 426.899 123.133 426.562 123.207 426.203C123.356 425.482 123.423 424.534 123.423 423.381H119.423C119.423 424.495 119.356 425.328 119.238 425.902C119.179 426.19 119.113 426.381 119.057 426.493C118.984 426.641 118.984 426.545 119.209 426.408L122.037 428.126ZM123.423 423.381V411.599H119.423V423.381H123.423ZM123.423 411.599C123.423 410.447 123.356 409.506 123.206 408.802C123.132 408.453 123.029 408.119 122.875 407.831C122.749 407.595 122.476 407.16 121.823 406.862L119.423 408.806C119.036 408.63 118.996 408.442 119.07 408.581C119.116 408.667 119.18 408.835 119.239 409.113C119.356 409.664 119.423 410.484 119.423 411.599H123.423ZM122.037 406.975C121.555 406.683 120.947 406.54 120.523 406.46C120.049 406.372 119.505 406.31 118.929 406.265C117.77 406.174 116.255 406.134 114.422 406.134V408.563C116.188 408.563 117.507 408.603 118.416 408.674C118.873 408.71 119.172 408.75 119.347 408.783C119.573 408.824 119.424 408.824 119.209 408.693L122.037 406.975ZM114.422 406.134H37.4067V408.563H114.422V406.134ZM37.4067 406.134C35.5076 406.134 33.9454 406.174 32.7578 406.264C32.1664 406.309 31.612 406.37 31.1308 406.458C30.7065 406.536 30.0822 406.677 29.591 406.975L32.42 408.693C32.1955 408.829 32.0381 408.829 32.2805 408.785C32.4661 408.751 32.7786 408.711 33.254 408.675C34.2001 408.603 35.5719 408.563 37.4067 408.563V406.134ZM29.591 406.975C29.0622 407.297 28.8776 407.723 28.7993 407.919C28.6923 408.186 28.6186 408.501 28.5643 408.84C28.4551 409.526 28.405 410.452 28.405 411.599H32.4058C32.4058 410.479 32.4558 409.644 32.5465 409.075C32.5923 408.787 32.6436 408.6 32.6867 408.493C32.7583 408.314 32.7487 408.493 32.42 408.693L29.591 406.975ZM28.405 411.599V423.381H32.4058V411.599H28.405ZM28.405 423.381C28.405 424.529 28.4552 425.463 28.5638 426.166C28.6179 426.516 28.6903 426.836 28.7914 427.109C28.8768 427.339 29.0359 427.697 29.4052 427.996L32.6058 426.538C32.7751 426.676 32.7591 426.75 32.6945 426.576C32.6456 426.444 32.5931 426.237 32.5471 425.939C32.4556 425.347 32.4058 424.5 32.4058 423.381H28.405ZM29.8053 428.239C30.2977 428.463 30.8869 428.56 31.2666 428.612C31.716 428.673 32.2427 428.717 32.8192 428.75C33.9773 428.816 35.5158 428.846 37.4067 428.846V426.417C35.5637 426.417 34.1683 426.387 33.1926 426.331C32.7022 426.303 32.3622 426.271 32.1447 426.242C31.8576 426.203 31.9801 426.193 32.2057 426.296L29.8053 428.239ZM37.4067 392.409H108.621V389.98H37.4067V392.409ZM108.621 392.409C110.444 392.409 111.921 392.379 113.02 392.312C113.566 392.279 114.073 392.233 114.507 392.168C114.832 392.119 115.516 392.004 116.036 391.689L113.207 389.971C113.527 389.777 113.812 389.769 113.537 389.811C113.369 389.836 113.077 389.867 112.622 389.895C111.72 389.949 110.397 389.98 108.621 389.98V392.409ZM116.036 391.689C116.527 391.39 116.76 391.012 116.887 390.754C117.032 390.462 117.132 390.125 117.206 389.766C117.355 389.045 117.422 388.097 117.422 386.943H113.421C113.421 388.058 113.354 388.89 113.236 389.465C113.177 389.753 113.111 389.943 113.055 390.056C112.982 390.203 112.982 390.107 113.207 389.971L116.036 391.689ZM117.422 386.943V376.741H113.421V386.943H117.422ZM117.422 376.741C117.422 375.589 117.355 374.648 117.205 373.944C117.131 373.595 117.028 373.261 116.874 372.973C116.748 372.737 116.475 372.302 115.822 372.004L113.421 373.947C113.034 373.771 112.994 373.584 113.068 373.723C113.114 373.809 113.178 373.977 113.237 374.255C113.354 374.805 113.421 375.625 113.421 376.741H117.422ZM116.222 372.247C115.741 371.858 115.045 371.69 114.654 371.611C114.185 371.516 113.647 371.453 113.085 371.408C111.955 371.316 110.452 371.275 108.621 371.275V373.704C110.389 373.704 111.687 373.745 112.556 373.815C112.996 373.851 113.257 373.889 113.388 373.915C113.598 373.958 113.301 373.932 113.021 373.704L116.222 372.247ZM108.621 371.275H37.4067V373.704H108.621V371.275ZM37.4067 371.275C35.5076 371.275 33.9454 371.316 32.7578 371.406C32.1664 371.451 31.612 371.512 31.1308 371.6C30.7065 371.677 30.0822 371.819 29.591 372.117L32.42 373.834C32.1955 373.971 32.0381 373.97 32.2805 373.927C32.4661 373.893 32.7786 373.853 33.254 373.817C34.2001 373.745 35.5719 373.704 37.4067 373.704V371.275ZM29.591 372.117C29.0622 372.438 28.8776 372.865 28.7993 373.061C28.6923 373.327 28.6186 373.643 28.5643 373.982C28.4551 374.668 28.405 375.594 28.405 376.741H32.4058C32.4058 375.621 32.4558 374.786 32.5465 374.216C32.5923 373.929 32.6436 373.742 32.6867 373.635C32.7583 373.456 32.7487 373.635 32.42 373.834L29.591 372.117ZM28.405 376.741V386.943H32.4058V376.741H28.405ZM28.405 386.943C28.405 388.092 28.4552 389.026 28.5638 389.729C28.6179 390.079 28.6903 390.399 28.7914 390.671C28.8768 390.902 29.0359 391.26 29.4052 391.559L32.6058 390.101C32.7751 390.238 32.7591 390.313 32.6945 390.138C32.6456 390.006 32.5931 389.8 32.5471 389.502C32.4556 388.91 32.4058 388.063 32.4058 386.943H28.405ZM29.8053 391.802C30.2977 392.026 30.8869 392.122 31.2666 392.175C31.716 392.236 32.2427 392.28 32.8192 392.312C33.9773 392.379 35.5158 392.409 37.4067 392.409V389.98C35.5637 389.98 34.1683 389.949 33.1926 389.894C32.7022 389.866 32.3622 389.834 32.1447 389.804C31.8576 389.765 31.9801 389.756 32.2057 389.858L29.8053 391.802ZM192.042 443.785H190.042V445H192.042V443.785ZM192.042 356.215V355H190.042V356.215H192.042ZM218.447 356.215H220.448V355H218.447V356.215ZM218.447 427.632H216.447V428.846H218.447V427.632ZM336.07 427.632H338.07V426.417H336.07V427.632ZM336.07 443.785V445H338.07V443.785H336.07ZM194.043 443.785V356.215H190.042V443.785H194.043ZM192.042 357.429H218.447V355H192.042V357.429ZM216.447 356.215V427.632H220.448V356.215H216.447ZM218.447 428.846H336.07V426.417H218.447V428.846ZM334.069 427.632V443.785H338.07V427.632H334.069ZM336.07 442.571H192.042V445H336.07V442.571ZM377.537 438.806L378.952 437.947L377.537 438.806ZM369.335 356.336V355.121H367.335V356.336H369.335ZM395.74 356.336H397.741V355.121H395.74V356.336ZM396.34 427.267L394.74 427.996L394.912 428.135L395.14 428.239L396.34 427.267ZM485.957 427.267L487.158 428.239L487.272 428.187L487.373 428.126L485.957 427.267ZM486.757 356.336V355.121H484.757V356.336H486.757ZM513.363 356.336H515.363V355.121H513.363V356.336ZM397.14 442.571C390.08 442.571 384.051 441.044 378.952 437.947L376.122 439.664C381.959 443.208 388.999 445 397.14 445V442.571ZM378.952 437.947C373.852 434.85 371.336 431.19 371.336 426.903H367.335C367.335 431.847 370.287 436.121 376.122 439.664L378.952 437.947ZM371.336 426.903V356.336H367.335V426.903H371.336ZM369.335 357.551H395.74V355.121H369.335V357.551ZM393.74 356.336V423.381H397.741V356.336H393.74ZM393.74 423.381C393.74 424.529 393.791 425.463 393.899 426.166C393.953 426.516 394.026 426.836 394.127 427.109C394.212 427.339 394.371 427.697 394.74 427.996L397.941 426.538C398.111 426.676 398.095 426.75 398.03 426.576C397.981 426.444 397.929 426.237 397.883 425.939C397.791 425.347 397.741 424.5 397.741 423.381H393.74ZM395.14 428.239C395.633 428.463 396.222 428.56 396.601 428.612C397.051 428.673 397.577 428.717 398.155 428.75C399.312 428.816 400.851 428.846 402.741 428.846V426.417C400.899 426.417 399.504 426.387 398.528 426.331C398.038 426.303 397.698 426.271 397.479 426.242C397.192 426.203 397.315 426.193 397.54 426.296L395.14 428.239ZM402.741 428.846H479.756V426.417H402.741V428.846ZM479.756 428.846C481.581 428.846 483.073 428.816 484.2 428.75C484.761 428.716 485.277 428.672 485.72 428.61C486.098 428.557 486.673 428.459 487.158 428.239L484.757 426.296C484.975 426.197 485.091 426.205 484.82 426.243C484.613 426.272 484.287 426.304 483.815 426.331C482.875 426.387 481.531 426.417 479.756 426.417V428.846ZM487.373 428.126C487.864 427.828 488.097 427.449 488.224 427.191C488.368 426.899 488.469 426.562 488.543 426.203C488.691 425.482 488.758 424.534 488.758 423.381H484.757C484.757 424.495 484.691 425.328 484.573 425.902C484.513 426.19 484.447 426.381 484.392 426.493C484.319 426.641 484.319 426.545 484.543 426.408L487.373 428.126ZM488.758 423.381V356.336H484.757V423.381H488.758ZM486.757 357.551H513.363V355.121H486.757V357.551ZM511.362 356.336V426.903H515.363V356.336H511.362ZM511.362 426.903C511.362 431.19 508.847 434.85 503.747 437.947L506.576 439.664C512.411 436.121 515.363 431.847 515.363 426.903H511.362ZM503.747 437.947C498.647 441.044 492.619 442.571 485.557 442.571V445C493.7 445 500.74 443.208 506.576 439.664L503.747 437.947ZM485.557 442.571H397.14V445H485.557V442.571ZM557.796 443.785H555.796V445H557.796V443.785ZM557.796 356.336V355.121H555.796V356.336H557.796ZM690.421 356.336H692.422V355.121H690.421V356.336ZM690.421 372.49V373.704H692.422V372.49H690.421ZM584.401 372.49V371.275H582.401V372.49H584.401ZM584.401 391.923H582.401V393.138H584.401V391.923ZM669.617 391.923H671.618V390.709H669.617V391.923ZM669.617 408.077V409.292H671.618V408.077H669.617ZM584.401 408.077V406.862H582.401V408.077H584.401ZM584.401 427.632H582.401V428.846H584.401V427.632ZM690.421 427.632H692.422V426.417H690.421V427.632ZM690.421 443.785V445H692.422V443.785H690.421ZM559.796 443.785V356.336H555.796V443.785H559.796ZM557.796 357.551H690.421V355.121H557.796V357.551ZM688.421 356.336V372.49H692.422V356.336H688.421ZM690.421 371.275H584.401V373.704H690.421V371.275ZM582.401 372.49V391.923H586.401V372.49H582.401ZM584.401 393.138H669.617V390.709H584.401V393.138ZM667.617 391.923V408.077H671.618V391.923H667.617ZM669.617 406.862H584.401V409.292H669.617V406.862ZM582.401 408.077V427.632H586.401V408.077H582.401ZM584.401 428.846H690.421V426.417H584.401V428.846ZM688.421 427.632V443.785H692.422V427.632H688.421ZM690.421 442.571H557.796V445H690.421V442.571ZM728.061 443.785H726.061V445H728.061V443.785ZM728.061 356.336V355.121H726.061V356.336H728.061ZM757.067 356.336L758.599 355.555L758 355.121H757.067V356.336ZM809.277 394.109L807.744 394.89L809.28 396.001L810.812 394.888L809.277 394.109ZM861.287 356.336V355.121H860.351L859.752 355.557L861.287 356.336ZM890.492 356.336H892.493V355.121H890.492V356.336ZM890.492 443.785V445H892.493V443.785H890.492ZM863.887 443.785H861.887V445H863.887V443.785ZM863.887 379.656H865.887V376.322L862.356 378.875L863.887 379.656ZM809.277 419.13L807.749 419.914L809.282 421.014L810.809 419.911L809.277 419.13ZM754.466 379.777L755.994 378.993L752.466 376.46V379.777H754.466ZM754.466 443.785V445H756.467V443.785H754.466ZM730.062 443.785V356.336H726.061V443.785H730.062ZM728.061 357.551H757.067V355.121H728.061V357.551ZM755.535 357.117L807.744 394.89L810.809 393.328L758.599 355.555L755.535 357.117ZM810.812 394.888L862.822 357.115L859.752 355.557L807.742 393.33L810.812 394.888ZM861.287 357.551H890.492V355.121H861.287V357.551ZM888.492 356.336V443.785H892.493V356.336H888.492ZM890.492 442.571H863.887V445H890.492V442.571ZM865.887 443.785V379.656H861.887V443.785H865.887ZM862.356 378.875L807.745 418.349L810.809 419.911L865.419 380.437L862.356 378.875ZM810.804 418.346L755.994 378.993L752.939 380.561L807.749 419.914L810.804 418.346ZM752.466 379.777V443.785H756.467V379.777H752.466ZM754.466 442.571H728.061V445H754.466V442.571ZM943.449 438.806L944.864 437.947L943.449 438.806ZM943.449 361.316L944.864 362.175L943.449 361.316ZM1051.87 427.267L1053.07 428.239L1053.18 428.187L1053.28 428.126L1051.87 427.267ZM1051.87 372.976L1050.45 373.834L1050.55 373.896L1050.67 373.947L1051.87 372.976ZM962.253 372.976L963.667 373.834L962.253 372.976ZM962.253 427.267L960.653 427.996L960.824 428.135L961.053 428.239L962.253 427.267ZM963.053 442.571C955.993 442.571 949.963 441.044 944.864 437.947L942.035 439.664C947.87 443.208 954.91 445 963.053 445V442.571ZM944.864 437.947C939.764 434.85 937.248 431.19 937.248 426.903H933.247C933.247 431.847 936.199 436.121 942.035 439.664L944.864 437.947ZM937.248 426.903V373.219H933.247V426.903H937.248ZM937.248 373.219C937.248 368.932 939.764 365.271 944.864 362.175L942.035 360.457C936.199 364 933.247 368.275 933.247 373.219H937.248ZM944.864 362.175C949.963 359.078 955.993 357.551 963.053 357.551V355.121C954.91 355.121 947.87 356.914 942.035 360.457L944.864 362.175ZM963.053 357.551H1051.47V355.121H963.053V357.551ZM1051.47 357.551C1058.53 357.551 1064.56 359.078 1069.66 362.175L1072.49 360.457C1066.66 356.914 1059.61 355.121 1051.47 355.121V357.551ZM1069.66 362.175C1074.76 365.271 1077.28 368.932 1077.28 373.219H1081.28C1081.28 368.275 1078.33 364 1072.49 360.457L1069.66 362.175ZM1077.28 373.219V426.903H1081.28V373.219H1077.28ZM1077.28 426.903C1077.28 431.19 1074.76 434.85 1069.66 437.947L1072.49 439.664C1078.33 436.121 1081.28 431.847 1081.28 426.903H1077.28ZM1069.66 437.947C1064.56 441.044 1058.53 442.571 1051.47 442.571V445C1059.61 445 1066.66 443.208 1072.49 439.664L1069.66 437.947ZM1051.47 442.571H963.053V445H1051.47V442.571ZM968.654 428.846H1045.67V426.417H968.654V428.846ZM1045.67 428.846C1047.49 428.846 1048.98 428.816 1050.11 428.75C1050.67 428.716 1051.19 428.672 1051.63 428.61C1052.01 428.557 1052.58 428.459 1053.07 428.239L1050.67 426.296C1050.88 426.197 1051 426.205 1050.73 426.243C1050.52 426.272 1050.2 426.304 1049.72 426.331C1048.78 426.387 1047.44 426.417 1045.67 426.417V428.846ZM1053.28 428.126C1053.77 427.828 1054.01 427.449 1054.13 427.191C1054.28 426.899 1054.38 426.562 1054.45 426.203C1054.6 425.482 1054.67 424.534 1054.67 423.381H1050.67C1050.67 424.495 1050.6 425.328 1050.48 425.902C1050.42 426.19 1050.36 426.381 1050.3 426.493C1050.23 426.641 1050.23 426.545 1050.45 426.408L1053.28 428.126ZM1054.67 423.381V376.741H1050.67V423.381H1054.67ZM1054.67 376.741C1054.67 375.589 1054.6 374.648 1054.45 373.944C1054.38 373.595 1054.27 373.261 1054.12 372.973C1053.99 372.737 1053.72 372.302 1053.07 372.004L1050.67 373.947C1050.28 373.771 1050.24 373.584 1050.31 373.723C1050.36 373.809 1050.42 373.977 1050.48 374.255C1050.6 374.805 1050.67 375.625 1050.67 376.741H1054.67ZM1053.28 372.117C1052.8 371.824 1052.19 371.682 1051.77 371.602C1051.29 371.513 1050.75 371.452 1050.17 371.406C1049.02 371.316 1047.5 371.275 1045.67 371.275V373.704C1047.43 373.704 1048.75 373.745 1049.66 373.816C1050.12 373.851 1050.42 373.892 1050.59 373.924C1050.82 373.966 1050.67 373.966 1050.45 373.834L1053.28 372.117ZM1045.67 371.275H968.654V373.704H1045.67V371.275ZM968.654 371.275C966.755 371.275 965.192 371.316 964.005 371.406C963.414 371.451 962.859 371.512 962.378 371.6C961.954 371.677 961.33 371.819 960.839 372.117L963.667 373.834C963.443 373.971 963.285 373.97 963.528 373.927C963.713 373.893 964.026 373.853 964.501 373.817C965.447 373.745 966.82 373.704 968.654 373.704V371.275ZM960.839 372.117C960.309 372.438 960.125 372.865 960.046 373.061C959.939 373.327 959.865 373.643 959.811 373.982C959.702 374.668 959.652 375.594 959.652 376.741H963.653C963.653 375.621 963.703 374.786 963.794 374.216C963.84 373.929 963.891 373.742 963.934 373.635C964.006 373.456 963.996 373.635 963.667 373.834L960.839 372.117ZM959.652 376.741V423.381H963.653V376.741H959.652ZM959.652 423.381C959.652 424.529 959.702 425.463 959.811 426.166C959.865 426.516 959.937 426.836 960.038 427.109C960.124 427.339 960.283 427.697 960.653 427.996L963.853 426.538C964.022 426.676 964.006 426.75 963.942 426.576C963.893 426.444 963.84 426.237 963.794 425.939C963.703 425.347 963.653 424.5 963.653 423.381H959.652ZM961.053 428.239C961.545 428.463 962.134 428.56 962.514 428.612C962.963 428.673 963.49 428.717 964.066 428.75C965.224 428.816 966.763 428.846 968.654 428.846V426.417C966.811 426.417 965.415 426.387 964.44 426.331C963.949 426.303 963.609 426.271 963.392 426.242C963.105 426.203 963.227 426.193 963.453 426.296L961.053 428.239ZM1131.11 438.806L1132.53 437.947L1131.11 438.806ZM1131.11 361.316L1132.53 362.175L1131.11 361.316ZM1239.53 427.267L1240.73 428.239L1240.85 428.187L1240.95 428.126L1239.53 427.267ZM1239.53 372.976L1238.12 373.834L1238.22 373.896L1238.33 373.947L1239.53 372.976ZM1149.91 372.976L1151.33 373.834L1149.91 372.976ZM1149.91 427.267L1148.31 427.996L1148.48 428.135L1148.71 428.239L1149.91 427.267ZM1150.71 442.571C1143.65 442.571 1137.63 441.044 1132.53 437.947L1129.7 439.664C1135.53 443.208 1142.57 445 1150.71 445V442.571ZM1132.53 437.947C1127.43 434.85 1124.91 431.19 1124.91 426.903H1120.91C1120.91 431.847 1123.86 436.121 1129.7 439.664L1132.53 437.947ZM1124.91 426.903V373.219H1120.91V426.903H1124.91ZM1124.91 373.219C1124.91 368.932 1127.43 365.271 1132.53 362.175L1129.7 360.457C1123.86 364 1120.91 368.275 1120.91 373.219H1124.91ZM1132.53 362.175C1137.63 359.078 1143.65 357.551 1150.71 357.551V355.121C1142.57 355.121 1135.53 356.914 1129.7 360.457L1132.53 362.175ZM1150.71 357.551H1239.13V355.121H1150.71V357.551ZM1239.13 357.551C1246.19 357.551 1252.22 359.078 1257.32 362.175L1260.15 360.457C1254.31 356.914 1247.27 355.121 1239.13 355.121V357.551ZM1257.32 362.175C1262.42 365.271 1264.93 368.932 1264.93 373.219H1268.93C1268.93 368.275 1265.98 364 1260.15 360.457L1257.32 362.175ZM1264.93 373.219V426.903H1268.93V373.219H1264.93ZM1264.93 426.903C1264.93 431.19 1262.42 434.85 1257.32 437.947L1260.15 439.664C1265.98 436.121 1268.93 431.847 1268.93 426.903H1264.93ZM1257.32 437.947C1252.22 441.044 1246.19 442.571 1239.13 442.571V445C1247.27 445 1254.31 443.208 1260.15 439.664L1257.32 437.947ZM1239.13 442.571H1150.71V445H1239.13V442.571ZM1156.31 428.846H1233.33V426.417H1156.31V428.846ZM1233.33 428.846C1235.16 428.846 1236.65 428.816 1237.77 428.75C1238.34 428.716 1238.85 428.672 1239.29 428.61C1239.67 428.557 1240.25 428.459 1240.73 428.239L1238.33 426.296C1238.55 426.197 1238.67 426.205 1238.39 426.243C1238.19 426.272 1237.86 426.304 1237.39 426.331C1236.45 426.387 1235.11 426.417 1233.33 426.417V428.846ZM1240.95 428.126C1241.44 427.828 1241.67 427.449 1241.8 427.191C1241.94 426.899 1242.04 426.562 1242.12 426.203C1242.26 425.482 1242.33 424.534 1242.33 423.381H1238.33C1238.33 424.495 1238.27 425.328 1238.15 425.902C1238.09 426.19 1238.02 426.381 1237.97 426.493C1237.89 426.641 1237.89 426.545 1238.12 426.408L1240.95 428.126ZM1242.33 423.381V376.741H1238.33V423.381H1242.33ZM1242.33 376.741C1242.33 375.589 1242.27 374.648 1242.12 373.944C1242.04 373.595 1241.94 373.261 1241.78 372.973C1241.66 372.737 1241.39 372.302 1240.73 372.004L1238.33 373.947C1237.95 373.771 1237.91 373.584 1237.98 373.723C1238.03 373.809 1238.09 373.977 1238.15 374.255C1238.27 374.805 1238.33 375.625 1238.33 376.741H1242.33ZM1240.95 372.117C1240.46 371.824 1239.86 371.682 1239.43 371.602C1238.96 371.513 1238.41 371.452 1237.84 371.406C1236.68 371.316 1235.17 371.275 1233.33 371.275V373.704C1235.1 373.704 1236.42 373.745 1237.33 373.816C1237.78 373.851 1238.08 373.892 1238.26 373.924C1238.48 373.966 1238.33 373.966 1238.12 373.834L1240.95 372.117ZM1233.33 371.275H1156.31V373.704H1233.33V371.275ZM1156.31 371.275C1154.41 371.275 1152.85 371.316 1151.66 371.406C1151.07 371.451 1150.52 371.512 1150.04 371.6C1149.61 371.677 1148.99 371.819 1148.5 372.117L1151.33 373.834C1151.1 373.971 1150.94 373.97 1151.19 373.927C1151.37 373.893 1151.68 373.853 1152.16 373.817C1153.11 373.745 1154.48 373.704 1156.31 373.704V371.275ZM1148.5 372.117C1147.97 372.438 1147.78 372.865 1147.71 373.061C1147.6 373.327 1147.53 373.643 1147.47 373.982C1147.36 374.668 1147.31 375.594 1147.31 376.741H1151.31C1151.31 375.621 1151.36 374.786 1151.45 374.216C1151.5 373.929 1151.55 373.742 1151.59 373.635C1151.66 373.456 1151.66 373.635 1151.33 373.834L1148.5 372.117ZM1147.31 376.741V423.381H1151.31V376.741H1147.31ZM1147.31 423.381C1147.31 424.529 1147.36 425.463 1147.47 426.166C1147.52 426.516 1147.6 426.836 1147.7 427.109C1147.78 427.339 1147.94 427.697 1148.31 427.996L1151.51 426.538C1151.68 426.676 1151.67 426.75 1151.6 426.576C1151.55 426.444 1151.5 426.237 1151.45 425.939C1151.36 425.347 1151.31 424.5 1151.31 423.381H1147.31ZM1148.71 428.239C1149.2 428.463 1149.79 428.56 1150.17 428.612C1150.62 428.673 1151.15 428.717 1151.73 428.75C1152.88 428.816 1154.42 428.846 1156.31 428.846V426.417C1154.47 426.417 1153.07 426.387 1152.1 426.331C1151.61 426.303 1151.27 426.271 1151.05 426.242C1150.76 426.203 1150.89 426.193 1151.11 426.296L1148.71 428.239ZM1310.97 443.785H1308.97V445H1310.97V443.785ZM1310.97 356.336V355.121H1308.97V356.336H1310.97ZM1339.98 356.336L1341.51 355.554L1340.91 355.121H1339.98V356.336ZM1428.39 420.223L1426.86 421.004L1430.39 423.556V420.223H1428.39ZM1428.39 356.336V355.121H1426.39V356.336H1428.39ZM1455 356.336H1457V355.121H1455V356.336ZM1455 443.785V445H1457V443.785H1455ZM1425.99 443.785L1424.46 444.567L1425.06 445H1425.99V443.785ZM1337.38 379.777L1338.91 378.996L1335.38 376.445V379.777H1337.38ZM1337.38 443.785V445H1339.38V443.785H1337.38ZM1312.97 443.785V356.336H1308.97V443.785H1312.97ZM1310.97 357.551H1339.98V355.121H1310.97V357.551ZM1338.45 357.118L1426.86 421.004L1429.92 419.441L1341.51 355.554L1338.45 357.118ZM1430.39 420.223V356.336H1426.39V420.223H1430.39ZM1428.39 357.551H1455V355.121H1428.39V357.551ZM1453 356.336V443.785H1457V356.336H1453ZM1455 442.571H1425.99V445H1455V442.571ZM1427.52 443.004L1338.91 378.996L1335.85 380.559L1424.46 444.567L1427.52 443.004ZM1335.38 379.777V443.785H1339.38V379.777H1335.38ZM1337.38 442.571H1310.97V445H1337.38V442.571Z" fill="#00E0FF"/>
<path opacity="0.23" d="M3.00055 471.858H0V470H3.00055V471.858ZM3.00055 561.019V562.876H0V561.019H3.00055ZM140.827 523.249L137.867 523.554L140.827 523.249ZM139.427 520.401L136.695 521.169L135.965 520.175L137.013 519.297L139.427 520.401ZM144.828 514.457L142.041 513.767L142.06 513.737L142.081 513.709L144.828 514.457ZM119.623 488.699L121.423 487.213L121.593 487.292L121.744 487.386L119.623 488.699ZM119.623 508.513L117.501 507.199L117.652 507.106L117.823 507.027L119.623 508.513ZM30.0057 508.513L32.1274 507.199L30.0057 508.513ZM30.0057 488.699L27.6052 487.585L27.8625 487.372L28.2053 487.213L30.0057 488.699ZM113.622 525.85L115.743 524.536L113.622 525.85ZM113.622 544.053L111.221 542.939L111.478 542.726L111.822 542.567L113.622 544.053ZM30.0057 544.053L32.1274 542.74L30.0057 544.053ZM30.0057 525.85L27.6052 524.735L27.8625 524.523L28.2053 524.364L30.0057 525.85ZM6.00112 471.858V561.019H0V471.858H6.00112ZM3.00055 559.161H113.422V562.876H3.00055V559.161ZM113.422 559.161C120.212 559.161 125.987 557.671 130.903 554.628L135.147 557.255C129.128 560.981 121.834 562.876 113.422 562.876V559.161ZM130.903 554.628C135.819 551.585 138.227 548.009 138.227 543.806H144.228C144.228 549.013 141.166 553.528 135.147 557.255L130.903 554.628ZM138.227 543.806V526.345H144.228V543.806H138.227ZM138.227 526.345C138.227 525.367 138.105 524.438 137.867 523.554L143.787 522.944C144.083 524.042 144.228 525.176 144.228 526.345H138.227ZM137.867 523.554C137.643 522.723 137.252 521.929 136.695 521.169L142.158 519.632C142.934 520.689 143.477 521.794 143.787 522.944L137.867 523.554ZM137.013 519.297C139.138 517.518 140.809 515.675 142.041 513.767L147.613 515.146C146.179 517.367 144.25 519.486 141.839 521.505L137.013 519.297ZM142.081 513.709C143.397 511.859 144.028 510.048 144.028 508.265H150.029C150.029 510.609 149.193 512.927 147.574 515.205L142.081 513.709ZM144.028 508.265V489.071H150.029V508.265H144.028ZM144.028 489.071C144.028 484.867 141.62 481.291 136.704 478.248L140.948 475.621C146.967 479.348 150.029 483.863 150.029 489.071H144.028ZM136.704 478.248C131.8 475.212 125.962 473.715 119.023 473.715V470C127.553 470 134.918 471.888 140.948 475.621L136.704 478.248ZM119.023 473.715H3.00055V470H119.023V473.715ZM36.4069 486.47H113.422V490.185H36.4069V486.47ZM113.422 486.47C115.259 486.47 116.787 486.501 117.962 486.572C118.545 486.606 119.108 486.655 119.61 486.726C120.015 486.785 120.763 486.907 121.423 487.213L117.823 490.185C118.216 490.368 118.505 490.381 118.261 490.347C118.112 490.325 117.833 490.297 117.384 490.269C116.49 490.216 115.184 490.185 113.422 490.185V486.47ZM121.744 487.386C122.415 487.801 122.706 488.308 122.847 488.599C123.014 488.942 123.123 489.323 123.201 489.707C123.357 490.48 123.424 491.476 123.424 492.662H117.423C117.423 491.536 117.357 490.716 117.246 490.168C117.19 489.892 117.133 489.736 117.099 489.666C117.04 489.544 117.098 489.763 117.501 490.012L121.744 487.386ZM123.424 492.662V504.674H117.423V492.662H123.424ZM123.424 504.674C123.424 505.858 123.357 506.848 123.199 507.605C123.121 507.979 123.008 508.361 122.827 508.706C122.688 508.971 122.337 509.575 121.423 509.999L117.823 507.027C117.456 507.197 117.273 507.377 117.205 507.45C117.132 507.53 117.111 507.576 117.119 507.56C117.138 507.524 117.192 507.395 117.247 507.129C117.356 506.607 117.423 505.802 117.423 504.674H123.424ZM121.744 509.826C121.087 510.233 120.29 510.415 119.817 510.505C119.268 510.609 118.663 510.678 118.057 510.726C116.836 510.824 115.272 510.866 113.422 510.866V507.15C115.171 507.15 116.441 507.11 117.289 507.042C117.715 507.008 117.952 506.973 118.053 506.954C118.23 506.92 117.891 506.958 117.501 507.199L121.744 509.826ZM113.422 510.866H36.4069V507.15H113.422V510.866ZM36.4069 510.866C34.4916 510.866 32.8819 510.824 31.6339 510.727C31.0136 510.679 30.3988 510.612 29.8437 510.508C29.3737 510.422 28.5541 510.241 27.884 509.826L32.1274 507.199C31.724 506.949 31.3712 506.913 31.5681 506.95C31.6797 506.971 31.9317 507.006 32.3782 507.041C33.264 507.11 34.5881 507.15 36.4069 507.15V510.866ZM27.884 509.826C27.1407 509.366 26.9076 508.776 26.8276 508.573C26.7047 508.259 26.6252 507.906 26.569 507.546C26.4551 506.818 26.405 505.85 26.405 504.674H32.4061C32.4061 505.809 32.456 506.637 32.5423 507.188C32.586 507.468 32.6316 507.625 32.6587 507.694C32.6721 507.728 32.666 507.702 32.623 507.64C32.5926 507.596 32.4567 507.403 32.1274 507.199L27.884 509.826ZM26.405 504.674V492.662H32.4061V504.674H26.405ZM26.405 492.662C26.405 491.483 26.4553 490.509 26.5681 489.764C26.6242 489.394 26.7016 489.039 26.8158 488.724C26.9064 488.476 27.1013 488.001 27.6052 487.585L32.4061 489.814C32.71 489.563 32.7299 489.377 32.6706 489.541C32.6347 489.639 32.5871 489.82 32.5431 490.111C32.4558 490.687 32.4061 491.528 32.4061 492.662H26.405ZM28.2053 487.213C28.8772 486.901 29.6444 486.78 30.0472 486.725C30.5546 486.654 31.128 486.606 31.726 486.571C32.9296 486.501 34.5039 486.47 36.4069 486.47V490.185C34.5758 490.185 33.2163 490.216 32.2861 490.27C31.8173 490.297 31.5239 490.326 31.3645 490.349C31.1005 490.386 31.4009 490.373 31.806 490.185L28.2053 487.213ZM36.4069 523.62H107.621V527.336H36.4069V523.62ZM107.621 523.62C109.456 523.62 110.972 523.651 112.12 523.723C112.688 523.758 113.249 523.807 113.749 523.885C114.087 523.937 115.013 524.084 115.743 524.536L111.499 527.163C111.819 527.36 112.118 527.443 112.194 527.464C112.296 527.492 112.343 527.497 112.294 527.489C112.195 527.474 111.956 527.446 111.522 527.419C110.67 527.366 109.386 527.336 107.621 527.336V523.62ZM115.743 524.536C116.413 524.951 116.704 525.458 116.845 525.749C117.013 526.093 117.122 526.474 117.2 526.858C117.356 527.63 117.423 528.627 117.423 529.812H111.421C111.421 528.687 111.355 527.867 111.244 527.318C111.188 527.042 111.131 526.886 111.097 526.817C111.038 526.695 111.096 526.913 111.499 527.163L115.743 524.536ZM117.423 529.812V540.214H111.421V529.812H117.423ZM117.423 540.214C117.423 541.398 117.356 542.388 117.198 543.146C117.12 543.52 117.007 543.902 116.825 544.247C116.686 544.512 116.335 545.115 115.422 545.539L111.822 542.567C111.454 542.738 111.271 542.918 111.204 542.99C111.13 543.071 111.109 543.117 111.117 543.101C111.136 543.064 111.19 542.936 111.245 542.67C111.354 542.147 111.421 541.343 111.421 540.214H117.423ZM116.022 545.168C115.351 545.721 114.407 545.942 113.97 546.032C113.417 546.146 112.809 546.217 112.218 546.266C111.022 546.365 109.468 546.406 107.621 546.406V542.691C109.374 542.691 110.619 542.65 111.424 542.583C111.834 542.55 112.026 542.518 112.073 542.508C112.093 542.503 112.015 542.518 111.885 542.565C111.765 542.608 111.485 542.72 111.221 542.939L116.022 545.168ZM107.621 546.406H36.4069V542.691H107.621V546.406ZM36.4069 546.406C34.4916 546.406 32.8819 546.365 31.6339 546.268C31.0136 546.22 30.3988 546.152 29.8437 546.049C29.3737 545.962 28.5541 545.781 27.884 545.367L32.1274 542.74C31.724 542.49 31.3712 542.454 31.5681 542.491C31.6797 542.512 31.9317 542.547 32.3782 542.581C33.264 542.65 34.5881 542.691 36.4069 542.691V546.406ZM27.884 545.367C27.1407 544.906 26.9076 544.316 26.8276 544.113C26.7047 543.8 26.6252 543.446 26.569 543.087C26.4551 542.359 26.405 541.391 26.405 540.214H32.4061C32.4061 541.349 32.456 542.178 32.5423 542.729C32.586 543.009 32.6316 543.166 32.6587 543.235C32.6721 543.269 32.666 543.242 32.623 543.18C32.5926 543.136 32.4567 542.944 32.1274 542.74L27.884 545.367ZM26.405 540.214V529.812H32.4061V540.214H26.405ZM26.405 529.812C26.405 528.634 26.4553 527.659 26.5681 526.915C26.6242 526.544 26.7016 526.189 26.8158 525.875C26.9064 525.626 27.1013 525.151 27.6052 524.735L32.4061 526.964C32.71 526.713 32.7299 526.528 32.6706 526.691C32.6347 526.789 32.5871 526.971 32.5431 527.261C32.4558 527.837 32.4061 528.679 32.4061 529.812H26.405ZM28.2053 524.364C28.8772 524.051 29.6444 523.931 30.0472 523.875C30.5546 523.804 31.128 523.756 31.726 523.721C32.9296 523.651 34.5039 523.62 36.4069 523.62V527.336C34.5758 527.336 33.2163 527.367 32.2861 527.42C31.8173 527.448 31.5239 527.477 31.3645 527.499C31.1004 527.536 31.4009 527.524 31.806 527.336L28.2053 524.364ZM191.043 471.858H188.042V470H191.043V471.858ZM191.043 561.142V563H188.042V561.142H191.043ZM217.448 561.142H220.448V563H217.448V561.142ZM217.448 488.328H214.447V486.47H217.448V488.328ZM335.07 488.328H338.071V490.185H335.07V488.328ZM335.07 471.858V470H338.071V471.858H335.07ZM194.043 471.858V561.142H188.042V471.858H194.043ZM191.043 559.285H217.448V563H191.043V559.285ZM214.447 561.142V488.328H220.448V561.142H214.447ZM217.448 486.47H335.07V490.185H217.448V486.47ZM332.069 488.328V471.858H338.071V488.328H332.069ZM335.07 473.715H191.043V470H335.07V473.715ZM376.537 476.935L378.659 478.248L376.537 476.935ZM368.335 561.019V562.876H365.335V561.019H368.335ZM394.74 561.019H397.741V562.876H394.74V561.019ZM395.34 488.699L392.94 487.585L393.197 487.372L393.54 487.213L395.34 488.699ZM484.957 488.699L486.758 487.213L486.929 487.292L487.08 487.386L484.957 488.699ZM485.758 561.019V562.876H482.757V561.019H485.758ZM512.363 561.019H515.363V562.876H512.363V561.019ZM396.141 473.715C389.35 473.715 383.575 475.205 378.659 478.248L374.415 475.621C380.435 471.895 387.728 470 396.141 470V473.715ZM378.659 478.248C373.743 481.291 371.336 484.867 371.336 489.071H365.335C365.335 483.863 368.396 479.348 374.415 475.621L378.659 478.248ZM371.336 489.071V561.019H365.335V489.071H371.336ZM368.335 559.161H394.74V562.876H368.335V559.161ZM391.74 561.019V492.662H397.741V561.019H391.74ZM391.74 492.662C391.74 491.483 391.791 490.509 391.903 489.764C391.96 489.394 392.037 489.039 392.151 488.724C392.242 488.476 392.437 488.001 392.94 487.585L397.741 489.814C398.045 489.563 398.065 489.377 398.006 489.541C397.97 489.639 397.922 489.82 397.878 490.111C397.791 490.687 397.741 491.528 397.741 492.662H391.74ZM393.54 487.213C394.212 486.901 394.979 486.78 395.382 486.725C395.889 486.654 396.463 486.606 397.061 486.571C398.265 486.501 399.839 486.47 401.742 486.47V490.185C399.911 490.185 398.551 490.216 397.621 490.27C397.153 490.297 396.859 490.326 396.7 490.349C396.436 490.386 396.736 490.373 397.141 490.185L393.54 487.213ZM401.742 486.47H478.756V490.185H401.742V486.47ZM478.756 486.47C480.595 486.47 482.122 486.501 483.296 486.572C483.88 486.606 484.443 486.655 484.944 486.726C485.351 486.785 486.099 486.907 486.758 487.213L483.157 490.185C483.55 490.368 483.84 490.381 483.595 490.347C483.447 490.325 483.168 490.297 482.718 490.269C481.826 490.216 480.52 490.185 478.756 490.185V486.47ZM487.08 487.386C487.75 487.801 488.041 488.308 488.182 488.599C488.348 488.942 488.458 489.323 488.535 489.707C488.691 490.48 488.758 491.476 488.758 492.662H482.757C482.757 491.536 482.691 490.716 482.581 490.168C482.525 489.892 482.467 489.736 482.434 489.666C482.375 489.544 482.433 489.763 482.836 490.012L487.08 487.386ZM488.758 492.662V561.019H482.757V492.662H488.758ZM485.758 559.161H512.363V562.876H485.758V559.161ZM509.362 561.019V489.071H515.363V561.019H509.362ZM509.362 489.071C509.362 484.867 506.956 481.291 502.04 478.248L506.284 475.621C512.303 479.348 515.363 483.863 515.363 489.071H509.362ZM502.04 478.248C497.124 475.205 491.348 473.715 484.557 473.715V470C492.97 470 500.263 471.895 506.284 475.621L502.04 478.248ZM484.557 473.715H396.141V470H484.557V473.715ZM556.796 471.858H553.796V470H556.796V471.858ZM556.796 561.019V562.876H553.796V561.019H556.796ZM689.421 561.019H692.422V562.876H689.421V561.019ZM689.421 544.549V542.691H692.422V544.549H689.421ZM583.401 544.549V546.406H580.401V544.549H583.401ZM583.401 524.735H580.401V522.878H583.401V524.735ZM668.617 524.735H671.618V526.593H668.617V524.735ZM668.617 508.265V506.407H671.618V508.265H668.617ZM583.401 508.265V510.122H580.401V508.265H583.401ZM583.401 488.328H580.401V486.47H583.401V488.328ZM689.421 488.328H692.422V490.185H689.421V488.328ZM689.421 471.858V470H692.422V471.858H689.421ZM559.797 471.858V561.019H553.796V471.858H559.797ZM556.796 559.161H689.421V562.876H556.796V559.161ZM686.421 561.019V544.549H692.422V561.019H686.421ZM689.421 546.406H583.401V542.691H689.421V546.406ZM580.401 544.549V524.735H586.402V544.549H580.401ZM583.401 522.878H668.617V526.593H583.401V522.878ZM665.617 524.735V508.265H671.618V524.735H665.617ZM668.617 510.122H583.401V506.407H668.617V510.122ZM580.401 508.265V488.328H586.402V508.265H580.401ZM583.401 486.47H689.421V490.185H583.401V486.47ZM686.421 488.328V471.858H692.422V488.328H686.421ZM689.421 473.715H556.796V470H689.421V473.715ZM727.061 471.858H724.061V470H727.061V471.858ZM727.061 561.019V562.876H724.061V561.019H727.061ZM756.067 561.019L758.365 562.213L757.466 562.876H756.067V561.019ZM808.277 522.506L805.978 521.312L808.282 519.613L810.579 521.315L808.277 522.506ZM860.287 561.019V562.876H858.884L857.985 562.21L860.287 561.019ZM889.492 561.019H892.493V562.876H889.492V561.019ZM889.492 471.858V470H892.493V471.858H889.492ZM862.887 471.858H859.887V470H862.887V471.858ZM862.887 537.242H865.888V542.342L860.59 538.437L862.887 537.242ZM808.277 496.996L805.985 495.797L808.285 494.114L810.574 495.801L808.277 496.996ZM753.466 537.119L755.758 538.318L750.466 542.191V537.119H753.466ZM753.466 471.858V470H756.467V471.858H753.466ZM730.062 471.858V561.019H724.061V471.858H730.062ZM727.061 559.161H756.067V562.876H727.061V559.161ZM753.769 559.824L805.978 521.312L810.575 523.7L758.365 562.213L753.769 559.824ZM810.579 521.315L862.589 559.827L857.985 562.21L805.975 523.697L810.579 521.315ZM860.287 559.161H889.492V562.876H860.287V559.161ZM886.492 561.019V471.858H892.493V561.019H886.492ZM889.492 473.715H862.887V470H889.492V473.715ZM865.888 471.858V537.242H859.887V471.858H865.888ZM860.59 538.437L805.979 498.191L810.574 495.801L865.185 536.047L860.59 538.437ZM810.568 498.195L755.758 538.318L751.175 535.919L805.985 495.797L810.568 498.195ZM750.466 537.119V471.858H756.467V537.119H750.466ZM753.466 473.715H727.061V470H753.466V473.715ZM942.449 476.935L944.571 478.248L942.449 476.935ZM942.449 555.941L944.571 554.628L942.449 555.941ZM1050.87 488.699L1052.67 487.213L1052.84 487.292L1052.99 487.386L1050.87 488.699ZM1050.87 544.053L1048.75 542.74L1048.9 542.646L1049.07 542.567L1050.87 544.053ZM961.253 544.053L963.374 542.74L961.253 544.053ZM961.253 488.699L958.852 487.585L959.11 487.372L959.453 487.213L961.253 488.699ZM962.053 473.715C955.263 473.715 949.487 475.205 944.571 478.248L940.328 475.621C946.347 471.895 953.64 470 962.053 470V473.715ZM944.571 478.248C939.655 481.291 937.248 484.867 937.248 489.071H931.247C931.247 483.863 934.308 479.348 940.328 475.621L944.571 478.248ZM937.248 489.071V543.806H931.247V489.071H937.248ZM937.248 543.806C937.248 548.009 939.655 551.585 944.571 554.628L940.328 557.255C934.308 553.528 931.247 549.013 931.247 543.806H937.248ZM944.571 554.628C949.487 557.671 955.263 559.161 962.053 559.161V562.876C953.64 562.876 946.347 560.981 940.328 557.255L944.571 554.628ZM962.053 559.161H1050.47V562.876H962.053V559.161ZM1050.47 559.161C1057.26 559.161 1063.04 557.671 1067.96 554.628L1072.2 557.255C1066.18 560.981 1058.88 562.876 1050.47 562.876V559.161ZM1067.96 554.628C1072.87 551.585 1075.28 548.009 1075.28 543.806H1081.28C1081.28 549.013 1078.22 553.528 1072.2 557.255L1067.96 554.628ZM1075.28 543.806V489.071H1081.28V543.806H1075.28ZM1075.28 489.071C1075.28 484.867 1072.87 481.291 1067.96 478.248L1072.2 475.621C1078.22 479.348 1081.28 483.863 1081.28 489.071H1075.28ZM1067.96 478.248C1063.04 475.205 1057.26 473.715 1050.47 473.715V470C1058.88 470 1066.18 471.895 1072.2 475.621L1067.96 478.248ZM1050.47 473.715H962.053V470H1050.47V473.715ZM967.654 486.47H1044.67V490.185H967.654V486.47ZM1044.67 486.47C1046.5 486.47 1048.03 486.501 1049.21 486.572C1049.79 486.606 1050.35 486.655 1050.85 486.726C1051.26 486.785 1052.01 486.907 1052.67 487.213L1049.07 490.185C1049.46 490.368 1049.75 490.381 1049.5 490.347C1049.36 490.325 1049.08 490.297 1048.63 490.269C1047.74 490.216 1046.43 490.185 1044.67 490.185V486.47ZM1052.99 487.386C1053.66 487.801 1053.95 488.308 1054.09 488.599C1054.26 488.942 1054.37 489.323 1054.44 489.707C1054.6 490.48 1054.67 491.476 1054.67 492.662H1048.67C1048.67 491.536 1048.6 490.716 1048.49 490.168C1048.43 489.892 1048.38 489.736 1048.34 489.666C1048.28 489.544 1048.34 489.763 1048.75 490.012L1052.99 487.386ZM1054.67 492.662V540.214H1048.67V492.662H1054.67ZM1054.67 540.214C1054.67 541.398 1054.6 542.388 1054.44 543.146C1054.36 543.52 1054.25 543.902 1054.07 544.247C1053.93 544.512 1053.58 545.115 1052.67 545.539L1049.07 542.567C1048.7 542.738 1048.52 542.918 1048.45 542.99C1048.38 543.071 1048.35 543.117 1048.36 543.101C1048.38 543.064 1048.44 542.936 1048.49 542.67C1048.6 542.147 1048.67 541.343 1048.67 540.214H1054.67ZM1052.99 545.367C1052.33 545.773 1051.53 545.955 1051.06 546.045C1050.51 546.15 1049.91 546.219 1049.3 546.267C1048.08 546.365 1046.52 546.406 1044.67 546.406V542.691C1046.42 542.691 1047.69 542.65 1048.53 542.583C1048.96 542.549 1049.2 542.514 1049.3 542.495C1049.47 542.461 1049.14 542.499 1048.75 542.74L1052.99 545.367ZM1044.67 546.406H967.654V542.691H1044.67V546.406ZM967.654 546.406C965.739 546.406 964.129 546.365 962.881 546.268C962.261 546.22 961.646 546.152 961.091 546.049C960.621 545.962 959.802 545.781 959.131 545.367L963.374 542.74C962.971 542.49 962.618 542.454 962.815 542.491C962.927 542.512 963.179 542.547 963.625 542.581C964.512 542.65 965.836 542.691 967.654 542.691V546.406ZM959.131 545.367C958.388 544.906 958.155 544.316 958.075 544.113C957.952 543.8 957.872 543.446 957.816 543.087C957.702 542.359 957.652 541.391 957.652 540.214H963.653C963.653 541.349 963.703 542.178 963.789 542.729C963.833 543.009 963.878 543.166 963.906 543.235C963.919 543.269 963.913 543.242 963.87 543.18C963.839 543.136 963.704 542.944 963.374 542.74L959.131 545.367ZM957.652 540.214V492.662H963.653V540.214H957.652ZM957.652 492.662C957.652 491.483 957.702 490.509 957.815 489.764C957.871 489.394 957.949 489.039 958.063 488.724C958.153 488.476 958.348 488.001 958.852 487.585L963.653 489.814C963.957 489.563 963.977 489.377 963.917 489.541C963.881 489.639 963.834 489.82 963.79 490.111C963.703 490.687 963.653 491.528 963.653 492.662H957.652ZM959.453 487.213C960.125 486.901 960.892 486.78 961.295 486.725C961.802 486.654 962.375 486.606 962.973 486.571C964.176 486.501 965.751 486.47 967.654 486.47V490.185C965.823 490.185 964.464 490.216 963.533 490.27C963.064 490.297 962.771 490.326 962.612 490.349C962.348 490.386 962.648 490.373 963.053 490.185L959.453 487.213ZM1130.11 476.935L1132.23 478.248L1130.11 476.935ZM1130.11 555.941L1132.23 554.628L1130.11 555.941ZM1238.53 488.699L1240.33 487.213L1240.5 487.292L1240.65 487.386L1238.53 488.699ZM1238.53 544.053L1236.41 542.74L1236.56 542.646L1236.73 542.567L1238.53 544.053ZM1148.91 544.053L1151.03 542.74L1148.91 544.053ZM1148.91 488.699L1146.51 487.585L1146.77 487.372L1147.11 487.213L1148.91 488.699ZM1149.71 473.715C1142.92 473.715 1137.15 475.205 1132.23 478.248L1127.99 475.621C1134.01 471.895 1141.3 470 1149.71 470V473.715ZM1132.23 478.248C1127.32 481.291 1124.91 484.867 1124.91 489.071H1118.91C1118.91 483.863 1121.97 479.348 1127.99 475.621L1132.23 478.248ZM1124.91 489.071V543.806H1118.91V489.071H1124.91ZM1124.91 543.806C1124.91 548.009 1127.32 551.585 1132.23 554.628L1127.99 557.255C1121.97 553.528 1118.91 549.013 1118.91 543.806H1124.91ZM1132.23 554.628C1137.15 557.671 1142.92 559.161 1149.71 559.161V562.876C1141.3 562.876 1134.01 560.981 1127.99 557.255L1132.23 554.628ZM1149.71 559.161H1238.13V562.876H1149.71V559.161ZM1238.13 559.161C1244.92 559.161 1250.7 557.671 1255.61 554.628L1259.85 557.255C1253.83 560.981 1246.54 562.876 1238.13 562.876V559.161ZM1255.61 554.628C1260.53 551.585 1262.93 548.009 1262.93 543.806H1268.93C1268.93 549.013 1265.87 553.528 1259.85 557.255L1255.61 554.628ZM1262.93 543.806V489.071H1268.93V543.806H1262.93ZM1262.93 489.071C1262.93 484.867 1260.53 481.291 1255.61 478.248L1259.85 475.621C1265.87 479.348 1268.93 483.863 1268.93 489.071H1262.93ZM1255.61 478.248C1250.7 475.205 1244.92 473.715 1238.13 473.715V470C1246.54 470 1253.83 471.895 1259.85 475.621L1255.61 478.248ZM1238.13 473.715H1149.71V470H1238.13V473.715ZM1155.31 486.47H1232.33V490.185H1155.31V486.47ZM1232.33 486.47C1234.17 486.47 1235.7 486.501 1236.87 486.572C1237.45 486.606 1238.02 486.655 1238.52 486.726C1238.92 486.785 1239.67 486.907 1240.33 487.213L1236.73 490.185C1237.13 490.368 1237.41 490.381 1237.17 490.347C1237.02 490.325 1236.74 490.297 1236.29 490.269C1235.4 490.216 1234.09 490.185 1232.33 490.185V486.47ZM1240.65 487.386C1241.32 487.801 1241.61 488.308 1241.76 488.599C1241.92 488.942 1242.03 489.323 1242.11 489.707C1242.26 490.48 1242.33 491.476 1242.33 492.662H1236.33C1236.33 491.536 1236.27 490.716 1236.16 490.168C1236.1 489.892 1236.04 489.736 1236.01 489.666C1235.95 489.544 1236.01 489.763 1236.41 490.012L1240.65 487.386ZM1242.33 492.662V540.214H1236.33V492.662H1242.33ZM1242.33 540.214C1242.33 541.398 1242.27 542.388 1242.11 543.146C1242.03 543.52 1241.92 543.902 1241.74 544.247C1241.6 544.512 1241.25 545.115 1240.33 545.539L1236.73 542.567C1236.37 542.738 1236.18 542.918 1236.11 542.99C1236.04 543.071 1236.02 543.117 1236.03 543.101C1236.05 543.064 1236.1 542.936 1236.16 542.67C1236.27 542.147 1236.33 541.343 1236.33 540.214H1242.33ZM1240.65 545.367C1240 545.773 1239.2 545.955 1238.73 546.045C1238.18 546.15 1237.57 546.219 1236.97 546.267C1235.75 546.365 1234.18 546.406 1232.33 546.406V542.691C1234.08 542.691 1235.35 542.65 1236.2 542.583C1236.62 542.549 1236.86 542.514 1236.96 542.495C1237.14 542.461 1236.8 542.499 1236.41 542.74L1240.65 545.367ZM1232.33 546.406H1155.31V542.691H1232.33V546.406ZM1155.31 546.406C1153.4 546.406 1151.79 546.365 1150.54 546.268C1149.92 546.22 1149.31 546.152 1148.75 546.049C1148.28 545.962 1147.46 545.781 1146.79 545.367L1151.03 542.74C1150.63 542.49 1150.28 542.454 1150.47 542.491C1150.59 542.512 1150.84 542.547 1151.28 542.581C1152.17 542.65 1153.49 542.691 1155.31 542.691V546.406ZM1146.79 545.367C1146.05 544.906 1145.81 544.316 1145.73 544.113C1145.61 543.8 1145.53 543.446 1145.48 543.087C1145.36 542.359 1145.31 541.391 1145.31 540.214H1151.31C1151.31 541.349 1151.36 542.178 1151.45 542.729C1151.49 543.009 1151.54 543.166 1151.56 543.235C1151.58 543.269 1151.57 543.242 1151.53 543.18C1151.5 543.136 1151.36 542.944 1151.03 542.74L1146.79 545.367ZM1145.31 540.214V492.662H1151.31V540.214H1145.31ZM1145.31 492.662C1145.31 491.483 1145.36 490.509 1145.48 489.764C1145.53 489.394 1145.61 489.039 1145.72 488.724C1145.81 488.476 1146.01 488.001 1146.51 487.585L1151.31 489.814C1151.62 489.563 1151.64 489.377 1151.58 489.541C1151.54 489.639 1151.49 489.82 1151.45 490.111C1151.36 490.687 1151.31 491.528 1151.31 492.662H1145.31ZM1147.11 487.213C1147.78 486.901 1148.55 486.78 1148.95 486.725C1149.46 486.654 1150.03 486.606 1150.63 486.571C1151.84 486.501 1153.41 486.47 1155.31 486.47V490.185C1153.48 490.185 1152.12 490.216 1151.19 490.27C1150.72 490.297 1150.43 490.326 1150.27 490.349C1150.01 490.386 1150.31 490.373 1150.71 490.185L1147.11 487.213ZM1309.97 471.858H1306.97V470H1309.97V471.858ZM1309.97 561.019V562.876H1306.97V561.019H1309.97ZM1338.98 561.019L1341.27 562.214L1340.37 562.876H1338.98V561.019ZM1427.39 495.881L1425.09 494.686L1430.4 490.784V495.881H1427.39ZM1427.39 561.019V562.876H1424.39V561.019H1427.39ZM1454 561.019H1457V562.876H1454V561.019ZM1454 471.858V470H1457V471.858H1454ZM1424.99 471.858L1422.69 470.663L1423.59 470H1424.99V471.858ZM1336.38 537.119L1338.67 538.314L1333.38 542.215V537.119H1336.38ZM1336.38 471.858V470H1339.38V471.858H1336.38ZM1312.97 471.858V561.019H1306.97V471.858H1312.97ZM1309.97 559.161H1338.98V562.876H1309.97V559.161ZM1336.68 559.824L1425.09 494.686L1429.68 497.076L1341.27 562.214L1336.68 559.824ZM1430.4 495.881V561.019H1424.39V495.881H1430.4ZM1427.39 559.161H1454V562.876H1427.39V559.161ZM1451 561.019V471.858H1457V561.019H1451ZM1454 473.715H1424.99V470H1454V473.715ZM1427.28 473.053L1338.67 538.314L1334.08 535.923L1422.69 470.663L1427.28 473.053ZM1333.38 537.119V471.858H1339.38V537.119H1333.38ZM1336.38 473.715H1309.97V470H1336.38V473.715Z" fill="#00E0FF"/>
</g>
</svg>
